<?xml version="1.0" standalone="no"?>
<!DOCTYPE svg PUBLIC "-//W3C//DTD SVG 1.1//EN" "http://www.w3.org/Graphics/SVG/1.1/DTD/svg11.dtd" >
<svg xmlns="http://www.w3.org/2000/svg">
<metadata></metadata>
<defs>
<font id="edp_preon_lightregular" horiz-adv-x="706" >
<font-face units-per-em="1000" ascent="750" descent="-250" />
<missing-glyph horiz-adv-x="365" />
<glyph unicode="ff" horiz-adv-x="733" d="M501 24v446h-303v-446q0 -11 -8.5 -19.5t-19.5 -8.5q-12 0 -20 8.5t-8 19.5v446h-82q-11 0 -19.5 7.5t-8.5 18.5q0 12 8 19t20 7h82v61q0 95 54.5 151t145.5 56q15 0 24 -8t9 -20q0 -11 -9 -18.5t-24 -7.5q-68 0 -106 -42t-38 -111v-61h303v61q0 95 54 151t146 56 q32 0 32 -28q0 -11 -8.5 -18.5t-23.5 -7.5q-68 0 -106.5 -42t-38.5 -111v-61h136q12 0 20 -7t8 -19q0 -11 -8.5 -18.5t-19.5 -7.5h-136v-446q0 -11 -8 -19.5t-19 -8.5q-12 0 -20 8.5t-8 19.5z" />
<glyph unicode="ffi" horiz-adv-x="1017" d="M847 24v474q0 11 8 19.5t20 8.5q11 0 19.5 -8.5t8.5 -19.5v-474q0 -11 -8.5 -19.5t-19.5 -8.5q-12 0 -20 8.5t-8 19.5zM832 674q0 19 12.5 31t30.5 12t30.5 -12t12.5 -31t-12.5 -31t-30.5 -12t-30.5 12t-12.5 31zM501 24v446h-303v-446q0 -11 -8.5 -19.5t-19.5 -8.5 q-12 0 -20 8.5t-8 19.5v446h-82q-11 0 -19.5 7.5t-8.5 18.5q0 12 8 19t20 7h82v61q0 95 54.5 151t145.5 56q15 0 24 -8t9 -20q0 -11 -9 -18.5t-24 -7.5q-68 0 -106 -42t-38 -111v-61h303v61q0 95 54 151t146 56q32 0 32 -28q0 -11 -8.5 -18.5t-23.5 -7.5q-68 0 -106.5 -42 t-38.5 -111v-61h136q12 0 20 -7t8 -19q0 -11 -8.5 -18.5t-19.5 -7.5h-136v-446q0 -11 -8 -19.5t-19 -8.5q-12 0 -20 8.5t-8 19.5z" />
<glyph unicode="ffl" horiz-adv-x="1017" d="M903 762v-738q0 -11 -8.5 -19.5t-19.5 -8.5q-12 0 -20 8.5t-8 19.5v738q0 11 8 19.5t20 8.5q11 0 19.5 -8.5t8.5 -19.5zM501 24v446h-303v-446q0 -11 -8.5 -19.5t-19.5 -8.5q-12 0 -20 8.5t-8 19.5v446h-82q-11 0 -19.5 7.5t-8.5 18.5q0 12 8 19t20 7h82v61 q0 95 54.5 151t145.5 56q15 0 24 -8t9 -20q0 -11 -9 -18.5t-24 -7.5q-68 0 -106 -42t-38 -111v-61h303v61q0 95 54 151t146 56q32 0 32 -28q0 -11 -8.5 -18.5t-23.5 -7.5q-68 0 -106.5 -42t-38.5 -111v-61h136q12 0 20 -7t8 -19q0 -11 -8.5 -18.5t-19.5 -7.5h-136v-446 q0 -11 -8 -19.5t-19 -8.5q-12 0 -20 8.5t-8 19.5z" />
<glyph unicode=" "  horiz-adv-x="365" />
<glyph unicode="&#x09;" horiz-adv-x="365" />
<glyph unicode="&#xa0;" horiz-adv-x="365" />
<glyph unicode="!" horiz-adv-x="230" d="M69 42q0 19 13.5 32.5t32.5 13.5t32.5 -13t13.5 -33t-13.5 -33t-32.5 -13t-32.5 13.5t-13.5 32.5zM143 676v-448q0 -11 -8 -19.5t-20 -8.5t-20 8.5t-8 19.5v448q0 11 8 19.5t20 8.5t20 -8.5t8 -19.5z" />
<glyph unicode="&#x22;" horiz-adv-x="395" d="M262 465v212q0 11 8 19.5t20 8.5t20 -8.5t8 -19.5v-212q0 -11 -8 -19.5t-20 -8.5t-20 8.5t-8 19.5zM77 465v212q0 11 8 19.5t20 8.5t20 -8.5t8 -19.5v-212q0 -11 -8 -19.5t-20 -8.5t-20 8.5t-8 19.5z" />
<glyph unicode="#" horiz-adv-x="730" d="M102 515h162l62 169q8 20 27 20q14 0 21.5 -11.5t1.5 -26.5l-55 -151h206l62 169q8 20 27 20q14 0 21.5 -11.5t1.5 -26.5l-55 -151h106q10 0 17.5 -7.5t7.5 -17.5t-7.5 -17.5t-17.5 -7.5h-124l-83 -230h147q10 0 17.5 -7.5t7.5 -17.5t-7.5 -17.5t-17.5 -7.5h-165 l-61 -169q-8 -20 -27 -20q-14 0 -22 11.5t-2 26.5l55 151h-206l-61 -169q-8 -20 -27 -20q-14 0 -22 11.5t-2 26.5l55 151h-103q-10 0 -17.5 7.5t-7.5 17.5t7.5 17.5t17.5 7.5h121l83 230h-144q-10 0 -17.5 7.5t-7.5 17.5t7.5 17.5t17.5 7.5zM303 465l-83 -230h206l83 230 h-206z" />
<glyph unicode="$" horiz-adv-x="730" d="M400 765v-50q117 -3 206 -51q23 -14 10.5 -36.5t-37.5 -9.5q-78 42 -179 45v-294q44 -9 72 -16t63.5 -22t56 -33.5t35 -49t14.5 -69.5q0 -80 -66 -133t-175 -60v-51q0 -11 -7 -18t-18 -7t-18 7t-7 18v50q-84 2 -140.5 20.5t-106.5 52.5q-24 19 -9 39t39 5q95 -61 217 -65 v291q-45 8 -73.5 15.5t-64.5 22t-56.5 33.5t-35 50.5t-14.5 71.5q0 73 61 129t183 64v51q0 11 7 18t18 7t18 -7t7 -18zM161 521q0 -34 14.5 -58.5t43.5 -40.5t58 -25t73 -18v283q-94 -7 -141.5 -47.5t-47.5 -93.5zM586 179q0 33 -14 57.5t-43 40t-57 24t-72 17.5v-280 q86 7 136 46t50 95z" />
<glyph unicode="%" horiz-adv-x="890" d="M227 715q78 0 126 -49.5t48 -133.5q0 -81 -48 -131.5t-130 -50.5q-77 0 -125 49t-48 133q0 82 47.5 132.5t129.5 50.5zM227 665q-59 0 -93 -36.5t-34 -96.5q0 -61 34 -96.5t89 -35.5q59 0 93.5 36.5t34.5 95.5q0 61 -34 97t-90 36zM666 350q78 0 126 -49.5t48 -133.5 q0 -81 -48 -131.5t-130 -50.5q-77 0 -125 49t-48 133q0 82 47.5 132.5t129.5 50.5zM666 300q-59 0 -93 -36.5t-34 -96.5q0 -61 34 -96.5t89 -35.5q59 0 93.5 36.5t34.5 95.5q0 61 -34 97t-90 36zM705 626l-489 -582q-9 -11 -20 -11q-17 0 -23.5 14.5t5.5 28.5l488 581 q9 11 20 11q17 0 23.5 -14t-4.5 -28z" />
<glyph unicode="&#x26;" horiz-adv-x="849" d="M793 348h-145q-11 -137 -92 -234q108 -49 226 -68q18 -3 23 -17t-4.5 -25t-26.5 -8q-130 20 -254 80q-102 -91 -245 -91q-113 0 -173 50t-60 130q0 75 48.5 115t135.5 66q-37 76 -37 148q0 97 59.5 159t150.5 62q84 0 132 -50.5t48 -120.5q0 -43 -17 -77t-37 -54 t-63.5 -39.5t-67.5 -27t-78 -21.5q-12 -3 -18 -5q71 -108 215 -185q84 95 84 233q0 32 32 32h164q12 0 20.5 -7.5t8.5 -18.5q0 -12 -8.5 -19t-20.5 -7zM241 494q0 -68 34 -134q124 33 166 55q86 44 86 129q0 52 -34.5 87.5t-93.5 35.5q-67 0 -112.5 -48.5t-45.5 -124.5z M276 34q117 0 200 66q-150 86 -227 207q-74 -23 -113.5 -54t-39.5 -86q0 -57 45.5 -95t134.5 -38z" />
<glyph unicode="'" horiz-adv-x="210" d="M77 465v212q0 11 8 19.5t20 8.5t20 -8.5t8 -19.5v-212q0 -11 -8 -19.5t-20 -8.5t-20 8.5t-8 19.5z" />
<glyph unicode="(" horiz-adv-x="378" d="M120 350q0 134 47.5 246.5t129.5 187.5q21 19 40 1t-2 -39q-161 -154 -161 -396t161 -396q21 -21 2 -39t-40 1q-82 75 -129.5 187.5t-47.5 246.5z" />
<glyph unicode=")" horiz-adv-x="378" d="M258 350q0 -134 -47.5 -246.5t-129.5 -187.5q-21 -19 -40 -1t2 39q161 154 161 396t-161 396q-21 21 -2 39t40 -1q82 -75 129.5 -187.5t47.5 -246.5z" />
<glyph unicode="*" horiz-adv-x="493" d="M196 493l-121 67q-19 9 -18.5 26.5t14.5 23.5t33 -4l117 -70l-2 138q-1 13 7.5 22t20.5 9t20 -9t7 -22l-1 -138l116 70q18 12 33.5 4t14.5 -23.5t-19 -26.5l-121 -67l121 -68q25 -12 17 -35q-7 -20 -29 -18q-8 1 -17 7l-116 70l1 -138q1 -13 -7 -22t-20 -9t-20.5 9 t-7.5 22l2 138l-117 -70q-25 -17 -41 3q-15 19 1 35l11 8z" />
<glyph unicode="+" horiz-adv-x="670" d="M572 233h-209v-209q0 -11 -8 -19.5t-20 -8.5t-20 8.5t-8 19.5v209h-209q-11 0 -19.5 8.5t-8.5 19.5q0 12 8.5 20t19.5 8h209v209q0 11 8 19.5t20 8.5t20 -8.5t8 -19.5v-209h209q11 0 19.5 -8t8.5 -20q0 -11 -8.5 -19.5t-19.5 -8.5z" />
<glyph unicode="," horiz-adv-x="222" d="M40 -78l66 195q6 19 27 19q15 0 23.5 -12t3.5 -26l-67 -194q-6 -16 -21.5 -18.5t-26.5 8.5t-5 28z" />
<glyph unicode="-" horiz-adv-x="485" d="M387 253h-289q-11 0 -19.5 8.5t-8.5 19.5q0 12 8.5 20t19.5 8h289q11 0 19.5 -8t8.5 -20q0 -11 -8.5 -19.5t-19.5 -8.5z" />
<glyph unicode="." horiz-adv-x="222" d="M65 42q0 19 13.5 32.5t32.5 13.5t32.5 -13t13.5 -33t-13.5 -33t-32.5 -13t-32.5 13.5t-13.5 32.5z" />
<glyph unicode="/" horiz-adv-x="498" d="M-14 -51l478 829q10 16 26 16t23.5 -13.5t-1.5 -29.5l-478 -829q-9 -16 -26 -16q-15 0 -23 13.5t1 29.5z" />
<glyph unicode="0" horiz-adv-x="726" d="M366 715q137 0 220 -98.5t83 -266.5q0 -163 -83.5 -264t-226.5 -101q-135 0 -218.5 98.5t-83.5 266.5q0 162 83 263.5t226 101.5zM366 660q-117 0 -185 -85.5t-68 -224.5q0 -143 68 -227t178 -84q117 0 185.5 85.5t68.5 225.5q0 143 -68 226.5t-179 83.5z" />
<glyph unicode="1" horiz-adv-x="442" d="M235 25v596l-171 -121q-14 -10 -28 -2.5t-15 21t13 26.5l209 151q11 8 21 8q12 0 20 -8.5t8 -21.5v-649q0 -12 -8 -20.5t-21 -8.5q-12 0 -20 8.5t-8 20.5z" />
<glyph unicode="2" horiz-adv-x="651" d="M399 235l-259 -181h428q11 0 19 -7.5t8 -19.5t-7.5 -19.5t-19.5 -7.5h-495q-25 0 -30 21t15 35l317 226q83 59 117.5 104t34.5 103q0 74 -58 123t-150 49q-131 0 -219 -102q-11 -13 -27 -10.5t-21 16t6 31.5q99 119 261 119q121 0 193.5 -65t72.5 -159q0 -79 -43.5 -133 t-142.5 -123z" />
<glyph unicode="3" horiz-adv-x="692" d="M345 344q-27 0 -33.5 22t10.5 35l203 177q14 12 14 31q0 15 -10.5 26t-25.5 11h-410q-11 0 -19 7.5t-8 19.5t8 19.5t19 7.5h415q40 0 65 -25.5t25 -60.5q0 -40 -37 -73l-170 -149q105 -9 160 -63t55 -131q0 -88 -79 -150.5t-208 -62.5q-86 0 -155 28.5t-108 77.5 q-18 22 1.5 40t40.5 -1q81 -91 224 -91q100 0 162.5 46.5t62.5 112.5q0 65 -50 105.5t-152 40.5z" />
<glyph unicode="4" horiz-adv-x="709" d="M538 675v-460h118q12 0 20 -7.5t8 -19.5q0 -11 -8 -18.5t-20 -7.5h-118v-137q0 -12 -8.5 -20.5t-20.5 -8.5t-20.5 8.5t-8.5 20.5v137h-349q-41 0 -65.5 26t-24.5 63q0 24 12 45l230 391q10 17 26 17q17 0 25 -13.5t-1 -30.5l-228 -387q-6 -12 -6 -21q0 -14 11 -25.5 t26 -11.5h344v460q0 12 8.5 20.5t20.5 8.5t20.5 -8.5t8.5 -20.5z" />
<glyph unicode="5" horiz-adv-x="709" d="M85 73q-18 21 0 39.5t40 -1.5q76 -73 217 -73q104 0 169 52.5t65 126.5q0 79 -58.5 130t-182.5 51q-100 0 -164 -23q-24 -8 -41 2t-17 32v257q0 14 9.5 24t24.5 10h435q11 0 19 -8t8 -19t-8 -19t-19 -8h-415v-218q76 21 172 21q148 0 221 -65t73 -165q0 -97 -80 -165.5 t-213 -68.5q-172 0 -255 88z" />
<glyph unicode="6" horiz-adv-x="720" d="M658 219q0 -100 -77 -167t-206 -67q-140 0 -227 90.5t-87 262.5q0 163 100.5 270t267.5 107q119 0 196 -53q24 -14 12.5 -36.5t-38.5 -9.5q-71 46 -174 46q-140 0 -225.5 -91t-85.5 -231q0 -148 72 -225.5t192 -77.5q104 0 165 52t61 130q0 77 -55 121t-152 44 q-92 0 -167 -44q-24 -13 -37 9t10 36q81 52 196 52q121 0 190 -59t69 -159z" />
<glyph unicode="7" horiz-adv-x="598" d="M146 40l329 539q10 15 10 30t-10 26t-26 11h-421q-12 0 -20 7.5t-8 19.5t8 19.5t20 7.5h426q41 0 65.5 -25.5t24.5 -63.5q0 -32 -21 -65l-328 -536q-9 -14 -26 -14t-24.5 15t1.5 29z" />
<glyph unicode="8" horiz-adv-x="752" d="M376 -15q-148 0 -229.5 53.5t-81.5 136.5q0 144 222 180q-201 41 -201 174q0 85 81 135.5t209 50.5t209 -50.5t81 -135.5q0 -67 -53 -111t-148 -63q222 -36 222 -180q0 -83 -81.5 -136.5t-229.5 -53.5zM376 37q116 0 184.5 40.5t68.5 102.5q0 121 -253 151 q-253 -30 -253 -151q0 -62 68.5 -102.5t184.5 -40.5zM376 376q232 29 232 147q0 67 -64.5 103.5t-167.5 36.5t-167.5 -36.5t-64.5 -103.5q0 -118 232 -147z" />
<glyph unicode="9" horiz-adv-x="720" d="M58 476q0 98 78 168.5t204 70.5q144 0 229.5 -89t85.5 -262q0 -166 -97 -272.5t-263 -106.5q-123 0 -200 53q-24 14 -12.5 36.5t38.5 9.5q71 -46 174 -46q143 0 224.5 91t81.5 235q0 148 -71 223.5t-192 75.5q-101 0 -162.5 -54.5t-61.5 -131.5q0 -83 55.5 -133 t165.5 -50q77 0 155 39q16 5 26.5 -4.5t8 -24t-18.5 -21.5q-82 -42 -174 -42q-133 0 -203.5 64.5t-70.5 170.5z" />
<glyph unicode=":" horiz-adv-x="222" d="M65 42q0 19 13.5 32.5t32.5 13.5t32.5 -13t13.5 -33t-13.5 -33t-32.5 -13t-32.5 13.5t-13.5 32.5zM65 479q0 19 13.5 32.5t32.5 13.5t32.5 -13.5t13.5 -32.5t-13.5 -32.5t-32.5 -13.5t-32.5 13.5t-13.5 32.5z" />
<glyph unicode=";" horiz-adv-x="222" d="M40 -78l66 195q6 19 27 19q15 0 23.5 -12t3.5 -26l-67 -194q-6 -16 -21.5 -18.5t-26.5 8.5t-5 28zM65 479q0 19 13.5 32.5t32.5 13.5t32.5 -13.5t13.5 -32.5t-13.5 -32.5t-32.5 -13.5t-32.5 13.5t-13.5 32.5z" />
<glyph unicode="&#x3c;" horiz-adv-x="636" d="M76 261q0 59 56 85l391 177q8 3 14 3q25 0 29 -23t-16 -31l-399 -178q-21 -10 -21 -33t21 -33l399 -178q20 -8 16 -31t-29 -23q-7 0 -14 3l-391 177q-56 26 -56 85z" />
<glyph unicode="=" horiz-adv-x="670" d="M572 371h-474q-11 0 -19.5 8.5t-8.5 19.5q0 12 8.5 20t19.5 8h474q11 0 19.5 -8t8.5 -20q0 -11 -8.5 -19.5t-19.5 -8.5zM572 94h-474q-11 0 -19.5 8.5t-8.5 19.5q0 12 8.5 20t19.5 8h474q11 0 19.5 -8t8.5 -20q0 -11 -8.5 -19.5t-19.5 -8.5z" />
<glyph unicode="&#x3e;" horiz-adv-x="636" d="M559 261q0 -59 -56 -85l-391 -177q-8 -3 -14 -3q-25 0 -29 23t16 31l399 178q21 10 21 33t-21 33l-399 178q-20 8 -16 31t29 23q6 0 14 -3l391 -177q56 -26 56 -85z" />
<glyph unicode="?" horiz-adv-x="517" d="M181 42q0 20 13.5 33t32.5 13t32 -13.5t13 -32.5t-13 -32.5t-32 -13.5t-32.5 13t-13.5 33zM211 253q203 123 203 265q0 61 -42.5 102t-124.5 41q-105 0 -186 -69q-24 -17 -40.5 1.5t2.5 37.5q86 84 221 84q113 0 170 -57.5t57 -138.5q0 -89 -62.5 -169.5t-170.5 -144.5 q-27 -14 -41 9t14 39z" />
<glyph unicode="@" horiz-adv-x="1158" d="M892 5q-62 0 -99 44t-37 119v268q-73 61 -165 61q-110 0 -176 -61.5t-66 -161.5q0 -104 60 -163t166 -59q40 0 82 11q24 3 29 -20.5t-21 -30.5q-48 -13 -95 -13q-125 0 -200 73t-75 199q0 124 80.5 201t210.5 77q99 0 170 -52v13q0 11 8.5 19.5t19.5 8.5q12 0 20 -8.5 t8 -19.5v-338q0 -57 22.5 -87t62.5 -30q57 0 94 61t37 174q0 185 -126 307t-313 122q-204 0 -331 -128.5t-127 -318.5q0 -188 127.5 -310t330.5 -122q138 0 237 58q15 8 27 0.5t11.5 -20t-11.5 -21.5q-104 -67 -264 -67q-226 0 -367.5 135.5t-141.5 344.5q0 137 63 250.5 t180 181t266 67.5q207 0 348 -137t141 -342q0 -141 -52.5 -213t-133.5 -72z" />
<glyph unicode="A" horiz-adv-x="805" d="M15 38l303 616q27 54 85 54q59 0 85 -54l301 -616q7 -15 -0.5 -28.5t-24.5 -13.5q-18 0 -26 17l-83 170h-505l-83 -170q-9 -17 -26 -17t-25 13.5t-1 28.5zM370 635l-194 -398h453l-193 398q-10 22 -33 22t-33 -22z" />
<glyph unicode="B" horiz-adv-x="781" d="M524 0h-376q-15 0 -24.5 10t-9.5 24v632q0 14 9.5 24t24.5 10h357q79 0 134.5 -55.5t55.5 -133.5q0 -48 -23.5 -90t-64.5 -66q50 -23 78.5 -68t28.5 -98q0 -78 -55.5 -133.5t-134.5 -55.5zM172 54h352q55 0 94 39.5t39 94.5t-39 94.5t-94 39.5h-165q-12 0 -20 8t-8 20 t8 20t20 8h146q55 0 94 39.5t39 94.5t-39 94t-94 39h-333v-591z" />
<glyph unicode="C" horiz-adv-x="787" d="M417 41q91 0 161 43.5t106 109.5q13 21 36 9.5t11 -37.5q-34 -74 -121 -127.5t-192 -53.5q-165 0 -259.5 97t-94.5 268q0 162 97 263.5t261 101.5q106 0 183 -43t114 -114q8 -18 -1 -31t-23 -12t-24 12q-83 132 -249 132q-138 0 -218.5 -85t-80.5 -224q0 -141 79 -225 t215 -84z" />
<glyph unicode="D" horiz-adv-x="812" d="M364 0h-45q-11 0 -19 8t-8 19q0 12 8 19.5t19 7.5h45q150 0 235 82.5t85 213.5t-85 213.5t-235 82.5h-188v-621q0 -12 -8.5 -20.5t-20.5 -8.5t-20.5 8.5t-8.5 20.5v641q0 15 9.5 24.5t24.5 9.5h212q176 0 277 -97.5t101 -252.5t-101 -252.5t-277 -97.5z" />
<glyph unicode="E" horiz-adv-x="726" d="M172 55h449q11 0 19 -8t8 -19q0 -12 -8 -20t-19 -8h-473q-15 0 -24.5 10t-9.5 24v632q0 14 9.5 24t24.5 10h473q11 0 19 -8t8 -20q0 -11 -8 -19t-19 -8h-449v-268h358q11 0 19.5 -8t8.5 -19t-8.5 -19t-19.5 -8h-358v-268z" />
<glyph unicode="F" horiz-adv-x="656" d="M534 263h-362v-238q0 -12 -8.5 -20.5t-20.5 -8.5t-20.5 8.5t-8.5 20.5v641q0 14 9.5 24t24.5 10h465q11 0 19 -8t8 -19q0 -12 -8 -19.5t-19 -7.5h-441v-328h362q11 0 19.5 -8t8.5 -20q0 -11 -8.5 -19t-19.5 -8z" />
<glyph unicode="G" horiz-adv-x="807" d="M678 528q-81 131 -255 131q-141 0 -222 -84.5t-81 -224.5q0 -145 80.5 -227t221.5 -82q128 0 200 72t75 184h-256q-12 0 -20 7.5t-8 19.5t8 19.5t20 7.5h275q37 0 37 -38q0 -142 -90 -235t-244 -93q-167 0 -261 96.5t-94 268.5q0 160 96 262.5t263 102.5q109 0 187 -42.5 t116 -114.5q14 -27 -10 -39t-38 9z" />
<glyph unicode="H" horiz-adv-x="805" d="M691 675v-650q0 -12 -8.5 -20.5t-20.5 -8.5t-20.5 8.5t-8.5 20.5v298h-461v-298q0 -12 -8.5 -20.5t-20.5 -8.5t-20.5 8.5t-8.5 20.5v650q0 12 8.5 20.5t20.5 8.5t20.5 -8.5t8.5 -20.5v-298h461v298q0 12 8.5 20.5t20.5 8.5t20.5 -8.5t8.5 -20.5z" />
<glyph unicode="I" horiz-adv-x="286" d="M172 675v-650q0 -12 -8.5 -20.5t-20.5 -8.5t-20.5 8.5t-8.5 20.5v650q0 12 8.5 20.5t20.5 8.5t20.5 -8.5t8.5 -20.5z" />
<glyph unicode="J" horiz-adv-x="306" d="M134 234v441q0 12 8.5 20.5t20.5 8.5t20.5 -8.5t8.5 -20.5v-440q0 -154 -99 -230q-16 -12 -31.5 -6.5t-17.5 20t13 29.5q77 60 77 186z" />
<glyph unicode="K" horiz-adv-x="724" d="M609 695q9 9 21 9q18 0 25 -17t-7 -30l-319 -306l328 -305q15 -14 7.5 -32t-26.5 -18q-11 0 -20 9l-346 323q-8 8 -8 22t8 22zM172 675v-650q0 -12 -8.5 -20.5t-20.5 -8.5t-20.5 8.5t-8.5 20.5v650q0 12 8.5 20.5t20.5 8.5t20.5 -8.5t8.5 -20.5z" />
<glyph unicode="L" horiz-adv-x="640" d="M172 675v-620h441q11 0 19 -8t8 -20q0 -11 -8 -19t-19 -8h-465q-15 0 -24.5 10t-9.5 24v641q0 12 8.5 20.5t20.5 8.5t20.5 -8.5t8.5 -20.5z" />
<glyph unicode="M" horiz-adv-x="996" d="M172 610v-585q0 -12 -8.5 -20.5t-20.5 -8.5t-20.5 8.5t-8.5 20.5v588q0 38 28 65t65 27q56 0 83 -50l208 -389l208 389q27 50 83 50q37 0 65 -27t28 -65v-588q0 -12 -8.5 -20.5t-20.5 -8.5t-20.5 8.5t-8.5 20.5v585q0 15 -11 26t-25 11q-22 0 -32 -19l-225 -415 q-10 -19 -33 -19t-33 19l-225 415q-10 19 -32 19q-14 0 -25 -11t-11 -26z" />
<glyph unicode="N" horiz-adv-x="886" d="M595 43l-356 587q-11 18 -32 18q-14 0 -24.5 -10.5t-10.5 -26.5v-586q0 -13 -8 -21t-21 -8t-21 8t-8 21v587q0 39 27.5 66t67.5 27q55 0 83 -50l355 -585q11 -18 32 -18q14 0 24.5 10.5t10.5 26.5v586q0 13 8 21t21 8t21 -8t8 -21v-587q0 -39 -27.5 -66t-67.5 -27 q-55 0 -82 48z" />
<glyph unicode="O" horiz-adv-x="830" d="M424 661q-139 0 -221.5 -86t-82.5 -225q0 -144 77.5 -227.5t206.5 -83.5q140 0 223 85.5t83 225.5q0 144 -77.5 227.5t-208.5 83.5zM424 715q155 0 248.5 -98.5t93.5 -266.5q0 -163 -98.5 -264t-263.5 -101q-153 0 -246.5 99t-93.5 266q0 162 98 263.5t262 101.5z" />
<glyph unicode="P" horiz-adv-x="704" d="M114 25v641q0 14 9.5 24t24.5 10h276q102 0 170 -69t68 -169q0 -99 -68 -168t-170 -69h-102q-12 0 -21 8.5t-9 21.5q0 12 9 20.5t21 8.5h102q79 0 130.5 52t51.5 128t-51.5 128.5t-130.5 52.5h-252v-620q0 -12 -8.5 -20.5t-20.5 -8.5t-20.5 8.5t-8.5 20.5z" />
<glyph unicode="Q" horiz-adv-x="830" d="M424 715q155 0 248.5 -98.5t93.5 -266.5q0 -148 -81 -245.5t-221 -115.5l133 -130q10 -9 10 -21q0 -11 -8 -19.5t-21 -8.5q-10 0 -22 10l-167 166q-147 5 -236 103t-89 261q0 162 98 263.5t262 101.5zM424 661q-139 0 -221.5 -86t-82.5 -225q0 -144 77.5 -227.5 t206.5 -83.5q140 0 223 85.5t83 225.5q0 144 -77.5 227.5t-208.5 83.5z" />
<glyph unicode="R" horiz-adv-x="764" d="M694 482q0 -90 -65 -152t-160 -62h-17l227 -223q14 -13 7 -31t-27 -18q-12 0 -22 10l-268 268q-9 8 -9 20t8.5 20.5t21.5 8.5h83q68 0 115.5 47t47.5 114t-47 114t-112 47h-305v-620q0 -12 -8.5 -20.5t-20.5 -8.5t-20.5 8.5t-8.5 20.5v641q0 14 9.5 24t24.5 10h329 q90 0 153.5 -63.5t63.5 -154.5z" />
<glyph unicode="S" horiz-adv-x="727" d="M80 56q-26 19 -11.5 41t41.5 7q105 -65 253 -65q113 0 175.5 39t62.5 101q0 44 -28.5 72.5t-74.5 42t-101.5 22.5t-111.5 20.5t-102 30.5t-74.5 57.5t-28.5 96.5q0 82 74.5 138t231.5 56q139 0 234 -51q24 -14 12 -37.5t-39 -10.5q-88 45 -215 45q-122 0 -181 -40.5 t-59 -99.5q0 -44 28.5 -73t74.5 -42.5t101.5 -23t111.5 -21.5t102 -30.5t74.5 -56.5t28.5 -95q0 -86 -79 -140t-214 -54q-177 0 -286 71z" />
<glyph unicode="T" horiz-adv-x="632" d="M32 700h568q12 0 20 -7.5t8 -19.5t-8 -19.5t-20 -7.5h-255v-621q0 -12 -8.5 -20.5t-20.5 -8.5t-20.5 8.5t-8.5 20.5v621h-255q-12 0 -20 7.5t-8 19.5t8 19.5t20 7.5z" />
<glyph unicode="U" horiz-adv-x="805" d="M98 291v384q0 12 8.5 20.5t20.5 8.5t20.5 -8.5t8.5 -20.5v-379q0 -111 66 -182t180 -71t180.5 71t66.5 182v379q0 12 8.5 20.5t20.5 8.5t20.5 -8.5t8.5 -20.5v-384q0 -133 -83 -219.5t-222 -86.5q-138 0 -221 86.5t-83 219.5z" />
<glyph unicode="V" horiz-adv-x="765" d="M382 43q22 0 34 22l283 622q6 17 25 17q16 0 24.5 -13.5t1.5 -28.5l-283 -616q-25 -54 -85 -54q-61 0 -84 54l-283 616q-7 15 1 28.5t24 13.5q18 0 26 -17l283 -622q10 -22 33 -22z" />
<glyph unicode="W" horiz-adv-x="1106" d="M553 556q21 0 28 -20l186 -462q10 -26 35 -26t35 25l198 611q6 20 28 20q15 0 23 -11.5t4 -26.5l-197 -607q-21 -67 -90 -67q-63 0 -87 60l-163 406l-163 -406q-24 -60 -87 -60q-69 0 -90 67l-197 607q-4 15 4 26.5t23 11.5q22 0 28 -20l198 -611q10 -25 35 -25t35 26 l186 462q7 20 28 20z" />
<glyph unicode="X" horiz-adv-x="753" d="M39 44l300 305l-301 306q-14 14 -7 31.5t27 17.5q11 0 20 -9l300 -306l300 306q9 9 20 9q19 0 26 -16.5t-7 -31.5l-300 -306l301 -305q14 -13 7 -31t-27 -18q-11 0 -20 9l-301 305l-299 -305q-9 -9 -20 -9q-19 0 -25.5 16t6.5 32z" />
<glyph unicode="Y" d="M283 323l-271 335q-10 12 -3.5 29t26.5 17q12 0 21 -10l270 -335q11 -13 28 -13q18 0 29 13l269 335q10 10 22 10q20 0 26.5 -17t-4.5 -29l-270 -335q-17 -20 -42 -29v-269q0 -12 -8.5 -20.5t-21.5 -8.5q-12 0 -20.5 8.5t-8.5 20.5v268q-24 8 -42 30z" />
<glyph unicode="Z" horiz-adv-x="709" d="M52 56l533 590h-508q-11 0 -19 7.5t-8 19.5t7.5 19.5t19.5 7.5h554q17 0 26 -9t9 -22q0 -14 -12 -26l-531 -589h510q12 0 20 -7.5t8 -19.5t-8 -19.5t-20 -7.5h-556q-17 0 -26 9t-9 22t10 25z" />
<glyph unicode="[" horiz-adv-x="364" d="M176 -36h117q11 0 18.5 -8t7.5 -19t-7.5 -19t-18.5 -8h-137q-15 0 -24.5 10t-9.5 24v812q0 14 9.5 24t24.5 10h137q11 0 18.5 -8t7.5 -19t-7.5 -19t-18.5 -8h-117v-772z" />
<glyph unicode="\" horiz-adv-x="498" d="M34 778l478 -829q9 -16 1 -29.5t-23 -13.5q-17 0 -26 16l-478 829q-9 16 -1.5 29.5t23.5 13.5t26 -16z" />
<glyph unicode="]" horiz-adv-x="364" d="M187 736h-117q-11 0 -18.5 8t-7.5 19t7.5 19t18.5 8h137q15 0 24.5 -10t9.5 -24v-812q0 -14 -9.5 -24t-24.5 -10h-137q-11 0 -18.5 8t-7.5 19t7.5 19t18.5 8h117v772z" />
<glyph unicode="^" horiz-adv-x="622" d="M311 657q-23 0 -33 -22l-198 -444q-8 -17 -26 -17q-16 0 -24 13.5t-1 28.5l197 438q25 54 85 54t85 -54l197 -438q7 -15 -1 -28.5t-24 -13.5q-18 0 -26 17l-198 444q-10 22 -33 22z" />
<glyph unicode="_" horiz-adv-x="670" d="M572 -56h-474q-11 0 -19.5 8.5t-8.5 19.5q0 12 8.5 20t19.5 8h474q11 0 19.5 -8t8.5 -20q0 -11 -8.5 -19.5t-19.5 -8.5z" />
<glyph unicode="`" horiz-adv-x="183" d="M136 630l-122 124q-14 14 -9 29.5t19 18t28 -9.5l121 -125q13 -13 8.5 -28t-18 -17.5t-27.5 8.5z" />
<glyph unicode="a" horiz-adv-x="699" d="M349 40q41 0 81 12q23 3 28 -20t-20 -30q-47 -15 -94 -15q-125 0 -200.5 73t-75.5 197q0 125 82 202.5t211 77.5q101 0 169 -52v13q0 11 8 19.5t20 8.5q11 0 19 -8.5t8 -19.5v-474q0 -11 -8 -19.5t-19 -8.5q-12 0 -20 8.5t-8 19.5v401q-71 60 -164 60q-110 0 -176.5 -62 t-66.5 -163q0 -103 60 -161.5t166 -58.5z" />
<glyph unicode="b" horiz-adv-x="701" d="M352 484q-40 0 -81 -12q-23 -3 -28 20t20 30q47 15 94 15q125 0 200.5 -73t75.5 -197q0 -125 -82 -202.5t-211 -77.5q-104 0 -170 52v-15q0 -11 -8.5 -19.5t-19.5 -8.5q-12 0 -20 8.5t-8 19.5v738q0 11 8 19.5t20 8.5q11 0 19.5 -8.5t8.5 -19.5v-663q69 -60 165 -60 q110 0 176.5 62t66.5 163q0 103 -60 161.5t-166 58.5z" />
<glyph unicode="c" horiz-adv-x="628" d="M68 261q0 118 73 197t207 79q70 0 128 -26t87 -66q16 -25 -4 -40t-39 7q-61 72 -172 72q-109 0 -166.5 -62.5t-57.5 -160.5q0 -103 56 -163t158 -60q66 0 117 28.5t79 74.5q14 23 35.5 11t8.5 -36q-32 -57 -96.5 -94t-145.5 -37q-126 0 -197 75t-71 201z" />
<glyph unicode="d" horiz-adv-x="699" d="M349 40q41 0 81 12q23 3 28 -20t-20 -30q-47 -15 -94 -15q-125 0 -200.5 73t-75.5 197q0 125 82 202.5t211 77.5q105 0 169 -45v270q0 11 8 19.5t20 8.5q11 0 19 -8.5t8 -19.5v-738q0 -11 -8 -19.5t-19 -8.5q-12 0 -20 8.5t-8 19.5v407q-69 54 -164 54q-110 0 -176.5 -62 t-66.5 -163q0 -103 60 -161.5t166 -58.5z" />
<glyph unicode="e" horiz-adv-x="663" d="M569 235h-350q-10 0 -17 7t-7 17q0 9 7 16t17 7h332q-4 92 -58.5 148.5t-146.5 56.5q-105 0 -164.5 -64.5t-59.5 -161.5q0 -103 61.5 -163t165.5 -60q124 0 190 88q20 20 38 3.5t-1 -37.5q-32 -46 -92.5 -76.5t-135.5 -30.5q-127 0 -203.5 73.5t-76.5 200.5 q0 117 74 197.5t203 80.5q123 0 191.5 -75.5t68.5 -188.5q0 -17 -10 -27.5t-26 -10.5z" />
<glyph unicode="f" horiz-adv-x="375" d="M333 470h-135v-446q0 -11 -8.5 -19.5t-19.5 -8.5q-12 0 -20 8.5t-8 19.5v446h-82q-11 0 -19.5 7.5t-8.5 18.5q0 12 8 19t20 7h82v61q0 95 54.5 151t145.5 56q15 0 24 -8t9 -20q0 -11 -9 -18.5t-24 -7.5q-68 0 -106 -42t-38 -111v-61h135q12 0 20 -7t8 -19 q0 -11 -8.5 -18.5t-19.5 -7.5z" />
<glyph unicode="g" horiz-adv-x="691" d="M349 60q39 0 81 11q24 3 29 -20.5t-21 -30.5q-46 -13 -94 -13q-126 0 -201 70t-75 192q0 120 80 194t210 74q98 0 172 -54v16q0 11 7.5 19t19.5 8q11 0 19 -8t8 -19v-450q0 -114 -75.5 -177.5t-206.5 -63.5q-93 0 -171 31q-26 12 -16.5 35t36.5 13q71 -27 153 -27 q103 0 164.5 49t61.5 145v369q-73 62 -170 62q-108 0 -172.5 -58.5t-64.5 -154.5q0 -100 59.5 -156t166.5 -56z" />
<glyph unicode="h" horiz-adv-x="698" d="M114 24v738q0 11 8 19.5t20 8.5q11 0 19.5 -8.5t8.5 -19.5v-315q20 18 45.5 35t73.5 35t95 18q98 0 158 -61t60 -155v-294q0 -12 -8 -20.5t-20 -8.5t-20 8.5t-8 20.5v279q0 81 -46 128.5t-126 47.5q-110 0 -204 -94v-362q0 -11 -8.5 -19.5t-19.5 -8.5q-12 0 -20 8.5 t-8 19.5z" />
<glyph unicode="i" horiz-adv-x="284" d="M114 24v474q0 11 8 19.5t20 8.5q11 0 19.5 -8.5t8.5 -19.5v-474q0 -11 -8.5 -19.5t-19.5 -8.5q-12 0 -20 8.5t-8 19.5zM99 674q0 19 12.5 31t30.5 12t30.5 -12t12.5 -31t-12.5 -31t-30.5 -12t-30.5 12t-12.5 31z" />
<glyph unicode="j" horiz-adv-x="284" d="M99 674q0 19 12.5 31t30.5 12t30.5 -12t12.5 -31t-12.5 -31t-30.5 -12t-30.5 12t-12.5 31zM114 39v459q0 11 8 19.5t20 8.5q11 0 19.5 -8.5t8.5 -19.5v-458q0 -151 -98 -224q-12 -6 -21 -6q-20 0 -24.5 18t10.5 31q77 58 77 180z" />
<glyph unicode="k" horiz-adv-x="625" d="M170 762v-738q0 -11 -8.5 -19.5t-19.5 -8.5q-12 0 -20 8.5t-8 19.5v738q0 11 8 19.5t20 8.5q11 0 19.5 -8.5t8.5 -19.5zM502 517q8 8 21 8q18 0 24 -16t-7 -29l-219 -210l243 -226q14 -13 7.5 -30.5t-25.5 -17.5q-11 0 -20 9l-259 242q-8 8 -8 22t8 22z" />
<glyph unicode="l" horiz-adv-x="284" d="M170 762v-738q0 -11 -8.5 -19.5t-19.5 -8.5q-12 0 -20 8.5t-8 19.5v738q0 11 8 19.5t20 8.5q11 0 19.5 -8.5t8.5 -19.5z" />
<glyph unicode="m" horiz-adv-x="1003" d="M114 24v474q0 11 8 19.5t20 8.5q11 0 19.5 -8.5t8.5 -19.5v-53q67 90 175 90q125 0 170 -97q73 97 192 97q98 0 147.5 -55.5t49.5 -148.5v-306q0 -12 -8 -20.5t-19 -8.5q-12 0 -20 8.5t-8 20.5v291q0 77 -38 121t-113 44q-102 0 -165 -101q4 -32 4 -49v-306 q0 -12 -8 -20.5t-20 -8.5q-11 0 -19.5 8.5t-8.5 20.5v291q0 165 -148 165q-101 0 -163 -102v-355q0 -11 -8.5 -19.5t-19.5 -8.5q-12 0 -20 8.5t-8 19.5z" />
<glyph unicode="n" d="M114 24v474q0 11 8 19.5t20 8.5q11 0 19.5 -8.5t8.5 -19.5v-57q88 94 210 94q99 0 163.5 -62.5t64.5 -159.5v-288q0 -12 -8 -20.5t-20 -8.5t-20 8.5t-8 20.5v273q0 84 -50.5 133t-132.5 49q-118 0 -199 -105v-351q0 -11 -8.5 -19.5t-19.5 -8.5q-12 0 -20 8.5t-8 19.5z " />
<glyph unicode="o" horiz-adv-x="677" d="M347 537q122 0 192 -73.5t70 -202.5q0 -126 -75.5 -201t-205.5 -75q-119 0 -189.5 73.5t-70.5 202.5q0 125 74.5 200.5t204.5 75.5zM330 35q106 0 165 61t59 165q0 107 -55 166.5t-152 59.5q-107 0 -165.5 -61.5t-58.5 -164.5q0 -107 55 -166.5t152 -59.5z" />
<glyph unicode="p" horiz-adv-x="698" d="M352 484q-40 0 -81 -12q-23 -3 -28 20t20 30q47 15 94 15q125 0 200.5 -73t75.5 -197q0 -125 -82 -202.5t-211 -77.5q-108 0 -170 45v-194q0 -11 -8.5 -19.5t-19.5 -8.5q-12 0 -20 8.5t-8 19.5v660q0 11 8 19.5t20 8.5q11 0 19.5 -8.5t8.5 -19.5v-406q66 -53 165 -53 q110 0 176.5 62t66.5 163q0 103 -60 161.5t-166 58.5z" />
<glyph unicode="q" horiz-adv-x="700" d="M349 40q41 0 81 12q23 3 28 -20t-20 -30q-47 -15 -94 -15q-125 0 -200.5 73t-75.5 197q0 125 81 202.5t210 77.5q98 0 171 -54v15q0 11 8 19.5t20 8.5t20 -8.5t8 -19.5v-660q0 -11 -8 -19.5t-20 -8.5t-20 8.5t-8 19.5v585q-73 62 -166 62q-110 0 -175.5 -62t-65.5 -163 q0 -103 60 -161.5t166 -58.5z" />
<glyph unicode="r" horiz-adv-x="405" d="M365 474q-71 0 -119.5 -34t-75.5 -75v-341q0 -11 -8.5 -19.5t-19.5 -8.5q-12 0 -20 8.5t-8 19.5v474q0 11 8 19.5t20 8.5q11 0 19.5 -8.5t8.5 -19.5v-74q70 105 194 105q15 0 23 -7.5t8 -19.5t-8.5 -20t-21.5 -8z" />
<glyph unicode="s" horiz-adv-x="600" d="M62 43q-23 18 -8 38t40 4q85 -48 207 -48q82 0 128.5 27.5t46.5 72.5t-41.5 66t-101 27.5t-119 15.5t-101 42.5t-41.5 96.5q0 64 59 108t183 44q110 0 184 -34q25 -14 13 -36.5t-38 -10.5q-68 29 -165 29q-92 0 -136 -29t-44 -71q0 -46 41.5 -68t101 -28t118.5 -15 t100.5 -42t41.5 -95q0 -69 -61.5 -110.5t-166.5 -41.5q-151 0 -241 58z" />
<glyph unicode="t" horiz-adv-x="472" d="M388 470h-183v-303q0 -60 29 -89t78 -29q44 0 82 17q25 12 35 -10t-13 -36q-49 -25 -109 -25q-72 0 -115 42.5t-43 120.5v312h-94q-12 0 -20 7t-8 19q0 11 8.5 18.5t19.5 7.5h94v107q0 11 8.5 19.5t19.5 8.5q12 0 20 -8.5t8 -19.5v-107h183q11 0 19.5 -7.5t8.5 -18.5 q0 -12 -8 -19t-20 -7z" />
<glyph unicode="u" d="M592 498v-474q0 -11 -8 -19.5t-20 -8.5q-11 0 -19 8.5t-8 19.5v57q-88 -94 -211 -94q-99 0 -163.5 62t-64.5 159v289q0 12 8.5 20.5t19.5 8.5q12 0 20 -8.5t8 -20.5v-273q0 -84 50.5 -133.5t132.5 -49.5q118 0 200 106v351q0 11 8 19.5t19 8.5q12 0 20 -8.5t8 -19.5z" />
<glyph unicode="v" horiz-adv-x="622" d="M311 43q23 0 33 22l198 444q8 17 26 17q16 0 24 -13.5t1 -28.5l-197 -438q-25 -54 -85 -54t-85 54l-197 438q-7 15 1 28.5t24 13.5q18 0 26 -17l198 -444q10 -22 33 -22z" />
<glyph unicode="w" horiz-adv-x="894" d="M447 422q20 0 29 -20l127 -332q9 -25 35 -25q27 0 35 25l133 435q5 20 27 20q15 0 22.5 -11t3.5 -26l-131 -431q-10 -30 -33.5 -47.5t-56.5 -17.5q-63 0 -86 61l-105 281l-104 -281q-23 -61 -87 -61q-33 0 -56.5 17.5t-33.5 47.5l-131 431q-4 15 3.5 26t23.5 11 q21 0 26 -20l133 -435q8 -25 35 -25q26 0 35 25l128 332q7 20 28 20z" />
<glyph unicode="x" horiz-adv-x="622" d="M60 42l214 218l-215 219q-13 13 -6.5 29.5t25.5 16.5q12 0 20 -8l214 -218l213 218q8 8 20 8q18 0 24 -16t-6 -29l-214 -219l214 -218q13 -13 7 -30t-25 -17q-11 0 -20 9l-214 218l-213 -218q-9 -9 -20 -9q-19 0 -25.5 16.5t7.5 29.5z" />
<glyph unicode="y" horiz-adv-x="600" d="M219 -152l67 147q-43 11 -60 51l-197 438q-7 15 1 28.5t24 13.5q18 0 26 -17l198 -444q9 -21 30 -22l212 465q7 17 26 17q16 0 24 -12.5t1 -26.5l-304 -660q-7 -15 -22 -16t-24.5 10.5t-1.5 27.5z" />
<glyph unicode="z" horiz-adv-x="599" d="M75 56l376 413h-349q-12 0 -20 7.5t-8 19.5t8 19t20 7h396q17 0 25.5 -9t8.5 -22q0 -15 -10 -25l-378 -413h358q12 0 20 -7.5t8 -19.5t-8 -19t-20 -7h-403q-17 0 -25.5 9t-8.5 22q0 15 10 25z" />
<glyph unicode="{" horiz-adv-x="392" d="M151 3v319h-61q-11 0 -19.5 8.5t-8.5 19.5q0 12 8.5 20t19.5 8h61v319q0 38 27 65.5t65 27.5h88q11 0 19 -8t8 -20q0 -11 -8 -19t-19 -8h-90q-15 0 -26 -10.5t-11 -25.5v-698q0 -15 11 -25.5t26 -10.5h90q11 0 19 -8t8 -19q0 -12 -8 -20t-19 -8h-88q-38 0 -65 27.5 t-27 65.5z" />
<glyph unicode="|" horiz-adv-x="318" d="M188 765v-830q0 -12 -8.5 -20.5t-20.5 -8.5t-20.5 8.5t-8.5 20.5v830q0 12 8.5 20.5t20.5 8.5t20.5 -8.5t8.5 -20.5z" />
<glyph unicode="}" horiz-adv-x="392" d="M241 697v-319h61q11 0 19.5 -8.5t8.5 -19.5q0 -12 -8.5 -20t-19.5 -8h-61v-319q0 -38 -27 -65.5t-65 -27.5h-88q-11 0 -19 8t-8 20q0 11 8 19t19 8h90q15 0 26 10.5t11 25.5v698q0 15 -11 25.5t-26 10.5h-90q-11 0 -19 8t-8 19q0 12 8 20t19 8h88q38 0 65 -27.5t27 -65.5 z" />
<glyph unicode="~" horiz-adv-x="698" d="M574 339q0 12 8 20t19 8t19 -8t8 -20q0 -66 -44 -109t-111 -43q-45 0 -81 19.5t-56.5 43t-50.5 43t-63 19.5q-42 0 -70 -29t-28 -71q0 -12 -8 -20t-19 -8t-19 8t-8 20q0 66 42.5 110t109.5 44q38 0 68 -13t49.5 -31t38 -36t42.5 -31t52 -13q45 0 73.5 27.5t28.5 69.5z " />
<glyph unicode="&#xa1;" horiz-adv-x="230" d="M161 480q0 -19 -13.5 -32.5t-32.5 -13.5t-32.5 13t-13.5 33t13.5 33t32.5 13t32.5 -13.5t13.5 -32.5zM87 -154v448q0 11 8 19.5t20 8.5t20 -8.5t8 -19.5v-448q0 -11 -8 -19.5t-20 -8.5t-20 8.5t-8 19.5z" />
<glyph unicode="&#xa2;" horiz-adv-x="730" d="M107 261q0 109 63.5 186t180.5 88v52q0 11 7 18t18 7q10 0 17 -7t7 -18v-50q66 -3 120 -28.5t82 -63.5q16 -25 -4 -40t-39 7q-59 68 -159 72v-445q116 10 173 102q14 23 35.5 11t8.5 -36q-30 -52 -87.5 -88t-129.5 -42v-51q0 -11 -7 -18t-17 -7q-11 0 -18 7t-7 18v51 q-115 7 -179.5 81t-64.5 194zM163 261q0 -96 49 -155.5t139 -66.5v443q-92 -11 -140 -71.5t-48 -149.5z" />
<glyph unicode="&#xa3;" horiz-adv-x="730" d="M435 314h-201v-259h396q11 0 19.5 -8t8.5 -20q0 -11 -8.5 -19t-19.5 -8h-530q-11 0 -19.5 8t-8.5 19q0 12 8.5 20t19.5 8h80v259h-83q-10 0 -17.5 7.5t-7.5 17.5t7.5 17.5t17.5 7.5h83v91q0 112 75.5 182.5t202.5 70.5q85 0 161 -31q26 -12 16.5 -35t-36.5 -13 q-68 26 -143 26q-98 0 -160 -56t-62 -149v-86h201q11 0 18 -7t7 -18t-7 -18t-18 -7z" />
<glyph unicode="&#xa4;" horiz-adv-x="730" d="M372 594q114 0 177 -65l106 76q15 12 30 5.5t16.5 -21t-12.5 -27.5l-107 -78q31 -57 31 -134q0 -75 -34 -132l110 -80q15 -11 12.5 -27t-16.5 -21t-30 5l-111 80q-71 -68 -189 -68q-110 0 -174 64l-106 -76q-15 -12 -30 -5.5t-16.5 21t12.5 27.5l106 78q-31 56 -31 134 q0 77 34 132l-109 80q-15 12 -12.5 27.5t16.5 20.5t30 -5l110 -79q70 68 187 68zM372 544q-94 0 -148 -52.5t-54 -141.5q0 -91 49.5 -142t135.5 -51q95 0 149.5 52t54.5 141q0 93 -49.5 143.5t-137.5 50.5z" />
<glyph unicode="&#xa5;" horiz-adv-x="730" d="M584 121h-190v-96q0 -12 -8.5 -20.5t-20.5 -8.5t-20.5 8.5t-8.5 20.5v96h-192q-10 0 -17.5 7.5t-7.5 17.5t7.5 17.5t17.5 7.5h192v110h-192q-10 0 -17.5 7.5t-7.5 17.5t7.5 17.5t17.5 7.5h142l-263 327q-11 12 -4.5 29t27.5 17q12 0 21 -10l270 -339q10 -13 28 -13t28 13 l270 339q9 10 21 10q21 0 27.5 -17t-4.5 -29l-264 -327h141q10 0 17.5 -7.5t7.5 -17.5t-7.5 -17.5t-17.5 -7.5h-190v-110h190q10 0 17.5 -7.5t7.5 -17.5t-7.5 -17.5t-17.5 -7.5z" />
<glyph unicode="&#xa6;" horiz-adv-x="318" d="M188 279v-344q0 -12 -8.5 -20.5t-20.5 -8.5t-20.5 8.5t-8.5 20.5v344q0 12 8.5 20.5t20.5 8.5t20.5 -8.5t8.5 -20.5zM188 765v-344q0 -12 -8.5 -20.5t-20.5 -8.5t-20.5 8.5t-8.5 20.5v344q0 12 8.5 20.5t20.5 8.5t20.5 -8.5t8.5 -20.5z" />
<glyph unicode="&#xa7;" horiz-adv-x="610" d="M96 38q-24 16 -11.5 37.5t39.5 7.5q82 -46 190 -46q72 0 113.5 22t41.5 60q0 31 -31.5 48t-78.5 21.5t-101.5 12.5t-101.5 19t-78.5 44t-31.5 85q0 84 96 136q-47 31 -47 91q0 59 55.5 99t166.5 40q110 0 184 -34q25 -14 13 -36.5t-38 -10.5q-68 29 -165 29 q-81 0 -120.5 -24.5t-39.5 -61.5q0 -35 31 -54.5t78 -25t101.5 -13.5t101.5 -18.5t78 -41.5t31 -81q0 -80 -93 -140q45 -29 45 -83q0 -62 -56.5 -98.5t-153.5 -36.5q-134 0 -218 53zM518 336q0 41 -35 64t-79 29t-109.5 14t-101.5 19q-95 -40 -95 -108q0 -34 21 -55.5 t59 -31.5t76.5 -14.5t89 -10.5t81.5 -15q93 43 93 109z" />
<glyph unicode="&#xa8;" horiz-adv-x="331" d="M0 683q0 19 13 32t32 13t32 -13t13 -32t-13 -32t-32 -13t-32 13t-13 32zM241 683q0 19 13 32t32 13t32 -13t13 -32t-13 -32t-32 -13t-32 13t-13 32z" />
<glyph unicode="&#xa9;" horiz-adv-x="890" d="M80 350q0 155 106 260t262 105q158 0 260 -104.5t102 -260.5q0 -155 -106 -260t-262 -105q-158 0 -260 104.5t-102 260.5zM121 350q0 -139 91.5 -232.5t230.5 -93.5q138 0 231.5 94t93.5 232q0 139 -91 232.5t-230 93.5q-138 0 -232 -94t-94 -232zM241 352q0 91 56 152 t159 61q54 0 97.5 -20t66.5 -51q13 -19 -3.5 -31.5t-30.5 5.5q-46 55 -130 55q-83 0 -127 -48t-44 -123q0 -78 43 -123.5t120 -45.5q50 0 89 22t60 56q11 18 28 8.5t7 -28.5q-25 -44 -74.5 -72t-111.5 -28q-96 0 -150.5 57.5t-54.5 153.5z" />
<glyph unicode="&#xaa;" horiz-adv-x="669" d="M337 281q33 0 75 11q24 3 29 -20.5t-21 -30.5q-46 -13 -88 -13q-120 0 -188 63.5t-68 181.5q0 102 70.5 172t195.5 70q102 0 170 -47v8q0 11 8 19.5t20 8.5q11 0 19 -8.5t8 -19.5v-411q0 -11 -8 -19.5t-19 -8.5q-12 0 -20 8.5t-8 19.5v344q-63 55 -167 55 q-98 0 -156 -53.5t-58 -138.5q0 -91 53 -141t153 -50z" />
<glyph unicode="&#xab;" horiz-adv-x="730" d="M345 261q0 43 34 72l231 186q9 7 19 7q20 0 26.5 -19t-9.5 -32l-231 -186q-13 -10 -13 -28t13 -28l231 -186q16 -13 9.5 -32t-26.5 -19q-10 0 -19 7l-231 186q-34 29 -34 72zM76 261q0 43 34 72l231 186q9 7 19 7q20 0 26.5 -19t-9.5 -32l-231 -186q-13 -10 -13 -28 t13 -28l231 -186q16 -13 9.5 -32t-26.5 -19q-10 0 -19 7l-231 186q-34 29 -34 72z" />
<glyph unicode="&#xac;" horiz-adv-x="700" d="M572 -4q-12 0 -20 8.5t-8 19.5v209h-446q-11 0 -19.5 8.5t-8.5 19.5q0 12 8.5 20t19.5 8h474q11 0 19.5 -8t8.5 -20v-237q0 -11 -8.5 -19.5t-19.5 -8.5z" />
<glyph unicode="&#xae;" horiz-adv-x="890" d="M80 350q0 155 106 260t262 105q158 0 260 -104.5t102 -260.5q0 -155 -106 -260t-262 -105q-158 0 -260 104.5t-102 260.5zM121 350q0 -139 91.5 -232.5t230.5 -93.5q138 0 231.5 94t93.5 232q0 139 -91 232.5t-230 93.5q-138 0 -232 -94t-94 -232zM624 425 q0 -53 -36.5 -89t-91.5 -36h-2l121 -118q11 -10 5.5 -23t-20.5 -13q-6 0 -16 8l-150 149q-6 7 -6 16t6 15t15 6h49q36 0 60 24.5t24 60.5q0 37 -23.5 61.5t-58.5 24.5h-169v-344q0 -9 -6 -15t-15 -6q-8 0 -14.5 6t-6.5 15v361q0 9 7 16.5t17 7.5h187q53 0 88.5 -36.5 t35.5 -90.5z" />
<glyph unicode="&#xaf;" horiz-adv-x="328" d="M300 657h-272q-12 0 -20 7t-8 19q0 11 8.5 18.5t19.5 7.5h272q11 0 19.5 -7.5t8.5 -18.5q0 -12 -8 -19t-20 -7z" />
<glyph unicode="&#xb0;" horiz-adv-x="508" d="M257 715q90 0 144 -54.5t54 -146.5q0 -90 -55.5 -145t-149.5 -55q-88 0 -142 54t-54 146q0 90 55 145.5t148 55.5zM257 665q-69 0 -109.5 -41t-40.5 -110q0 -70 39 -110t104 -40q70 0 110.5 41t40.5 109q0 70 -39.5 110.5t-104.5 40.5z" />
<glyph unicode="&#xb1;" horiz-adv-x="670" d="M572 289h-209v-153q0 -11 -8 -19.5t-20 -8.5t-20 8.5t-8 19.5v153h-209q-11 0 -19.5 8.5t-8.5 19.5q0 12 8.5 20t19.5 8h209v153q0 11 8 19.5t20 8.5t20 -8.5t8 -19.5v-153h209q11 0 19.5 -8t8.5 -20q0 -11 -8.5 -19.5t-19.5 -8.5zM572 0h-474q-11 0 -19.5 8.5t-8.5 19.5 q0 12 8.5 20t19.5 8h474q11 0 19.5 -8t8.5 -20q0 -11 -8.5 -19.5t-19.5 -8.5z" />
<glyph unicode="&#xb2;" horiz-adv-x="506" d="M303 392l-159 -90h276q10 0 17 -6.5t7 -16.5q0 -11 -7 -17.5t-17 -6.5h-341q-21 0 -25.5 19t13.5 30l216 129q54 32 76.5 61t22.5 67q0 48 -34.5 77.5t-93.5 29.5q-88 0 -147 -67q-9 -11 -22.5 -8.5t-18 13.5t4.5 26q69 83 181 83q83 0 131.5 -43.5t48.5 -109.5 q0 -50 -30.5 -91t-98.5 -79z" />
<glyph unicode="&#xb3;" horiz-adv-x="524" d="M262 466q-21 0 -27 16t7 27l130 144h-281q-11 0 -17.5 6.5t-6.5 17.5q0 23 24 23h311q24 0 32 -19t-9 -36l-127 -140q65 -7 101 -39.5t36 -81.5q0 -59 -51.5 -101.5t-140.5 -42.5q-113 0 -179 71q-17 18 -1.5 34.5t34.5 0.5q60 -60 147 -60q67 0 104.5 28.5t37.5 69.5 q0 38 -31 60t-93 22z" />
<glyph unicode="&#xb4;" horiz-adv-x="183" d="M171 754l-122 -124q-13 -13 -27.5 -8.5t-17.5 17.5t8 28l120 125q13 13 28.5 9t19 -17.5t-8.5 -29.5z" />
<glyph unicode="&#xb6;" horiz-adv-x="704" d="M614 666v-731q0 -12 -8 -20.5t-21 -8.5q-12 0 -20 8.5t-8 20.5v710h-121v-390q0 -13 -8.5 -21.5t-20.5 -8.5h-103q-102 0 -170 69t-68 168q0 100 68 169t170 69h277q14 0 23.5 -10t9.5 -24z" />
<glyph unicode="&#xb7;" horiz-adv-x="222" d="M65 261q0 19 13.5 32.5t32.5 13.5t32.5 -13.5t13.5 -32.5t-13.5 -32.5t-32.5 -13.5t-32.5 13.5t-13.5 32.5z" />
<glyph unicode="&#xb8;" horiz-adv-x="212" d="M92 -102h-26q-17 0 -23 11.5t1 26.5l32 73h43l-31 -69q62 -1 93 -26.5t31 -68.5q0 -41 -31.5 -66.5t-84.5 -25.5q-51 0 -86 24q-16 12 -6.5 28t28.5 7q30 -16 66 -16q33 0 52 14.5t19 36.5q0 51 -77 51z" />
<glyph unicode="&#xb9;" horiz-adv-x="382" d="M189 276v356l-124 -88q-12 -8 -24.5 -2t-13.5 18.5t12 23.5l158 113q8 7 18 7t17.5 -7t7.5 -19v-402q0 -10 -7.5 -17.5t-18.5 -7.5q-10 0 -17.5 7.5t-7.5 17.5z" />
<glyph unicode="&#xba;" horiz-adv-x="649" d="M332 715q113 0 177 -64.5t64 -179.5q0 -109 -70 -176t-188 -67q-110 0 -174.5 65t-64.5 178q0 109 69 176.5t187 67.5zM332 665q-94 0 -148 -52.5t-54 -141.5q0 -91 49.5 -142t135.5 -51q95 0 149.5 52t54.5 141q0 93 -49.5 143.5t-137.5 50.5z" />
<glyph unicode="&#xbb;" horiz-adv-x="730" d="M653 261q0 -43 -34 -72l-231 -186q-9 -7 -19 -7q-20 0 -26.5 19t9.5 32l231 186q13 10 13 28t-13 28l-231 186q-16 13 -9.5 32t26.5 19q10 0 19 -7l231 -186q34 -29 34 -72zM384 261q0 -43 -34 -72l-231 -186q-9 -7 -19 -7q-20 0 -26.5 19t9.5 32l231 186q13 10 13 28 t-13 28l-231 186q-16 13 -9.5 32t26.5 19q10 0 19 -7l231 -186q34 -29 34 -72z" />
<glyph unicode="&#xbc;" horiz-adv-x="1050" d="M998 93h-97v-72q0 -10 -7.5 -17.5t-17.5 -7.5q-11 0 -18.5 7.5t-7.5 17.5v72h-245q-22 0 -29 17.5t3 33.5l158 290q7 15 23 15q14 0 20 -11.5t-1 -26.5l-148 -272h219v285q0 10 7.5 17.5t18.5 7.5q10 0 17.5 -7.5t7.5 -17.5v-285h97q10 0 16.5 -6.5t6.5 -16.5 q0 -9 -6.5 -16t-16.5 -7zM288 32l303 655q6 17 24 17q14 0 21 -11t0 -25l-303 -655q-8 -17 -24 -17q-14 0 -21 11t0 25zM210 276v356l-124 -88q-12 -8 -24.5 -2t-13.5 18.5t12 23.5l158 113q8 7 18 7t17.5 -7t7.5 -19v-402q0 -10 -7.5 -17.5t-18.5 -7.5q-10 0 -17.5 7.5 t-7.5 17.5z" />
<glyph unicode="&#xbd;" horiz-adv-x="1050" d="M842 137l-159 -90h276q10 0 17 -6.5t7 -16.5q0 -11 -7 -17.5t-17 -6.5h-341q-21 0 -25.5 19t13.5 30l216 129q54 32 76.5 61t22.5 67q0 48 -34.5 77.5t-93.5 29.5q-88 0 -147 -67q-9 -11 -22.5 -8.5t-18 13.5t4.5 26q69 83 181 83q83 0 131.5 -43.5t48.5 -109.5 q0 -50 -30.5 -91t-98.5 -79zM279 32l303 655q6 17 24 17q14 0 21 -11t0 -25l-303 -655q-8 -17 -24 -17q-14 0 -21 11t0 25zM211 276v356l-124 -88q-12 -8 -24.5 -2t-13.5 18.5t12 23.5l158 113q8 7 18 7t17.5 -7t7.5 -19v-402q0 -10 -7.5 -17.5t-18.5 -7.5q-10 0 -17.5 7.5 t-7.5 17.5z" />
<glyph unicode="&#xbe;" horiz-adv-x="1050" d="M1023 93h-97v-72q0 -10 -7.5 -17.5t-17.5 -7.5q-11 0 -18.5 7.5t-7.5 17.5v72h-245q-22 0 -29 17.5t3 33.5l158 290q8 15 23 15q14 0 20 -11.5t-1 -26.5l-148 -272h219v285q0 10 7.5 17.5t18.5 7.5q10 0 17.5 -7.5t7.5 -17.5v-285h97q10 0 16.5 -6.5t6.5 -16.5 q0 -9 -6.5 -16t-16.5 -7zM233 466q-21 0 -27 16t7 27l130 144h-281q-10 0 -17 6.5t-7 17.5q0 23 24 23h311q24 0 32 -19t-9 -36l-127 -140q65 -7 101 -39.5t36 -81.5q0 -59 -51.5 -101.5t-140.5 -42.5q-113 0 -179 71q-17 18 -1.5 34.5t34.5 0.5q60 -60 147 -60 q67 0 104.5 28.5t37.5 69.5q0 38 -31 60t-93 22zM357 32l303 655q6 17 24 17q14 0 21 -11t0 -25l-303 -655q-8 -17 -24 -17q-14 0 -21 11t0 25z" />
<glyph unicode="&#xbf;" horiz-adv-x="517" d="M336 480q0 -20 -13 -33t-33 -13q-19 0 -32 13.5t-13 32.5t13 32.5t32 13.5q20 0 33 -13t13 -33zM306 269q-203 -123 -203 -265q0 -61 42.5 -102t124.5 -41q105 0 186 69q24 17 40.5 -1.5t-2.5 -37.5q-86 -84 -221 -84q-113 0 -170 57.5t-57 138.5q0 89 62.5 169.5 t170.5 144.5q27 14 41 -9t-14 -39z" />
<glyph unicode="&#xc0;" horiz-adv-x="805" d="M15 38l303 616q27 54 85 54q59 0 85 -54l301 -616q7 -15 -0.5 -28.5t-24.5 -13.5q-18 0 -26 17l-83 170h-505l-83 -170q-9 -17 -26 -17t-25 13.5t-1 28.5zM370 635l-194 -398h453l-193 398q-10 22 -33 22t-33 -22zM399 788l-122 124q-14 14 -9 29.5t19 18t28 -9.5 l121 -125q13 -13 8.5 -28t-18 -17.5t-27.5 8.5z" />
<glyph unicode="&#xc1;" horiz-adv-x="805" d="M15 38l303 616q27 54 85 54q59 0 85 -54l301 -616q7 -15 -0.5 -28.5t-24.5 -13.5q-18 0 -26 17l-83 170h-505l-83 -170q-9 -17 -26 -17t-25 13.5t-1 28.5zM370 635l-194 -398h453l-193 398q-10 22 -33 22t-33 -22zM525 912l-122 -124q-13 -13 -27.5 -8.5t-17.5 17.5t8 28 l120 125q13 13 28.5 9t19 -17.5t-8.5 -29.5z" />
<glyph unicode="&#xc2;" horiz-adv-x="805" d="M15 38l303 616q27 54 85 54q59 0 85 -54l301 -616q7 -15 -0.5 -28.5t-24.5 -13.5q-18 0 -26 17l-83 170h-505l-83 -170q-9 -17 -26 -17t-25 13.5t-1 28.5zM370 635l-194 -398h453l-193 398q-10 22 -33 22t-33 -22zM402 899q-16 0 -27 -13l-87 -109q-10 -12 -24 -9.5 t-18 14t5 25.5l88 109q25 30 63 30q37 0 63 -30l88 -109q10 -13 5 -25.5t-17.5 -14t-24.5 9.5l-87 109q-11 13 -27 13z" />
<glyph unicode="&#xc3;" horiz-adv-x="805" d="M15 38l303 616q27 54 85 54q59 0 85 -54l301 -616q7 -15 -0.5 -28.5t-24.5 -13.5q-18 0 -26 17l-83 170h-505l-83 -170q-9 -17 -26 -17t-25 13.5t-1 28.5zM370 635l-194 -398h453l-193 398q-10 22 -33 22t-33 -22zM221 815q0 44 29 74t73 30q51 0 95 -46q32 -32 61 -32 q24 0 40 15.5t16 39.5q0 10 6.5 17t17.5 7q24 0 24 -26q0 -44 -29.5 -73.5t-74.5 -29.5q-22 0 -41.5 8t-29 16t-24.5 23q-34 32 -61 32q-23 0 -38 -15.5t-15 -39.5q0 -26 -25 -26q-11 0 -17.5 7.5t-6.5 18.5z" />
<glyph unicode="&#xc4;" horiz-adv-x="805" d="M15 38l303 616q27 54 85 54q59 0 85 -54l301 -616q7 -15 -0.5 -28.5t-24.5 -13.5q-18 0 -26 17l-83 170h-505l-83 -170q-9 -17 -26 -17t-25 13.5t-1 28.5zM370 635l-194 -398h453l-193 398q-10 22 -33 22t-33 -22zM237 841q0 19 13 32t32 13t32 -13t13 -32t-13 -32 t-32 -13t-32 13t-13 32zM478 841q0 19 13 32t32 13t32 -13t13 -32t-13 -32t-32 -13t-32 13t-13 32z" />
<glyph unicode="&#xc5;" horiz-adv-x="805" d="M15 38l303 616q27 54 85 54q59 0 85 -54l301 -616q7 -15 -0.5 -28.5t-24.5 -13.5q-18 0 -26 17l-83 170h-505l-83 -170q-9 -17 -26 -17t-25 13.5t-1 28.5zM370 635l-194 -398h453l-193 398q-10 22 -33 22t-33 -22zM293 884q0 47 31.5 78t77.5 31t77.5 -31t31.5 -78 t-31.5 -78t-77.5 -31t-77.5 31t-31.5 78zM334 884q0 -30 19.5 -49t48.5 -19t48.5 19t19.5 49t-19.5 49t-48.5 19t-48.5 -19t-19.5 -49z" />
<glyph unicode="&#xc6;" horiz-adv-x="1053" d="M524 0q-15 0 -24 10t-9 24v149h-342l-82 -170q-9 -17 -26 -17t-25 13.5t-1 28.5l299 608q27 54 85 54h548q11 0 19 -8t8 -20q0 -11 -8 -19t-19 -8h-399v-268h309q11 0 19 -8t8 -19t-8 -19t-19 -8h-309v-268h399q11 0 19 -8t8 -19q0 -12 -8 -20t-19 -8h-423zM491 645h-91 q-26 0 -37 -23l-187 -385h315v408z" />
<glyph unicode="&#xc7;" horiz-adv-x="787" d="M403 -102h-26q-17 0 -23 11.5t1 26.5l22 51q-147 12 -230 107.5t-83 255.5q0 162 97 263.5t261 101.5q106 0 183 -43t114 -114q8 -18 -1 -31t-23 -12t-24 12q-83 132 -249 132q-138 0 -218.5 -85t-80.5 -224q0 -141 79 -225t215 -84q91 0 161 43.5t106 109.5 q13 21 36 9.5t11 -37.5q-34 -73 -120.5 -126.5t-191.5 -54.5l-20 -45q62 -1 93 -26.5t31 -68.5q0 -41 -31.5 -66.5t-84.5 -25.5q-51 0 -86 24q-16 12 -6.5 28t28.5 7q30 -16 66 -16q33 0 52 14.5t19 36.5q0 51 -77 51z" />
<glyph unicode="&#xc8;" horiz-adv-x="726" d="M172 55h449q11 0 19 -8t8 -19q0 -12 -8 -20t-19 -8h-473q-15 0 -24.5 10t-9.5 24v632q0 14 9.5 24t24.5 10h473q11 0 19 -8t8 -20q0 -11 -8 -19t-19 -8h-449v-268h358q11 0 19.5 -8t8.5 -19t-8.5 -19t-19.5 -8h-358v-268zM376 788l-122 124q-14 14 -9 29.5t19 18t28 -9.5 l121 -125q13 -13 8.5 -28t-18 -17.5t-27.5 8.5z" />
<glyph unicode="&#xc9;" horiz-adv-x="726" d="M502 912l-122 -124q-13 -13 -27.5 -8.5t-17.5 17.5t8 28l120 125q13 13 28.5 9t19 -17.5t-8.5 -29.5zM172 55h449q11 0 19 -8t8 -19q0 -12 -8 -20t-19 -8h-473q-15 0 -24.5 10t-9.5 24v632q0 14 9.5 24t24.5 10h473q11 0 19 -8t8 -20q0 -11 -8 -19t-19 -8h-449v-268h358 q11 0 19.5 -8t8.5 -19t-8.5 -19t-19.5 -8h-358v-268z" />
<glyph unicode="&#xca;" horiz-adv-x="726" d="M380 899q-16 0 -27 -13l-87 -109q-10 -12 -24 -9.5t-18 14t5 25.5l88 109q25 30 63 30q37 0 63 -30l88 -109q10 -13 5 -25.5t-17.5 -14t-24.5 9.5l-87 109q-11 13 -27 13zM172 55h449q11 0 19 -8t8 -19q0 -12 -8 -20t-19 -8h-473q-15 0 -24.5 10t-9.5 24v632q0 14 9.5 24 t24.5 10h473q11 0 19 -8t8 -20q0 -11 -8 -19t-19 -8h-449v-268h358q11 0 19.5 -8t8.5 -19t-8.5 -19t-19.5 -8h-358v-268z" />
<glyph unicode="&#xcb;" horiz-adv-x="726" d="M214 841q0 19 13 32t32 13t32 -13t13 -32t-13 -32t-32 -13t-32 13t-13 32zM455 841q0 19 13 32t32 13t32 -13t13 -32t-13 -32t-32 -13t-32 13t-13 32zM172 55h449q11 0 19 -8t8 -19q0 -12 -8 -20t-19 -8h-473q-15 0 -24.5 10t-9.5 24v632q0 14 9.5 24t24.5 10h473 q11 0 19 -8t8 -20q0 -11 -8 -19t-19 -8h-449v-268h358q11 0 19.5 -8t8.5 -19t-8.5 -19t-19.5 -8h-358v-268z" />
<glyph unicode="&#xcc;" horiz-adv-x="286" d="M172 675v-650q0 -12 -8.5 -20.5t-20.5 -8.5t-20.5 8.5t-8.5 20.5v650q0 12 8.5 20.5t20.5 8.5t20.5 -8.5t8.5 -20.5zM139 788l-122 124q-14 14 -9 29.5t19 18t28 -9.5l121 -125q13 -13 8.5 -28t-18 -17.5t-27.5 8.5z" />
<glyph unicode="&#xcd;" horiz-adv-x="286" d="M172 675v-650q0 -12 -8.5 -20.5t-20.5 -8.5t-20.5 8.5t-8.5 20.5v650q0 12 8.5 20.5t20.5 8.5t20.5 -8.5t8.5 -20.5zM265 912l-122 -124q-13 -13 -27.5 -8.5t-17.5 17.5t8 28l120 125q13 13 28.5 9t19 -17.5t-8.5 -29.5z" />
<glyph unicode="&#xce;" horiz-adv-x="286" d="M172 675v-650q0 -12 -8.5 -20.5t-20.5 -8.5t-20.5 8.5t-8.5 20.5v650q0 12 8.5 20.5t20.5 8.5t20.5 -8.5t8.5 -20.5zM143 899q-16 0 -27 -13l-87 -109q-10 -12 -24 -9.5t-18 14t5 25.5l88 109q25 30 63 30q37 0 63 -30l88 -109q10 -13 5 -25.5t-17.5 -14t-24.5 9.5 l-87 109q-11 13 -27 13z" />
<glyph unicode="&#xcf;" horiz-adv-x="286" d="M172 675v-650q0 -12 -8.5 -20.5t-20.5 -8.5t-20.5 8.5t-8.5 20.5v650q0 12 8.5 20.5t20.5 8.5t20.5 -8.5t8.5 -20.5zM-23 841q0 19 13 32t32 13t32 -13t13 -32t-13 -32t-32 -13t-32 13t-13 32zM218 841q0 19 13 32t32 13t32 -13t13 -32t-13 -32t-32 -13t-32 13t-13 32z " />
<glyph unicode="&#xd0;" horiz-adv-x="842" d="M395 320h-189v-295q0 -12 -8.5 -20.5t-20.5 -8.5t-20.5 8.5t-8.5 20.5v295h-90q-11 0 -19.5 7.5t-8.5 18.5q0 12 8 19t20 7h90v294q0 15 9.5 24.5t24.5 9.5h212q176 0 277 -97.5t101 -252.5t-101 -252.5t-277 -97.5h-45q-11 0 -19 8t-8 19q0 12 8 19.5t19 7.5h45 q150 0 235 82.5t85 213.5t-85 213.5t-235 82.5h-188v-274h189q11 0 19.5 -7t8.5 -19q0 -11 -8.5 -18.5t-19.5 -7.5z" />
<glyph unicode="&#xd1;" horiz-adv-x="886" d="M595 43l-356 587q-11 18 -32 18q-14 0 -24.5 -10.5t-10.5 -26.5v-586q0 -13 -8 -21t-21 -8t-21 8t-8 21v587q0 39 27.5 66t67.5 27q55 0 83 -50l355 -585q11 -18 32 -18q14 0 24.5 10.5t10.5 26.5v586q0 13 8 21t21 8t21 -8t8 -21v-587q0 -39 -27.5 -66t-67.5 -27 q-55 0 -82 48zM275 815q0 44 29 74t73 30q51 0 95 -46q32 -32 61 -32q24 0 40 15.5t16 39.5q0 10 6.5 17t17.5 7q24 0 24 -26q0 -44 -29.5 -73.5t-74.5 -29.5q-22 0 -41.5 8t-29 16t-24.5 23q-34 32 -61 32q-23 0 -38 -15.5t-15 -39.5q0 -26 -25 -26q-11 0 -17.5 7.5 t-6.5 18.5z" />
<glyph unicode="&#xd2;" horiz-adv-x="830" d="M424 661q-139 0 -221.5 -86t-82.5 -225q0 -144 77.5 -227.5t206.5 -83.5q140 0 223 85.5t83 225.5q0 144 -77.5 227.5t-208.5 83.5zM424 715q155 0 248.5 -98.5t93.5 -266.5q0 -163 -98.5 -264t-263.5 -101q-153 0 -246.5 99t-93.5 266q0 162 98 263.5t262 101.5z M410 788l-122 124q-14 14 -9 29.5t19 18t28 -9.5l121 -125q13 -13 8.5 -28t-18 -17.5t-27.5 8.5z" />
<glyph unicode="&#xd3;" horiz-adv-x="830" d="M537 912l-122 -124q-13 -13 -27.5 -8.5t-17.5 17.5t8 28l120 125q13 13 28.5 9t19 -17.5t-8.5 -29.5zM424 661q-139 0 -221.5 -86t-82.5 -225q0 -144 77.5 -227.5t206.5 -83.5q140 0 223 85.5t83 225.5q0 144 -77.5 227.5t-208.5 83.5zM424 715q155 0 248.5 -98.5 t93.5 -266.5q0 -163 -98.5 -264t-263.5 -101q-153 0 -246.5 99t-93.5 266q0 162 98 263.5t262 101.5z" />
<glyph unicode="&#xd4;" horiz-adv-x="830" d="M414 899q-16 0 -27 -13l-87 -109q-10 -12 -24 -9.5t-18 14t5 25.5l88 109q25 30 63 30q37 0 63 -30l88 -109q10 -13 5 -25.5t-17.5 -14t-24.5 9.5l-87 109q-11 13 -27 13zM424 661q-139 0 -221.5 -86t-82.5 -225q0 -144 77.5 -227.5t206.5 -83.5q140 0 223 85.5t83 225.5 q0 144 -77.5 227.5t-208.5 83.5zM424 715q155 0 248.5 -98.5t93.5 -266.5q0 -163 -98.5 -264t-263.5 -101q-153 0 -246.5 99t-93.5 266q0 162 98 263.5t262 101.5z" />
<glyph unicode="&#xd5;" horiz-adv-x="830" d="M424 661q-139 0 -221.5 -86t-82.5 -225q0 -144 77.5 -227.5t206.5 -83.5q140 0 223 85.5t83 225.5q0 144 -77.5 227.5t-208.5 83.5zM424 715q155 0 248.5 -98.5t93.5 -266.5q0 -163 -98.5 -264t-263.5 -101q-153 0 -246.5 99t-93.5 266q0 162 98 263.5t262 101.5z M233 815q0 44 29 74t73 30q51 0 95 -46q32 -32 61 -32q24 0 40 15.5t16 39.5q0 10 6.5 17t17.5 7q24 0 24 -26q0 -44 -29.5 -73.5t-74.5 -29.5q-22 0 -41.5 8t-29 16t-24.5 23q-34 32 -61 32q-23 0 -38 -15.5t-15 -39.5q0 -26 -25 -26q-11 0 -17.5 7.5t-6.5 18.5z" />
<glyph unicode="&#xd6;" horiz-adv-x="830" d="M248 841q0 19 13 32t32 13t32 -13t13 -32t-13 -32t-32 -13t-32 13t-13 32zM489 841q0 19 13 32t32 13t32 -13t13 -32t-13 -32t-32 -13t-32 13t-13 32zM424 661q-139 0 -221.5 -86t-82.5 -225q0 -144 77.5 -227.5t206.5 -83.5q140 0 223 85.5t83 225.5q0 144 -77.5 227.5 t-208.5 83.5zM424 715q155 0 248.5 -98.5t93.5 -266.5q0 -163 -98.5 -264t-263.5 -101q-153 0 -246.5 99t-93.5 266q0 162 98 263.5t262 101.5z" />
<glyph unicode="&#xd7;" horiz-adv-x="622" d="M96 78l178 182l-179 183q-13 13 -6.5 29.5t25.5 16.5q12 0 20 -8l178 -182l177 182q8 8 20 8q18 0 24 -16t-6 -29l-178 -183l178 -182q13 -13 7 -30t-25 -17q-11 0 -20 9l-178 181l-177 -181q-9 -9 -20 -9q-19 0 -25.5 16.5t7.5 29.5z" />
<glyph unicode="&#xd8;" horiz-adv-x="830" d="M424 715q155 0 248.5 -98.5t93.5 -266.5q0 -163 -98.5 -264t-263.5 -101q-153 0 -246.5 99t-93.5 266q0 162 98 263.5t262 101.5zM424 661q-139 0 -221.5 -86t-82.5 -225q0 -178 114 -260l314 547q-54 24 -124 24zM710 350q0 177 -114 259l-315 -546q54 -24 123 -24 q140 0 223 85.5t83 225.5z" />
<glyph unicode="&#xd9;" horiz-adv-x="805" d="M98 291v384q0 12 8.5 20.5t20.5 8.5t20.5 -8.5t8.5 -20.5v-379q0 -111 66 -182t180 -71t180.5 71t66.5 182v379q0 12 8.5 20.5t20.5 8.5t20.5 -8.5t8.5 -20.5v-384q0 -133 -83 -219.5t-222 -86.5q-138 0 -221 86.5t-83 219.5zM398 788l-122 124q-14 14 -9 29.5t19 18 t28 -9.5l121 -125q13 -13 8.5 -28t-18 -17.5t-27.5 8.5z" />
<glyph unicode="&#xda;" horiz-adv-x="805" d="M524 912l-122 -124q-13 -13 -27.5 -8.5t-17.5 17.5t8 28l120 125q13 13 28.5 9t19 -17.5t-8.5 -29.5zM98 291v384q0 12 8.5 20.5t20.5 8.5t20.5 -8.5t8.5 -20.5v-379q0 -111 66 -182t180 -71t180.5 71t66.5 182v379q0 12 8.5 20.5t20.5 8.5t20.5 -8.5t8.5 -20.5v-384 q0 -133 -83 -219.5t-222 -86.5q-138 0 -221 86.5t-83 219.5z" />
<glyph unicode="&#xdb;" horiz-adv-x="805" d="M402 899q-16 0 -27 -13l-87 -109q-10 -12 -24 -9.5t-18 14t5 25.5l88 109q25 30 63 30q37 0 63 -30l88 -109q10 -13 5 -25.5t-17.5 -14t-24.5 9.5l-87 109q-11 13 -27 13zM98 291v384q0 12 8.5 20.5t20.5 8.5t20.5 -8.5t8.5 -20.5v-379q0 -111 66 -182t180 -71t180.5 71 t66.5 182v379q0 12 8.5 20.5t20.5 8.5t20.5 -8.5t8.5 -20.5v-384q0 -133 -83 -219.5t-222 -86.5q-138 0 -221 86.5t-83 219.5z" />
<glyph unicode="&#xdc;" horiz-adv-x="805" d="M236 841q0 19 13 32t32 13t32 -13t13 -32t-13 -32t-32 -13t-32 13t-13 32zM477 841q0 19 13 32t32 13t32 -13t13 -32t-13 -32t-32 -13t-32 13t-13 32zM98 291v384q0 12 8.5 20.5t20.5 8.5t20.5 -8.5t8.5 -20.5v-379q0 -111 66 -182t180 -71t180.5 71t66.5 182v379 q0 12 8.5 20.5t20.5 8.5t20.5 -8.5t8.5 -20.5v-384q0 -133 -83 -219.5t-222 -86.5q-138 0 -221 86.5t-83 219.5z" />
<glyph unicode="&#xdd;" d="M283 323l-271 335q-10 12 -3.5 29t26.5 17q12 0 21 -10l270 -335q11 -13 28 -13q18 0 29 13l269 335q10 10 22 10q20 0 26.5 -17t-4.5 -29l-270 -335q-17 -20 -42 -29v-269q0 -12 -8.5 -20.5t-21.5 -8.5q-12 0 -20.5 8.5t-8.5 20.5v268q-24 8 -42 30zM477 912l-122 -124 q-13 -13 -27.5 -8.5t-17.5 17.5t8 28l120 125q13 13 28.5 9t19 -17.5t-8.5 -29.5z" />
<glyph unicode="&#xde;" horiz-adv-x="704" d="M172 675v-82h252q102 0 170 -69t68 -169q0 -99 -68 -168t-170 -69h-102q-12 0 -21 8.5t-9 21.5q0 12 9 20.5t21 8.5h102q79 0 130.5 52t51.5 128t-51.5 128.5t-130.5 52.5h-252v-513q0 -12 -8.5 -20.5t-20.5 -8.5t-20.5 8.5t-8.5 20.5v650q0 12 8.5 20.5t20.5 8.5 t20.5 -8.5t8.5 -20.5z" />
<glyph unicode="&#xdf;" horiz-adv-x="767" d="M364 790q89 0 141 -43.5t52 -112.5q0 -37 -15 -65t-37 -45.5t-44 -33.5t-37 -37.5t-15 -47.5q0 -38 24 -61t59.5 -30.5t77.5 -18.5t77.5 -24t59.5 -46t24 -85q0 -71 -62 -113t-167 -42q-152 0 -240 59q-15 11 -13.5 26t14.5 19.5t31 -3.5q87 -49 206 -49q83 0 129 28 t46 75q0 44 -33 67.5t-80 33t-94.5 22t-80.5 47t-33 94.5q0 36 15 63t37 44t43.5 32.5t36.5 37.5t15 50q0 47 -36 76t-101 29q-86 0 -140 -53.5t-54 -150.5v-508q0 -11 -8.5 -19.5t-19.5 -8.5q-12 0 -20 8.5t-8 19.5v508q0 122 70.5 190t179.5 68z" />
<glyph unicode="&#xe0;" horiz-adv-x="699" d="M349 40q41 0 81 12q23 3 28 -20t-20 -30q-47 -15 -94 -15q-125 0 -200.5 73t-75.5 197q0 125 82 202.5t211 77.5q101 0 169 -52v13q0 11 8 19.5t20 8.5q11 0 19 -8.5t8 -19.5v-474q0 -11 -8 -19.5t-19 -8.5q-12 0 -20 8.5t-8 19.5v401q-71 60 -164 60q-110 0 -176.5 -62 t-66.5 -163q0 -103 60 -161.5t166 -58.5zM361 630l-122 124q-14 14 -9 29.5t19 18t28 -9.5l121 -125q13 -13 8.5 -28t-18 -17.5t-27.5 8.5z" />
<glyph unicode="&#xe1;" horiz-adv-x="699" d="M349 40q41 0 81 12q23 3 28 -20t-20 -30q-47 -15 -94 -15q-125 0 -200.5 73t-75.5 197q0 125 82 202.5t211 77.5q101 0 169 -52v13q0 11 8 19.5t20 8.5q11 0 19 -8.5t8 -19.5v-474q0 -11 -8 -19.5t-19 -8.5q-12 0 -20 8.5t-8 19.5v401q-71 60 -164 60q-110 0 -176.5 -62 t-66.5 -163q0 -103 60 -161.5t166 -58.5zM487 754l-122 -124q-13 -13 -27.5 -8.5t-17.5 17.5t8 28l120 125q13 13 28.5 9t19 -17.5t-8.5 -29.5z" />
<glyph unicode="&#xe2;" horiz-adv-x="699" d="M349 40q41 0 81 12q23 3 28 -20t-20 -30q-47 -15 -94 -15q-125 0 -200.5 73t-75.5 197q0 125 82 202.5t211 77.5q101 0 169 -52v13q0 11 8 19.5t20 8.5q11 0 19 -8.5t8 -19.5v-474q0 -11 -8 -19.5t-19 -8.5q-12 0 -20 8.5t-8 19.5v401q-71 60 -164 60q-110 0 -176.5 -62 t-66.5 -163q0 -103 60 -161.5t166 -58.5zM364 741q-16 0 -27 -13l-87 -109q-10 -12 -24 -9.5t-18 14t5 25.5l88 109q25 30 63 30q37 0 63 -30l88 -109q10 -13 5 -25.5t-17.5 -14t-24.5 9.5l-87 109q-11 13 -27 13z" />
<glyph unicode="&#xe3;" horiz-adv-x="699" d="M349 40q41 0 81 12q23 3 28 -20t-20 -30q-47 -15 -94 -15q-125 0 -200.5 73t-75.5 197q0 125 82 202.5t211 77.5q101 0 169 -52v13q0 11 8 19.5t20 8.5q11 0 19 -8.5t8 -19.5v-474q0 -11 -8 -19.5t-19 -8.5q-12 0 -20 8.5t-8 19.5v401q-71 60 -164 60q-110 0 -176.5 -62 t-66.5 -163q0 -103 60 -161.5t166 -58.5zM183 657q0 44 29 74t73 30q51 0 95 -46q32 -32 61 -32q24 0 40 15.5t16 39.5q0 10 6.5 17t17.5 7q24 0 24 -26q0 -44 -29.5 -73.5t-74.5 -29.5q-22 0 -41.5 8t-29 16t-24.5 23q-34 32 -61 32q-23 0 -38 -15.5t-15 -39.5 q0 -26 -25 -26q-11 0 -17.5 7.5t-6.5 18.5z" />
<glyph unicode="&#xe4;" horiz-adv-x="699" d="M349 40q41 0 81 12q23 3 28 -20t-20 -30q-47 -15 -94 -15q-125 0 -200.5 73t-75.5 197q0 125 82 202.5t211 77.5q101 0 169 -52v13q0 11 8 19.5t20 8.5q11 0 19 -8.5t8 -19.5v-474q0 -11 -8 -19.5t-19 -8.5q-12 0 -20 8.5t-8 19.5v401q-71 60 -164 60q-110 0 -176.5 -62 t-66.5 -163q0 -103 60 -161.5t166 -58.5zM199 683q0 19 13 32t32 13t32 -13t13 -32t-13 -32t-32 -13t-32 13t-13 32zM440 683q0 19 13 32t32 13t32 -13t13 -32t-13 -32t-32 -13t-32 13t-13 32z" />
<glyph unicode="&#xe5;" horiz-adv-x="699" d="M349 40q41 0 81 12q23 3 28 -20t-20 -30q-47 -15 -94 -15q-125 0 -200.5 73t-75.5 197q0 125 82 202.5t211 77.5q101 0 169 -52v13q0 11 8 19.5t20 8.5q11 0 19 -8.5t8 -19.5v-474q0 -11 -8 -19.5t-19 -8.5q-12 0 -20 8.5t-8 19.5v401q-71 60 -164 60q-110 0 -176.5 -62 t-66.5 -163q0 -103 60 -161.5t166 -58.5zM255 726q0 47 31.5 78t77.5 31t77.5 -31t31.5 -78t-31.5 -78t-77.5 -31t-77.5 31t-31.5 78zM296 726q0 -30 19.5 -49t48.5 -19t48.5 19t19.5 49t-19.5 49t-48.5 19t-48.5 -19t-19.5 -49z" />
<glyph unicode="&#xe6;" horiz-adv-x="1128" d="M683 282h332q-4 92 -58.5 148.5t-146.5 56.5q-107 0 -166 -63.5t-59 -162.5q0 -103 62 -163t166 -60q124 0 189 88q21 20 39 3.5t-1 -37.5q-33 -47 -93 -77t-136 -30q-127 0 -203 75.5t-76 211.5v152q-67 61 -168 61q-109 0 -175 -61.5t-66 -161.5q0 -104 60 -163 t166 -59q39 0 81 11q24 3 29 -20.5t-21 -30.5q-46 -13 -94 -13q-125 0 -200.5 73t-75.5 199q0 124 81 201t211 77q98 0 172 -54v16q0 11 8 19t19 8t18.5 -8t7.5 -19v-87q31 59 89 92t138 33q120 0 188.5 -76t68.5 -188q0 -17 -10 -27.5t-27 -10.5h-349q-10 0 -17 7t-7 17 q0 9 7 16t17 7z" />
<glyph unicode="&#xe7;" horiz-adv-x="628" d="M319 -102h-26q-17 0 -23 11.5t1 26.5l22 52q-106 12 -165.5 85t-59.5 188q0 118 73 197t207 79q70 0 128 -26t87 -66q16 -25 -4 -40t-39 7q-61 72 -172 72q-109 0 -166.5 -62.5t-57.5 -160.5q0 -103 56 -163t158 -60q66 0 117 28.5t79 74.5q14 23 35.5 11t8.5 -36 q-32 -57 -96.5 -94t-145.5 -37h-1l-20 -45q62 -1 93 -26.5t31 -68.5q0 -41 -31.5 -66.5t-84.5 -25.5q-51 0 -86 24q-16 12 -6.5 28t28.5 7q30 -16 66 -16q33 0 52 14.5t19 36.5q0 51 -77 51z" />
<glyph unicode="&#xe8;" horiz-adv-x="663" d="M569 235h-350q-10 0 -17 7t-7 17q0 9 7 16t17 7h332q-4 92 -58.5 148.5t-146.5 56.5q-105 0 -164.5 -64.5t-59.5 -161.5q0 -103 61.5 -163t165.5 -60q124 0 190 88q20 20 38 3.5t-1 -37.5q-32 -46 -92.5 -76.5t-135.5 -30.5q-127 0 -203.5 73.5t-76.5 200.5 q0 117 74 197.5t203 80.5q123 0 191.5 -75.5t68.5 -188.5q0 -17 -10 -27.5t-26 -10.5zM341 630l-122 124q-14 14 -9 29.5t19 18t28 -9.5l121 -125q13 -13 8.5 -28t-18 -17.5t-27.5 8.5z" />
<glyph unicode="&#xe9;" horiz-adv-x="663" d="M569 235h-350q-10 0 -17 7t-7 17q0 9 7 16t17 7h332q-4 92 -58.5 148.5t-146.5 56.5q-105 0 -164.5 -64.5t-59.5 -161.5q0 -103 61.5 -163t165.5 -60q124 0 190 88q20 20 38 3.5t-1 -37.5q-32 -46 -92.5 -76.5t-135.5 -30.5q-127 0 -203.5 73.5t-76.5 200.5 q0 117 74 197.5t203 80.5q123 0 191.5 -75.5t68.5 -188.5q0 -17 -10 -27.5t-26 -10.5zM468 754l-122 -124q-13 -13 -27.5 -8.5t-17.5 17.5t8 28l120 125q13 13 28.5 9t19 -17.5t-8.5 -29.5z" />
<glyph unicode="&#xea;" horiz-adv-x="663" d="M569 235h-350q-10 0 -17 7t-7 17q0 9 7 16t17 7h332q-4 92 -58.5 148.5t-146.5 56.5q-105 0 -164.5 -64.5t-59.5 -161.5q0 -103 61.5 -163t165.5 -60q124 0 190 88q20 20 38 3.5t-1 -37.5q-32 -46 -92.5 -76.5t-135.5 -30.5q-127 0 -203.5 73.5t-76.5 200.5 q0 117 74 197.5t203 80.5q123 0 191.5 -75.5t68.5 -188.5q0 -17 -10 -27.5t-26 -10.5zM345 741q-16 0 -27 -13l-87 -109q-10 -12 -24 -9.5t-18 14t5 25.5l88 109q25 30 63 30q37 0 63 -30l88 -109q10 -13 5 -25.5t-17.5 -14t-24.5 9.5l-87 109q-11 13 -27 13z" />
<glyph unicode="&#xeb;" horiz-adv-x="663" d="M569 235h-350q-10 0 -17 7t-7 17q0 9 7 16t17 7h332q-4 92 -58.5 148.5t-146.5 56.5q-105 0 -164.5 -64.5t-59.5 -161.5q0 -103 61.5 -163t165.5 -60q124 0 190 88q20 20 38 3.5t-1 -37.5q-32 -46 -92.5 -76.5t-135.5 -30.5q-127 0 -203.5 73.5t-76.5 200.5 q0 117 74 197.5t203 80.5q123 0 191.5 -75.5t68.5 -188.5q0 -17 -10 -27.5t-26 -10.5zM420 683q0 19 13 32t32 13t32 -13t13 -32t-13 -32t-32 -13t-32 13t-13 32zM179 683q0 19 13 32t32 13t32 -13t13 -32t-13 -32t-32 -13t-32 13t-13 32z" />
<glyph unicode="&#xec;" horiz-adv-x="284" d="M114 24v474q0 11 8 19.5t20 8.5q11 0 19.5 -8.5t8.5 -19.5v-474q0 -11 -8.5 -19.5t-19.5 -8.5q-12 0 -20 8.5t-8 19.5zM137 630l-122 124q-14 14 -9 29.5t19 18t28 -9.5l121 -125q13 -13 8.5 -28t-18 -17.5t-27.5 8.5z" />
<glyph unicode="&#xed;" horiz-adv-x="284" d="M264 754l-122 -124q-13 -13 -27.5 -8.5t-17.5 17.5t8 28l120 125q13 13 28.5 9t19 -17.5t-8.5 -29.5zM114 24v474q0 11 8 19.5t20 8.5q11 0 19.5 -8.5t8.5 -19.5v-474q0 -11 -8.5 -19.5t-19.5 -8.5q-12 0 -20 8.5t-8 19.5z" />
<glyph unicode="&#xee;" horiz-adv-x="284" d="M142 741q-16 0 -27 -13l-87 -109q-10 -12 -24 -9.5t-18 14t5 25.5l88 109q25 30 63 30q37 0 63 -30l88 -109q10 -13 5 -25.5t-17.5 -14t-24.5 9.5l-87 109q-11 13 -27 13zM114 24v474q0 11 8 19.5t20 8.5q11 0 19.5 -8.5t8.5 -19.5v-474q0 -11 -8.5 -19.5t-19.5 -8.5 q-12 0 -20 8.5t-8 19.5z" />
<glyph unicode="&#xef;" horiz-adv-x="284" d="M-24 683q0 19 13 32t32 13t32 -13t13 -32t-13 -32t-32 -13t-32 13t-13 32zM217 683q0 19 13 32t32 13t32 -13t13 -32t-13 -32t-32 -13t-32 13t-13 32zM114 24v474q0 11 8 19.5t20 8.5q11 0 19.5 -8.5t8.5 -19.5v-474q0 -11 -8.5 -19.5t-19.5 -8.5q-12 0 -20 8.5t-8 19.5z " />
<glyph unicode="&#xf0;" horiz-adv-x="677" d="M463 749l-61 -44q97 -71 152 -181.5t55 -223.5q0 -146 -74 -230.5t-206 -84.5q-115 0 -188 70.5t-73 195.5q0 122 74 194t202 72q110 0 186 -69q-49 142 -172 226l-115 -82q-13 -9 -24.5 -3.5t-12 17t10.5 21.5l100 71q-57 30 -118 43q-17 5 -20 19t8.5 23.5t29.5 4.5 q76 -15 146 -57l75 54q12 9 23.5 3t12 -17.5t-10.5 -21.5zM557 293q0 40 -8 83q-77 91 -202 91q-107 0 -165.5 -58t-58.5 -158q0 -102 57 -158t152 -56q107 0 166 69t59 187z" />
<glyph unicode="&#xf1;" d="M114 24v474q0 11 8 19.5t20 8.5q11 0 19.5 -8.5t8.5 -19.5v-57q88 94 210 94q99 0 163.5 -62.5t64.5 -159.5v-288q0 -12 -8 -20.5t-20 -8.5t-20 8.5t-8 20.5v273q0 84 -50.5 133t-132.5 49q-118 0 -199 -105v-351q0 -11 -8.5 -19.5t-19.5 -8.5q-12 0 -20 8.5t-8 19.5z M168 657q0 44 29 74t73 30q51 0 95 -46q32 -32 61 -32q24 0 40 15.5t16 39.5q0 10 6.5 17t17.5 7q24 0 24 -26q0 -44 -29.5 -73.5t-74.5 -29.5q-22 0 -41.5 8t-29 16t-24.5 23q-34 32 -61 32q-23 0 -38 -15.5t-15 -39.5q0 -26 -25 -26q-11 0 -17.5 7.5t-6.5 18.5z" />
<glyph unicode="&#xf2;" horiz-adv-x="677" d="M347 537q122 0 192 -73.5t70 -202.5q0 -126 -75.5 -201t-205.5 -75q-119 0 -189.5 73.5t-70.5 202.5q0 125 74.5 200.5t204.5 75.5zM330 35q106 0 165 61t59 165q0 107 -55 166.5t-152 59.5q-107 0 -165.5 -61.5t-58.5 -164.5q0 -107 55 -166.5t152 -59.5zM334 630 l-122 124q-14 14 -9 29.5t19 18t28 -9.5l121 -125q13 -13 8.5 -28t-18 -17.5t-27.5 8.5z" />
<glyph unicode="&#xf3;" horiz-adv-x="677" d="M461 754l-122 -124q-13 -13 -27.5 -8.5t-17.5 17.5t8 28l120 125q13 13 28.5 9t19 -17.5t-8.5 -29.5zM347 537q122 0 192 -73.5t70 -202.5q0 -126 -75.5 -201t-205.5 -75q-119 0 -189.5 73.5t-70.5 202.5q0 125 74.5 200.5t204.5 75.5zM330 35q106 0 165 61t59 165 q0 107 -55 166.5t-152 59.5q-107 0 -165.5 -61.5t-58.5 -164.5q0 -107 55 -166.5t152 -59.5z" />
<glyph unicode="&#xf4;" horiz-adv-x="677" d="M338 741q-16 0 -27 -13l-87 -109q-10 -12 -24 -9.5t-18 14t5 25.5l88 109q25 30 63 30q37 0 63 -30l88 -109q10 -13 5 -25.5t-17.5 -14t-24.5 9.5l-87 109q-11 13 -27 13zM347 537q122 0 192 -73.5t70 -202.5q0 -126 -75.5 -201t-205.5 -75q-119 0 -189.5 73.5 t-70.5 202.5q0 125 74.5 200.5t204.5 75.5zM330 35q106 0 165 61t59 165q0 107 -55 166.5t-152 59.5q-107 0 -165.5 -61.5t-58.5 -164.5q0 -107 55 -166.5t152 -59.5z" />
<glyph unicode="&#xf5;" horiz-adv-x="677" d="M347 537q122 0 192 -73.5t70 -202.5q0 -126 -75.5 -201t-205.5 -75q-119 0 -189.5 73.5t-70.5 202.5q0 125 74.5 200.5t204.5 75.5zM330 35q106 0 165 61t59 165q0 107 -55 166.5t-152 59.5q-107 0 -165.5 -61.5t-58.5 -164.5q0 -107 55 -166.5t152 -59.5zM157 657 q0 44 29 74t73 30q51 0 95 -46q32 -32 61 -32q24 0 40 15.5t16 39.5q0 10 6.5 17t17.5 7q24 0 24 -26q0 -44 -29.5 -73.5t-74.5 -29.5q-22 0 -41.5 8t-29 16t-24.5 23q-34 32 -61 32q-23 0 -38 -15.5t-15 -39.5q0 -26 -25 -26q-11 0 -17.5 7.5t-6.5 18.5z" />
<glyph unicode="&#xf6;" horiz-adv-x="677" d="M172 683q0 19 13 32t32 13t32 -13t13 -32t-13 -32t-32 -13t-32 13t-13 32zM413 683q0 19 13 32t32 13t32 -13t13 -32t-13 -32t-32 -13t-32 13t-13 32zM347 537q122 0 192 -73.5t70 -202.5q0 -126 -75.5 -201t-205.5 -75q-119 0 -189.5 73.5t-70.5 202.5q0 125 74.5 200.5 t204.5 75.5zM330 35q106 0 165 61t59 165q0 107 -55 166.5t-152 59.5q-107 0 -165.5 -61.5t-58.5 -164.5q0 -107 55 -166.5t152 -59.5z" />
<glyph unicode="&#xf7;" horiz-adv-x="670" d="M288 42q0 19 13.5 32.5t32.5 13.5q20 0 33 -13t13 -33t-13 -33t-33 -13q-19 0 -32.5 13.5t-13.5 32.5zM288 479q0 19 13.5 32.5t32.5 13.5q20 0 33 -13.5t13 -32.5t-13 -32.5t-33 -13.5q-19 0 -32.5 13.5t-13.5 32.5zM572 233h-474q-11 0 -19.5 8.5t-8.5 19.5 q0 12 8.5 20t19.5 8h474q11 0 19.5 -8t8.5 -20q0 -11 -8.5 -19.5t-19.5 -8.5z" />
<glyph unicode="&#xf8;" horiz-adv-x="677" d="M347 537q122 0 192 -73.5t70 -202.5q0 -126 -75.5 -201t-205.5 -75q-119 0 -189.5 73.5t-70.5 202.5q0 125 74.5 200.5t204.5 75.5zM119 261q0 -133 82 -192l235 406q-42 16 -89 16q-108 0 -168 -63t-60 -167zM330 31q107 0 167.5 62.5t60.5 167.5q0 130 -79 189 l-233 -405q39 -14 84 -14z" />
<glyph unicode="&#xf9;" d="M592 498v-474q0 -11 -8 -19.5t-20 -8.5q-11 0 -19 8.5t-8 19.5v57q-88 -94 -211 -94q-99 0 -163.5 62t-64.5 159v289q0 12 8.5 20.5t19.5 8.5q12 0 20 -8.5t8 -20.5v-273q0 -84 50.5 -133.5t132.5 -49.5q118 0 200 106v351q0 11 8 19.5t19 8.5q12 0 20 -8.5t8 -19.5z M341 630l-122 124q-14 14 -9 29.5t19 18t28 -9.5l121 -125q13 -13 8.5 -28t-18 -17.5t-27.5 8.5z" />
<glyph unicode="&#xfa;" d="M592 498v-474q0 -11 -8 -19.5t-20 -8.5q-11 0 -19 8.5t-8 19.5v57q-88 -94 -211 -94q-99 0 -163.5 62t-64.5 159v289q0 12 8.5 20.5t19.5 8.5q12 0 20 -8.5t8 -20.5v-273q0 -84 50.5 -133.5t132.5 -49.5q118 0 200 106v351q0 11 8 19.5t19 8.5q12 0 20 -8.5t8 -19.5z M467 754l-122 -124q-13 -13 -27.5 -8.5t-17.5 17.5t8 28l120 125q13 13 28.5 9t19 -17.5t-8.5 -29.5z" />
<glyph unicode="&#xfb;" d="M592 498v-474q0 -11 -8 -19.5t-20 -8.5q-11 0 -19 8.5t-8 19.5v57q-88 -94 -211 -94q-99 0 -163.5 62t-64.5 159v289q0 12 8.5 20.5t19.5 8.5q12 0 20 -8.5t8 -20.5v-273q0 -84 50.5 -133.5t132.5 -49.5q118 0 200 106v351q0 11 8 19.5t19 8.5q12 0 20 -8.5t8 -19.5z M345 741q-16 0 -27 -13l-87 -109q-10 -12 -24 -9.5t-18 14t5 25.5l88 109q25 30 63 30q37 0 63 -30l88 -109q10 -13 5 -25.5t-17.5 -14t-24.5 9.5l-87 109q-11 13 -27 13z" />
<glyph unicode="&#xfc;" d="M592 498v-474q0 -11 -8 -19.5t-20 -8.5q-11 0 -19 8.5t-8 19.5v57q-88 -94 -211 -94q-99 0 -163.5 62t-64.5 159v289q0 12 8.5 20.5t19.5 8.5q12 0 20 -8.5t8 -20.5v-273q0 -84 50.5 -133.5t132.5 -49.5q118 0 200 106v351q0 11 8 19.5t19 8.5q12 0 20 -8.5t8 -19.5z M420 683q0 19 13 32t32 13t32 -13t13 -32t-13 -32t-32 -13t-32 13t-13 32zM179 683q0 19 13 32t32 13t32 -13t13 -32t-13 -32t-32 -13t-32 13t-13 32z" />
<glyph unicode="&#xfd;" horiz-adv-x="600" d="M219 -152l67 147q-43 11 -60 51l-197 438q-7 15 1 28.5t24 13.5q18 0 26 -17l198 -444q9 -21 30 -22l212 465q7 17 26 17q16 0 24 -12.5t1 -26.5l-304 -660q-7 -15 -22 -16t-24.5 10.5t-1.5 27.5zM422 754l-122 -124q-13 -13 -27.5 -8.5t-17.5 17.5t8 28l120 125 q13 13 28.5 9t19 -17.5t-8.5 -29.5z" />
<glyph unicode="&#xfe;" horiz-adv-x="698" d="M352 484q-39 0 -81 -11q-24 -3 -29 20.5t21 30.5q45 13 94 13q125 0 200.5 -73t75.5 -199q0 -124 -81 -201t-211 -77q-100 0 -171 37v-186q0 -11 -8.5 -19.5t-19.5 -8.5q-12 0 -20 8.5t-8 19.5v924q0 11 8 19.5t20 8.5q11 0 19.5 -8.5t8.5 -19.5v-680q64 -43 167 -43 q109 0 175 61.5t66 161.5q0 104 -60 163t-166 59z" />
<glyph unicode="&#xff;" horiz-adv-x="600" d="M219 -152l67 147q-43 11 -60 51l-197 438q-7 15 1 28.5t24 13.5q18 0 26 -17l198 -444q9 -21 30 -22l212 465q7 17 26 17q16 0 24 -12.5t1 -26.5l-304 -660q-7 -15 -22 -16t-24.5 10.5t-1.5 27.5zM375 683q0 19 13 32t32 13t32 -13t13 -32t-13 -32t-32 -13t-32 13t-13 32 zM134 683q0 19 13 32t32 13t32 -13t13 -32t-13 -32t-32 -13t-32 13t-13 32z" />
<glyph unicode="&#x100;" horiz-adv-x="805" d="M15 38l303 616q27 54 85 54q59 0 85 -54l301 -616q7 -15 -0.5 -28.5t-24.5 -13.5q-18 0 -26 17l-83 170h-505l-83 -170q-9 -17 -26 -17t-25 13.5t-1 28.5zM370 635l-194 -398h453l-193 398q-10 22 -33 22t-33 -22zM538 815h-272q-12 0 -20 7t-8 19q0 11 8.5 18.5 t19.5 7.5h272q11 0 19.5 -7.5t8.5 -18.5q0 -12 -8 -19t-20 -7z" />
<glyph unicode="&#x101;" horiz-adv-x="699" d="M349 40q41 0 81 12q23 3 28 -20t-20 -30q-47 -15 -94 -15q-125 0 -200.5 73t-75.5 197q0 125 82 202.5t211 77.5q101 0 169 -52v13q0 11 8 19.5t20 8.5q11 0 19 -8.5t8 -19.5v-474q0 -11 -8 -19.5t-19 -8.5q-12 0 -20 8.5t-8 19.5v401q-71 60 -164 60q-110 0 -176.5 -62 t-66.5 -163q0 -103 60 -161.5t166 -58.5zM500 657h-272q-12 0 -20 7t-8 19q0 11 8.5 18.5t19.5 7.5h272q11 0 19.5 -7.5t8.5 -18.5q0 -12 -8 -19t-20 -7z" />
<glyph unicode="&#x102;" horiz-adv-x="805" d="M15 38l303 616q27 54 85 54q59 0 85 -54l301 -616q7 -15 -0.5 -28.5t-24.5 -13.5q-18 0 -26 17l-83 170h-505l-83 -170q-9 -17 -26 -17t-25 13.5t-1 28.5zM370 635l-194 -398h453l-193 398q-10 22 -33 22t-33 -22zM252 910q0 12 7.5 19.5t18.5 7.5q10 0 17 -7t7 -16 q0 -44 28.5 -70.5t71.5 -26.5q47 0 76 27t29 70q0 9 7 16t17 7q11 0 18.5 -7.5t7.5 -19.5q0 -60 -41.5 -101.5t-113.5 -41.5q-67 0 -108.5 40.5t-41.5 102.5z" />
<glyph unicode="&#x103;" horiz-adv-x="699" d="M349 40q41 0 81 12q23 3 28 -20t-20 -30q-47 -15 -94 -15q-125 0 -200.5 73t-75.5 197q0 125 82 202.5t211 77.5q101 0 169 -52v13q0 11 8 19.5t20 8.5q11 0 19 -8.5t8 -19.5v-474q0 -11 -8 -19.5t-19 -8.5q-12 0 -20 8.5t-8 19.5v401q-71 60 -164 60q-110 0 -176.5 -62 t-66.5 -163q0 -103 60 -161.5t166 -58.5zM214 752q0 12 7.5 19.5t18.5 7.5q10 0 17 -7t7 -16q0 -44 28.5 -70.5t71.5 -26.5q47 0 76 27t29 70q0 9 7 16t17 7q11 0 18.5 -7.5t7.5 -19.5q0 -60 -41.5 -101.5t-113.5 -41.5q-67 0 -108.5 40.5t-41.5 102.5z" />
<glyph unicode="&#x104;" horiz-adv-x="805" d="M15 38l303 616q27 54 85 54q59 0 85 -54l301 -616q6 -13 0.5 -26t-19.5 -15q-88 -43 -88 -106q0 -28 17.5 -44.5t51.5 -16.5q33 0 62 16q19 9 29 -7t-6 -28q-35 -24 -86 -24q-53 0 -83.5 27t-30.5 72q0 77 98 133l-79 164h-505l-83 -170q-9 -17 -26 -17t-25 13.5t-1 28.5 zM370 635l-194 -398h453l-193 398q-10 22 -33 22t-33 -22z" />
<glyph unicode="&#x105;" horiz-adv-x="699" d="M349 40q41 0 81 12q23 3 28 -20t-20 -30q-47 -15 -94 -15q-125 0 -200.5 73t-75.5 197q0 125 82 202.5t211 77.5q101 0 169 -52v13q0 11 8 19.5t20 8.5q11 0 19 -8.5t8 -19.5v-474q0 -22 -20 -27q-89 -42 -89 -106q0 -28 17.5 -44.5t51.5 -16.5q33 0 62 16q19 9 29 -7 t-6 -28q-35 -24 -86 -24q-53 0 -83.5 27t-30.5 72q0 79 100 134v4v401q-71 60 -164 60q-110 0 -176.5 -62t-66.5 -163q0 -103 60 -161.5t166 -58.5z" />
<glyph unicode="&#x106;" horiz-adv-x="787" d="M545 912l-122 -124q-13 -13 -27.5 -8.5t-17.5 17.5t8 28l120 125q13 13 28.5 9t19 -17.5t-8.5 -29.5zM417 41q91 0 161 43.5t106 109.5q13 21 36 9.5t11 -37.5q-34 -74 -121 -127.5t-192 -53.5q-165 0 -259.5 97t-94.5 268q0 162 97 263.5t261 101.5q106 0 183 -43 t114 -114q8 -18 -1 -31t-23 -12t-24 12q-83 132 -249 132q-138 0 -218.5 -85t-80.5 -224q0 -141 79 -225t215 -84z" />
<glyph unicode="&#x107;" horiz-adv-x="628" d="M469 754l-122 -124q-13 -13 -27.5 -8.5t-17.5 17.5t8 28l120 125q13 13 28.5 9t19 -17.5t-8.5 -29.5zM68 261q0 118 73 197t207 79q70 0 128 -26t87 -66q16 -25 -4 -40t-39 7q-61 72 -172 72q-109 0 -166.5 -62.5t-57.5 -160.5q0 -103 56 -163t158 -60q66 0 117 28.5 t79 74.5q14 23 35.5 11t8.5 -36q-32 -57 -96.5 -94t-145.5 -37q-126 0 -197 75t-71 201z" />
<glyph unicode="&#x108;" horiz-adv-x="787" d="M423 899q-16 0 -27 -13l-87 -109q-10 -12 -24 -9.5t-18 14t5 25.5l88 109q25 30 63 30q37 0 63 -30l88 -109q10 -13 5 -25.5t-17.5 -14t-24.5 9.5l-87 109q-11 13 -27 13zM417 41q91 0 161 43.5t106 109.5q13 21 36 9.5t11 -37.5q-34 -74 -121 -127.5t-192 -53.5 q-165 0 -259.5 97t-94.5 268q0 162 97 263.5t261 101.5q106 0 183 -43t114 -114q8 -18 -1 -31t-23 -12t-24 12q-83 132 -249 132q-138 0 -218.5 -85t-80.5 -224q0 -141 79 -225t215 -84z" />
<glyph unicode="&#x109;" horiz-adv-x="628" d="M346 741q-16 0 -27 -13l-87 -109q-10 -12 -24 -9.5t-18 14t5 25.5l88 109q25 30 63 30q37 0 63 -30l88 -109q10 -13 5 -25.5t-17.5 -14t-24.5 9.5l-87 109q-11 13 -27 13zM68 261q0 118 73 197t207 79q70 0 128 -26t87 -66q16 -25 -4 -40t-39 7q-61 72 -172 72 q-109 0 -166.5 -62.5t-57.5 -160.5q0 -103 56 -163t158 -60q66 0 117 28.5t79 74.5q14 23 35.5 11t8.5 -36q-32 -57 -96.5 -94t-145.5 -37q-126 0 -197 75t-71 201z" />
<glyph unicode="&#x10a;" horiz-adv-x="787" d="M417 41q91 0 161 43.5t106 109.5q13 21 36 9.5t11 -37.5q-34 -74 -121 -127.5t-192 -53.5q-165 0 -259.5 97t-94.5 268q0 162 97 263.5t261 101.5q106 0 183 -43t114 -114q8 -18 -1 -31t-23 -12t-24 12q-83 132 -249 132q-138 0 -218.5 -85t-80.5 -224q0 -141 79 -225 t215 -84zM378 844q0 19 13 32t32 13t32 -13t13 -32t-13 -32t-32 -13t-32 13t-13 32z" />
<glyph unicode="&#x10b;" horiz-adv-x="628" d="M68 261q0 118 73 197t207 79q70 0 128 -26t87 -66q16 -25 -4 -40t-39 7q-61 72 -172 72q-109 0 -166.5 -62.5t-57.5 -160.5q0 -103 56 -163t158 -60q66 0 117 28.5t79 74.5q14 23 35.5 11t8.5 -36q-32 -57 -96.5 -94t-145.5 -37q-126 0 -197 75t-71 201zM301 686 q0 19 13 32t32 13t32 -13t13 -32t-13 -32t-32 -13t-32 13t-13 32z" />
<glyph unicode="&#x10c;" horiz-adv-x="787" d="M423 829q17 0 27 13l87 109q10 12 24 9t18 -14.5t-5 -24.5l-88 -110q-25 -30 -63 -30q-37 0 -63 30l-88 110q-10 12 -5 25t17.5 14.5t24.5 -9.5l87 -109q10 -13 27 -13zM417 41q91 0 161 43.5t106 109.5q13 21 36 9.5t11 -37.5q-34 -74 -121 -127.5t-192 -53.5 q-165 0 -259.5 97t-94.5 268q0 162 97 263.5t261 101.5q106 0 183 -43t114 -114q8 -18 -1 -31t-23 -12t-24 12q-83 132 -249 132q-138 0 -218.5 -85t-80.5 -224q0 -141 79 -225t215 -84z" />
<glyph unicode="&#x10d;" horiz-adv-x="628" d="M346 671q17 0 27 13l87 109q10 12 24 9t18 -14.5t-5 -24.5l-88 -110q-25 -30 -63 -30q-37 0 -63 30l-88 110q-10 12 -5 25t17.5 14.5t24.5 -9.5l87 -109q10 -13 27 -13zM68 261q0 118 73 197t207 79q70 0 128 -26t87 -66q16 -25 -4 -40t-39 7q-61 72 -172 72 q-109 0 -166.5 -62.5t-57.5 -160.5q0 -103 56 -163t158 -60q66 0 117 28.5t79 74.5q14 23 35.5 11t8.5 -36q-32 -57 -96.5 -94t-145.5 -37q-126 0 -197 75t-71 201z" />
<glyph unicode="&#x10e;" horiz-adv-x="812" d="M372 829q17 0 27 13l87 109q10 12 24 9t18 -14.5t-5 -24.5l-88 -110q-25 -30 -63 -30q-37 0 -63 30l-88 110q-10 12 -5 25t17.5 14.5t24.5 -9.5l87 -109q10 -13 27 -13zM364 0h-45q-11 0 -19 8t-8 19q0 12 8 19.5t19 7.5h45q150 0 235 82.5t85 213.5t-85 213.5t-235 82.5 h-188v-621q0 -12 -8.5 -20.5t-20.5 -8.5t-20.5 8.5t-8.5 20.5v641q0 15 9.5 24.5t24.5 9.5h212q176 0 277 -97.5t101 -252.5t-101 -252.5t-277 -97.5z" />
<glyph unicode="&#x10f;" horiz-adv-x="707" d="M349 40q41 0 81 12q23 3 28 -20t-20 -30q-47 -15 -94 -15q-125 0 -200.5 73t-75.5 197q0 125 82 202.5t211 77.5q105 0 169 -45v270q0 11 8 19.5t20 8.5q11 0 19 -8.5t8 -19.5v-738q0 -11 -8 -19.5t-19 -8.5q-12 0 -20 8.5t-8 19.5v407q-69 54 -164 54q-110 0 -176.5 -62 t-66.5 -163q0 -103 60 -161.5t166 -58.5zM748 734l-38 -148q-8 -27 -33 -21t-18 34l37 149q5 18 20 22t26 -6.5t6 -29.5z" />
<glyph unicode="&#x110;" horiz-adv-x="842" d="M395 320h-189v-295q0 -12 -8.5 -20.5t-20.5 -8.5t-20.5 8.5t-8.5 20.5v295h-90q-11 0 -19.5 7.5t-8.5 18.5q0 12 8 19t20 7h90v294q0 15 9.5 24.5t24.5 9.5h212q176 0 277 -97.5t101 -252.5t-101 -252.5t-277 -97.5h-45q-11 0 -19 8t-8 19q0 12 8 19.5t19 7.5h45 q150 0 235 82.5t85 213.5t-85 213.5t-235 82.5h-188v-274h189q11 0 19.5 -7t8.5 -19q0 -11 -8.5 -18.5t-19.5 -7.5z" />
<glyph unicode="&#x111;" horiz-adv-x="703" d="M585 762v-93h75q9 0 15.5 -6t6.5 -16t-6.5 -16t-15.5 -6h-75v-601q0 -11 -8 -19.5t-19 -8.5q-12 0 -20 8.5t-8 19.5v407q-69 54 -164 54q-110 0 -176.5 -62t-66.5 -163q0 -103 60 -161.5t166 -58.5q41 0 81 12q23 3 28 -20t-20 -30q-47 -15 -94 -15q-125 0 -200.5 73 t-75.5 197q0 125 82 202.5t211 77.5q105 0 169 -45v133h-133q-9 0 -15.5 6t-6.5 16t6.5 16t15.5 6h133v93q0 11 8 19.5t20 8.5q11 0 19 -8.5t8 -19.5z" />
<glyph unicode="&#x112;" horiz-adv-x="726" d="M172 55h449q11 0 19 -8t8 -19q0 -12 -8 -20t-19 -8h-473q-15 0 -24.5 10t-9.5 24v632q0 14 9.5 24t24.5 10h473q11 0 19 -8t8 -20q0 -11 -8 -19t-19 -8h-449v-268h358q11 0 19.5 -8t8.5 -19t-8.5 -19t-19.5 -8h-358v-268zM516 815h-272q-12 0 -20 7t-8 19q0 11 8.5 18.5 t19.5 7.5h272q11 0 19.5 -7.5t8.5 -18.5q0 -12 -8 -19t-20 -7z" />
<glyph unicode="&#x113;" horiz-adv-x="663" d="M569 235h-350q-10 0 -17 7t-7 17q0 9 7 16t17 7h332q-4 92 -58.5 148.5t-146.5 56.5q-105 0 -164.5 -64.5t-59.5 -161.5q0 -103 61.5 -163t165.5 -60q124 0 190 88q20 20 38 3.5t-1 -37.5q-32 -46 -92.5 -76.5t-135.5 -30.5q-127 0 -203.5 73.5t-76.5 200.5 q0 117 74 197.5t203 80.5q123 0 191.5 -75.5t68.5 -188.5q0 -17 -10 -27.5t-26 -10.5zM481 657h-272q-12 0 -20 7t-8 19q0 11 8.5 18.5t19.5 7.5h272q11 0 19.5 -7.5t8.5 -18.5q0 -12 -8 -19t-20 -7z" />
<glyph unicode="&#x114;" horiz-adv-x="726" d="M172 55h449q11 0 19 -8t8 -19q0 -12 -8 -20t-19 -8h-473q-15 0 -24.5 10t-9.5 24v632q0 14 9.5 24t24.5 10h473q11 0 19 -8t8 -20q0 -11 -8 -19t-19 -8h-449v-268h358q11 0 19.5 -8t8.5 -19t-8.5 -19t-19.5 -8h-358v-268zM230 910q0 12 7.5 19.5t18.5 7.5q10 0 17 -7 t7 -16q0 -44 28.5 -70.5t71.5 -26.5q47 0 76 27t29 70q0 9 7 16t17 7q11 0 18.5 -7.5t7.5 -19.5q0 -60 -41.5 -101.5t-113.5 -41.5q-67 0 -108.5 40.5t-41.5 102.5z" />
<glyph unicode="&#x115;" horiz-adv-x="663" d="M569 235h-350q-10 0 -17 7t-7 17q0 9 7 16t17 7h332q-4 92 -58.5 148.5t-146.5 56.5q-105 0 -164.5 -64.5t-59.5 -161.5q0 -103 61.5 -163t165.5 -60q124 0 190 88q20 20 38 3.5t-1 -37.5q-32 -46 -92.5 -76.5t-135.5 -30.5q-127 0 -203.5 73.5t-76.5 200.5 q0 117 74 197.5t203 80.5q123 0 191.5 -75.5t68.5 -188.5q0 -17 -10 -27.5t-26 -10.5zM195 752q0 12 7.5 19.5t18.5 7.5q10 0 17 -7t7 -16q0 -44 28.5 -70.5t71.5 -26.5q47 0 76 27t29 70q0 9 7 16t17 7q11 0 18.5 -7.5t7.5 -19.5q0 -60 -41.5 -101.5t-113.5 -41.5 q-67 0 -108.5 40.5t-41.5 102.5z" />
<glyph unicode="&#x116;" horiz-adv-x="726" d="M172 55h449q11 0 19 -8t8 -19q0 -12 -8 -20t-19 -8h-473q-15 0 -24.5 10t-9.5 24v632q0 14 9.5 24t24.5 10h473q11 0 19 -8t8 -20q0 -11 -8 -19t-19 -8h-449v-268h358q11 0 19.5 -8t8.5 -19t-8.5 -19t-19.5 -8h-358v-268zM335 844q0 19 13 32t32 13t32 -13t13 -32 t-13 -32t-32 -13t-32 13t-13 32z" />
<glyph unicode="&#x117;" horiz-adv-x="663" d="M569 235h-350q-10 0 -17 7t-7 17q0 9 7 16t17 7h332q-4 92 -58.5 148.5t-146.5 56.5q-105 0 -164.5 -64.5t-59.5 -161.5q0 -103 61.5 -163t165.5 -60q124 0 190 88q20 20 38 3.5t-1 -37.5q-32 -46 -92.5 -76.5t-135.5 -30.5q-127 0 -203.5 73.5t-76.5 200.5 q0 117 74 197.5t203 80.5q123 0 191.5 -75.5t68.5 -188.5q0 -17 -10 -27.5t-26 -10.5zM300 686q0 19 13 32t32 13t32 -13t13 -32t-13 -32t-32 -13t-32 13t-13 32z" />
<glyph unicode="&#x118;" horiz-adv-x="726" d="M172 55h449q11 0 19 -8t8 -19q0 -22 -20 -27q-94 -43 -94 -108q0 -28 17.5 -44.5t51.5 -16.5q33 0 62 16q19 9 29 -7t-6 -28q-35 -24 -86 -24q-53 0 -83.5 27t-30.5 72q0 64 65 112h-405q-15 0 -24.5 10t-9.5 24v632q0 14 9.5 24t24.5 10h473q11 0 19 -8t8 -20 q0 -11 -8 -19t-19 -8h-449v-268h358q11 0 19.5 -8t8.5 -19t-8.5 -19t-19.5 -8h-358v-268z" />
<glyph unicode="&#x119;" horiz-adv-x="663" d="M569 235h-350q-10 0 -17 7t-7 17q0 9 7 16t17 7h332q-4 92 -58.5 148.5t-146.5 56.5q-105 0 -164.5 -64.5t-59.5 -161.5q0 -103 61.5 -163t165.5 -60q124 0 190 88q20 20 38 3.5t-1 -37.5q-25 -37 -69.5 -64.5t-99.5 -36.5q-88 -43 -88 -106q0 -28 17.5 -44.5t51.5 -16.5 q33 0 62 16q19 9 29 -7t-6 -28q-35 -24 -86 -24q-53 0 -83.5 27t-30.5 72q0 61 56 106q-119 5 -190 78t-71 195q0 117 74 197.5t203 80.5q123 0 191.5 -75.5t68.5 -188.5q0 -17 -10 -27.5t-26 -10.5z" />
<glyph unicode="&#x11a;" horiz-adv-x="726" d="M380 829q17 0 27 13l87 109q10 12 24 9t18 -14.5t-5 -24.5l-88 -110q-25 -30 -63 -30q-37 0 -63 30l-88 110q-10 12 -5 25t17.5 14.5t24.5 -9.5l87 -109q10 -13 27 -13zM172 55h449q11 0 19 -8t8 -19q0 -12 -8 -20t-19 -8h-473q-15 0 -24.5 10t-9.5 24v632q0 14 9.5 24 t24.5 10h473q11 0 19 -8t8 -20q0 -11 -8 -19t-19 -8h-449v-268h358q11 0 19.5 -8t8.5 -19t-8.5 -19t-19.5 -8h-358v-268z" />
<glyph unicode="&#x11b;" horiz-adv-x="663" d="M569 235h-350q-10 0 -17 7t-7 17q0 9 7 16t17 7h332q-4 92 -58.5 148.5t-146.5 56.5q-105 0 -164.5 -64.5t-59.5 -161.5q0 -103 61.5 -163t165.5 -60q124 0 190 88q20 20 38 3.5t-1 -37.5q-32 -46 -92.5 -76.5t-135.5 -30.5q-127 0 -203.5 73.5t-76.5 200.5 q0 117 74 197.5t203 80.5q123 0 191.5 -75.5t68.5 -188.5q0 -17 -10 -27.5t-26 -10.5zM345 671q17 0 27 13l87 109q10 12 24 9t18 -14.5t-5 -24.5l-88 -110q-25 -30 -63 -30q-37 0 -63 30l-88 110q-10 12 -5 25t17.5 14.5t24.5 -9.5l87 -109q10 -13 27 -13z" />
<glyph unicode="&#x11c;" horiz-adv-x="807" d="M421 899q-16 0 -27 -13l-87 -109q-10 -12 -24 -9.5t-18 14t5 25.5l88 109q25 30 63 30q37 0 63 -30l88 -109q10 -13 5 -25.5t-17.5 -14t-24.5 9.5l-87 109q-11 13 -27 13zM678 528q-81 131 -255 131q-141 0 -222 -84.5t-81 -224.5q0 -145 80.5 -227t221.5 -82 q128 0 200 72t75 184h-256q-12 0 -20 7.5t-8 19.5t8 19.5t20 7.5h275q37 0 37 -38q0 -142 -90 -235t-244 -93q-167 0 -261 96.5t-94 268.5q0 160 96 262.5t263 102.5q109 0 187 -42.5t116 -114.5q14 -27 -10 -39t-38 9z" />
<glyph unicode="&#x11d;" horiz-adv-x="691" d="M349 60q39 0 81 11q24 3 29 -20.5t-21 -30.5q-46 -13 -94 -13q-126 0 -201 70t-75 192q0 120 80 194t210 74q98 0 172 -54v16q0 11 7.5 19t19.5 8q11 0 19 -8t8 -19v-450q0 -114 -75.5 -177.5t-206.5 -63.5q-93 0 -171 31q-26 12 -16.5 35t36.5 13q71 -27 153 -27 q103 0 164.5 49t61.5 145v369q-73 62 -170 62q-108 0 -172.5 -58.5t-64.5 -154.5q0 -100 59.5 -156t166.5 -56zM360 741q-16 0 -27 -13l-87 -109q-10 -12 -24 -9.5t-18 14t5 25.5l88 109q25 30 63 30q37 0 63 -30l88 -109q10 -13 5 -25.5t-17.5 -14t-24.5 9.5l-87 109 q-11 13 -27 13z" />
<glyph unicode="&#x11e;" horiz-adv-x="807" d="M678 528q-81 131 -255 131q-141 0 -222 -84.5t-81 -224.5q0 -145 80.5 -227t221.5 -82q128 0 200 72t75 184h-256q-12 0 -20 7.5t-8 19.5t8 19.5t20 7.5h275q37 0 37 -38q0 -142 -90 -235t-244 -93q-167 0 -261 96.5t-94 268.5q0 160 96 262.5t263 102.5q109 0 187 -42.5 t116 -114.5q14 -27 -10 -39t-38 9zM271 910q0 12 7.5 19.5t18.5 7.5q10 0 17 -7t7 -16q0 -44 28.5 -70.5t71.5 -26.5q47 0 76 27t29 70q0 9 7 16t17 7q11 0 18.5 -7.5t7.5 -19.5q0 -60 -41.5 -101.5t-113.5 -41.5q-67 0 -108.5 40.5t-41.5 102.5z" />
<glyph unicode="&#x11f;" horiz-adv-x="691" d="M349 60q39 0 81 11q24 3 29 -20.5t-21 -30.5q-46 -13 -94 -13q-126 0 -201 70t-75 192q0 120 80 194t210 74q98 0 172 -54v16q0 11 7.5 19t19.5 8q11 0 19 -8t8 -19v-450q0 -114 -75.5 -177.5t-206.5 -63.5q-93 0 -171 31q-26 12 -16.5 35t36.5 13q71 -27 153 -27 q103 0 164.5 49t61.5 145v369q-73 62 -170 62q-108 0 -172.5 -58.5t-64.5 -154.5q0 -100 59.5 -156t166.5 -56zM210 752q0 12 7.5 19.5t18.5 7.5q10 0 17 -7t7 -16q0 -44 28.5 -70.5t71.5 -26.5q47 0 76 27t29 70q0 9 7 16t17 7q11 0 18.5 -7.5t7.5 -19.5 q0 -60 -41.5 -101.5t-113.5 -41.5q-67 0 -108.5 40.5t-41.5 102.5z" />
<glyph unicode="&#x120;" horiz-adv-x="807" d="M678 528q-81 131 -255 131q-141 0 -222 -84.5t-81 -224.5q0 -145 80.5 -227t221.5 -82q128 0 200 72t75 184h-256q-12 0 -20 7.5t-8 19.5t8 19.5t20 7.5h275q37 0 37 -38q0 -142 -90 -235t-244 -93q-167 0 -261 96.5t-94 268.5q0 160 96 262.5t263 102.5q109 0 187 -42.5 t116 -114.5q14 -27 -10 -39t-38 9zM376 844q0 19 13 32t32 13t32 -13t13 -32t-13 -32t-32 -13t-32 13t-13 32z" />
<glyph unicode="&#x121;" horiz-adv-x="691" d="M349 60q39 0 81 11q24 3 29 -20.5t-21 -30.5q-46 -13 -94 -13q-126 0 -201 70t-75 192q0 120 80 194t210 74q98 0 172 -54v16q0 11 7.5 19t19.5 8q11 0 19 -8t8 -19v-450q0 -114 -75.5 -177.5t-206.5 -63.5q-93 0 -171 31q-26 12 -16.5 35t36.5 13q71 -27 153 -27 q103 0 164.5 49t61.5 145v369q-73 62 -170 62q-108 0 -172.5 -58.5t-64.5 -154.5q0 -100 59.5 -156t166.5 -56zM315 686q0 19 13 32t32 13t32 -13t13 -32t-13 -32t-32 -13t-32 13t-13 32z" />
<glyph unicode="&#x122;" horiz-adv-x="807" d="M446 -117l-38 -148q-8 -27 -33 -21t-18 34l37 149q5 18 20 22t26 -6.5t6 -29.5zM678 528q-81 131 -255 131q-141 0 -222 -84.5t-81 -224.5q0 -145 80.5 -227t221.5 -82q128 0 200 72t75 184h-256q-12 0 -20 7.5t-8 19.5t8 19.5t20 7.5h275q37 0 37 -38q0 -142 -90 -235 t-244 -93q-167 0 -261 96.5t-94 268.5q0 160 96 262.5t263 102.5q109 0 187 -42.5t116 -114.5q14 -27 -10 -39t-38 9z" />
<glyph unicode="&#x123;" horiz-adv-x="691" d="M349 60q39 0 81 11q24 3 29 -20.5t-21 -30.5q-46 -13 -94 -13q-126 0 -201 70t-75 192q0 120 80 194t210 74q98 0 172 -54v16q0 11 7.5 19t19.5 8q11 0 19 -8t8 -19v-450q0 -114 -75.5 -177.5t-206.5 -63.5q-93 0 -171 31q-26 12 -16.5 35t36.5 13q71 -27 153 -27 q103 0 164.5 49t61.5 145v369q-73 62 -170 62q-108 0 -172.5 -58.5t-64.5 -154.5q0 -100 59.5 -156t166.5 -56zM421 780l-38 -148q-8 -27 -33 -21t-18 34l37 149q5 18 20 22t26 -6.5t6 -29.5z" />
<glyph unicode="&#x124;" horiz-adv-x="805" d="M691 675v-650q0 -12 -8.5 -20.5t-20.5 -8.5t-20.5 8.5t-8.5 20.5v298h-461v-298q0 -12 -8.5 -20.5t-20.5 -8.5t-20.5 8.5t-8.5 20.5v650q0 12 8.5 20.5t20.5 8.5t20.5 -8.5t8.5 -20.5v-298h461v298q0 12 8.5 20.5t20.5 8.5t20.5 -8.5t8.5 -20.5zM402 899q-16 0 -27 -13 l-87 -109q-10 -12 -24 -9.5t-18 14t5 25.5l88 109q25 30 63 30q37 0 63 -30l88 -109q10 -13 5 -25.5t-17.5 -14t-24.5 9.5l-87 109q-11 13 -27 13z" />
<glyph unicode="&#x125;" horiz-adv-x="698" d="M114 24v738q0 11 8 19.5t20 8.5q11 0 19.5 -8.5t8.5 -19.5v-315q20 18 45.5 35t73.5 35t95 18q98 0 158 -61t60 -155v-294q0 -12 -8 -20.5t-20 -8.5t-20 8.5t-8 20.5v279q0 81 -46 128.5t-126 47.5q-110 0 -204 -94v-362q0 -11 -8.5 -19.5t-19.5 -8.5q-12 0 -20 8.5 t-8 19.5zM142 983q-16 0 -27 -13l-87 -109q-10 -12 -24 -9.5t-18 14t5 25.5l88 109q25 30 63 30q37 0 63 -30l88 -109q10 -13 5 -25.5t-17.5 -14t-24.5 9.5l-87 109q-11 13 -27 13z" />
<glyph unicode="&#x126;" horiz-adv-x="873" d="M725 675v-113h90q11 0 19.5 -7.5t8.5 -18.5q0 -12 -8 -19t-20 -7h-90v-485q0 -12 -8.5 -20.5t-20.5 -8.5t-20.5 8.5t-8.5 20.5v298h-461v-298q0 -12 -8.5 -20.5t-20.5 -8.5t-20.5 8.5t-8.5 20.5v485h-90q-12 0 -20 7t-8 19q0 11 8.5 18.5t19.5 7.5h90v113q0 12 8.5 20.5 t20.5 8.5t20.5 -8.5t8.5 -20.5v-113h461v113q0 12 8.5 20.5t20.5 8.5t20.5 -8.5t8.5 -20.5zM206 377h461v133h-461v-133z" />
<glyph unicode="&#x127;" horiz-adv-x="702" d="M118 24v601h-77q-9 0 -15.5 6t-6.5 16t6.5 16t15.5 6h77v93q0 11 8 19.5t20 8.5q11 0 19.5 -8.5t8.5 -19.5v-93h130q9 0 15.5 -6t6.5 -16t-6.5 -16t-15.5 -6h-130v-178q20 18 45.5 35t73.5 35t95 18q98 0 158 -61t60 -155v-294q0 -12 -8 -20.5t-20 -8.5t-20 8.5t-8 20.5 v279q0 81 -46 128.5t-126 47.5q-110 0 -204 -94v-362q0 -11 -8.5 -19.5t-19.5 -8.5q-12 0 -20 8.5t-8 19.5z" />
<glyph unicode="&#x128;" horiz-adv-x="286" d="M172 675v-650q0 -12 -8.5 -20.5t-20.5 -8.5t-20.5 8.5t-8.5 20.5v650q0 12 8.5 20.5t20.5 8.5t20.5 -8.5t8.5 -20.5zM-38 815q0 44 29 74t73 30q51 0 95 -46q32 -32 61 -32q24 0 40 15.5t16 39.5q0 10 6.5 17t17.5 7q24 0 24 -26q0 -44 -29.5 -73.5t-74.5 -29.5 q-22 0 -41.5 8t-29 16t-24.5 23q-34 32 -61 32q-23 0 -38 -15.5t-15 -39.5q0 -26 -25 -26q-11 0 -17.5 7.5t-6.5 18.5z" />
<glyph unicode="&#x129;" horiz-adv-x="284" d="M114 24v474q0 11 8 19.5t20 8.5q11 0 19.5 -8.5t8.5 -19.5v-474q0 -11 -8.5 -19.5t-19.5 -8.5q-12 0 -20 8.5t-8 19.5zM-39 657q0 44 29 74t73 30q51 0 95 -46q32 -32 61 -32q24 0 40 15.5t16 39.5q0 10 6.5 17t17.5 7q24 0 24 -26q0 -44 -29.5 -73.5t-74.5 -29.5 q-22 0 -41.5 8t-29 16t-24.5 23q-34 32 -61 32q-23 0 -38 -15.5t-15 -39.5q0 -26 -25 -26q-11 0 -17.5 7.5t-6.5 18.5z" />
<glyph unicode="&#x12a;" horiz-adv-x="286" d="M172 675v-650q0 -12 -8.5 -20.5t-20.5 -8.5t-20.5 8.5t-8.5 20.5v650q0 12 8.5 20.5t20.5 8.5t20.5 -8.5t8.5 -20.5zM279 815h-272q-12 0 -20 7t-8 19q0 11 8.5 18.5t19.5 7.5h272q11 0 19.5 -7.5t8.5 -18.5q0 -12 -8 -19t-20 -7z" />
<glyph unicode="&#x12b;" horiz-adv-x="284" d="M114 24v474q0 11 8 19.5t20 8.5q11 0 19.5 -8.5t8.5 -19.5v-474q0 -11 -8.5 -19.5t-19.5 -8.5q-12 0 -20 8.5t-8 19.5zM278 657h-272q-12 0 -20 7t-8 19q0 11 8.5 18.5t19.5 7.5h272q11 0 19.5 -7.5t8.5 -18.5q0 -12 -8 -19t-20 -7z" />
<glyph unicode="&#x12c;" horiz-adv-x="286" d="M172 675v-650q0 -12 -8.5 -20.5t-20.5 -8.5t-20.5 8.5t-8.5 20.5v650q0 12 8.5 20.5t20.5 8.5t20.5 -8.5t8.5 -20.5zM-7 910q0 12 7.5 19.5t18.5 7.5q10 0 17 -7t7 -16q0 -44 28.5 -70.5t71.5 -26.5q47 0 76 27t29 70q0 9 7 16t17 7q11 0 18.5 -7.5t7.5 -19.5 q0 -60 -41.5 -101.5t-113.5 -41.5q-67 0 -108.5 40.5t-41.5 102.5z" />
<glyph unicode="&#x12d;" horiz-adv-x="284" d="M114 24v474q0 11 8 19.5t20 8.5q11 0 19.5 -8.5t8.5 -19.5v-474q0 -11 -8.5 -19.5t-19.5 -8.5q-12 0 -20 8.5t-8 19.5zM-8 752q0 12 7.5 19.5t18.5 7.5q10 0 17 -7t7 -16q0 -44 28.5 -70.5t71.5 -26.5q47 0 76 27t29 70q0 9 7 16t17 7q11 0 18.5 -7.5t7.5 -19.5 q0 -60 -41.5 -101.5t-113.5 -41.5q-67 0 -108.5 40.5t-41.5 102.5z" />
<glyph unicode="&#x12e;" horiz-adv-x="286" d="M172 675v-650q0 -22 -19 -27q-91 -43 -91 -107q0 -28 17.5 -44.5t51.5 -16.5q33 0 62 16q19 9 29 -7t-6 -28q-35 -24 -86 -24q-53 0 -83.5 27t-30.5 72q0 77 98 133v6v650q0 12 8.5 20.5t20.5 8.5t20.5 -8.5t8.5 -20.5z" />
<glyph unicode="&#x12f;" horiz-adv-x="284" d="M114 24v474q0 11 8 19.5t20 8.5q11 0 19.5 -8.5t8.5 -19.5v-474q0 -22 -21 -27q-89 -42 -89 -106q0 -28 17.5 -44.5t51.5 -16.5q33 0 62 16q19 9 29 -7t-6 -28q-35 -24 -86 -24q-53 0 -83.5 27t-30.5 72q0 79 100 134v4zM99 674q0 19 12.5 31t30.5 12t30.5 -12t12.5 -31 t-12.5 -31t-30.5 -12t-30.5 12t-12.5 31z" />
<glyph unicode="&#x130;" horiz-adv-x="286" d="M172 675v-650q0 -12 -8.5 -20.5t-20.5 -8.5t-20.5 8.5t-8.5 20.5v650q0 12 8.5 20.5t20.5 8.5t20.5 -8.5t8.5 -20.5zM97 844q0 19 13 32t32 13t32 -13t13 -32t-13 -32t-32 -13t-32 13t-13 32z" />
<glyph unicode="&#x131;" horiz-adv-x="284" d="M114 24v474q0 11 8 19.5t20 8.5q11 0 19.5 -8.5t8.5 -19.5v-474q0 -11 -8.5 -19.5t-19.5 -8.5q-12 0 -20 8.5t-8 19.5z" />
<glyph unicode="&#x134;" horiz-adv-x="306" d="M163 899q-16 0 -27 -13l-87 -109q-10 -12 -24 -9.5t-18 14t5 25.5l88 109q25 30 63 30q37 0 63 -30l88 -109q10 -13 5 -25.5t-17.5 -14t-24.5 9.5l-87 109q-11 13 -27 13zM134 234v441q0 12 8.5 20.5t20.5 8.5t20.5 -8.5t8.5 -20.5v-440q0 -154 -99 -230 q-16 -12 -31.5 -6.5t-17.5 20t13 29.5q77 60 77 186z" />
<glyph unicode="&#x135;" horiz-adv-x="284" d="M114 39v459q0 11 8 19.5t20 8.5q11 0 19.5 -8.5t8.5 -19.5v-458q0 -151 -98 -224q-12 -6 -21 -6q-20 0 -24.5 18t10.5 31q77 58 77 180zM142 741q-16 0 -27 -13l-87 -109q-10 -12 -24 -9.5t-18 14t5 25.5l88 109q25 30 63 30q37 0 63 -30l88 -109q10 -13 5 -25.5 t-17.5 -14t-24.5 9.5l-87 109q-11 13 -27 13z" />
<glyph unicode="&#x136;" horiz-adv-x="724" d="M609 695q9 9 21 9q18 0 25 -17t-7 -30l-319 -306l328 -305q15 -14 7.5 -32t-26.5 -18q-11 0 -20 9l-346 323q-8 8 -8 22t8 22zM172 675v-650q0 -12 -8.5 -20.5t-20.5 -8.5t-20.5 8.5t-8.5 20.5v650q0 12 8.5 20.5t20.5 8.5t20.5 -8.5t8.5 -20.5zM391 -117l-38 -148 q-8 -27 -33 -21t-18 34l37 149q5 18 20 22t26 -6.5t6 -29.5z" />
<glyph unicode="&#x137;" horiz-adv-x="625" d="M170 762v-738q0 -11 -8.5 -19.5t-19.5 -8.5q-12 0 -20 8.5t-8 19.5v738q0 11 8 19.5t20 8.5q11 0 19.5 -8.5t8.5 -19.5zM502 517q8 8 21 8q18 0 24 -16t-7 -29l-219 -210l243 -226q14 -13 7.5 -30.5t-25.5 -17.5q-11 0 -20 9l-259 242q-8 8 -8 22t8 22zM342 -117 l-38 -148q-8 -27 -33 -21t-18 34l37 149q5 18 20 22t26 -6.5t6 -29.5z" />
<glyph unicode="&#x139;" horiz-adv-x="640" d="M265 912l-122 -124q-13 -13 -27.5 -8.5t-17.5 17.5t8 28l120 125q13 13 28.5 9t19 -17.5t-8.5 -29.5zM172 675v-620h441q11 0 19 -8t8 -20q0 -11 -8 -19t-19 -8h-465q-15 0 -24.5 10t-9.5 24v641q0 12 8.5 20.5t20.5 8.5t20.5 -8.5t8.5 -20.5z" />
<glyph unicode="&#x13a;" horiz-adv-x="284" d="M264 996l-122 -124q-13 -13 -27.5 -8.5t-17.5 17.5t8 28l120 125q13 13 28.5 9t19 -17.5t-8.5 -29.5zM170 762v-738q0 -11 -8.5 -19.5t-19.5 -8.5q-12 0 -20 8.5t-8 19.5v738q0 11 8 19.5t20 8.5q11 0 19.5 -8.5t8.5 -19.5z" />
<glyph unicode="&#x13b;" horiz-adv-x="640" d="M405 -117l-38 -148q-8 -27 -33 -21t-18 34l37 149q5 18 20 22t26 -6.5t6 -29.5zM172 675v-620h441q11 0 19 -8t8 -20q0 -11 -8 -19t-19 -8h-465q-15 0 -24.5 10t-9.5 24v641q0 12 8.5 20.5t20.5 8.5t20.5 -8.5t8.5 -20.5z" />
<glyph unicode="&#x13c;" horiz-adv-x="284" d="M168 -117l-38 -148q-8 -27 -33 -21t-18 34l37 149q5 18 20 22t26 -6.5t6 -29.5zM170 762v-738q0 -11 -8.5 -19.5t-19.5 -8.5q-12 0 -20 8.5t-8 19.5v738q0 11 8 19.5t20 8.5q11 0 19.5 -8.5t8.5 -19.5z" />
<glyph unicode="&#x13d;" horiz-adv-x="640" d="M381 664l-38 -148q-8 -27 -33 -21t-18 34l37 149q5 18 20 22t26 -6.5t6 -29.5zM172 675v-620h441q11 0 19 -8t8 -20q0 -11 -8 -19t-19 -8h-465q-15 0 -24.5 10t-9.5 24v641q0 12 8.5 20.5t20.5 8.5t20.5 -8.5t8.5 -20.5z" />
<glyph unicode="&#x13e;" horiz-adv-x="292" d="M332 734l-38 -148q-8 -27 -33 -21t-18 34l37 149q5 18 20 22t26 -6.5t6 -29.5zM170 762v-738q0 -11 -8.5 -19.5t-19.5 -8.5q-12 0 -20 8.5t-8 19.5v738q0 11 8 19.5t20 8.5q11 0 19.5 -8.5t8.5 -19.5z" />
<glyph unicode="&#x13f;" horiz-adv-x="640" d="M172 675v-620h441q11 0 19 -8t8 -20q0 -11 -8 -19t-19 -8h-465q-15 0 -24.5 10t-9.5 24v641q0 12 8.5 20.5t20.5 8.5t20.5 -8.5t8.5 -20.5zM415 350q0 19 13.5 32.5t32.5 13.5t32.5 -13t13.5 -33t-13.5 -33t-32.5 -13t-32.5 13.5t-13.5 32.5z" />
<glyph unicode="&#x140;" horiz-adv-x="455" d="M170 762v-738q0 -11 -8.5 -19.5t-19.5 -8.5q-12 0 -20 8.5t-8 19.5v738q0 11 8 19.5t20 8.5q11 0 19.5 -8.5t8.5 -19.5zM323 261q0 19 13.5 32.5t32.5 13.5t32.5 -13.5t13.5 -32.5t-13.5 -32.5t-32.5 -13.5t-32.5 13.5t-13.5 32.5z" />
<glyph unicode="&#x141;" horiz-adv-x="674" d="M206 675v-283l112 79q12 8 23.5 2t12 -17t-10.5 -21l-137 -96v-284h441q11 0 19 -8t8 -20q0 -11 -8 -19t-19 -8h-465q-15 0 -24.5 10t-9.5 24v265l-100 -70q-13 -8 -24.5 -2.5t-12 16.5t10.5 21l126 88v323q0 12 8.5 20.5t20.5 8.5t20.5 -8.5t8.5 -20.5z" />
<glyph unicode="&#x142;" horiz-adv-x="352" d="M204 762v-329l107 75q12 9 23.5 3t12 -17.5t-10.5 -21.5l-132 -92v-356q0 -11 -8.5 -19.5t-19.5 -8.5q-12 0 -20 8.5t-8 19.5v317l-106 -74q-13 -9 -24.5 -3.5t-12 17t10.5 21.5l132 92v368q0 11 8 19.5t20 8.5q11 0 19.5 -8.5t8.5 -19.5z" />
<glyph unicode="&#x143;" horiz-adv-x="886" d="M579 912l-122 -124q-13 -13 -27.5 -8.5t-17.5 17.5t8 28l120 125q13 13 28.5 9t19 -17.5t-8.5 -29.5zM595 43l-356 587q-11 18 -32 18q-14 0 -24.5 -10.5t-10.5 -26.5v-586q0 -13 -8 -21t-21 -8t-21 8t-8 21v587q0 39 27.5 66t67.5 27q55 0 83 -50l355 -585 q11 -18 32 -18q14 0 24.5 10.5t10.5 26.5v586q0 13 8 21t21 8t21 -8t8 -21v-587q0 -39 -27.5 -66t-67.5 -27q-55 0 -82 48z" />
<glyph unicode="&#x144;" d="M114 24v474q0 11 8 19.5t20 8.5q11 0 19.5 -8.5t8.5 -19.5v-57q88 94 210 94q99 0 163.5 -62.5t64.5 -159.5v-288q0 -12 -8 -20.5t-20 -8.5t-20 8.5t-8 20.5v273q0 84 -50.5 133t-132.5 49q-118 0 -199 -105v-351q0 -11 -8.5 -19.5t-19.5 -8.5q-12 0 -20 8.5t-8 19.5z M472 754l-122 -124q-13 -13 -27.5 -8.5t-17.5 17.5t8 28l120 125q13 13 28.5 9t19 -17.5t-8.5 -29.5z" />
<glyph unicode="&#x145;" horiz-adv-x="886" d="M455 -117l-38 -148q-8 -27 -33 -21t-18 34l37 149q5 18 20 22t26 -6.5t6 -29.5zM595 43l-356 587q-11 18 -32 18q-14 0 -24.5 -10.5t-10.5 -26.5v-586q0 -13 -8 -21t-21 -8t-21 8t-8 21v587q0 39 27.5 66t67.5 27q55 0 83 -50l355 -585q11 -18 32 -18q14 0 24.5 10.5 t10.5 26.5v586q0 13 8 21t21 8t21 -8t8 -21v-587q0 -39 -27.5 -66t-67.5 -27q-55 0 -82 48z" />
<glyph unicode="&#x146;" d="M114 24v474q0 11 8 19.5t20 8.5q11 0 19.5 -8.5t8.5 -19.5v-57q88 94 210 94q99 0 163.5 -62.5t64.5 -159.5v-288q0 -12 -8 -20.5t-20 -8.5t-20 8.5t-8 20.5v273q0 84 -50.5 133t-132.5 49q-118 0 -199 -105v-351q0 -11 -8.5 -19.5t-19.5 -8.5q-12 0 -20 8.5t-8 19.5z M386 -117l-38 -148q-8 -27 -33 -21t-18 34l37 149q5 18 20 22t26 -6.5t6 -29.5z" />
<glyph unicode="&#x147;" horiz-adv-x="886" d="M456 829q17 0 27 13l87 109q10 12 24 9t18 -14.5t-5 -24.5l-88 -110q-25 -30 -63 -30q-37 0 -63 30l-88 110q-10 12 -5 25t17.5 14.5t24.5 -9.5l87 -109q10 -13 27 -13zM595 43l-356 587q-11 18 -32 18q-14 0 -24.5 -10.5t-10.5 -26.5v-586q0 -13 -8 -21t-21 -8t-21 8 t-8 21v587q0 39 27.5 66t67.5 27q55 0 83 -50l355 -585q11 -18 32 -18q14 0 24.5 10.5t10.5 26.5v586q0 13 8 21t21 8t21 -8t8 -21v-587q0 -39 -27.5 -66t-67.5 -27q-55 0 -82 48z" />
<glyph unicode="&#x148;" d="M350 671q17 0 27 13l87 109q10 12 24 9t18 -14.5t-5 -24.5l-88 -110q-25 -30 -63 -30q-37 0 -63 30l-88 110q-10 12 -5 25t17.5 14.5t24.5 -9.5l87 -109q10 -13 27 -13zM114 24v474q0 11 8 19.5t20 8.5q11 0 19.5 -8.5t8.5 -19.5v-57q88 94 210 94q99 0 163.5 -62.5 t64.5 -159.5v-288q0 -12 -8 -20.5t-20 -8.5t-20 8.5t-8 20.5v273q0 84 -50.5 133t-132.5 49q-118 0 -199 -105v-351q0 -11 -8.5 -19.5t-19.5 -8.5q-12 0 -20 8.5t-8 19.5z" />
<glyph unicode="&#x14c;" horiz-adv-x="830" d="M550 815h-272q-12 0 -20 7t-8 19q0 11 8.5 18.5t19.5 7.5h272q11 0 19.5 -7.5t8.5 -18.5q0 -12 -8 -19t-20 -7zM424 661q-139 0 -221.5 -86t-82.5 -225q0 -144 77.5 -227.5t206.5 -83.5q140 0 223 85.5t83 225.5q0 144 -77.5 227.5t-208.5 83.5zM424 715 q155 0 248.5 -98.5t93.5 -266.5q0 -163 -98.5 -264t-263.5 -101q-153 0 -246.5 99t-93.5 266q0 162 98 263.5t262 101.5z" />
<glyph unicode="&#x14d;" horiz-adv-x="677" d="M474 657h-272q-12 0 -20 7t-8 19q0 11 8.5 18.5t19.5 7.5h272q11 0 19.5 -7.5t8.5 -18.5q0 -12 -8 -19t-20 -7zM347 537q122 0 192 -73.5t70 -202.5q0 -126 -75.5 -201t-205.5 -75q-119 0 -189.5 73.5t-70.5 202.5q0 125 74.5 200.5t204.5 75.5zM330 35q106 0 165 61 t59 165q0 107 -55 166.5t-152 59.5q-107 0 -165.5 -61.5t-58.5 -164.5q0 -107 55 -166.5t152 -59.5z" />
<glyph unicode="&#x14e;" horiz-adv-x="830" d="M424 661q-139 0 -221.5 -86t-82.5 -225q0 -144 77.5 -227.5t206.5 -83.5q140 0 223 85.5t83 225.5q0 144 -77.5 227.5t-208.5 83.5zM424 715q155 0 248.5 -98.5t93.5 -266.5q0 -163 -98.5 -264t-263.5 -101q-153 0 -246.5 99t-93.5 266q0 162 98 263.5t262 101.5z M264 910q0 12 7.5 19.5t18.5 7.5q10 0 17 -7t7 -16q0 -44 28.5 -70.5t71.5 -26.5q47 0 76 27t29 70q0 9 7 16t17 7q11 0 18.5 -7.5t7.5 -19.5q0 -60 -41.5 -101.5t-113.5 -41.5q-67 0 -108.5 40.5t-41.5 102.5z" />
<glyph unicode="&#x14f;" horiz-adv-x="677" d="M347 537q122 0 192 -73.5t70 -202.5q0 -126 -75.5 -201t-205.5 -75q-119 0 -189.5 73.5t-70.5 202.5q0 125 74.5 200.5t204.5 75.5zM330 35q106 0 165 61t59 165q0 107 -55 166.5t-152 59.5q-107 0 -165.5 -61.5t-58.5 -164.5q0 -107 55 -166.5t152 -59.5zM188 752 q0 12 7.5 19.5t18.5 7.5q10 0 17 -7t7 -16q0 -44 28.5 -70.5t71.5 -26.5q47 0 76 27t29 70q0 9 7 16t17 7q11 0 18.5 -7.5t7.5 -19.5q0 -60 -41.5 -101.5t-113.5 -41.5q-67 0 -108.5 40.5t-41.5 102.5z" />
<glyph unicode="&#x150;" horiz-adv-x="830" d="M381 924l-50 -146q-8 -16 -23 -16.5t-23.5 12.5t-0.5 29l49 145q8 16 24 17t24.5 -11.5t-0.5 -29.5zM557 924l-50 -146q-8 -16 -23 -16.5t-23 12.5t0 29l49 145q8 16 24 17t23 -11t0 -30zM424 661q-139 0 -221.5 -86t-82.5 -225q0 -144 77.5 -227.5t206.5 -83.5 q140 0 223 85.5t83 225.5q0 144 -77.5 227.5t-208.5 83.5zM424 715q155 0 248.5 -98.5t93.5 -266.5q0 -163 -98.5 -264t-263.5 -101q-153 0 -246.5 99t-93.5 266q0 162 98 263.5t262 101.5z" />
<glyph unicode="&#x151;" horiz-adv-x="677" d="M305 766l-50 -146q-8 -16 -23 -16.5t-23.5 12.5t-0.5 29l49 145q8 16 24 17t24.5 -11.5t-0.5 -29.5zM481 766l-50 -146q-8 -16 -23 -16.5t-23 12.5t0 29l49 145q8 16 24 17t23 -11t0 -30zM347 537q122 0 192 -73.5t70 -202.5q0 -126 -75.5 -201t-205.5 -75 q-119 0 -189.5 73.5t-70.5 202.5q0 125 74.5 200.5t204.5 75.5zM330 35q106 0 165 61t59 165q0 107 -55 166.5t-152 59.5q-107 0 -165.5 -61.5t-58.5 -164.5q0 -107 55 -166.5t152 -59.5z" />
<glyph unicode="&#x152;" horiz-adv-x="1060" d="M498 54v592h-74q-140 0 -222 -80.5t-82 -215.5q0 -139 76.5 -217.5t207.5 -78.5h94zM954 0h-550q-155 0 -247.5 92.5t-92.5 257.5q0 159 97.5 254.5t262.5 95.5h530q11 0 19.5 -8t8.5 -20q0 -11 -8.5 -19t-19.5 -8h-399v-268h309q11 0 19 -8t8 -19t-8 -19t-19 -8h-309 v-268h399q11 0 19.5 -8t8.5 -19q0 -12 -8.5 -20t-19.5 -8z" />
<glyph unicode="&#x153;" horiz-adv-x="1146" d="M701 282h333q-4 92 -59 148.5t-147 56.5q-104 0 -164 -64.5t-60 -161.5q0 -103 61.5 -163t166.5 -60q124 0 189 88q21 20 39 3.5t-1 -37.5q-33 -46 -93.5 -76.5t-135.5 -30.5q-91 0 -156 38.5t-95 109.5q-31 -70 -95 -109t-156 -39q-119 0 -189.5 73.5t-70.5 202.5 q0 125 74.5 200.5t204.5 75.5q87 0 147 -38.5t87 -110.5q32 69 94.5 109t151.5 40q123 0 191.5 -75.5t68.5 -188.5q0 -17 -10 -27.5t-26 -10.5h-350q-10 0 -16.5 7t-6.5 17q0 9 6.5 16t16.5 7zM330 35q106 0 165 61t59 165q0 107 -55 166.5t-152 59.5q-107 0 -165.5 -61.5 t-58.5 -164.5q0 -107 55 -166.5t152 -59.5z" />
<glyph unicode="&#x154;" horiz-adv-x="764" d="M486 912l-122 -124q-13 -13 -27.5 -8.5t-17.5 17.5t8 28l120 125q13 13 28.5 9t19 -17.5t-8.5 -29.5zM694 482q0 -90 -65 -152t-160 -62h-17l227 -223q14 -13 7 -31t-27 -18q-12 0 -22 10l-268 268q-9 8 -9 20t8.5 20.5t21.5 8.5h83q68 0 115.5 47t47.5 114t-47 114 t-112 47h-305v-620q0 -12 -8.5 -20.5t-20.5 -8.5t-20.5 8.5t-8.5 20.5v641q0 14 9.5 24t24.5 10h329q90 0 153.5 -63.5t63.5 -154.5z" />
<glyph unicode="&#x155;" horiz-adv-x="405" d="M365 474q-71 0 -119.5 -34t-75.5 -75v-341q0 -11 -8.5 -19.5t-19.5 -8.5q-12 0 -20 8.5t-8 19.5v474q0 11 8 19.5t20 8.5q11 0 19.5 -8.5t8.5 -19.5v-74q70 105 194 105q15 0 23 -7.5t8 -19.5t-8.5 -20t-21.5 -8zM363 754l-122 -124q-13 -13 -27.5 -8.5t-17.5 17.5t8 28 l120 125q13 13 28.5 9t19 -17.5t-8.5 -29.5z" />
<glyph unicode="&#x156;" horiz-adv-x="764" d="M694 482q0 -90 -65 -152t-160 -62h-17l227 -223q14 -13 7 -31t-27 -18q-12 0 -22 10l-268 268q-9 8 -9 20t8.5 20.5t21.5 8.5h83q68 0 115.5 47t47.5 114t-47 114t-112 47h-305v-620q0 -12 -8.5 -20.5t-20.5 -8.5t-20.5 8.5t-8.5 20.5v641q0 14 9.5 24t24.5 10h329 q90 0 153.5 -63.5t63.5 -154.5zM403 -117l-38 -148q-8 -27 -33 -21t-18 34l37 149q5 18 20 22t26 -6.5t6 -29.5z" />
<glyph unicode="&#x157;" horiz-adv-x="405" d="M168 -117l-38 -148q-8 -27 -33 -21t-18 34l37 149q5 18 20 22t26 -6.5t6 -29.5zM365 474q-71 0 -119.5 -34t-75.5 -75v-341q0 -11 -8.5 -19.5t-19.5 -8.5q-12 0 -20 8.5t-8 19.5v474q0 11 8 19.5t20 8.5q11 0 19.5 -8.5t8.5 -19.5v-74q70 105 194 105q15 0 23 -7.5 t8 -19.5t-8.5 -20t-21.5 -8z" />
<glyph unicode="&#x158;" horiz-adv-x="764" d="M694 482q0 -90 -65 -152t-160 -62h-17l227 -223q14 -13 7 -31t-27 -18q-12 0 -22 10l-268 268q-9 8 -9 20t8.5 20.5t21.5 8.5h83q68 0 115.5 47t47.5 114t-47 114t-112 47h-305v-620q0 -12 -8.5 -20.5t-20.5 -8.5t-20.5 8.5t-8.5 20.5v641q0 14 9.5 24t24.5 10h329 q90 0 153.5 -63.5t63.5 -154.5zM363 829q17 0 27 13l87 109q10 12 24 9t18 -14.5t-5 -24.5l-88 -110q-25 -30 -63 -30q-37 0 -63 30l-88 110q-10 12 -5 25t17.5 14.5t24.5 -9.5l87 -109q10 -13 27 -13z" />
<glyph unicode="&#x159;" horiz-adv-x="405" d="M365 474q-71 0 -119.5 -34t-75.5 -75v-341q0 -11 -8.5 -19.5t-19.5 -8.5q-12 0 -20 8.5t-8 19.5v474q0 11 8 19.5t20 8.5q11 0 19.5 -8.5t8.5 -19.5v-74q70 105 194 105q15 0 23 -7.5t8 -19.5t-8.5 -20t-21.5 -8zM240 671q17 0 27 13l87 109q10 12 24 9t18 -14.5 t-5 -24.5l-88 -110q-25 -30 -63 -30q-37 0 -63 30l-88 110q-10 12 -5 25t17.5 14.5t24.5 -9.5l87 -109q10 -13 27 -13z" />
<glyph unicode="&#x15a;" horiz-adv-x="727" d="M488 912l-122 -124q-13 -13 -27.5 -8.5t-17.5 17.5t8 28l120 125q13 13 28.5 9t19 -17.5t-8.5 -29.5zM80 56q-26 19 -11.5 41t41.5 7q105 -65 253 -65q113 0 175.5 39t62.5 101q0 44 -28.5 72.5t-74.5 42t-101.5 22.5t-111.5 20.5t-102 30.5t-74.5 57.5t-28.5 96.5 q0 82 74.5 138t231.5 56q139 0 234 -51q24 -14 12 -37.5t-39 -10.5q-88 45 -215 45q-122 0 -181 -40.5t-59 -99.5q0 -44 28.5 -73t74.5 -42.5t101.5 -23t111.5 -21.5t102 -30.5t74.5 -56.5t28.5 -95q0 -86 -79 -140t-214 -54q-177 0 -286 71z" />
<glyph unicode="&#x15b;" horiz-adv-x="600" d="M421 754l-122 -124q-13 -13 -27.5 -8.5t-17.5 17.5t8 28l120 125q13 13 28.5 9t19 -17.5t-8.5 -29.5zM62 43q-23 18 -8 38t40 4q85 -48 207 -48q82 0 128.5 27.5t46.5 72.5t-41.5 66t-101 27.5t-119 15.5t-101 42.5t-41.5 96.5q0 64 59 108t183 44q110 0 184 -34 q25 -14 13 -36.5t-38 -10.5q-68 29 -165 29q-92 0 -136 -29t-44 -71q0 -46 41.5 -68t101 -28t118.5 -15t100.5 -42t41.5 -95q0 -69 -61.5 -110.5t-166.5 -41.5q-151 0 -241 58z" />
<glyph unicode="&#x15c;" horiz-adv-x="727" d="M365 899q-16 0 -27 -13l-87 -109q-10 -12 -24 -9.5t-18 14t5 25.5l88 109q25 30 63 30q37 0 63 -30l88 -109q10 -13 5 -25.5t-17.5 -14t-24.5 9.5l-87 109q-11 13 -27 13zM80 56q-26 19 -11.5 41t41.5 7q105 -65 253 -65q113 0 175.5 39t62.5 101q0 44 -28.5 72.5 t-74.5 42t-101.5 22.5t-111.5 20.5t-102 30.5t-74.5 57.5t-28.5 96.5q0 82 74.5 138t231.5 56q139 0 234 -51q24 -14 12 -37.5t-39 -10.5q-88 45 -215 45q-122 0 -181 -40.5t-59 -99.5q0 -44 28.5 -73t74.5 -42.5t101.5 -23t111.5 -21.5t102 -30.5t74.5 -56.5t28.5 -95 q0 -86 -79 -140t-214 -54q-177 0 -286 71z" />
<glyph unicode="&#x15d;" horiz-adv-x="600" d="M299 741q-16 0 -27 -13l-87 -109q-10 -12 -24 -9.5t-18 14t5 25.5l88 109q25 30 63 30q37 0 63 -30l88 -109q10 -13 5 -25.5t-17.5 -14t-24.5 9.5l-87 109q-11 13 -27 13zM62 43q-23 18 -8 38t40 4q85 -48 207 -48q82 0 128.5 27.5t46.5 72.5t-41.5 66t-101 27.5 t-119 15.5t-101 42.5t-41.5 96.5q0 64 59 108t183 44q110 0 184 -34q25 -14 13 -36.5t-38 -10.5q-68 29 -165 29q-92 0 -136 -29t-44 -71q0 -46 41.5 -68t101 -28t118.5 -15t100.5 -42t41.5 -95q0 -69 -61.5 -110.5t-166.5 -41.5q-151 0 -241 58z" />
<glyph unicode="&#x15e;" horiz-adv-x="727" d="M348 -102h-26q-17 0 -23 11.5t1 26.5l22 50q-147 7 -242 70q-26 19 -11.5 41t41.5 7q105 -65 253 -65q113 0 175.5 39t62.5 101q0 44 -28.5 72.5t-74.5 42t-101.5 22.5t-111.5 20.5t-102 30.5t-74.5 57.5t-28.5 96.5q0 82 74.5 138t231.5 56q139 0 234 -51 q24 -14 12 -37.5t-39 -10.5q-88 45 -215 45q-122 0 -181 -40.5t-59 -99.5q0 -44 28.5 -73t74.5 -42.5t101.5 -23t111.5 -21.5t102 -30.5t74.5 -56.5t28.5 -95q0 -86 -79 -140t-214 -54h-2l-20 -45q62 -1 93 -26.5t31 -68.5q0 -41 -31.5 -66.5t-84.5 -25.5q-51 0 -86 24 q-16 12 -6.5 28t28.5 7q30 -16 66 -16q33 0 52 14.5t19 36.5q0 51 -77 51z" />
<glyph unicode="&#x15f;" horiz-adv-x="600" d="M282 -102h-26q-17 0 -23 11.5t1 26.5l22 51q-118 7 -194 56q-23 18 -8 38t40 4q85 -48 207 -48q82 0 128.5 27.5t46.5 72.5t-41.5 66t-101 27.5t-119 15.5t-101 42.5t-41.5 96.5q0 64 59 108t183 44q110 0 184 -34q25 -14 13 -36.5t-38 -10.5q-68 29 -165 29 q-92 0 -136 -29t-44 -71q0 -46 41.5 -68t101 -28t118.5 -15t100.5 -42t41.5 -95q0 -69 -61.5 -110.5t-166.5 -41.5h-5l-20 -45q62 -1 93 -26.5t31 -68.5q0 -41 -31.5 -66.5t-84.5 -25.5q-51 0 -86 24q-16 12 -6.5 28t28.5 7q30 -16 66 -16q33 0 52 14.5t19 36.5q0 51 -77 51 z" />
<glyph unicode="&#x160;" horiz-adv-x="727" d="M365 829q17 0 27 13l87 109q10 12 24 9t18 -14.5t-5 -24.5l-88 -110q-25 -30 -63 -30q-37 0 -63 30l-88 110q-10 12 -5 25t17.5 14.5t24.5 -9.5l87 -109q10 -13 27 -13zM80 56q-26 19 -11.5 41t41.5 7q105 -65 253 -65q113 0 175.5 39t62.5 101q0 44 -28.5 72.5t-74.5 42 t-101.5 22.5t-111.5 20.5t-102 30.5t-74.5 57.5t-28.5 96.5q0 82 74.5 138t231.5 56q139 0 234 -51q24 -14 12 -37.5t-39 -10.5q-88 45 -215 45q-122 0 -181 -40.5t-59 -99.5q0 -44 28.5 -73t74.5 -42.5t101.5 -23t111.5 -21.5t102 -30.5t74.5 -56.5t28.5 -95 q0 -86 -79 -140t-214 -54q-177 0 -286 71z" />
<glyph unicode="&#x161;" horiz-adv-x="600" d="M299 671q17 0 27 13l87 109q10 12 24 9t18 -14.5t-5 -24.5l-88 -110q-25 -30 -63 -30q-37 0 -63 30l-88 110q-10 12 -5 25t17.5 14.5t24.5 -9.5l87 -109q10 -13 27 -13zM62 43q-23 18 -8 38t40 4q85 -48 207 -48q82 0 128.5 27.5t46.5 72.5t-41.5 66t-101 27.5t-119 15.5 t-101 42.5t-41.5 96.5q0 64 59 108t183 44q110 0 184 -34q25 -14 13 -36.5t-38 -10.5q-68 29 -165 29q-92 0 -136 -29t-44 -71q0 -46 41.5 -68t101 -28t118.5 -15t100.5 -42t41.5 -95q0 -69 -61.5 -110.5t-166.5 -41.5q-151 0 -241 58z" />
<glyph unicode="&#x162;" horiz-adv-x="632" d="M32 700h568q12 0 20 -7.5t8 -19.5t-8 -19.5t-20 -7.5h-255v-621q0 -12 -8.5 -20.5t-20.5 -8.5t-20.5 8.5t-8.5 20.5v621h-255q-12 0 -20 7.5t-8 19.5t8 19.5t20 7.5zM342 -117l-38 -148q-8 -27 -33 -21t-18 34l37 149q5 18 20 22t26 -6.5t6 -29.5z" />
<glyph unicode="&#x163;" horiz-adv-x="472" d="M388 470h-183v-303q0 -60 29 -89t78 -29q44 0 82 17q25 12 35 -10t-13 -36q-49 -25 -109 -25q-72 0 -115 42.5t-43 120.5v312h-94q-12 0 -20 7t-8 19q0 11 8.5 18.5t19.5 7.5h94v107q0 11 8.5 19.5t19.5 8.5q12 0 20 -8.5t8 -19.5v-107h183q11 0 19.5 -7.5t8.5 -18.5 q0 -12 -8 -19t-20 -7zM308 -117l-38 -148q-8 -27 -33 -21t-18 34l37 149q5 18 20 22t26 -6.5t6 -29.5z" />
<glyph unicode="&#x164;" horiz-adv-x="632" d="M32 700h568q12 0 20 -7.5t8 -19.5t-8 -19.5t-20 -7.5h-255v-621q0 -12 -8.5 -20.5t-20.5 -8.5t-20.5 8.5t-8.5 20.5v621h-255q-12 0 -20 7.5t-8 19.5t8 19.5t20 7.5zM316 829q17 0 27 13l87 109q10 12 24 9t18 -14.5t-5 -24.5l-88 -110q-25 -30 -63 -30q-37 0 -63 30 l-88 110q-10 12 -5 25t17.5 14.5t24.5 -9.5l87 -109q10 -13 27 -13z" />
<glyph unicode="&#x165;" horiz-adv-x="472" d="M388 470h-183v-303q0 -60 29 -89t78 -29q44 0 82 17q25 12 35 -10t-13 -36q-49 -25 -109 -25q-72 0 -115 42.5t-43 120.5v312h-94q-12 0 -20 7t-8 19q0 11 8.5 18.5t19.5 7.5h94v107q0 11 8.5 19.5t19.5 8.5q12 0 20 -8.5t8 -19.5v-107h183q11 0 19.5 -7.5t8.5 -18.5 q0 -12 -8 -19t-20 -7zM375 773l-38 -148q-8 -27 -33 -21t-18 34l37 149q5 18 20 22t26 -6.5t6 -29.5z" />
<glyph unicode="&#x166;" horiz-adv-x="632" d="M32 700h568q12 0 20 -7.5t8 -19.5t-8 -19.5t-20 -7.5h-255v-270h165q11 0 19.5 -7.5t8.5 -18.5t-8.5 -18.5t-19.5 -7.5h-165v-299q0 -12 -8.5 -20.5t-20.5 -8.5t-20.5 8.5t-8.5 20.5v299h-165q-11 0 -19.5 7.5t-8.5 18.5t8.5 18.5t19.5 7.5h165v270h-255q-12 0 -20 7.5 t-8 19.5t8 19.5t20 7.5z" />
<glyph unicode="&#x167;" horiz-adv-x="472" d="M388 470h-183v-183h183q11 0 19.5 -7.5t8.5 -18.5t-8.5 -18.5t-19.5 -7.5h-183v-68q0 -60 29 -89t78 -29q44 0 82 17q25 12 35 -10t-13 -36q-49 -25 -109 -25q-72 0 -115 42.5t-43 120.5v77h-94q-11 0 -19.5 7.5t-8.5 18.5t8.5 18.5t19.5 7.5h94v183h-94q-12 0 -20 7 t-8 19q0 11 8.5 18.5t19.5 7.5h94v107q0 11 8.5 19.5t19.5 8.5q12 0 20 -8.5t8 -19.5v-107h183q11 0 19.5 -7.5t8.5 -18.5q0 -12 -8 -19t-20 -7z" />
<glyph unicode="&#x168;" horiz-adv-x="805" d="M98 291v384q0 12 8.5 20.5t20.5 8.5t20.5 -8.5t8.5 -20.5v-379q0 -111 66 -182t180 -71t180.5 71t66.5 182v379q0 12 8.5 20.5t20.5 8.5t20.5 -8.5t8.5 -20.5v-384q0 -133 -83 -219.5t-222 -86.5q-138 0 -221 86.5t-83 219.5zM220 815q0 44 29 74t73 30q51 0 95 -46 q32 -32 61 -32q24 0 40 15.5t16 39.5q0 10 6.5 17t17.5 7q24 0 24 -26q0 -44 -29.5 -73.5t-74.5 -29.5q-22 0 -41.5 8t-29 16t-24.5 23q-34 32 -61 32q-23 0 -38 -15.5t-15 -39.5q0 -26 -25 -26q-11 0 -17.5 7.5t-6.5 18.5z" />
<glyph unicode="&#x169;" d="M592 498v-474q0 -11 -8 -19.5t-20 -8.5q-11 0 -19 8.5t-8 19.5v57q-88 -94 -211 -94q-99 0 -163.5 62t-64.5 159v289q0 12 8.5 20.5t19.5 8.5q12 0 20 -8.5t8 -20.5v-273q0 -84 50.5 -133.5t132.5 -49.5q118 0 200 106v351q0 11 8 19.5t19 8.5q12 0 20 -8.5t8 -19.5z M163 657q0 44 29 74t73 30q51 0 95 -46q32 -32 61 -32q24 0 40 15.5t16 39.5q0 10 6.5 17t17.5 7q24 0 24 -26q0 -44 -29.5 -73.5t-74.5 -29.5q-22 0 -41.5 8t-29 16t-24.5 23q-34 32 -61 32q-23 0 -38 -15.5t-15 -39.5q0 -26 -25 -26q-11 0 -17.5 7.5t-6.5 18.5z" />
<glyph unicode="&#x16a;" horiz-adv-x="805" d="M98 291v384q0 12 8.5 20.5t20.5 8.5t20.5 -8.5t8.5 -20.5v-379q0 -111 66 -182t180 -71t180.5 71t66.5 182v379q0 12 8.5 20.5t20.5 8.5t20.5 -8.5t8.5 -20.5v-384q0 -133 -83 -219.5t-222 -86.5q-138 0 -221 86.5t-83 219.5zM538 815h-272q-12 0 -20 7t-8 19 q0 11 8.5 18.5t19.5 7.5h272q11 0 19.5 -7.5t8.5 -18.5q0 -12 -8 -19t-20 -7z" />
<glyph unicode="&#x16b;" d="M592 498v-474q0 -11 -8 -19.5t-20 -8.5q-11 0 -19 8.5t-8 19.5v57q-88 -94 -211 -94q-99 0 -163.5 62t-64.5 159v289q0 12 8.5 20.5t19.5 8.5q12 0 20 -8.5t8 -20.5v-273q0 -84 50.5 -133.5t132.5 -49.5q118 0 200 106v351q0 11 8 19.5t19 8.5q12 0 20 -8.5t8 -19.5z M481 657h-272q-12 0 -20 7t-8 19q0 11 8.5 18.5t19.5 7.5h272q11 0 19.5 -7.5t8.5 -18.5q0 -12 -8 -19t-20 -7z" />
<glyph unicode="&#x16c;" horiz-adv-x="805" d="M98 291v384q0 12 8.5 20.5t20.5 8.5t20.5 -8.5t8.5 -20.5v-379q0 -111 66 -182t180 -71t180.5 71t66.5 182v379q0 12 8.5 20.5t20.5 8.5t20.5 -8.5t8.5 -20.5v-384q0 -133 -83 -219.5t-222 -86.5q-138 0 -221 86.5t-83 219.5zM252 910q0 12 7.5 19.5t18.5 7.5q10 0 17 -7 t7 -16q0 -44 28.5 -70.5t71.5 -26.5q47 0 76 27t29 70q0 9 7 16t17 7q11 0 18.5 -7.5t7.5 -19.5q0 -60 -41.5 -101.5t-113.5 -41.5q-67 0 -108.5 40.5t-41.5 102.5z" />
<glyph unicode="&#x16d;" d="M592 498v-474q0 -11 -8 -19.5t-20 -8.5q-11 0 -19 8.5t-8 19.5v57q-88 -94 -211 -94q-99 0 -163.5 62t-64.5 159v289q0 12 8.5 20.5t19.5 8.5q12 0 20 -8.5t8 -20.5v-273q0 -84 50.5 -133.5t132.5 -49.5q118 0 200 106v351q0 11 8 19.5t19 8.5q12 0 20 -8.5t8 -19.5z M195 752q0 12 7.5 19.5t18.5 7.5q10 0 17 -7t7 -16q0 -44 28.5 -70.5t71.5 -26.5q47 0 76 27t29 70q0 9 7 16t17 7q11 0 18.5 -7.5t7.5 -19.5q0 -60 -41.5 -101.5t-113.5 -41.5q-67 0 -108.5 40.5t-41.5 102.5z" />
<glyph unicode="&#x16e;" horiz-adv-x="805" d="M293 884q0 47 31.5 78t77.5 31t77.5 -31t31.5 -78t-31.5 -78t-77.5 -31t-77.5 31t-31.5 78zM334 884q0 -30 19.5 -49t48.5 -19t48.5 19t19.5 49t-19.5 49t-48.5 19t-48.5 -19t-19.5 -49zM98 291v384q0 12 8.5 20.5t20.5 8.5t20.5 -8.5t8.5 -20.5v-379q0 -111 66 -182 t180 -71t180.5 71t66.5 182v379q0 12 8.5 20.5t20.5 8.5t20.5 -8.5t8.5 -20.5v-384q0 -133 -83 -219.5t-222 -86.5q-138 0 -221 86.5t-83 219.5z" />
<glyph unicode="&#x16f;" d="M592 498v-474q0 -11 -8 -19.5t-20 -8.5q-11 0 -19 8.5t-8 19.5v57q-88 -94 -211 -94q-99 0 -163.5 62t-64.5 159v289q0 12 8.5 20.5t19.5 8.5q12 0 20 -8.5t8 -20.5v-273q0 -84 50.5 -133.5t132.5 -49.5q118 0 200 106v351q0 11 8 19.5t19 8.5q12 0 20 -8.5t8 -19.5z M236 726q0 47 31.5 78t77.5 31t77.5 -31t31.5 -78t-31.5 -78t-77.5 -31t-77.5 31t-31.5 78zM277 726q0 -30 19.5 -49t48.5 -19t48.5 19t19.5 49t-19.5 49t-48.5 19t-48.5 -19t-19.5 -49z" />
<glyph unicode="&#x170;" horiz-adv-x="805" d="M98 291v384q0 12 8.5 20.5t20.5 8.5t20.5 -8.5t8.5 -20.5v-379q0 -111 66 -182t180 -71t180.5 71t66.5 182v379q0 12 8.5 20.5t20.5 8.5t20.5 -8.5t8.5 -20.5v-384q0 -133 -83 -219.5t-222 -86.5q-138 0 -221 86.5t-83 219.5zM369 924l-50 -146q-8 -16 -23 -16.5 t-23.5 12.5t-0.5 29l49 145q8 16 24 17t24.5 -11.5t-0.5 -29.5zM545 924l-50 -146q-8 -16 -23 -16.5t-23 12.5t0 29l49 145q8 16 24 17t23 -11t0 -30z" />
<glyph unicode="&#x171;" d="M592 498v-474q0 -11 -8 -19.5t-20 -8.5q-11 0 -19 8.5t-8 19.5v57q-88 -94 -211 -94q-99 0 -163.5 62t-64.5 159v289q0 12 8.5 20.5t19.5 8.5q12 0 20 -8.5t8 -20.5v-273q0 -84 50.5 -133.5t132.5 -49.5q118 0 200 106v351q0 11 8 19.5t19 8.5q12 0 20 -8.5t8 -19.5z M312 766l-50 -146q-8 -16 -23 -16.5t-23.5 12.5t-0.5 29l49 145q8 16 24 17t24.5 -11.5t-0.5 -29.5zM488 766l-50 -146q-8 -16 -23 -16.5t-23 12.5t0 29l49 145q8 16 24 17t23 -11t0 -30z" />
<glyph unicode="&#x172;" horiz-adv-x="805" d="M98 291v384q0 12 8.5 20.5t20.5 8.5t20.5 -8.5t8.5 -20.5v-379q0 -111 66 -182t180 -71t180.5 71t66.5 182v379q0 12 8.5 20.5t20.5 8.5t20.5 -8.5t8.5 -20.5v-384q0 -117 -66 -199.5t-179 -101.5q-91 -43 -91 -107q0 -28 17.5 -44.5t51.5 -16.5q33 0 62 16q19 9 29 -7 t-6 -28q-35 -24 -86 -24q-53 0 -83.5 27t-30.5 72q0 61 59 108q-131 6 -208.5 91t-77.5 214z" />
<glyph unicode="&#x173;" d="M592 498v-474q0 -22 -21 -27q-89 -42 -89 -106q0 -28 17.5 -44.5t51.5 -16.5q33 0 62 16q19 9 29 -7t-6 -28q-35 -24 -86 -24q-53 0 -83.5 27t-30.5 72q0 79 101 135v3v57q-88 -94 -211 -94q-99 0 -163.5 62t-64.5 159v289q0 12 8.5 20.5t19.5 8.5q12 0 20 -8.5t8 -20.5 v-273q0 -84 50.5 -133.5t132.5 -49.5q118 0 200 106v351q0 11 8 19.5t19 8.5q12 0 20 -8.5t8 -19.5z" />
<glyph unicode="&#x174;" horiz-adv-x="1106" d="M553 859q-16 0 -27 -13l-87 -109q-10 -12 -24 -9.5t-18 14t5 25.5l88 109q25 30 63 30q37 0 63 -30l88 -109q10 -13 5 -25.5t-17.5 -14t-24.5 9.5l-87 109q-11 13 -27 13zM553 556q21 0 28 -20l186 -462q10 -26 35 -26t35 25l198 611q6 20 28 20q15 0 23 -11.5t4 -26.5 l-197 -607q-21 -67 -90 -67q-63 0 -87 60l-163 406l-163 -406q-24 -60 -87 -60q-69 0 -90 67l-197 607q-4 15 4 26.5t23 11.5q22 0 28 -20l198 -611q10 -25 35 -25t35 26l186 462q7 20 28 20z" />
<glyph unicode="&#x175;" horiz-adv-x="894" d="M447 701q-16 0 -27 -13l-87 -109q-10 -12 -24 -9.5t-18 14t5 25.5l88 109q25 30 63 30q37 0 63 -30l88 -109q10 -13 5 -25.5t-17.5 -14t-24.5 9.5l-87 109q-11 13 -27 13zM447 422q20 0 29 -20l127 -332q9 -25 35 -25q27 0 35 25l133 435q5 20 27 20q15 0 22.5 -11 t3.5 -26l-131 -431q-10 -30 -33.5 -47.5t-56.5 -17.5q-63 0 -86 61l-105 281l-104 -281q-23 -61 -87 -61q-33 0 -56.5 17.5t-33.5 47.5l-131 431q-4 15 3.5 26t23.5 11q21 0 26 -20l133 -435q8 -25 35 -25q26 0 35 25l128 332q7 20 28 20z" />
<glyph unicode="&#x176;" d="M283 323l-271 335q-10 12 -3.5 29t26.5 17q12 0 21 -10l270 -335q11 -13 28 -13q18 0 29 13l269 335q10 10 22 10q20 0 26.5 -17t-4.5 -29l-270 -335q-17 -20 -42 -29v-269q0 -12 -8.5 -20.5t-21.5 -8.5q-12 0 -20.5 8.5t-8.5 20.5v268q-24 8 -42 30zM354 899 q-16 0 -27 -13l-87 -109q-10 -12 -24 -9.5t-18 14t5 25.5l88 109q25 30 63 30q37 0 63 -30l88 -109q10 -13 5 -25.5t-17.5 -14t-24.5 9.5l-87 109q-11 13 -27 13z" />
<glyph unicode="&#x177;" horiz-adv-x="600" d="M219 -152l67 147q-43 11 -60 51l-197 438q-7 15 1 28.5t24 13.5q18 0 26 -17l198 -444q9 -21 30 -22l212 465q7 17 26 17q16 0 24 -12.5t1 -26.5l-304 -660q-7 -15 -22 -16t-24.5 10.5t-1.5 27.5zM300 741q-16 0 -27 -13l-87 -109q-10 -12 -24 -9.5t-18 14t5 25.5l88 109 q25 30 63 30q37 0 63 -30l88 -109q10 -13 5 -25.5t-17.5 -14t-24.5 9.5l-87 109q-11 13 -27 13z" />
<glyph unicode="&#x178;" d="M283 323l-271 335q-10 12 -3.5 29t26.5 17q12 0 21 -10l270 -335q11 -13 28 -13q18 0 29 13l269 335q10 10 22 10q20 0 26.5 -17t-4.5 -29l-270 -335q-17 -20 -42 -29v-269q0 -12 -8.5 -20.5t-21.5 -8.5q-12 0 -20.5 8.5t-8.5 20.5v268q-24 8 -42 30zM429 841q0 19 13 32 t32 13t32 -13t13 -32t-13 -32t-32 -13t-32 13t-13 32zM188 841q0 19 13 32t32 13t32 -13t13 -32t-13 -32t-32 -13t-32 13t-13 32z" />
<glyph unicode="&#x179;" horiz-adv-x="709" d="M52 56l533 590h-508q-11 0 -19 7.5t-8 19.5t7.5 19.5t19.5 7.5h554q17 0 26 -9t9 -22q0 -14 -12 -26l-531 -589h510q12 0 20 -7.5t8 -19.5t-8 -19.5t-20 -7.5h-556q-17 0 -26 9t-9 22t10 25zM477 912l-122 -124q-13 -13 -27.5 -8.5t-17.5 17.5t8 28l120 125q13 13 28.5 9 t19 -17.5t-8.5 -29.5z" />
<glyph unicode="&#x17a;" horiz-adv-x="599" d="M75 56l376 413h-349q-12 0 -20 7.5t-8 19.5t8 19t20 7h396q17 0 25.5 -9t8.5 -22q0 -15 -10 -25l-378 -413h358q12 0 20 -7.5t8 -19.5t-8 -19t-20 -7h-403q-17 0 -25.5 9t-8.5 22q0 15 10 25zM424 754l-122 -124q-13 -13 -27.5 -8.5t-17.5 17.5t8 28l120 125 q13 13 28.5 9t19 -17.5t-8.5 -29.5z" />
<glyph unicode="&#x17b;" horiz-adv-x="709" d="M52 56l533 590h-508q-11 0 -19 7.5t-8 19.5t7.5 19.5t19.5 7.5h554q17 0 26 -9t9 -22q0 -14 -12 -26l-531 -589h510q12 0 20 -7.5t8 -19.5t-8 -19.5t-20 -7.5h-556q-17 0 -26 9t-9 22t10 25zM309 844q0 19 13 32t32 13t32 -13t13 -32t-13 -32t-32 -13t-32 13t-13 32z" />
<glyph unicode="&#x17c;" horiz-adv-x="599" d="M75 56l376 413h-349q-12 0 -20 7.5t-8 19.5t8 19t20 7h396q17 0 25.5 -9t8.5 -22q0 -15 -10 -25l-378 -413h358q12 0 20 -7.5t8 -19.5t-8 -19t-20 -7h-403q-17 0 -25.5 9t-8.5 22q0 15 10 25zM257 686q0 19 13 32t32 13t32 -13t13 -32t-13 -32t-32 -13t-32 13t-13 32z " />
<glyph unicode="&#x17d;" horiz-adv-x="709" d="M52 56l533 590h-508q-11 0 -19 7.5t-8 19.5t7.5 19.5t19.5 7.5h554q17 0 26 -9t9 -22q0 -14 -12 -26l-531 -589h510q12 0 20 -7.5t8 -19.5t-8 -19.5t-20 -7.5h-556q-17 0 -26 9t-9 22t10 25zM354 829q17 0 27 13l87 109q10 12 24 9t18 -14.5t-5 -24.5l-88 -110 q-25 -30 -63 -30q-37 0 -63 30l-88 110q-10 12 -5 25t17.5 14.5t24.5 -9.5l87 -109q10 -13 27 -13z" />
<glyph unicode="&#x17e;" horiz-adv-x="599" d="M75 56l376 413h-349q-12 0 -20 7.5t-8 19.5t8 19t20 7h396q17 0 25.5 -9t8.5 -22q0 -15 -10 -25l-378 -413h358q12 0 20 -7.5t8 -19.5t-8 -19t-20 -7h-403q-17 0 -25.5 9t-8.5 22q0 15 10 25zM302 671q17 0 27 13l87 109q10 12 24 9t18 -14.5t-5 -24.5l-88 -110 q-25 -30 -63 -30q-37 0 -63 30l-88 110q-10 12 -5 25t17.5 14.5t24.5 -9.5l87 -109q10 -13 27 -13z" />
<glyph unicode="&#x192;" horiz-adv-x="730" d="M435 583l-11 -61h181q12 0 20 -7t8 -19q0 -11 -8.5 -18.5t-19.5 -7.5h-190l-79 -453q-18 -101 -78 -154t-155 -53q-13 0 -21 8t-8 19q0 12 8 19.5t21 7.5q73 0 119 41t58 112l79 453h-161q-11 0 -19.5 7.5t-8.5 18.5q0 12 8 19t20 7h170l11 61q18 101 78 154t155 53 q13 0 21 -8t8 -19q0 -12 -8 -19.5t-21 -7.5q-72 0 -118.5 -41t-58.5 -112z" />
<glyph unicode="&#x1d3;" horiz-adv-x="805" d="M402 829q17 0 27 13l87 109q10 12 24 9t18 -14.5t-5 -24.5l-88 -110q-25 -30 -63 -30q-37 0 -63 30l-88 110q-10 12 -5 25t17.5 14.5t24.5 -9.5l87 -109q10 -13 27 -13zM98 291v384q0 12 8.5 20.5t20.5 8.5t20.5 -8.5t8.5 -20.5v-379q0 -111 66 -182t180 -71t180.5 71 t66.5 182v379q0 12 8.5 20.5t20.5 8.5t20.5 -8.5t8.5 -20.5v-384q0 -133 -83 -219.5t-222 -86.5q-138 0 -221 86.5t-83 219.5z" />
<glyph unicode="&#x1d4;" d="M592 498v-474q0 -11 -8 -19.5t-20 -8.5q-11 0 -19 8.5t-8 19.5v57q-88 -94 -211 -94q-99 0 -163.5 62t-64.5 159v289q0 12 8.5 20.5t19.5 8.5q12 0 20 -8.5t8 -20.5v-273q0 -84 50.5 -133.5t132.5 -49.5q118 0 200 106v351q0 11 8 19.5t19 8.5q12 0 20 -8.5t8 -19.5z M345 671q17 0 27 13l87 109q10 12 24 9t18 -14.5t-5 -24.5l-88 -110q-25 -30 -63 -30q-37 0 -63 30l-88 110q-10 12 -5 25t17.5 14.5t24.5 -9.5l87 -109q10 -13 27 -13z" />
<glyph unicode="&#x1e2;" horiz-adv-x="1053" d="M524 0q-15 0 -24 10t-9 24v149h-342l-82 -170q-9 -17 -26 -17t-25 13.5t-1 28.5l299 608q27 54 85 54h548q11 0 19 -8t8 -20q0 -11 -8 -19t-19 -8h-399v-268h309q11 0 19 -8t8 -19t-8 -19t-19 -8h-309v-268h399q11 0 19 -8t8 -19q0 -12 -8 -20t-19 -8h-423zM491 645h-91 q-26 0 -37 -23l-187 -385h315v408zM737 815h-272q-12 0 -20 7t-8 19q0 11 8.5 18.5t19.5 7.5h272q11 0 19.5 -7.5t8.5 -18.5q0 -12 -8 -19t-20 -7z" />
<glyph unicode="&#x1e3;" horiz-adv-x="1128" d="M683 282h332q-4 92 -58.5 148.5t-146.5 56.5q-107 0 -166 -63.5t-59 -162.5q0 -103 62 -163t166 -60q124 0 189 88q21 20 39 3.5t-1 -37.5q-33 -47 -93 -77t-136 -30q-127 0 -203 75.5t-76 211.5v152q-67 61 -168 61q-109 0 -175 -61.5t-66 -161.5q0 -104 60 -163 t166 -59q39 0 81 11q24 3 29 -20.5t-21 -30.5q-46 -13 -94 -13q-125 0 -200.5 73t-75.5 199q0 124 81 201t211 77q98 0 172 -54v16q0 11 8 19t19 8t18.5 -8t7.5 -19v-87q31 59 89 92t138 33q120 0 188.5 -76t68.5 -188q0 -17 -10 -27.5t-27 -10.5h-349q-10 0 -17 7t-7 17 q0 9 7 16t17 7zM703 657h-272q-12 0 -20 7t-8 19q0 11 8.5 18.5t19.5 7.5h272q11 0 19.5 -7.5t8.5 -18.5q0 -12 -8 -19t-20 -7z" />
<glyph unicode="&#x1fc;" horiz-adv-x="1053" d="M524 0q-15 0 -24 10t-9 24v149h-342l-82 -170q-9 -17 -26 -17t-25 13.5t-1 28.5l299 608q27 54 85 54h548q11 0 19 -8t8 -20q0 -11 -8 -19t-19 -8h-399v-268h309q11 0 19 -8t8 -19t-8 -19t-19 -8h-309v-268h399q11 0 19 -8t8 -19q0 -12 -8 -20t-19 -8h-423zM491 645h-91 q-26 0 -37 -23l-187 -385h315v408zM724 912l-122 -124q-13 -13 -27.5 -8.5t-17.5 17.5t8 28l120 125q13 13 28.5 9t19 -17.5t-8.5 -29.5z" />
<glyph unicode="&#x1fd;" horiz-adv-x="1128" d="M683 282h332q-4 92 -58.5 148.5t-146.5 56.5q-107 0 -166 -63.5t-59 -162.5q0 -103 62 -163t166 -60q124 0 189 88q21 20 39 3.5t-1 -37.5q-33 -47 -93 -77t-136 -30q-127 0 -203 75.5t-76 211.5v152q-67 61 -168 61q-109 0 -175 -61.5t-66 -161.5q0 -104 60 -163 t166 -59q39 0 81 11q24 3 29 -20.5t-21 -30.5q-46 -13 -94 -13q-125 0 -200.5 73t-75.5 199q0 124 81 201t211 77q98 0 172 -54v16q0 11 8 19t19 8t18.5 -8t7.5 -19v-87q31 59 89 92t138 33q120 0 188.5 -76t68.5 -188q0 -17 -10 -27.5t-27 -10.5h-349q-10 0 -17 7t-7 17 q0 9 7 16t17 7zM690 754l-122 -124q-13 -13 -27.5 -8.5t-17.5 17.5t8 28l120 125q13 13 28.5 9t19 -17.5t-8.5 -29.5z" />
<glyph unicode="&#x1fe;" horiz-adv-x="830" d="M424 715q155 0 248.5 -98.5t93.5 -266.5q0 -163 -98.5 -264t-263.5 -101q-153 0 -246.5 99t-93.5 266q0 162 98 263.5t262 101.5zM424 661q-139 0 -221.5 -86t-82.5 -225q0 -178 114 -260l314 547q-54 24 -124 24zM710 350q0 177 -114 259l-315 -546q54 -24 123 -24 q140 0 223 85.5t83 225.5zM537 912l-122 -124q-13 -13 -27.5 -8.5t-17.5 17.5t8 28l120 125q13 13 28.5 9t19 -17.5t-8.5 -29.5z" />
<glyph unicode="&#x1ff;" horiz-adv-x="677" d="M347 537q122 0 192 -73.5t70 -202.5q0 -126 -75.5 -201t-205.5 -75q-119 0 -189.5 73.5t-70.5 202.5q0 125 74.5 200.5t204.5 75.5zM119 261q0 -133 82 -192l235 406q-42 16 -89 16q-108 0 -168 -63t-60 -167zM330 31q107 0 167.5 62.5t60.5 167.5q0 130 -79 189 l-233 -405q39 -14 84 -14zM461 754l-122 -124q-13 -13 -27.5 -8.5t-17.5 17.5t8 28l120 125q13 13 28.5 9t19 -17.5t-8.5 -29.5z" />
<glyph unicode="&#x218;" horiz-adv-x="727" d="M391 -117l-38 -148q-8 -27 -33 -21t-18 34l37 149q5 18 20 22t26 -6.5t6 -29.5zM80 56q-26 19 -11.5 41t41.5 7q105 -65 253 -65q113 0 175.5 39t62.5 101q0 44 -28.5 72.5t-74.5 42t-101.5 22.5t-111.5 20.5t-102 30.5t-74.5 57.5t-28.5 96.5q0 82 74.5 138t231.5 56 q139 0 234 -51q24 -14 12 -37.5t-39 -10.5q-88 45 -215 45q-122 0 -181 -40.5t-59 -99.5q0 -44 28.5 -73t74.5 -42.5t101.5 -23t111.5 -21.5t102 -30.5t74.5 -56.5t28.5 -95q0 -86 -79 -140t-214 -54q-177 0 -286 71z" />
<glyph unicode="&#x219;" horiz-adv-x="600" d="M325 -117l-38 -148q-8 -27 -33 -21t-18 34l37 149q5 18 20 22t26 -6.5t6 -29.5zM62 43q-23 18 -8 38t40 4q85 -48 207 -48q82 0 128.5 27.5t46.5 72.5t-41.5 66t-101 27.5t-119 15.5t-101 42.5t-41.5 96.5q0 64 59 108t183 44q110 0 184 -34q25 -14 13 -36.5t-38 -10.5 q-68 29 -165 29q-92 0 -136 -29t-44 -71q0 -46 41.5 -68t101 -28t118.5 -15t100.5 -42t41.5 -95q0 -69 -61.5 -110.5t-166.5 -41.5q-151 0 -241 58z" />
<glyph unicode="&#x21a;" horiz-adv-x="632" d="M342 -117l-38 -148q-8 -27 -33 -21t-18 34l37 149q5 18 20 22t26 -6.5t6 -29.5zM32 700h568q12 0 20 -7.5t8 -19.5t-8 -19.5t-20 -7.5h-255v-621q0 -12 -8.5 -20.5t-20.5 -8.5t-20.5 8.5t-8.5 20.5v621h-255q-12 0 -20 7.5t-8 19.5t8 19.5t20 7.5z" />
<glyph unicode="&#x21b;" horiz-adv-x="472" d="M308 -117l-38 -148q-8 -27 -33 -21t-18 34l37 149q5 18 20 22t26 -6.5t6 -29.5zM388 470h-183v-303q0 -60 29 -89t78 -29q44 0 82 17q25 12 35 -10t-13 -36q-49 -25 -109 -25q-72 0 -115 42.5t-43 120.5v312h-94q-12 0 -20 7t-8 19q0 11 8.5 18.5t19.5 7.5h94v107 q0 11 8.5 19.5t19.5 8.5q12 0 20 -8.5t8 -19.5v-107h183q11 0 19.5 -7.5t8.5 -18.5q0 -12 -8 -19t-20 -7z" />
<glyph unicode="&#x237;" horiz-adv-x="284" d="M114 39v459q0 11 8 19.5t20 8.5q11 0 19.5 -8.5t8.5 -19.5v-458q0 -151 -98 -224q-12 -6 -21 -6q-20 0 -24.5 18t10.5 31q77 58 77 180z" />
<glyph unicode="&#x2c6;" horiz-adv-x="346" d="M173 741q-16 0 -27 -13l-87 -109q-10 -12 -24 -9.5t-18 14t5 25.5l88 109q25 30 63 30q37 0 63 -30l88 -109q10 -13 5 -25.5t-17.5 -14t-24.5 9.5l-87 109q-11 13 -27 13z" />
<glyph unicode="&#x2c7;" horiz-adv-x="346" d="M173 671q17 0 27 13l87 109q10 12 24 9t18 -14.5t-5 -24.5l-88 -110q-25 -30 -63 -30q-37 0 -63 30l-88 110q-10 12 -5 25t17.5 14.5t24.5 -9.5l87 -109q10 -13 27 -13z" />
<glyph unicode="&#x2d8;" horiz-adv-x="403" d="M49 752q0 12 7.5 19.5t18.5 7.5q10 0 17 -7t7 -16q0 -44 28.5 -70.5t71.5 -26.5q47 0 76 27t29 70q0 9 7 16t17 7q11 0 18.5 -7.5t7.5 -19.5q0 -60 -41.5 -101.5t-113.5 -41.5q-67 0 -108.5 40.5t-41.5 102.5z" />
<glyph unicode="&#x2d9;" horiz-adv-x="90" d="M0 673q0 19 13 32t32 13t32 -13t13 -32t-13 -32t-32 -13t-32 13t-13 32z" />
<glyph unicode="&#x2da;" horiz-adv-x="238" d="M10 726q0 47 31.5 78t77.5 31t77.5 -31t31.5 -78t-31.5 -78t-77.5 -31t-77.5 31t-31.5 78zM51 726q0 -30 19.5 -49t48.5 -19t48.5 19t19.5 49t-19.5 49t-48.5 19t-48.5 -19t-19.5 -49z" />
<glyph unicode="&#x2db;" horiz-adv-x="210" d="M110 26l30 -27q-94 -43 -94 -108q0 -28 17.5 -44.5t51.5 -16.5q33 0 62 16q19 9 29 -7t-6 -28q-35 -24 -86 -24q-53 0 -83.5 27t-30.5 72q0 81 110 140z" />
<glyph unicode="&#x2dc;" horiz-adv-x="362" d="M0 657q0 44 29 74t73 30q51 0 95 -46q32 -32 61 -32q24 0 40 15.5t16 39.5q0 10 6.5 17t17.5 7q24 0 24 -26q0 -44 -29.5 -73.5t-74.5 -29.5q-22 0 -41.5 8t-29 16t-24.5 23q-34 32 -61 32q-23 0 -38 -15.5t-15 -39.5q0 -26 -25 -26q-11 0 -17.5 7.5t-6.5 18.5z" />
<glyph unicode="&#x2dd;" horiz-adv-x="283" d="M101 766l-50 -146q-8 -16 -23 -16.5t-23.5 12.5t-0.5 29l49 145q8 16 24 17t24.5 -11.5t-0.5 -29.5zM277 766l-50 -146q-8 -16 -23 -16.5t-23 12.5t0 29l49 145q8 16 24 17t23 -11t0 -30z" />
<glyph unicode="&#x394;" horiz-adv-x="800" d="M740 0h-681q-16 0 -24 13.5t-1 28.5l281 612q25 54 85 54t85 -54l281 -612q7 -15 -1.5 -28.5t-24.5 -13.5zM367 635l-264 -579h594l-264 579q-10 22 -33 22t-33 -22z" />
<glyph unicode="&#x3a3;" horiz-adv-x="701" d="M86 86q0 43 37 73l228 191l-228 191q-37 30 -37 73q0 35 25 60.5t65 25.5h430q12 0 20 -7.5t8 -19.5t-8 -19.5t-20 -7.5h-425q-15 0 -25.5 -11t-10.5 -26q0 -19 14 -31l243 -203q12 -9 12 -25t-12 -25l-243 -203q-14 -12 -14 -31q0 -15 10.5 -26t25.5 -11h425 q12 0 20 -7.5t8 -19.5t-8 -19.5t-20 -7.5h-430q-40 0 -65 25.5t-25 60.5z" />
<glyph unicode="&#x3a9;" horiz-adv-x="830" d="M766 368q0 -103 -44.5 -183t-116.5 -129h139q11 0 19.5 -8.5t8.5 -19.5q0 -12 -8.5 -20t-19.5 -8h-212q-11 0 -19.5 8t-8.5 20q0 13 13 24q85 48 139 127t54 189q0 134 -78 213.5t-208 79.5q-138 0 -221 -82.5t-83 -210.5q0 -110 54 -189t139 -127q13 -11 13 -24 q0 -12 -8.5 -20t-19.5 -8h-212q-11 0 -19.5 8t-8.5 20q0 11 8.5 19.5t19.5 8.5h138q-73 48 -116.5 127t-43.5 185q0 151 99.5 249t260.5 98q154 0 248 -96t94 -251z" />
<glyph unicode="&#x3bc;" d="M98 -162v659q0 12 8.5 20.5t19.5 8.5q12 0 20 -8.5t8 -20.5v-273q0 -84 50.5 -133.5t132.5 -49.5q118 0 200 106v351q0 11 8 19.5t19 8.5q12 0 20 -8.5t8 -19.5v-474q0 -11 -8 -19.5t-20 -8.5q-11 0 -19 8.5t-8 19.5v58q-82 -95 -203 -95q-64 0 -109.5 29t-70.5 73v-251 q0 -11 -8 -19.5t-20 -8.5q-11 0 -19.5 8.5t-8.5 19.5z" />
<glyph unicode="&#x3c0;" horiz-adv-x="696" d="M54 522h587q12 0 20.5 -7.5t8.5 -19.5t-8.5 -19.5t-20.5 -7.5h-71v-443q0 -12 -8 -20.5t-20 -8.5t-20 8.5t-8 20.5v443h-314q-3 -251 -59 -450q-7 -22 -28 -22q-13 0 -21.5 10.5t-5.5 24.5q53 182 56 437h-88q-12 0 -20 7.5t-8 19.5t8 19.5t20 7.5z" />
<glyph unicode="&#x1e46;" horiz-adv-x="886" d="M383 -124q0 19 13 32t32 13t32 -13t13 -32t-13 -32t-32 -13t-32 13t-13 32zM595 43l-356 587q-11 18 -32 18q-14 0 -24.5 -10.5t-10.5 -26.5v-586q0 -13 -8 -21t-21 -8t-21 8t-8 21v587q0 39 27.5 66t67.5 27q55 0 83 -50l355 -585q11 -18 32 -18q14 0 24.5 10.5 t10.5 26.5v586q0 13 8 21t21 8t21 -8t8 -21v-587q0 -39 -27.5 -66t-67.5 -27q-55 0 -82 48z" />
<glyph unicode="&#x1e47;" d="M315 -124q0 19 13 32t32 13t32 -13t13 -32t-13 -32t-32 -13t-32 13t-13 32zM114 24v474q0 11 8 19.5t20 8.5q11 0 19.5 -8.5t8.5 -19.5v-57q88 94 210 94q99 0 163.5 -62.5t64.5 -159.5v-288q0 -12 -8 -20.5t-20 -8.5t-20 8.5t-8 20.5v273q0 84 -50.5 133t-132.5 49 q-118 0 -199 -105v-351q0 -11 -8.5 -19.5t-19.5 -8.5q-12 0 -20 8.5t-8 19.5z" />
<glyph unicode="&#x1e62;" horiz-adv-x="727" d="M80 56q-26 19 -11.5 41t41.5 7q105 -65 253 -65q113 0 175.5 39t62.5 101q0 44 -28.5 72.5t-74.5 42t-101.5 22.5t-111.5 20.5t-102 30.5t-74.5 57.5t-28.5 96.5q0 82 74.5 138t231.5 56q139 0 234 -51q24 -14 12 -37.5t-39 -10.5q-88 45 -215 45q-122 0 -181 -40.5 t-59 -99.5q0 -44 28.5 -73t74.5 -42.5t101.5 -23t111.5 -21.5t102 -30.5t74.5 -56.5t28.5 -95q0 -86 -79 -140t-214 -54q-177 0 -286 71zM320 -124q0 19 13 32t32 13t32 -13t13 -32t-13 -32t-32 -13t-32 13t-13 32z" />
<glyph unicode="&#x1e63;" horiz-adv-x="600" d="M62 43q-23 18 -8 38t40 4q85 -48 207 -48q82 0 128.5 27.5t46.5 72.5t-41.5 66t-101 27.5t-119 15.5t-101 42.5t-41.5 96.5q0 64 59 108t183 44q110 0 184 -34q25 -14 13 -36.5t-38 -10.5q-68 29 -165 29q-92 0 -136 -29t-44 -71q0 -46 41.5 -68t101 -28t118.5 -15 t100.5 -42t41.5 -95q0 -69 -61.5 -110.5t-166.5 -41.5q-151 0 -241 58zM254 -124q0 19 13 32t32 13t32 -13t13 -32t-13 -32t-32 -13t-32 13t-13 32z" />
<glyph unicode="&#x1e80;" horiz-adv-x="1106" d="M553 556q21 0 28 -20l186 -462q10 -26 35 -26t35 25l198 611q6 20 28 20q15 0 23 -11.5t4 -26.5l-197 -607q-21 -67 -90 -67q-63 0 -87 60l-163 406l-163 -406q-24 -60 -87 -60q-69 0 -90 67l-197 607q-4 15 4 26.5t23 11.5q22 0 28 -20l198 -611q10 -25 35 -25t35 26 l186 462q7 20 28 20zM549 748l-122 124q-14 14 -9 29.5t19 18t28 -9.5l121 -125q13 -13 8.5 -28t-18 -17.5t-27.5 8.5z" />
<glyph unicode="&#x1e81;" horiz-adv-x="894" d="M447 422q20 0 29 -20l127 -332q9 -25 35 -25q27 0 35 25l133 435q5 20 27 20q15 0 22.5 -11t3.5 -26l-131 -431q-10 -30 -33.5 -47.5t-56.5 -17.5q-63 0 -86 61l-105 281l-104 -281q-23 -61 -87 -61q-33 0 -56.5 17.5t-33.5 47.5l-131 431q-4 15 3.5 26t23.5 11 q21 0 26 -20l133 -435q8 -25 35 -25q26 0 35 25l128 332q7 20 28 20zM443 590l-122 124q-14 14 -9 29.5t19 18t28 -9.5l121 -125q13 -13 8.5 -28t-18 -17.5t-27.5 8.5z" />
<glyph unicode="&#x1e82;" horiz-adv-x="1106" d="M675 872l-122 -124q-13 -13 -27.5 -8.5t-17.5 17.5t8 28l120 125q13 13 28.5 9t19 -17.5t-8.5 -29.5zM553 556q21 0 28 -20l186 -462q10 -26 35 -26t35 25l198 611q6 20 28 20q15 0 23 -11.5t4 -26.5l-197 -607q-21 -67 -90 -67q-63 0 -87 60l-163 406l-163 -406 q-24 -60 -87 -60q-69 0 -90 67l-197 607q-4 15 4 26.5t23 11.5q22 0 28 -20l198 -611q10 -25 35 -25t35 26l186 462q7 20 28 20z" />
<glyph unicode="&#x1e83;" horiz-adv-x="894" d="M569 714l-122 -124q-13 -13 -27.5 -8.5t-17.5 17.5t8 28l120 125q13 13 28.5 9t19 -17.5t-8.5 -29.5zM447 422q20 0 29 -20l127 -332q9 -25 35 -25q27 0 35 25l133 435q5 20 27 20q15 0 22.5 -11t3.5 -26l-131 -431q-10 -30 -33.5 -47.5t-56.5 -17.5q-63 0 -86 61 l-105 281l-104 -281q-23 -61 -87 -61q-33 0 -56.5 17.5t-33.5 47.5l-131 431q-4 15 3.5 26t23.5 11q21 0 26 -20l133 -435q8 -25 35 -25q26 0 35 25l128 332q7 20 28 20z" />
<glyph unicode="&#x1e84;" horiz-adv-x="1106" d="M387 801q0 19 13 32t32 13t32 -13t13 -32t-13 -32t-32 -13t-32 13t-13 32zM628 801q0 19 13 32t32 13t32 -13t13 -32t-13 -32t-32 -13t-32 13t-13 32zM553 556q21 0 28 -20l186 -462q10 -26 35 -26t35 25l198 611q6 20 28 20q15 0 23 -11.5t4 -26.5l-197 -607 q-21 -67 -90 -67q-63 0 -87 60l-163 406l-163 -406q-24 -60 -87 -60q-69 0 -90 67l-197 607q-4 15 4 26.5t23 11.5q22 0 28 -20l198 -611q10 -25 35 -25t35 26l186 462q7 20 28 20z" />
<glyph unicode="&#x1e85;" horiz-adv-x="894" d="M281 643q0 19 13 32t32 13t32 -13t13 -32t-13 -32t-32 -13t-32 13t-13 32zM522 643q0 19 13 32t32 13t32 -13t13 -32t-13 -32t-32 -13t-32 13t-13 32zM447 422q20 0 29 -20l127 -332q9 -25 35 -25q27 0 35 25l133 435q5 20 27 20q15 0 22.5 -11t3.5 -26l-131 -431 q-10 -30 -33.5 -47.5t-56.5 -17.5q-63 0 -86 61l-105 281l-104 -281q-23 -61 -87 -61q-33 0 -56.5 17.5t-33.5 47.5l-131 431q-4 15 3.5 26t23.5 11q21 0 26 -20l133 -435q8 -25 35 -25q26 0 35 25l128 332q7 20 28 20z" />
<glyph unicode="&#x1ebc;" horiz-adv-x="726" d="M172 55h449q11 0 19 -8t8 -19q0 -12 -8 -20t-19 -8h-473q-15 0 -24.5 10t-9.5 24v632q0 14 9.5 24t24.5 10h473q11 0 19 -8t8 -20q0 -11 -8 -19t-19 -8h-449v-268h358q11 0 19.5 -8t8.5 -19t-8.5 -19t-19.5 -8h-358v-268zM199 815q0 44 29 74t73 30q51 0 95 -46 q32 -32 61 -32q24 0 40 15.5t16 39.5q0 10 6.5 17t17.5 7q24 0 24 -26q0 -44 -29.5 -73.5t-74.5 -29.5q-22 0 -41.5 8t-29 16t-24.5 23q-34 32 -61 32q-23 0 -38 -15.5t-15 -39.5q0 -26 -25 -26q-11 0 -17.5 7.5t-6.5 18.5z" />
<glyph unicode="&#x1ebd;" horiz-adv-x="663" d="M569 235h-350q-10 0 -17 7t-7 17q0 9 7 16t17 7h332q-4 92 -58.5 148.5t-146.5 56.5q-105 0 -164.5 -64.5t-59.5 -161.5q0 -103 61.5 -163t165.5 -60q124 0 190 88q20 20 38 3.5t-1 -37.5q-32 -46 -92.5 -76.5t-135.5 -30.5q-127 0 -203.5 73.5t-76.5 200.5 q0 117 74 197.5t203 80.5q123 0 191.5 -75.5t68.5 -188.5q0 -17 -10 -27.5t-26 -10.5zM164 657q0 44 29 74t73 30q51 0 95 -46q32 -32 61 -32q24 0 40 15.5t16 39.5q0 10 6.5 17t17.5 7q24 0 24 -26q0 -44 -29.5 -73.5t-74.5 -29.5q-22 0 -41.5 8t-29 16t-24.5 23 q-34 32 -61 32q-23 0 -38 -15.5t-15 -39.5q0 -26 -25 -26q-11 0 -17.5 7.5t-6.5 18.5z" />
<glyph unicode="&#x1ef2;" d="M283 323l-271 335q-10 12 -3.5 29t26.5 17q12 0 21 -10l270 -335q11 -13 28 -13q18 0 29 13l269 335q10 10 22 10q20 0 26.5 -17t-4.5 -29l-270 -335q-17 -20 -42 -29v-269q0 -12 -8.5 -20.5t-21.5 -8.5q-12 0 -20.5 8.5t-8.5 20.5v268q-24 8 -42 30zM350 788l-122 124 q-14 14 -9 29.5t19 18t28 -9.5l121 -125q13 -13 8.5 -28t-18 -17.5t-27.5 8.5z" />
<glyph unicode="&#x1ef3;" horiz-adv-x="600" d="M219 -152l67 147q-43 11 -60 51l-197 438q-7 15 1 28.5t24 13.5q18 0 26 -17l198 -444q9 -21 30 -22l212 465q7 17 26 17q16 0 24 -12.5t1 -26.5l-304 -660q-7 -15 -22 -16t-24.5 10.5t-1.5 27.5zM296 630l-122 124q-14 14 -9 29.5t19 18t28 -9.5l121 -125 q13 -13 8.5 -28t-18 -17.5t-27.5 8.5z" />
<glyph unicode="&#x2013;" horiz-adv-x="698" d="M600 253h-502q-11 0 -19.5 8.5t-8.5 19.5q0 12 8.5 20t19.5 8h502q11 0 19.5 -8t8.5 -20q0 -11 -8.5 -19.5t-19.5 -8.5z" />
<glyph unicode="&#x2014;" horiz-adv-x="1003" d="M905 253h-807q-11 0 -19.5 8.5t-8.5 19.5q0 12 8.5 20t19.5 8h807q11 0 19.5 -8t8.5 -20q0 -11 -8.5 -19.5t-19.5 -8.5z" />
<glyph unicode="&#x2018;" horiz-adv-x="211" d="M96 684l66 -195q6 -17 -5 -28t-26.5 -8.5t-21.5 18.5l-67 194q-5 14 3.5 26t23.5 12q21 0 27 -19z" />
<glyph unicode="&#x2019;" horiz-adv-x="211" d="M50 489l66 195q6 19 27 19q15 0 23.5 -12t3.5 -26l-67 -194q-6 -16 -21.5 -18.5t-26.5 8.5t-5 28z" />
<glyph unicode="&#x201a;" horiz-adv-x="211" d="M40 -78l66 195q6 19 27 19q15 0 23.5 -12t3.5 -26l-67 -194q-6 -16 -21.5 -18.5t-26.5 8.5t-5 28z" />
<glyph unicode="&#x201c;" horiz-adv-x="401" d="M286 684l66 -195q6 -17 -5 -28t-26.5 -8.5t-21.5 18.5l-67 194q-5 14 3.5 26t23.5 12q21 0 27 -19zM96 684l66 -195q6 -17 -5 -28t-26.5 -8.5t-21.5 18.5l-67 194q-5 14 3.5 26t23.5 12q21 0 27 -19z" />
<glyph unicode="&#x201d;" horiz-adv-x="401" d="M239 489l66 195q6 19 27 19q15 0 23.5 -12t3.5 -26l-67 -194q-6 -16 -21.5 -18.5t-26.5 8.5t-5 28zM50 489l66 195q6 19 27 19q15 0 23.5 -12t3.5 -26l-67 -194q-6 -16 -21.5 -18.5t-26.5 8.5t-5 28z" />
<glyph unicode="&#x201e;" horiz-adv-x="401" d="M229 -78l66 195q6 19 27 19q15 0 23.5 -12t3.5 -26l-67 -194q-6 -16 -21.5 -18.5t-26.5 8.5t-5 28zM40 -78l66 195q6 19 27 19q15 0 23.5 -12t3.5 -26l-67 -194q-6 -16 -21.5 -18.5t-26.5 8.5t-5 28z" />
<glyph unicode="&#x2020;" horiz-adv-x="632" d="M345 763v-241h193q12 0 20 -7.5t8 -19.5t-8 -19.5t-20 -7.5h-193v-531q0 -12 -8.5 -20.5t-20.5 -8.5t-20.5 8.5t-8.5 20.5v531h-193q-12 0 -20 7.5t-8 19.5t8 19.5t20 7.5h193v241q0 12 8.5 20.5t20.5 8.5t20.5 -8.5t8.5 -20.5z" />
<glyph unicode="&#x2021;" horiz-adv-x="632" d="M94 232h193v236h-193q-12 0 -20 7.5t-8 19.5t8 19.5t20 7.5h193v241q0 12 8.5 20.5t20.5 8.5t20.5 -8.5t8.5 -20.5v-241h193q12 0 20 -7.5t8 -19.5t-8 -19.5t-20 -7.5h-193v-236h193q12 0 20 -7.5t8 -19.5t-8 -19.5t-20 -7.5h-193v-241q0 -12 -8.5 -20.5t-20.5 -8.5 t-20.5 8.5t-8.5 20.5v241h-193q-12 0 -20 7.5t-8 19.5t8 19.5t20 7.5z" />
<glyph unicode="&#x2022;" horiz-adv-x="430" d="M100 261q0 49 33 82t82 33t82 -33t33 -82t-33 -82t-82 -33t-82 33t-33 82z" />
<glyph unicode="&#x2026;" horiz-adv-x="718" d="M313 42q0 19 13.5 32.5t32.5 13.5t32.5 -13t13.5 -33t-13.5 -33t-32.5 -13t-32.5 13.5t-13.5 32.5zM65 42q0 19 13.5 32.5t32.5 13.5t32.5 -13t13.5 -33t-13.5 -33t-32.5 -13t-32.5 13.5t-13.5 32.5zM561 42q0 19 13.5 32.5t32.5 13.5t32.5 -13t13.5 -33t-13.5 -33 t-32.5 -13t-32.5 13.5t-13.5 32.5z" />
<glyph unicode="&#x2030;" horiz-adv-x="1189" d="M965 350q78 0 126 -49.5t48 -133.5q0 -81 -48 -131.5t-130 -50.5q-108 0 -148 90q-40 -90 -151 -90q-77 0 -125 49t-48 133q0 82 47.5 132.5t129.5 50.5q107 0 148 -90q41 90 151 90zM227 715q78 0 126 -49.5t48 -133.5q0 -81 -48 -131.5t-130 -50.5q-77 0 -125 49 t-48 133q0 82 47.5 132.5t129.5 50.5zM666 300q-59 0 -93 -36.5t-34 -96.5q0 -61 34 -96.5t89 -35.5q59 0 94 36.5t35 95.5q0 61 -34.5 97t-90.5 36zM965 300q-59 0 -93.5 -37t-34.5 -96q0 -61 34.5 -96.5t89.5 -35.5q59 0 93.5 36.5t34.5 95.5q0 61 -34 97t-90 36zM227 665 q-59 0 -93 -36.5t-34 -96.5q0 -61 34 -96.5t89 -35.5q59 0 93.5 36.5t34.5 95.5q0 61 -34 97t-90 36zM705 626l-489 -582q-9 -11 -20 -11q-17 0 -23.5 14.5t5.5 28.5l488 581q9 11 20 11q17 0 23.5 -14t-4.5 -28z" />
<glyph unicode="&#x2039;" horiz-adv-x="461" d="M76 261q0 43 34 72l231 186q9 7 19 7q20 0 26.5 -19t-9.5 -32l-231 -186q-13 -10 -13 -28t13 -28l231 -186q16 -13 9.5 -32t-26.5 -19q-10 0 -19 7l-231 186q-34 29 -34 72z" />
<glyph unicode="&#x203a;" horiz-adv-x="461" d="M384 261q0 -43 -34 -72l-231 -186q-9 -7 -19 -7q-20 0 -26.5 19t9.5 32l231 186q13 10 13 28t-13 28l-231 186q-16 13 -9.5 32t26.5 19q10 0 19 -7l231 -186q34 -29 34 -72z" />
<glyph unicode="&#x2044;" horiz-adv-x="354" d="M3 32l303 655q6 17 24 17q14 0 21 -11t0 -25l-303 -655q-8 -17 -24 -17q-14 0 -21 11t0 25z" />
<glyph unicode="&#x2074;" horiz-adv-x="547" d="M480 348h-97v-72q0 -10 -7.5 -17.5t-17.5 -7.5q-11 0 -18.5 7.5t-7.5 17.5v72h-245q-22 0 -29 17t3 34l158 290q7 15 23 15q14 0 20 -11.5t-1 -26.5l-148 -272h219v285q0 10 7.5 17.5t18.5 7.5q10 0 17.5 -7.5t7.5 -17.5v-285h97q10 0 16.5 -6.5t6.5 -16.5q0 -9 -6.5 -16 t-16.5 -7z" />
<glyph unicode="&#x20ac;" horiz-adv-x="730" d="M459 245h-269q23 -96 87.5 -150t158.5 -54q131 0 197 95q11 13 26.5 10.5t20.5 -15.5t-5 -31q-36 -55 -100 -85t-139 -30q-120 0 -199 69t-103 191h-62q-10 0 -17.5 7.5t-7.5 17.5t7.5 17.5t17.5 7.5h54q-2 34 -2 55q0 28 3 55h-55q-10 0 -17.5 7.5t-7.5 17.5t7.5 17.5 t17.5 7.5h62q25 120 105 190t201 70q70 0 128.5 -27t95.5 -74q12 -16 5.5 -31t-20.5 -16.5t-26 9.5q-69 84 -186 84q-96 0 -160 -55t-87 -150h269q11 0 18 -7.5t7 -17.5t-7 -17.5t-18 -7.5h-277q-3 -27 -3 -55q0 -30 3 -55h277q11 0 18 -7.5t7 -17.5t-7 -17.5t-18 -7.5z" />
<glyph unicode="&#x2113;" horiz-adv-x="557" d="M170 486v-319q0 -60 29 -89t78 -29q43 0 81 17q26 12 36.5 -10t-13.5 -36q-49 -25 -110 -25q-72 0 -114.5 43t-42.5 123v325q0 108 54.5 168.5t145.5 60.5q82 0 132.5 -52.5t50.5 -137.5q0 -87 -61 -167.5t-153 -139.5q-24 -16 -39.5 5t6.5 38q193 128 193 264 q0 61 -35.5 99t-93.5 38q-68 0 -106 -46t-38 -130z" />
<glyph unicode="&#x2116;" horiz-adv-x="1473" d="M1369 0h-441q-11 0 -19.5 8t-8.5 20q0 11 8.5 19.5t19.5 8.5h441q12 0 20 -8.5t8 -19.5q0 -12 -8 -20t-20 -8zM1156 715q113 0 177 -64.5t64 -179.5q0 -109 -70 -176t-188 -67q-110 0 -174.5 65t-64.5 178q0 109 69 176.5t187 67.5zM1156 665q-94 0 -148 -52.5 t-54 -141.5q0 -91 49.5 -142t135.5 -51q95 0 149.5 52t54.5 141q0 93 -49.5 143.5t-137.5 50.5zM595 43l-356 587q-11 18 -32 18q-14 0 -24.5 -10.5t-10.5 -26.5v-586q0 -13 -8 -21t-21 -8t-21 8t-8 21v587q0 39 27.5 66t67.5 27q55 0 83 -50l355 -585q11 -18 32 -18 q14 0 24.5 10.5t10.5 26.5v586q0 13 8 21t21 8t21 -8t8 -21v-587q0 -39 -27.5 -66t-67.5 -27q-55 0 -82 48z" />
<glyph unicode="&#x2117;" horiz-adv-x="890" d="M80 350q0 155 106 260t262 105q158 0 260 -104.5t102 -260.5q0 -155 -106 -260t-262 -105q-158 0 -260 104.5t-102 260.5zM121 350q0 -139 91.5 -232.5t230.5 -93.5q138 0 231.5 94t93.5 232q0 139 -91 232.5t-230 93.5q-138 0 -232 -94t-94 -232zM506 298q42 0 71 29.5 t29 71.5t-29 72t-71 30h-167v-344q0 -9 -6 -15t-15 -6q-8 0 -14.5 6t-6.5 15v361q0 9 7 16.5t17 7.5h185q59 0 100 -42t41 -101t-41 -100.5t-100 -41.5h-49q-9 0 -15.5 5.5t-6.5 14.5q0 21 22 21h49z" />
<glyph unicode="&#x2122;" horiz-adv-x="907" d="M462 705q49 0 70 -42l76 -155l76 155q9 19 28.5 30.5t41.5 11.5q32 0 55.5 -22.5t23.5 -55.5v-257q0 -10 -7 -17t-17 -7t-16.5 7t-6.5 17v255q0 13 -9.5 22.5t-22.5 9.5q-20 0 -29 -17l-91 -185q-9 -15 -26 -15t-26 15l-92 185q-8 17 -28 17q-13 0 -22.5 -9.5t-9.5 -22.5 v-255q0 -10 -7 -17t-17 -7t-17 7t-7 17v257q0 32 24 55t56 23zM43 700h265q24 0 24 -23t-24 -23h-108v-284q0 -10 -7 -17t-17 -7t-17 7t-7 17v284h-109q-10 0 -16.5 6.5t-6.5 16.5t6.5 16.5t16.5 6.5z" />
<glyph unicode="&#x212e;" horiz-adv-x="836" d="M429 40q178 0 272 146q14 22 36.5 10.5t9.5 -37.5q-43 -76 -127.5 -125t-192.5 -49q-168 0 -265.5 100.5t-97.5 264.5q0 158 99.5 261.5t265.5 103.5q159 0 252 -103.5t93 -253.5q0 -18 -10.5 -29.5t-29.5 -11.5h-513q-12 0 -20 8t-8 19q0 12 8 20t20 8h498 q-3 123 -80.5 206t-209.5 83q-141 0 -225.5 -87.5t-84.5 -223.5q0 -142 84 -226t226 -84z" />
<glyph unicode="&#x2202;" horiz-adv-x="677" d="M217 788q119 -24 210 -102t136.5 -179t45.5 -207q0 -146 -74 -230.5t-206 -84.5q-115 0 -188 70.5t-73 195.5q0 122 74 194t202 72q110 0 186 -69q-37 109 -123 188t-208 105q-17 5 -20 19t8.5 23.5t29.5 4.5zM557 293q0 40 -8 83q-77 91 -202 91q-107 0 -165.5 -58 t-58.5 -158q0 -102 57 -158t152 -56q107 0 166 69t59 187z" />
<glyph unicode="&#x220f;" horiz-adv-x="790" d="M82 700h609q12 0 20.5 -7.5t8.5 -19.5t-8.5 -19.5t-20.5 -7.5h-43v-710q0 -13 -8.5 -21.5t-20.5 -8.5t-20.5 8.5t-8.5 21.5v710h-390v-711q0 -12 -8.5 -20.5t-20.5 -8.5t-20.5 8.5t-8.5 20.5v711h-60q-12 0 -20 7.5t-8 19.5t8 19.5t20 7.5z" />
<glyph unicode="&#x2211;" horiz-adv-x="598" d="M54 -1q0 34 22 66l181 240l-181 240q-22 32 -22 66q0 37 25 63t66 26h426q12 0 19.5 -7.5t7.5 -19.5t-7.5 -19.5t-19.5 -7.5h-421q-16 0 -26.5 -11t-10.5 -26t10 -30l191 -254q7 -10 7 -20t-7 -20l-191 -254q-10 -15 -10 -30t10 -26t27 -11h421q12 0 19.5 -7.5t7.5 -19.5 t-7.5 -19.5t-19.5 -7.5h-427q-41 0 -65.5 26t-24.5 63z" />
<glyph unicode="&#x2212;" horiz-adv-x="670" d="M572 233h-474q-11 0 -19.5 8.5t-8.5 19.5q0 12 8.5 20t19.5 8h474q11 0 19.5 -8t8.5 -20q0 -11 -8.5 -19.5t-19.5 -8.5z" />
<glyph unicode="&#x221a;" horiz-adv-x="792" d="M28 522h150q20 0 26 -20l150 -435q7 -24 33 -24q23 0 33 21l359 709q6 17 25 17q16 0 24.5 -13.5t1.5 -28.5l-358 -704q-27 -52 -85 -52q-30 0 -53.5 16t-32.5 44l-144 414h-129q-11 0 -19.5 8.5t-8.5 19.5q0 12 8.5 20t19.5 8z" />
<glyph unicode="&#x221e;" horiz-adv-x="1066" d="M768 29q-149 0 -235 177q-88 -177 -236 -177q-99 0 -160 67t-61 165t61 165t160 67q149 0 236 -177q85 177 235 177q100 0 161 -66.5t61 -165.5t-61 -165.5t-161 -66.5zM559 261q76 -182 209 -182q77 0 124.5 52t47.5 130t-47.5 130t-124.5 52q-133 0 -209 -182zM506 261 q-76 182 -209 182q-76 0 -123.5 -52.5t-47.5 -129.5t47.5 -129.5t123.5 -52.5q134 0 209 182z" />
<glyph unicode="&#x222b;" horiz-adv-x="402" d="M173 117v466q0 95 54.5 151t146.5 56q32 0 32 -28q0 -11 -8.5 -18.5t-23.5 -7.5q-68 0 -106.5 -42t-38.5 -111v-466q0 -95 -54.5 -151t-145.5 -56q-15 0 -24 8t-9 20q0 11 9 18.5t24 7.5q68 0 106 42t38 111z" />
<glyph unicode="&#x2248;" horiz-adv-x="698" d="M574 443q0 12 8 20t19 8t19 -8t8 -20q0 -66 -44 -109t-111 -43q-45 0 -81 19.5t-56.5 43t-50.5 43t-63 19.5q-42 0 -70 -29t-28 -71q0 -12 -8 -20t-19 -8t-19 8t-8 20q0 66 42.5 110t109.5 44q38 0 68 -13t49.5 -31t38 -36t42.5 -31t52 -13q45 0 73.5 27.5t28.5 69.5z M574 219q0 12 8 20t19 8t19 -8t8 -20q0 -66 -44 -109t-111 -43q-45 0 -81 19.5t-56.5 43t-50.5 43t-63 19.5q-42 0 -70 -29t-28 -71q0 -12 -8 -20t-19 -8t-19 8t-8 20q0 66 42.5 110t109.5 44q38 0 68 -13t49.5 -31t38 -36t42.5 -31t52 -13q45 0 73.5 27.5t28.5 69.5z" />
<glyph unicode="&#x2260;" horiz-adv-x="670" d="M572 94h-300l-99 -171q-8 -13 -22 -13t-21 12t0 26l84 146h-116q-11 0 -19.5 8.5t-8.5 19.5q0 12 8.5 20t19.5 8h149l128 221h-277q-11 0 -19.5 8.5t-8.5 19.5q0 12 8.5 20t19.5 8h309l111 190q8 13 22 13t21 -12t0 -26l-96 -165h107q11 0 19.5 -8t8.5 -20 q0 -11 -8.5 -19.5t-19.5 -8.5h-140l-128 -221h268q11 0 19.5 -8t8.5 -20q0 -11 -8.5 -19.5t-19.5 -8.5z" />
<glyph unicode="&#x2264;" horiz-adv-x="670" d="M572 0h-474q-11 0 -19.5 8.5t-8.5 19.5q0 12 8.5 20t19.5 8h474q11 0 19.5 -8t8.5 -20q0 -11 -8.5 -19.5t-19.5 -8.5zM70 439q0 59 56 85l391 177q7 3 14 3q25 0 29 -23t-16 -31l-399 -178q-21 -10 -21 -33t21 -33l399 -178q20 -8 16 -31t-29 -23q-7 0 -14 3l-391 177 q-56 26 -56 85z" />
<glyph unicode="&#x2265;" horiz-adv-x="670" d="M572 0h-474q-11 0 -19.5 8.5t-8.5 19.5q0 12 8.5 20t19.5 8h474q11 0 19.5 -8t8.5 -20q0 -11 -8.5 -19.5t-19.5 -8.5zM599 439q0 -59 -56 -85l-391 -177q-7 -3 -14 -3q-25 0 -29 23t16 31l399 178q21 10 21 33t-21 33l-399 178q-20 8 -16 31t29 23q6 0 14 -3l391 -177 q56 -26 56 -85z" />
<glyph unicode="&#x25ca;" horiz-adv-x="689" d="M345 -8q-46 0 -76 38l-220 299q-7 11 -7 21t7 21l220 299q30 38 76 38q47 0 75 -38l220 -299q7 -8 7 -21t-7 -21l-220 -299q-28 -38 -75 -38zM345 49q20 0 31 17l208 284l-208 284q-11 17 -31 17q-21 0 -32 -17l-209 -284l209 -284q11 -17 32 -17z" />
<glyph unicode="&#xe000;" horiz-adv-x="525" d="M0 525h525v-525h-525v525z" />
<glyph unicode="&#xfb01;" horiz-adv-x="658" d="M488 24v474q0 11 8 19.5t20 8.5q11 0 19.5 -8.5t8.5 -19.5v-474q0 -11 -8.5 -19.5t-19.5 -8.5q-12 0 -20 8.5t-8 19.5zM473 674q0 19 12.5 31t30.5 12t30.5 -12t12.5 -31t-12.5 -31t-30.5 -12t-30.5 12t-12.5 31zM333 470h-135v-446q0 -11 -8.5 -19.5t-19.5 -8.5 q-12 0 -20 8.5t-8 19.5v446h-82q-11 0 -19.5 7.5t-8.5 18.5q0 12 8 19t20 7h82v61q0 95 54.5 151t145.5 56q15 0 24 -8t9 -20q0 -11 -9 -18.5t-24 -7.5q-68 0 -106 -42t-38 -111v-61h135q12 0 20 -7t8 -19q0 -11 -8.5 -18.5t-19.5 -7.5z" />
<glyph unicode="&#xfb02;" horiz-adv-x="658" d="M544 762v-738q0 -11 -8.5 -19.5t-19.5 -8.5q-12 0 -20 8.5t-8 19.5v738q0 11 8 19.5t20 8.5q11 0 19.5 -8.5t8.5 -19.5zM333 470h-135v-446q0 -11 -8.5 -19.5t-19.5 -8.5q-12 0 -20 8.5t-8 19.5v446h-82q-11 0 -19.5 7.5t-8.5 18.5q0 12 8 19t20 7h82v61q0 95 54.5 151 t145.5 56q15 0 24 -8t9 -20q0 -11 -9 -18.5t-24 -7.5q-68 0 -106 -42t-38 -111v-61h135q12 0 20 -7t8 -19q0 -11 -8.5 -18.5t-19.5 -7.5z" />
<glyph unicode="&#xfb06;" horiz-adv-x="1072" d="M805 554v-32h183q11 0 19.5 -7.5t8.5 -18.5q0 -12 -8 -19t-20 -7h-183v-303q0 -60 29 -89t78 -29q44 0 82 17q25 12 35 -10t-13 -36q-49 -25 -109 -25q-72 0 -115 42.5t-43 120.5v312h-94q-12 0 -20 7t-8 19q0 11 8.5 18.5t19.5 7.5h94v32q0 93 -45 137.5t-111 44.5 q-60 0 -101.5 -38t-41.5 -95q0 -62 39 -96q3 -2 9 -4q25 -14 13 -36.5t-38 -10.5q-68 29 -165 29q-92 0 -136 -29t-44 -71q0 -46 41.5 -68t101 -28t118.5 -15t100.5 -42t41.5 -95q0 -69 -61.5 -110.5t-166.5 -41.5q-151 0 -241 58q-23 18 -8 38t40 4q85 -48 207 -48 q82 0 128.5 27.5t46.5 72.5t-41.5 66t-101 27.5t-119 15.5t-101 42.5t-41.5 96.5q0 64 59 108t183 44q58 0 104 -9q-21 38 -21 84q0 74 56 126t140 52q93 0 152.5 -61t59.5 -175z" />
<glyph horiz-adv-x="781" d="M524 0h-376q-15 0 -24.5 10t-9.5 24v632q0 14 9.5 24t24.5 10h357q79 0 134.5 -55.5t55.5 -133.5q0 -48 -23.5 -90t-64.5 -66q50 -23 78.5 -68t28.5 -98q0 -78 -55.5 -133.5t-134.5 -55.5zM172 54h350q57 0 96 39.5t39 95.5t-39 95.5t-96 39.5h-350v-270zM172 645v-269 h332q56 0 95 39.5t39 95.5t-39 95t-95 39h-332z" />
<glyph horiz-adv-x="812" d="M742 350q0 -155 -101 -252.5t-277 -97.5h-212q-34 0 -34 34v632q0 15 9.5 24.5t24.5 9.5h212q176 0 277 -97.5t101 -252.5zM176 646v-592h188q150 0 235 82.5t85 213.5t-85 213.5t-235 82.5h-188z" />
<glyph horiz-adv-x="704" d="M114 25v641q0 14 9.5 24t24.5 10h276q102 0 170 -69t68 -169q0 -99 -68 -168t-170 -69h-252v-200q0 -12 -8.5 -20.5t-20.5 -8.5t-20.5 8.5t-8.5 20.5zM172 645v-361h252q79 0 130.5 52t51.5 128t-51.5 128.5t-130.5 52.5h-252z" />
<glyph horiz-adv-x="764" d="M637 6l-266 262h-199v-243q0 -12 -8.5 -20.5t-20.5 -8.5t-20.5 8.5t-8.5 20.5v641q0 14 9.5 24t24.5 10h329q90 0 153.5 -63.5t63.5 -154.5q0 -90 -65 -152t-160 -62h-17l227 -223q14 -13 7 -31t-27 -18q-12 0 -22 10zM172 645v-322h301q68 0 115.5 47t47.5 114t-47 114 t-112 47h-305z" />
<glyph horiz-adv-x="842" d="M772 350q0 -155 -101 -252.5t-277 -97.5h-212q-34 0 -34 34v286h-90q-11 0 -19.5 7.5t-8.5 18.5q0 12 8 19t20 7h90v294q0 15 9.5 24.5t24.5 9.5h212q176 0 277 -97.5t101 -252.5zM206 646v-274h189q11 0 19.5 -7t8.5 -19q0 -11 -8.5 -18.5t-19.5 -7.5h-189v-266h188 q150 0 235 82.5t85 213.5t-85 213.5t-235 82.5h-188z" />
<glyph horiz-adv-x="704" d="M172 676v-83h252q103 0 170.5 -68t67.5 -167t-68 -167.5t-170 -68.5h-252v-97q0 -12 -8.5 -20.5t-20.5 -8.5t-20.5 8.5t-8.5 20.5v651q0 12 8.5 20.5t20.5 8.5t20.5 -8.5t8.5 -20.5zM424 538h-252v-361h252q79 0 130.5 53t51.5 129t-51.5 127.5t-130.5 51.5z" />
<glyph horiz-adv-x="842" d="M772 350q0 -155 -101 -252.5t-277 -97.5h-212q-34 0 -34 34v286h-90q-11 0 -19.5 7.5t-8.5 18.5q0 12 8 19t20 7h90v294q0 15 9.5 24.5t24.5 9.5h212q176 0 277 -97.5t101 -252.5zM206 646v-274h189q11 0 19.5 -7t8.5 -19q0 -11 -8.5 -18.5t-19.5 -7.5h-189v-266h188 q150 0 235 82.5t85 213.5t-85 213.5t-235 82.5h-188z" />
<glyph horiz-adv-x="812" d="M372 829q17 0 27 13l87 109q10 12 24 9t18 -14.5t-5 -24.5l-88 -110q-25 -30 -63 -30q-37 0 -63 30l-88 110q-10 12 -5 25t17.5 14.5t24.5 -9.5l87 -109q10 -13 27 -13zM742 350q0 -155 -101 -252.5t-277 -97.5h-212q-34 0 -34 34v632q0 15 9.5 24.5t24.5 9.5h212 q176 0 277 -97.5t101 -252.5zM176 646v-592h188q150 0 235 82.5t85 213.5t-85 213.5t-235 82.5h-188z" />
<glyph horiz-adv-x="764" d="M486 912l-122 -124q-13 -13 -27.5 -8.5t-17.5 17.5t8 28l120 125q13 13 28.5 9t19 -17.5t-8.5 -29.5zM637 6l-266 262h-199v-243q0 -12 -8.5 -20.5t-20.5 -8.5t-20.5 8.5t-8.5 20.5v641q0 14 9.5 24t24.5 10h329q90 0 153.5 -63.5t63.5 -154.5q0 -90 -65 -152t-160 -62 h-17l227 -223q14 -13 7 -31t-27 -18q-12 0 -22 10zM172 645v-322h301q68 0 115.5 47t47.5 114t-47 114t-112 47h-305z" />
<glyph horiz-adv-x="764" d="M363 829q17 0 27 13l87 109q10 12 24 9t18 -14.5t-5 -24.5l-88 -110q-25 -30 -63 -30q-37 0 -63 30l-88 110q-10 12 -5 25t17.5 14.5t24.5 -9.5l87 -109q10 -13 27 -13zM637 6l-266 262h-199v-243q0 -12 -8.5 -20.5t-20.5 -8.5t-20.5 8.5t-8.5 20.5v641q0 14 9.5 24 t24.5 10h329q90 0 153.5 -63.5t63.5 -154.5q0 -90 -65 -152t-160 -62h-17l227 -223q14 -13 7 -31t-27 -18q-12 0 -22 10zM172 645v-322h301q68 0 115.5 47t47.5 114t-47 114t-112 47h-305z" />
<glyph horiz-adv-x="764" d="M403 -117l-38 -148q-8 -27 -33 -21t-18 34l37 149q5 18 20 22t26 -6.5t6 -29.5zM637 6l-266 262h-199v-243q0 -12 -8.5 -20.5t-20.5 -8.5t-20.5 8.5t-8.5 20.5v641q0 14 9.5 24t24.5 10h329q90 0 153.5 -63.5t63.5 -154.5q0 -90 -65 -152t-160 -62h-17l227 -223 q14 -13 7 -31t-27 -18q-12 0 -22 10zM172 645v-322h301q68 0 115.5 47t47.5 114t-47 114t-112 47h-305z" />
<glyph d="M283 323l-271 335q-10 12 -3.5 29t26.5 17q12 0 21 -10l270 -335q11 -13 28 -13q18 0 29 13l269 335q10 10 22 10q20 0 26.5 -17t-4.5 -29l-270 -335q-17 -20 -42 -29v-269q0 -12 -8.5 -20.5t-21.5 -8.5q-12 0 -20.5 8.5t-8.5 20.5v268q-24 8 -42 30zM490 815h-272 q-12 0 -20 7t-8 19q0 11 8.5 18.5t19.5 7.5h272q11 0 19.5 -7.5t8.5 -18.5q0 -12 -8 -19t-20 -7z" />
<glyph horiz-adv-x="699" d="M585 498v-474q0 -11 -8 -19.5t-19 -8.5q-12 0 -20 8.5t-8 19.5v32q-76 -69 -190 -69q-125 0 -198.5 72.5t-73.5 199.5q0 123 82 200.5t211 77.5q101 0 169 -52v13q0 11 8 19.5t20 8.5q11 0 19 -8.5t8 -19.5zM347 38q105 0 183 78v309q-71 60 -164 60q-110 0 -176.5 -61.5 t-66.5 -161.5q0 -106 59.5 -165t164.5 -59z" />
<glyph horiz-adv-x="701" d="M114 24v738q0 11 8 19.5t20 8.5q11 0 19.5 -8.5t8.5 -19.5v-292q77 67 189 67q127 0 200.5 -74t73.5 -199q0 -123 -81.5 -200t-209.5 -77q-104 0 -172 52v-15q0 -11 -8.5 -19.5t-19.5 -8.5q-12 0 -20 8.5t-8 19.5zM354 484q-58 0 -106 -22.5t-78 -52.5v-310 q69 -60 165 -60q110 0 176.5 62t66.5 162q0 102 -59.5 161.5t-164.5 59.5z" />
<glyph horiz-adv-x="699" d="M585 762v-738q0 -11 -8 -19.5t-19 -8.5q-12 0 -20 8.5t-8 19.5v32q-76 -69 -190 -69q-125 0 -198.5 72.5t-73.5 199.5q0 123 82 200.5t211 77.5q102 0 169 -49v274q0 11 8 19.5t20 8.5q11 0 19 -8.5t8 -19.5zM347 38q105 0 183 78v313q-69 56 -164 56 q-110 0 -176.5 -61.5t-66.5 -161.5q0 -106 59.5 -165t164.5 -59z" />
<glyph horiz-adv-x="663" d="M605 273q0 -17 -10 -27.5t-26 -10.5h-446q8 -92 68.5 -144.5t157.5 -52.5q124 0 190 88q20 20 38 3.5t-1 -37.5q-32 -46 -92.5 -76.5t-135.5 -30.5q-127 0 -203.5 73.5t-76.5 200.5q0 117 74 197.5t203 80.5q123 0 191.5 -75.5t68.5 -188.5zM346 487q-99 0 -158 -57.5 t-65 -147.5h428q-4 92 -58.5 148.5t-146.5 56.5z" />
<glyph horiz-adv-x="691" d="M584 499v-450q0 -113 -77 -177t-205 -64q-95 0 -172 31q-25 12 -15.5 35t35.5 13q74 -27 158 -27q100 0 160.5 48t60.5 140v19q-75 -60 -189 -60q-125 0 -198.5 69.5t-73.5 192.5q0 120 78.5 194t207.5 74q101 0 175 -53v15q0 11 8 19t20 8q11 0 19 -8t8 -19zM347 58 q107 0 182 66v302q-72 59 -171 59q-109 0 -172 -58.5t-63 -154.5q0 -102 59.5 -158t164.5 -56z" />
<glyph horiz-adv-x="698" d="M114 -162v660q0 11 8 19.5t20 8.5q11 0 19.5 -8.5t8.5 -19.5v-28q77 67 189 67q127 0 200.5 -74t73.5 -199q0 -123 -81.5 -200t-209.5 -77q-108 0 -172 45v-194q0 -11 -8.5 -19.5t-19.5 -8.5q-12 0 -20 8.5t-8 19.5zM354 484q-58 0 -106 -22.5t-78 -52.5v-317 q66 -53 165 -53q110 0 176.5 62t66.5 162q0 102 -59.5 161.5t-164.5 59.5z" />
<glyph horiz-adv-x="695" d="M585 498v-660q0 -11 -8 -19.5t-19 -8.5q-12 0 -20 8.5t-8 19.5v218q-76 -69 -190 -69q-125 0 -198.5 72.5t-73.5 199.5q0 123 82 200.5t211 77.5q101 0 169 -52v13q0 11 8 19.5t20 8.5q11 0 19 -8.5t8 -19.5zM347 38q105 0 183 78v309q-71 60 -164 60 q-110 0 -176.5 -61.5t-66.5 -161.5q0 -106 59.5 -165t164.5 -59z" />
<glyph horiz-adv-x="1128" d="M1002 126q21 20 39 3.5t-1 -37.5q-33 -47 -93 -77t-136 -30q-162 0 -234 114q-92 -112 -237 -112q-125 0 -198.5 72.5t-73.5 199.5q0 123 82 200.5t211 77.5q101 0 171 -54v16q0 11 8 19t19 8t18.5 -8t7.5 -19v-87q31 59 89 92t138 33q120 0 188.5 -76t68.5 -188 q0 -17 -10 -27.5t-27 -10.5h-446q7 -91 68 -144t159 -53q124 0 189 88zM552 149q-20 55 -20 123v151q-71 62 -166 62q-110 0 -176.5 -61.5t-66.5 -161.5q0 -105 59 -164.5t162 -59.5q129 0 208 111zM810 487q-101 0 -159.5 -57t-64.5 -148h429q-4 92 -58.5 148.5 t-146.5 56.5z" />
<glyph horiz-adv-x="1146" d="M1021 126q21 20 39 3.5t-1 -37.5q-33 -46 -93.5 -76.5t-135.5 -30.5q-91 0 -156 38.5t-95 109.5q-31 -70 -95 -109t-156 -39q-119 0 -189.5 73.5t-70.5 202.5q0 125 74.5 200.5t204.5 75.5q87 0 147 -38.5t87 -110.5q32 69 94.5 109t151.5 40q123 0 191.5 -75.5 t68.5 -188.5q0 -17 -10 -27.5t-26 -10.5h-446q8 -92 68.5 -144.5t158.5 -52.5q124 0 189 88zM330 35q106 0 165 61t59 165q0 107 -55 166.5t-152 59.5q-107 0 -165.5 -61.5t-58.5 -164.5q0 -107 55 -166.5t152 -59.5zM828 487q-98 0 -157.5 -58t-65.5 -147h429 q-4 92 -59 148.5t-147 56.5z" />
<glyph horiz-adv-x="698" d="M114 -162v924q0 11 8 19.5t20 8.5q11 0 19.5 -8.5t8.5 -19.5v-292q77 67 189 67q127 0 200.5 -74t73.5 -199q0 -123 -81.5 -200t-209.5 -77q-108 0 -172 45v-194q0 -11 -8.5 -19.5t-19.5 -8.5q-12 0 -20 8.5t-8 19.5zM354 484q-58 0 -106 -22.5t-78 -52.5v-317 q66 -53 165 -53q110 0 176.5 62t66.5 162q0 102 -59.5 161.5t-164.5 59.5z" />
<glyph horiz-adv-x="1329" d="M68 261q0 118 73 197t207 79q44 0 85 -11q-22 41 -22 82q0 77 57.5 129.5t147.5 52.5h149h4q11 0 19.5 -8.5t8.5 -19.5v-663q69 -60 165 -60q110 0 176.5 62t66.5 163q0 103 -60 161.5t-166 58.5q-40 0 -81 -12q-23 -3 -28 20t20 30q47 15 94 15q125 0 200.5 -73 t75.5 -197q0 -125 -82 -202.5t-211 -77.5q-104 0 -170 52v-15q0 -11 -8.5 -19.5t-19.5 -8.5q-12 0 -20 8.5t-8 19.5v716h-114q-76 0 -119 -39.5t-43 -99.5q0 -66 53 -114q28 -19 45 -42q16 -25 -4 -40t-39 7q-61 72 -172 72q-109 0 -166.5 -62.5t-57.5 -160.5 q0 -103 56 -163t158 -60q66 0 117 28.5t79 74.5q14 23 35.5 11t8.5 -36q-32 -57 -96.5 -94t-145.5 -37q-126 0 -197 75t-71 201z" />
<glyph horiz-adv-x="1326" d="M68 261q0 118 73 197t207 79q44 0 85 -11q-22 41 -22 82q0 77 57.5 129.5t147.5 52.5h149h4q11 0 19.5 -8.5t8.5 -19.5v-315q20 18 45.5 35t73.5 35t95 18q98 0 158 -61t60 -155v-294q0 -12 -8 -20.5t-20 -8.5t-20 8.5t-8 20.5v279q0 81 -46 128.5t-126 47.5 q-110 0 -204 -94v-362q0 -11 -8.5 -19.5t-19.5 -8.5q-12 0 -20 8.5t-8 19.5v716h-114q-76 0 -119 -39.5t-43 -99.5q0 -66 53 -114q28 -19 45 -42q16 -25 -4 -40t-39 7q-61 72 -172 72q-109 0 -166.5 -62.5t-57.5 -160.5q0 -103 56 -163t158 -60q66 0 117 28.5t79 74.5 q14 23 35.5 11t8.5 -36q-32 -57 -96.5 -94t-145.5 -37q-126 0 -197 75t-71 201z" />
<glyph horiz-adv-x="1253" d="M68 261q0 118 73 197t207 79q44 0 85 -11q-22 41 -22 82q0 77 57.5 129.5t147.5 52.5h154q11 -1 19 -9.5t8 -18.5v-738q0 -11 -8.5 -19.5t-19.5 -8.5q-12 0 -20 8.5t-8 19.5v716h-114q-76 0 -119 -39.5t-43 -99.5q0 -66 53 -114q28 -19 45 -42q16 -25 -4 -40t-39 7 q-61 72 -172 72q-109 0 -166.5 -62.5t-57.5 -160.5q0 -103 56 -163t158 -60q66 0 117 28.5t79 74.5q14 23 35.5 11t8.5 -36q-32 -57 -96.5 -94t-145.5 -37q-126 0 -197 75t-71 201zM1129 517q8 8 21 8q18 0 24 -16t-7 -29l-219 -210l243 -226q14 -13 7.5 -30.5t-25.5 -17.5 q-11 0 -20 9l-259 242q-8 8 -8 22t8 22z" />
<glyph horiz-adv-x="1326" d="M68 261q0 118 73 197t207 79q41 0 89 -12q-22 41 -22 83q0 73 54.5 127.5t136.5 54.5q84 0 137.5 -58t53.5 -151v-489q66 -53 165 -53q110 0 176.5 62t66.5 163q0 103 -60 161.5t-166 58.5q-40 0 -81 -12q-23 -3 -28 20t20 30q47 15 94 15q125 0 200.5 -73t75.5 -197 q0 -125 -82 -202.5t-211 -77.5q-108 0 -170 45v-194q0 -11 -8.5 -19.5t-19.5 -8.5q-12 0 -20 8.5t-8 19.5v660q0 5 1 7v78q0 72 -38 112.5t-98 40.5t-98.5 -39t-38.5 -94q0 -65 53 -118q23 -17 41 -40q16 -25 -4 -40t-39 7q-61 72 -172 72q-109 0 -166.5 -62.5t-57.5 -160.5 q0 -103 56 -163t158 -60q66 0 117 28.5t79 74.5q14 23 35.5 11t8.5 -36q-32 -57 -96.5 -94t-145.5 -37q-126 0 -197 75t-71 201z" />
<glyph horiz-adv-x="1100" d="M1015 470h-182v-303q0 -60 29 -89t78 -29q43 0 81 17q26 12 36.5 -10t-13.5 -36q-49 -25 -110 -25q-71 0 -114 42.5t-43 120.5v312h-94q-12 0 -20 7t-8 19q0 11 8.5 18.5t19.5 7.5h94v43q0 81 -45 126t-111 45q-65 0 -106.5 -41.5t-41.5 -100.5q0 -60 45 -107 q26 -17 45 -42q16 -25 -4 -40t-39 7q-61 72 -172 72q-109 0 -166.5 -62.5t-57.5 -160.5q0 -103 56 -163t158 -60q66 0 117 28.5t79 74.5q14 23 35.5 11t8.5 -36q-32 -57 -96.5 -94t-145.5 -37q-126 0 -197 75t-71 201q0 118 73 197t207 79q48 0 89 -12q-17 36 -17 75 q0 75 56 132.5t144 57.5q89 0 151 -61t62 -165v-42h182q12 0 20 -7.5t8 -18.5q0 -12 -8 -19t-20 -7z" />
<glyph horiz-adv-x="1329" d="M68 261q0 118 73 197t207 79q44 0 85 -11q-22 41 -22 82q0 77 57.5 129.5t147.5 52.5h149h4q11 0 19.5 -8.5t8.5 -19.5v-292q77 67 189 67q127 0 200.5 -74t73.5 -199q0 -123 -81.5 -200t-209.5 -77q-104 0 -172 52v-15q0 -11 -8.5 -19.5t-19.5 -8.5q-12 0 -20 8.5 t-8 19.5v716h-114q-76 0 -119 -39.5t-43 -99.5q0 -66 53 -114q28 -19 45 -42q16 -25 -4 -40t-39 7q-61 72 -172 72q-109 0 -166.5 -62.5t-57.5 -160.5q0 -103 56 -163t158 -60q66 0 117 28.5t79 74.5q14 23 35.5 11t8.5 -36q-32 -57 -96.5 -94t-145.5 -37q-126 0 -197 75 t-71 201zM981 484q-58 0 -106 -22.5t-78 -52.5v-310q69 -60 165 -60q110 0 176.5 62t66.5 162q0 102 -59.5 161.5t-164.5 59.5z" />
<glyph horiz-adv-x="1326" d="M68 261q0 118 73 197t207 79q41 0 89 -12q-22 41 -22 83q0 73 54.5 127.5t136.5 54.5q84 0 137.5 -58t53.5 -151v-111q77 67 189 67q127 0 200.5 -74t73.5 -199q0 -123 -81.5 -200t-209.5 -77q-108 0 -172 45v-194q0 -11 -8.5 -19.5t-19.5 -8.5q-12 0 -20 8.5t-8 19.5 v660q0 5 1 7v78q0 72 -38 112.5t-98 40.5t-98.5 -39t-38.5 -94q0 -65 53 -118q23 -17 41 -40q16 -25 -4 -40t-39 7q-61 72 -172 72q-109 0 -166.5 -62.5t-57.5 -160.5q0 -103 56 -163t158 -60q66 0 117 28.5t79 74.5q14 23 35.5 11t8.5 -36q-32 -57 -96.5 -94t-145.5 -37 q-126 0 -197 75t-71 201zM981 484q-58 0 -106 -22.5t-78 -52.5v-317q66 -53 165 -53q110 0 176.5 62t66.5 162q0 102 -59.5 161.5t-164.5 59.5z" />
<glyph horiz-adv-x="1301" d="M62 43q-23 18 -8 38t40 4q85 -48 207 -48q82 0 128.5 27.5t46.5 72.5t-41.5 66t-101 27.5t-119 15.5t-101 42.5t-41.5 96.5q0 64 59 108t183 44q51 0 97 -8q-25 41 -25 87q0 75 55.5 124.5t146.5 49.5h154q11 0 19.5 -8.5t8.5 -19.5v-663q69 -60 165 -60q110 0 176.5 62 t66.5 163q0 103 -60 161.5t-166 58.5q-40 0 -81 -12q-23 -3 -28 20t20 30q47 15 94 15q125 0 200.5 -73t75.5 -197q0 -125 -82 -202.5t-211 -77.5q-104 0 -170 52v-15q0 -11 -8.5 -19.5t-19.5 -8.5q-12 0 -20 8.5t-8 19.5v716h-115q-75 0 -117 -36t-42 -95q0 -64 47 -101 q5 -4 11 -5q25 -14 13 -36.5t-38 -10.5q-68 29 -165 29q-92 0 -136 -29t-44 -71q0 -46 41.5 -68t101 -28t118.5 -15t100.5 -42t41.5 -95q0 -69 -61.5 -110.5t-166.5 -41.5q-151 0 -241 58z" />
<glyph horiz-adv-x="1298" d="M62 43q-23 18 -8 38t40 4q85 -48 207 -48q82 0 128.5 27.5t46.5 72.5t-41.5 66t-101 27.5t-119 15.5t-101 42.5t-41.5 96.5q0 64 59 108t183 44q51 0 97 -8q-25 41 -25 87q0 75 55.5 124.5t146.5 49.5h150h4q11 0 19.5 -8.5t8.5 -19.5v-315q20 18 45.5 35t73.5 35t95 18 q98 0 158 -61t60 -155v-294q0 -12 -8 -20.5t-20 -8.5t-20 8.5t-8 20.5v279q0 81 -46 128.5t-126 47.5q-110 0 -204 -94v-362q0 -11 -8.5 -19.5t-19.5 -8.5q-12 0 -20 8.5t-8 19.5v716h-115q-75 0 -117 -36t-42 -95q0 -64 47 -101q5 -4 11 -5q25 -14 13 -36.5t-38 -10.5 q-68 29 -165 29q-92 0 -136 -29t-44 -71q0 -46 41.5 -68t101 -28t118.5 -15t100.5 -42t41.5 -95q0 -69 -61.5 -110.5t-166.5 -41.5q-151 0 -241 58z" />
<glyph horiz-adv-x="1225" d="M62 43q-23 18 -8 38t40 4q85 -48 207 -48q82 0 128.5 27.5t46.5 72.5t-41.5 66t-101 27.5t-119 15.5t-101 42.5t-41.5 96.5q0 64 59 108t183 44q51 0 97 -8q-25 41 -25 87q0 75 55.5 124.5t146.5 49.5h154q11 0 19.5 -8.5t8.5 -19.5v-738q0 -11 -8.5 -19.5t-19.5 -8.5 q-12 0 -20 8.5t-8 19.5v716h-115q-75 0 -117 -36t-42 -95q0 -64 47 -101q5 -4 11 -5q25 -14 13 -36.5t-38 -10.5q-68 29 -165 29q-92 0 -136 -29t-44 -71q0 -46 41.5 -68t101 -28t118.5 -15t100.5 -42t41.5 -95q0 -69 -61.5 -110.5t-166.5 -41.5q-151 0 -241 58zM1102 517 q8 8 21 8q18 0 24 -16t-7 -29l-219 -210l243 -226q14 -13 7.5 -30.5t-25.5 -17.5q-11 0 -20 9l-259 242q-8 8 -8 22t8 22z" />
<glyph horiz-adv-x="1298" d="M62 43q-23 18 -8 38t40 4q85 -48 207 -48q82 0 128.5 27.5t46.5 72.5t-41.5 66t-101 27.5t-119 15.5t-101 42.5t-41.5 96.5q0 64 59 108t183 44q52 0 98 -8q-23 39 -23 84q0 75 52.5 126t135.5 51q87 0 140 -58.5t53 -154.5v-76v-3v-406q66 -53 165 -53q110 0 176.5 62 t66.5 163q0 103 -60 161.5t-166 58.5q-40 0 -81 -12q-23 -3 -28 20t20 30q47 15 94 15q125 0 200.5 -73t75.5 -197q0 -125 -82 -202.5t-211 -77.5q-108 0 -170 45v-194q0 -11 -8.5 -19.5t-19.5 -8.5q-12 0 -20 8.5t-8 19.5v660v3v79q0 73 -38.5 114.5t-98.5 41.5 q-59 0 -97 -36.5t-38 -91.5q0 -63 46 -101q1 0 4.5 -1.5t5.5 -2.5q25 -14 13 -36.5t-38 -10.5q-68 29 -165 29q-92 0 -136 -29t-44 -71q0 -46 41.5 -68t101 -28t118.5 -15t100.5 -42t41.5 -95q0 -69 -61.5 -110.5t-166.5 -41.5q-151 0 -241 58z" />
<glyph horiz-adv-x="1301" d="M62 43q-23 18 -8 38t40 4q85 -48 207 -48q82 0 128.5 27.5t46.5 72.5t-41.5 66t-101 27.5t-119 15.5t-101 42.5t-41.5 96.5q0 64 59 108t183 44q51 0 97 -8q-25 41 -25 87q0 75 55.5 124.5t146.5 49.5h154q11 0 19.5 -8.5t8.5 -19.5v-292q77 67 189 67q127 0 200.5 -74 t73.5 -199q0 -123 -81.5 -200t-209.5 -77q-104 0 -172 52v-15q0 -11 -8.5 -19.5t-19.5 -8.5q-12 0 -20 8.5t-8 19.5v716h-115q-75 0 -117 -36t-42 -95q0 -64 47 -101q5 -4 11 -5q25 -14 13 -36.5t-38 -10.5q-68 29 -165 29q-92 0 -136 -29t-44 -71q0 -46 41.5 -68t101 -28 t118.5 -15t100.5 -42t41.5 -95q0 -69 -61.5 -110.5t-166.5 -41.5q-151 0 -241 58zM954 484q-58 0 -106 -22.5t-78 -52.5v-310q69 -60 165 -60q110 0 176.5 62t66.5 162q0 102 -59.5 161.5t-164.5 59.5z" />
<glyph horiz-adv-x="1298" d="M62 43q-23 18 -8 38t40 4q85 -48 207 -48q82 0 128.5 27.5t46.5 72.5t-41.5 66t-101 27.5t-119 15.5t-101 42.5t-41.5 96.5q0 64 59 108t183 44q52 0 98 -8q-23 39 -23 84q0 75 52.5 126t135.5 51q87 0 140 -58.5t53 -154.5v-76v-3v-28q77 67 189 67q127 0 200.5 -74 t73.5 -199q0 -123 -81.5 -200t-209.5 -77q-108 0 -172 45v-194q0 -11 -8.5 -19.5t-19.5 -8.5q-12 0 -20 8.5t-8 19.5v742q0 73 -38.5 114.5t-98.5 41.5q-59 0 -97 -36.5t-38 -91.5q0 -63 46 -101q1 0 4.5 -1.5t5.5 -2.5q25 -14 13 -36.5t-38 -10.5q-68 29 -165 29 q-92 0 -136 -29t-44 -71q0 -46 41.5 -68t101 -28t118.5 -15t100.5 -42t41.5 -95q0 -69 -61.5 -110.5t-166.5 -41.5q-151 0 -241 58zM954 484q-58 0 -106 -22.5t-78 -52.5v-317q66 -53 165 -53q110 0 176.5 62t66.5 162q0 102 -59.5 161.5t-164.5 59.5z" />
<glyph horiz-adv-x="699" d="M487 754l-122 -124q-13 -13 -27.5 -8.5t-17.5 17.5t8 28l120 125q13 13 28.5 9t19 -17.5t-8.5 -29.5zM585 498v-474q0 -11 -8 -19.5t-19 -8.5q-12 0 -20 8.5t-8 19.5v32q-76 -69 -190 -69q-125 0 -198.5 72.5t-73.5 199.5q0 123 82 200.5t211 77.5q101 0 169 -52v13 q0 11 8 19.5t20 8.5q11 0 19 -8.5t8 -19.5zM347 38q105 0 183 78v309q-71 60 -164 60q-110 0 -176.5 -61.5t-66.5 -161.5q0 -106 59.5 -165t164.5 -59z" />
<glyph horiz-adv-x="699" d="M585 498v-474q0 -11 -8 -19.5t-19 -8.5q-12 0 -20 8.5t-8 19.5v32q-76 -69 -190 -69q-125 0 -198.5 72.5t-73.5 199.5q0 123 82 200.5t211 77.5q101 0 169 -52v13q0 11 8 19.5t20 8.5q11 0 19 -8.5t8 -19.5zM347 38q105 0 183 78v309q-71 60 -164 60q-110 0 -176.5 -61.5 t-66.5 -161.5q0 -106 59.5 -165t164.5 -59zM214 752q0 12 7.5 19.5t18.5 7.5q10 0 17 -7t7 -16q0 -44 28.5 -70.5t71.5 -26.5q47 0 76 27t29 70q0 9 7 16t17 7q11 0 18.5 -7.5t7.5 -19.5q0 -60 -41.5 -101.5t-113.5 -41.5q-67 0 -108.5 40.5t-41.5 102.5z" />
<glyph horiz-adv-x="699" d="M364 741q-16 0 -27 -13l-87 -109q-10 -12 -24 -9.5t-18 14t5 25.5l88 109q25 30 63 30q37 0 63 -30l88 -109q10 -13 5 -25.5t-17.5 -14t-24.5 9.5l-87 109q-11 13 -27 13zM585 498v-474q0 -11 -8 -19.5t-19 -8.5q-12 0 -20 8.5t-8 19.5v32q-76 -69 -190 -69 q-125 0 -198.5 72.5t-73.5 199.5q0 123 82 200.5t211 77.5q101 0 169 -52v13q0 11 8 19.5t20 8.5q11 0 19 -8.5t8 -19.5zM347 38q105 0 183 78v309q-71 60 -164 60q-110 0 -176.5 -61.5t-66.5 -161.5q0 -106 59.5 -165t164.5 -59z" />
<glyph horiz-adv-x="699" d="M199 683q0 19 13 32t32 13t32 -13t13 -32t-13 -32t-32 -13t-32 13t-13 32zM440 683q0 19 13 32t32 13t32 -13t13 -32t-13 -32t-32 -13t-32 13t-13 32zM585 498v-474q0 -11 -8 -19.5t-19 -8.5q-12 0 -20 8.5t-8 19.5v32q-76 -69 -190 -69q-125 0 -198.5 72.5t-73.5 199.5 q0 123 82 200.5t211 77.5q101 0 169 -52v13q0 11 8 19.5t20 8.5q11 0 19 -8.5t8 -19.5zM347 38q105 0 183 78v309q-71 60 -164 60q-110 0 -176.5 -61.5t-66.5 -161.5q0 -106 59.5 -165t164.5 -59z" />
<glyph horiz-adv-x="699" d="M585 498v-474q0 -11 -8 -19.5t-19 -8.5q-12 0 -20 8.5t-8 19.5v32q-76 -69 -190 -69q-125 0 -198.5 72.5t-73.5 199.5q0 123 82 200.5t211 77.5q101 0 169 -52v13q0 11 8 19.5t20 8.5q11 0 19 -8.5t8 -19.5zM347 38q105 0 183 78v309q-71 60 -164 60q-110 0 -176.5 -61.5 t-66.5 -161.5q0 -106 59.5 -165t164.5 -59zM361 630l-122 124q-14 14 -9 29.5t19 18t28 -9.5l121 -125q13 -13 8.5 -28t-18 -17.5t-27.5 8.5z" />
<glyph horiz-adv-x="699" d="M585 498v-474q0 -11 -8 -19.5t-19 -8.5q-12 0 -20 8.5t-8 19.5v32q-76 -69 -190 -69q-125 0 -198.5 72.5t-73.5 199.5q0 123 82 200.5t211 77.5q101 0 169 -52v13q0 11 8 19.5t20 8.5q11 0 19 -8.5t8 -19.5zM347 38q105 0 183 78v309q-71 60 -164 60q-110 0 -176.5 -61.5 t-66.5 -161.5q0 -106 59.5 -165t164.5 -59zM500 657h-272q-12 0 -20 7t-8 19q0 11 8.5 18.5t19.5 7.5h272q11 0 19.5 -7.5t8.5 -18.5q0 -12 -8 -19t-20 -7z" />
<glyph horiz-adv-x="699" d="M585 498v-474q0 -22 -20 -27q-89 -42 -89 -106q0 -28 17.5 -44.5t51.5 -16.5q33 0 62 16q19 9 29 -7t-6 -28q-35 -24 -86 -24q-53 0 -83.5 27t-30.5 72q0 79 100 134v4v32q-76 -69 -190 -69q-125 0 -198.5 72.5t-73.5 199.5q0 123 82 200.5t211 77.5q101 0 169 -52v13 q0 11 8 19.5t20 8.5q11 0 19 -8.5t8 -19.5zM347 38q105 0 183 78v309q-71 60 -164 60q-110 0 -176.5 -61.5t-66.5 -161.5q0 -106 59.5 -165t164.5 -59z" />
<glyph horiz-adv-x="699" d="M255 726q0 47 31.5 78t77.5 31t77.5 -31t31.5 -78t-31.5 -78t-77.5 -31t-77.5 31t-31.5 78zM296 726q0 -30 19.5 -49t48.5 -19t48.5 19t19.5 49t-19.5 49t-48.5 19t-48.5 -19t-19.5 -49zM585 498v-474q0 -11 -8 -19.5t-19 -8.5q-12 0 -20 8.5t-8 19.5v32 q-76 -69 -190 -69q-125 0 -198.5 72.5t-73.5 199.5q0 123 82 200.5t211 77.5q101 0 169 -52v13q0 11 8 19.5t20 8.5q11 0 19 -8.5t8 -19.5zM347 38q105 0 183 78v309q-71 60 -164 60q-110 0 -176.5 -61.5t-66.5 -161.5q0 -106 59.5 -165t164.5 -59z" />
<glyph horiz-adv-x="699" d="M585 498v-474q0 -11 -8 -19.5t-19 -8.5q-12 0 -20 8.5t-8 19.5v32q-76 -69 -190 -69q-125 0 -198.5 72.5t-73.5 199.5q0 123 82 200.5t211 77.5q101 0 169 -52v13q0 11 8 19.5t20 8.5q11 0 19 -8.5t8 -19.5zM347 38q105 0 183 78v309q-71 60 -164 60q-110 0 -176.5 -61.5 t-66.5 -161.5q0 -106 59.5 -165t164.5 -59zM183 657q0 44 29 74t73 30q51 0 95 -46q32 -32 61 -32q24 0 40 15.5t16 39.5q0 10 6.5 17t17.5 7q24 0 24 -26q0 -44 -29.5 -73.5t-74.5 -29.5q-22 0 -41.5 8t-29 16t-24.5 23q-34 32 -61 32q-23 0 -38 -15.5t-15 -39.5 q0 -26 -25 -26q-11 0 -17.5 7.5t-6.5 18.5z" />
<glyph horiz-adv-x="703" d="M585 762v-93h75q9 0 15.5 -6t6.5 -16t-6.5 -16t-15.5 -6h-75v-601q0 -11 -8 -19.5t-19 -8.5q-12 0 -20 8.5t-8 19.5v32q-76 -69 -190 -69q-125 0 -198.5 72.5t-73.5 199.5q0 123 82 200.5t211 77.5q102 0 169 -49v137h-133q-9 0 -15.5 6t-6.5 16t6.5 16t15.5 6h133v93 q0 11 8 19.5t20 8.5q11 0 19 -8.5t8 -19.5zM347 38q105 0 183 78v313q-69 56 -164 56q-110 0 -176.5 -61.5t-66.5 -161.5q0 -106 59.5 -165t164.5 -59z" />
<glyph horiz-adv-x="707" d="M585 762v-738q0 -11 -8 -19.5t-19 -8.5q-12 0 -20 8.5t-8 19.5v32q-76 -69 -190 -69q-125 0 -198.5 72.5t-73.5 199.5q0 123 82 200.5t211 77.5q102 0 169 -49v274q0 11 8 19.5t20 8.5q11 0 19 -8.5t8 -19.5zM347 38q105 0 183 78v313q-69 56 -164 56 q-110 0 -176.5 -61.5t-66.5 -161.5q0 -106 59.5 -165t164.5 -59zM748 734l-38 -148q-8 -27 -33 -21t-18 34l37 149q5 18 20 22t26 -6.5t6 -29.5z" />
<glyph horiz-adv-x="663" d="M605 273q0 -17 -10 -27.5t-26 -10.5h-446q8 -92 68.5 -144.5t157.5 -52.5q124 0 190 88q20 20 38 3.5t-1 -37.5q-32 -46 -92.5 -76.5t-135.5 -30.5q-127 0 -203.5 73.5t-76.5 200.5q0 117 74 197.5t203 80.5q123 0 191.5 -75.5t68.5 -188.5zM346 487q-99 0 -158 -57.5 t-65 -147.5h428q-4 92 -58.5 148.5t-146.5 56.5zM468 754l-122 -124q-13 -13 -27.5 -8.5t-17.5 17.5t8 28l120 125q13 13 28.5 9t19 -17.5t-8.5 -29.5z" />
<glyph horiz-adv-x="663" d="M605 273q0 -17 -10 -27.5t-26 -10.5h-446q8 -92 68.5 -144.5t157.5 -52.5q124 0 190 88q20 20 38 3.5t-1 -37.5q-32 -46 -92.5 -76.5t-135.5 -30.5q-127 0 -203.5 73.5t-76.5 200.5q0 117 74 197.5t203 80.5q123 0 191.5 -75.5t68.5 -188.5zM346 487q-99 0 -158 -57.5 t-65 -147.5h428q-4 92 -58.5 148.5t-146.5 56.5zM195 752q0 12 7.5 19.5t18.5 7.5q10 0 17 -7t7 -16q0 -44 28.5 -70.5t71.5 -26.5q47 0 76 27t29 70q0 9 7 16t17 7q11 0 18.5 -7.5t7.5 -19.5q0 -60 -41.5 -101.5t-113.5 -41.5q-67 0 -108.5 40.5t-41.5 102.5z" />
<glyph horiz-adv-x="663" d="M605 273q0 -17 -10 -27.5t-26 -10.5h-446q8 -92 68.5 -144.5t157.5 -52.5q124 0 190 88q20 20 38 3.5t-1 -37.5q-32 -46 -92.5 -76.5t-135.5 -30.5q-127 0 -203.5 73.5t-76.5 200.5q0 117 74 197.5t203 80.5q123 0 191.5 -75.5t68.5 -188.5zM346 487q-99 0 -158 -57.5 t-65 -147.5h428q-4 92 -58.5 148.5t-146.5 56.5zM345 671q17 0 27 13l87 109q10 12 24 9t18 -14.5t-5 -24.5l-88 -110q-25 -30 -63 -30q-37 0 -63 30l-88 110q-10 12 -5 25t17.5 14.5t24.5 -9.5l87 -109q10 -13 27 -13z" />
<glyph horiz-adv-x="663" d="M605 273q0 -17 -10 -27.5t-26 -10.5h-446q8 -92 68.5 -144.5t157.5 -52.5q124 0 190 88q20 20 38 3.5t-1 -37.5q-32 -46 -92.5 -76.5t-135.5 -30.5q-127 0 -203.5 73.5t-76.5 200.5q0 117 74 197.5t203 80.5q123 0 191.5 -75.5t68.5 -188.5zM346 487q-99 0 -158 -57.5 t-65 -147.5h428q-4 92 -58.5 148.5t-146.5 56.5zM345 741q-16 0 -27 -13l-87 -109q-10 -12 -24 -9.5t-18 14t5 25.5l88 109q25 30 63 30q37 0 63 -30l88 -109q10 -13 5 -25.5t-17.5 -14t-24.5 9.5l-87 109q-11 13 -27 13z" />
<glyph horiz-adv-x="663" d="M605 273q0 -17 -10 -27.5t-26 -10.5h-446q8 -92 68.5 -144.5t157.5 -52.5q124 0 190 88q20 20 38 3.5t-1 -37.5q-32 -46 -92.5 -76.5t-135.5 -30.5q-127 0 -203.5 73.5t-76.5 200.5q0 117 74 197.5t203 80.5q123 0 191.5 -75.5t68.5 -188.5zM346 487q-99 0 -158 -57.5 t-65 -147.5h428q-4 92 -58.5 148.5t-146.5 56.5zM420 683q0 19 13 32t32 13t32 -13t13 -32t-13 -32t-32 -13t-32 13t-13 32zM179 683q0 19 13 32t32 13t32 -13t13 -32t-13 -32t-32 -13t-32 13t-13 32z" />
<glyph horiz-adv-x="663" d="M605 273q0 -17 -10 -27.5t-26 -10.5h-446q8 -92 68.5 -144.5t157.5 -52.5q124 0 190 88q20 20 38 3.5t-1 -37.5q-32 -46 -92.5 -76.5t-135.5 -30.5q-127 0 -203.5 73.5t-76.5 200.5q0 117 74 197.5t203 80.5q123 0 191.5 -75.5t68.5 -188.5zM346 487q-99 0 -158 -57.5 t-65 -147.5h428q-4 92 -58.5 148.5t-146.5 56.5zM300 686q0 19 13 32t32 13t32 -13t13 -32t-13 -32t-32 -13t-32 13t-13 32z" />
<glyph horiz-adv-x="663" d="M605 273q0 -17 -10 -27.5t-26 -10.5h-446q8 -92 68.5 -144.5t157.5 -52.5q124 0 190 88q20 20 38 3.5t-1 -37.5q-32 -46 -92.5 -76.5t-135.5 -30.5q-127 0 -203.5 73.5t-76.5 200.5q0 117 74 197.5t203 80.5q123 0 191.5 -75.5t68.5 -188.5zM346 487q-99 0 -158 -57.5 t-65 -147.5h428q-4 92 -58.5 148.5t-146.5 56.5zM341 630l-122 124q-14 14 -9 29.5t19 18t28 -9.5l121 -125q13 -13 8.5 -28t-18 -17.5t-27.5 8.5z" />
<glyph horiz-adv-x="663" d="M605 273q0 -17 -10 -27.5t-26 -10.5h-446q8 -92 68.5 -144.5t157.5 -52.5q124 0 190 88q20 20 38 3.5t-1 -37.5q-32 -46 -92.5 -76.5t-135.5 -30.5q-127 0 -203.5 73.5t-76.5 200.5q0 117 74 197.5t203 80.5q123 0 191.5 -75.5t68.5 -188.5zM346 487q-99 0 -158 -57.5 t-65 -147.5h428q-4 92 -58.5 148.5t-146.5 56.5zM481 657h-272q-12 0 -20 7t-8 19q0 11 8.5 18.5t19.5 7.5h272q11 0 19.5 -7.5t8.5 -18.5q0 -12 -8 -19t-20 -7z" />
<glyph horiz-adv-x="663" d="M605 273q0 -17 -10 -27.5t-26 -10.5h-446q8 -92 68.5 -144.5t157.5 -52.5q124 0 190 88q20 20 38 3.5t-1 -37.5q-32 -46 -92.5 -76.5t-135.5 -30.5q-127 0 -203.5 73.5t-76.5 200.5q0 117 74 197.5t203 80.5q123 0 191.5 -75.5t68.5 -188.5zM346 487q-99 0 -158 -57.5 t-65 -147.5h428q-4 92 -58.5 148.5t-146.5 56.5zM164 657q0 44 29 74t73 30q51 0 95 -46q32 -32 61 -32q24 0 40 15.5t16 39.5q0 10 6.5 17t17.5 7q24 0 24 -26q0 -44 -29.5 -73.5t-74.5 -29.5q-22 0 -41.5 8t-29 16t-24.5 23q-34 32 -61 32q-23 0 -38 -15.5t-15 -39.5 q0 -26 -25 -26q-11 0 -17.5 7.5t-6.5 18.5z" />
<glyph horiz-adv-x="663" d="M605 273q0 -17 -10 -27.5t-26 -10.5h-446q8 -92 68.5 -144.5t157.5 -52.5q124 0 190 88q20 20 38 3.5t-1 -37.5q-25 -37 -69.5 -64.5t-99.5 -36.5q-88 -43 -88 -106q0 -28 17.5 -44.5t51.5 -16.5q33 0 62 16q19 9 29 -7t-6 -28q-35 -24 -86 -24q-53 0 -83.5 27t-30.5 72 q0 61 56 106q-119 5 -190 78t-71 195q0 117 74 197.5t203 80.5q123 0 191.5 -75.5t68.5 -188.5zM346 487q-99 0 -158 -57.5t-65 -147.5h428q-4 92 -58.5 148.5t-146.5 56.5z" />
<glyph horiz-adv-x="691" d="M584 499v-450q0 -113 -77 -177t-205 -64q-95 0 -172 31q-25 12 -15.5 35t35.5 13q74 -27 158 -27q100 0 160.5 48t60.5 140v19q-75 -60 -189 -60q-125 0 -198.5 69.5t-73.5 192.5q0 120 78.5 194t207.5 74q101 0 175 -53v15q0 11 8 19t20 8q11 0 19 -8t8 -19zM347 58 q107 0 182 66v302q-72 59 -171 59q-109 0 -172 -58.5t-63 -154.5q0 -102 59.5 -158t164.5 -56zM210 752q0 12 7.5 19.5t18.5 7.5q10 0 17 -7t7 -16q0 -44 28.5 -70.5t71.5 -26.5q47 0 76 27t29 70q0 9 7 16t17 7q11 0 18.5 -7.5t7.5 -19.5q0 -60 -41.5 -101.5t-113.5 -41.5 q-67 0 -108.5 40.5t-41.5 102.5z" />
<glyph horiz-adv-x="691" d="M584 499v-450q0 -113 -77 -177t-205 -64q-95 0 -172 31q-25 12 -15.5 35t35.5 13q74 -27 158 -27q100 0 160.5 48t60.5 140v19q-75 -60 -189 -60q-125 0 -198.5 69.5t-73.5 192.5q0 120 78.5 194t207.5 74q101 0 175 -53v15q0 11 8 19t20 8q11 0 19 -8t8 -19zM347 58 q107 0 182 66v302q-72 59 -171 59q-109 0 -172 -58.5t-63 -154.5q0 -102 59.5 -158t164.5 -56zM360 741q-16 0 -27 -13l-87 -109q-10 -12 -24 -9.5t-18 14t5 25.5l88 109q25 30 63 30q37 0 63 -30l88 -109q10 -13 5 -25.5t-17.5 -14t-24.5 9.5l-87 109q-11 13 -27 13z" />
<glyph horiz-adv-x="691" d="M584 499v-450q0 -113 -77 -177t-205 -64q-95 0 -172 31q-25 12 -15.5 35t35.5 13q74 -27 158 -27q100 0 160.5 48t60.5 140v19q-75 -60 -189 -60q-125 0 -198.5 69.5t-73.5 192.5q0 120 78.5 194t207.5 74q101 0 175 -53v15q0 11 8 19t20 8q11 0 19 -8t8 -19zM347 58 q107 0 182 66v302q-72 59 -171 59q-109 0 -172 -58.5t-63 -154.5q0 -102 59.5 -158t164.5 -56zM421 780l-38 -148q-8 -27 -33 -21t-18 34l37 149q5 18 20 22t26 -6.5t6 -29.5z" />
<glyph horiz-adv-x="691" d="M584 499v-450q0 -113 -77 -177t-205 -64q-95 0 -172 31q-25 12 -15.5 35t35.5 13q74 -27 158 -27q100 0 160.5 48t60.5 140v19q-75 -60 -189 -60q-125 0 -198.5 69.5t-73.5 192.5q0 120 78.5 194t207.5 74q101 0 175 -53v15q0 11 8 19t20 8q11 0 19 -8t8 -19zM347 58 q107 0 182 66v302q-72 59 -171 59q-109 0 -172 -58.5t-63 -154.5q0 -102 59.5 -158t164.5 -56zM315 686q0 19 13 32t32 13t32 -13t13 -32t-13 -32t-32 -13t-32 13t-13 32z" />
<glyph horiz-adv-x="600" d="M219 -152l67 147q-43 11 -60 51l-197 438q-7 15 1 28.5t24 13.5q18 0 26 -17l198 -444q9 -21 30 -22l212 465q7 17 26 17q16 0 24 -12.5t1 -26.5l-304 -660q-7 -15 -22 -16t-24.5 10.5t-1.5 27.5zM436 657h-272q-12 0 -20 7t-8 19q0 11 8.5 18.5t19.5 7.5h272 q11 0 19.5 -7.5t8.5 -18.5q0 -12 -8 -19t-20 -7z" />
<glyph horiz-adv-x="1128" d="M1002 126q21 20 39 3.5t-1 -37.5q-33 -47 -93 -77t-136 -30q-162 0 -234 114q-92 -112 -237 -112q-125 0 -198.5 72.5t-73.5 199.5q0 123 82 200.5t211 77.5q101 0 171 -54v16q0 11 8 19t19 8t18.5 -8t7.5 -19v-87q31 59 89 92t138 33q120 0 188.5 -76t68.5 -188 q0 -17 -10 -27.5t-27 -10.5h-446q7 -91 68 -144t159 -53q124 0 189 88zM552 149q-20 55 -20 123v151q-71 62 -166 62q-110 0 -176.5 -61.5t-66.5 -161.5q0 -105 59 -164.5t162 -59.5q129 0 208 111zM810 487q-101 0 -159.5 -57t-64.5 -148h429q-4 92 -58.5 148.5 t-146.5 56.5zM690 754l-122 -124q-13 -13 -27.5 -8.5t-17.5 17.5t8 28l120 125q13 13 28.5 9t19 -17.5t-8.5 -29.5z" />
<glyph horiz-adv-x="1128" d="M1002 126q21 20 39 3.5t-1 -37.5q-33 -47 -93 -77t-136 -30q-162 0 -234 114q-92 -112 -237 -112q-125 0 -198.5 72.5t-73.5 199.5q0 123 82 200.5t211 77.5q101 0 171 -54v16q0 11 8 19t19 8t18.5 -8t7.5 -19v-87q31 59 89 92t138 33q120 0 188.5 -76t68.5 -188 q0 -17 -10 -27.5t-27 -10.5h-446q7 -91 68 -144t159 -53q124 0 189 88zM552 149q-20 55 -20 123v151q-71 62 -166 62q-110 0 -176.5 -61.5t-66.5 -161.5q0 -105 59 -164.5t162 -59.5q129 0 208 111zM810 487q-101 0 -159.5 -57t-64.5 -148h429q-4 92 -58.5 148.5 t-146.5 56.5zM703 657h-272q-12 0 -20 7t-8 19q0 11 8.5 18.5t19.5 7.5h272q11 0 19.5 -7.5t8.5 -18.5q0 -12 -8 -19t-20 -7z" />
<glyph horiz-adv-x="726" d="M366 715q137 0 220 -98.5t83 -266.5q0 -163 -83.5 -264t-226.5 -101q-135 0 -218.5 98.5t-83.5 266.5q0 162 83 263.5t226 101.5zM366 660q-117 0 -185 -85.5t-68 -224.5q0 -143 68 -227t178 -84q117 0 185.5 85.5t68.5 225.5q0 143 -68 226.5t-179 83.5zM316 349 q0 19 13.5 32.5t32.5 13.5q20 0 33 -13.5t13 -32.5t-13 -32.5t-33 -13.5q-19 0 -32.5 13.5t-13.5 32.5z" />
<glyph horiz-adv-x="720" d="M658 219q0 -100 -77 -167t-206 -67q-141 0 -227.5 91t-86.5 263q0 164 100 270t268 106q119 0 196 -53q24 -14 12.5 -36.5t-38.5 -9.5q-71 46 -174 46q-140 0 -224.5 -90t-84.5 -231v-9q134 105 283 105q121 0 190 -59t69 -159zM397 384q-149 0 -277 -111 q16 -116 85.5 -176t174.5 -60q104 0 164 51.5t60 130.5q0 77 -55 121t-152 44z" />
<glyph horiz-adv-x="720" d="M58 477q0 98 78 168t204 70q144 0 229.5 -89t85.5 -262q0 -166 -97 -272.5t-263 -106.5q-123 0 -200 53q-24 14 -12.5 36.5t38.5 9.5q71 -46 174 -46q138 0 218.5 85t85.5 221q-119 -103 -267 -103q-133 0 -203.5 65t-70.5 171zM335 294q148 0 263 109 q-9 129 -78.5 194.5t-181.5 65.5q-101 0 -162.5 -54.5t-61.5 -131.5q0 -83 55.5 -133t165.5 -50z" />
<glyph horiz-adv-x="730" d="M368 715q137 0 220 -98.5t83 -266.5q0 -163 -83.5 -264t-226.5 -101q-135 0 -218.5 98.5t-83.5 266.5q0 162 83 263.5t226 101.5zM368 660q-117 0 -185 -85.5t-68 -224.5q0 -143 68 -227t178 -84q117 0 185.5 85.5t68.5 225.5q0 143 -68 226.5t-179 83.5zM318 349 q0 19 13.5 32.5t32.5 13.5q20 0 33 -13.5t13 -32.5t-13 -32.5t-33 -13.5q-19 0 -32.5 13.5t-13.5 32.5z" />
<glyph horiz-adv-x="730" d="M368 715q137 0 220 -98.5t83 -266.5q0 -163 -83.5 -264t-226.5 -101q-135 0 -218.5 98.5t-83.5 266.5q0 162 83 263.5t226 101.5zM368 660q-117 0 -185 -85.5t-68 -224.5q0 -143 68 -227t178 -84q117 0 185.5 85.5t68.5 225.5q0 143 -68 226.5t-179 83.5z" />
<glyph horiz-adv-x="730" d="M611 0h-468q-11 0 -19.5 8t-8.5 20q0 11 8.5 19.5t19.5 8.5h205v565l-171 -120q-13 -9 -27 -2t-15.5 20.5t13.5 26.5l208 150q11 8 21 8q12 0 20.5 -8.5t8.5 -21.5v-618h205q11 0 19.5 -8.5t8.5 -19.5q0 -12 -8.5 -20t-19.5 -8z" />
<glyph horiz-adv-x="730" d="M441 235l-259 -181h428q12 0 20 -7.5t8 -19.5t-8 -19.5t-20 -7.5h-495q-24 0 -29.5 21t14.5 35l318 226q83 60 117.5 104.5t34.5 102.5q0 74 -58 123t-151 49q-131 0 -219 -102q-11 -13 -27 -10.5t-21 16t6 31.5q99 119 261 119q121 0 193.5 -65t72.5 -159 q0 -79 -43.5 -133t-142.5 -123z" />
<glyph horiz-adv-x="730" d="M363 344q-27 0 -33.5 22t10.5 35l203 177q14 12 14 31q0 15 -10.5 26t-25.5 11h-410q-11 0 -19 7.5t-8 19.5t8 19.5t19 7.5h415q40 0 65 -25.5t25 -60.5q0 -40 -37 -73l-170 -149q105 -9 160 -63t55 -131q0 -88 -79 -150.5t-208 -62.5q-86 0 -155 28.5t-108 77.5 q-18 22 1.5 40t40.5 -1q81 -91 224 -91q100 0 162.5 46.5t62.5 112.5q0 65 -50 105.5t-152 40.5z" />
<glyph horiz-adv-x="730" d="M540 675v-460h118q12 0 20 -7.5t8 -19.5q0 -11 -8 -18.5t-20 -7.5h-118v-137q0 -12 -8.5 -20.5t-20.5 -8.5t-20.5 8.5t-8.5 20.5v137h-349q-41 0 -65 26t-24 63q0 26 12 45l229 391q10 17 27 17q16 0 24 -13.5t-1 -30.5l-228 -387q-5 -10 -5 -21q0 -14 10.5 -25.5 t25.5 -11.5h344v460q0 12 8.5 20.5t20.5 8.5t20.5 -8.5t8.5 -20.5z" />
<glyph horiz-adv-x="730" d="M95 73q-18 21 0 39.5t40 -1.5q76 -73 217 -73q104 0 169 52.5t65 126.5q0 79 -58.5 130t-182.5 51q-100 0 -164 -23q-24 -8 -41 2t-17 32v257q0 14 9.5 24t24.5 10h435q11 0 19 -8t8 -19t-8 -19t-19 -8h-415v-218q76 21 172 21q148 0 221 -65t73 -165q0 -97 -80 -165.5 t-213 -68.5q-172 0 -255 88z" />
<glyph horiz-adv-x="730" d="M663 219q0 -100 -76.5 -167t-206.5 -67q-140 0 -227 90.5t-87 262.5q0 163 100.5 270t267.5 107q119 0 196 -53q24 -14 12.5 -36.5t-38.5 -9.5q-71 46 -174 46q-140 0 -225.5 -91t-85.5 -231q0 -147 72.5 -225t191.5 -78q104 0 165.5 52t61.5 130q0 77 -55 121t-152 44 q-93 0 -168 -44q-24 -13 -37 9t10 36q36 23 89.5 37.5t107.5 14.5q120 0 189 -59t69 -159z" />
<glyph horiz-adv-x="730" d="M663 219q0 -100 -76.5 -167t-206.5 -67q-141 0 -227.5 91t-86.5 263q0 164 100 270t268 106q119 0 196 -53q24 -14 12.5 -36.5t-38.5 -9.5q-71 46 -174 46q-140 0 -224.5 -90t-84.5 -231v-9q136 105 284 105q120 0 189 -59t69 -159zM403 384q-150 0 -278 -111 q16 -116 85.5 -176t174.5 -60q104 0 164.5 52t60.5 130q0 77 -55 121t-152 44z" />
<glyph horiz-adv-x="730" d="M213 40l329 539q10 18 10 30q0 15 -10 26t-27 11h-421q-12 0 -19.5 7.5t-7.5 19.5t7.5 19.5t19.5 7.5h427q41 0 65.5 -26t24.5 -63q0 -33 -22 -65l-328 -536q-9 -14 -25 -14q-18 0 -25 15t2 29z" />
<glyph horiz-adv-x="730" d="M365 -15q-148 0 -229.5 53.5t-81.5 136.5q0 144 222 180q-201 41 -201 174q0 85 81 135.5t209 50.5t209 -50.5t81 -135.5q0 -67 -53 -111t-148 -63q222 -36 222 -180q0 -83 -81.5 -136.5t-229.5 -53.5zM365 37q116 0 184.5 40.5t68.5 102.5q0 121 -253 151 q-253 -30 -253 -151q0 -62 68.5 -102.5t184.5 -40.5zM365 376q232 29 232 147q0 67 -64.5 103.5t-167.5 36.5t-167.5 -36.5t-64.5 -103.5q0 -118 232 -147z" />
<glyph horiz-adv-x="730" d="M66 476q0 98 78 168.5t204 70.5q144 0 229.5 -89t85.5 -262q0 -166 -97 -272.5t-263 -106.5q-123 0 -200 53q-24 14 -12.5 36.5t38.5 9.5q71 -46 174 -46q143 0 224.5 91t81.5 235q0 148 -71 223.5t-192 75.5q-102 0 -163.5 -54.5t-61.5 -131.5q0 -83 56 -133t166 -50 q77 0 155 39q16 5 26.5 -4.5t8 -24t-18.5 -21.5q-82 -42 -174 -42q-133 0 -203.5 64.5t-70.5 170.5z" />
<glyph horiz-adv-x="730" d="M66 477q0 98 78 168t204 70q144 0 229.5 -89t85.5 -262q0 -166 -97 -272.5t-263 -106.5q-123 0 -200 53q-24 14 -12.5 36.5t38.5 9.5q71 -46 174 -46q138 0 218.5 85t85.5 221q-119 -103 -267 -103q-133 0 -203.5 65t-70.5 171zM343 294q148 0 263 109 q-9 129 -78.5 194.5t-181.5 65.5q-102 0 -163.5 -54.5t-61.5 -131.5q0 -83 56 -133t166 -50z" />
<glyph horiz-adv-x="849" d="M375 662q-103 0 -156.5 -41.5t-53.5 -104.5q0 -60 44 -100t129 -40h451q12 0 20 -7t8 -19t-8 -19t-20 -7h-152v-300q0 -11 -8 -19.5t-19 -8.5q-12 0 -20 8.5t-8 19.5v59q-92 -98 -247 -98q-119 0 -183 51t-64 143q0 55 35 101.5t100 69.5q-58 23 -86.5 68t-28.5 100 q0 84 70 140.5t197 56.5q126 0 200 -48q22 -14 9.5 -36t-35.5 -9q-73 40 -174 40zM337 38q165 0 245 113v173h-244q-90 0 -141.5 -41t-51.5 -101q0 -68 48.5 -106t143.5 -38z" />
<glyph horiz-adv-x="1158" d="M892 5q-83 0 -118 73q-91 -79 -213 -79t-194 72.5t-72 199.5q0 124 80.5 201t210.5 77q98 0 170 -53v14q0 11 8.5 19.5t19.5 8.5q12 0 20 -8.5t8 -19.5v-338q0 -57 22.5 -87t62.5 -30q57 0 94 61t37 174q0 185 -126 307t-313 122q-204 0 -331 -128.5t-127 -318.5 q0 -188 127.5 -310t330.5 -122q138 0 237 58q15 8 27 0.5t11.5 -20t-11.5 -21.5q-104 -67 -264 -67q-226 0 -367.5 135.5t-141.5 344.5q0 137 63 250.5t180 181t266 67.5q207 0 348 -137t141 -342q0 -141 -52.5 -213t-133.5 -72zM758 134q-2 11 -2 34v270q-67 59 -165 59 q-110 0 -176 -61.5t-66 -161.5q0 -105 58.5 -164.5t157.5 -59.5q121 0 193 84z" />
<glyph horiz-adv-x="669" d="M567 676v-411q0 -11 -8 -19.5t-19 -8.5q-12 0 -20 8.5t-8 19.5v23q-78 -60 -184 -60q-117 0 -184.5 63.5t-67.5 181.5q0 102 70.5 172t195.5 70q102 0 170 -47v8q0 11 8 19.5t20 8.5q11 0 19 -8.5t8 -19.5zM333 279q97 0 179 64v266q-63 55 -167 55q-98 0 -156 -53.5 t-58 -138.5q0 -91 52.5 -142t149.5 -51z" />
<glyph horiz-adv-x="93" d="M91 718l-38 -148q-8 -27 -33 -21t-18 34l37 149q5 18 20 22t26 -6.5t6 -29.5z" />
<glyph horiz-adv-x="93" d="M91 -117l-38 -148q-8 -27 -33 -21t-18 34l37 149q5 18 20 22t26 -6.5t6 -29.5z" />
</font>
</defs>
</svg>
