<?xml version="1.0" standalone="no"?>
<!DOCTYPE svg PUBLIC "-//W3C//DTD SVG 1.1//EN" "http://www.w3.org/Graphics/SVG/1.1/DTD/svg11.dtd" >
<svg xmlns="http://www.w3.org/2000/svg">
<metadata></metadata>
<defs>
<font id="edp_preonbold" horiz-adv-x="692" >
<font-face units-per-em="1000" ascent="750" descent="-250" />
<missing-glyph horiz-adv-x="365" />
<glyph unicode="ff" horiz-adv-x="783" d="M491 65v354h-226v-354q0 -29 -20.5 -50t-48.5 -21q-29 0 -50 21t-21 50v354h-39q-30 0 -50.5 18.5t-20.5 45.5q0 29 20.5 47t50.5 18h39v42q0 95 55 147.5t152 52.5q41 0 62.5 -19.5t21.5 -49.5t-22 -48.5t-62 -18.5q-38 0 -52.5 -16t-14.5 -48v-42h226v42q0 95 55 147.5 t152 52.5q41 0 63 -19.5t22 -49.5t-22.5 -48.5t-62.5 -18.5q-38 0 -52.5 -16t-14.5 -48v-42h61q29 0 50 -18t21 -47q0 -27 -21 -45.5t-50 -18.5h-61v-354q0 -29 -20.5 -50t-48.5 -21q-29 0 -50 21t-21 50z" />
<glyph unicode="ffi" horiz-adv-x="1082" d="M862 65v418q0 29 20.5 49.5t48.5 20.5q29 0 50 -20.5t21 -49.5v-418q0 -29 -21 -50t-50 -21q-28 0 -48.5 21t-20.5 50zM842 715q0 37 26 63.5t63 26.5q38 0 64.5 -26.5t26.5 -63.5q0 -38 -26.5 -64.5t-64.5 -26.5q-37 0 -63 26.5t-26 64.5zM491 65v354h-226v-354 q0 -29 -20.5 -50t-48.5 -21q-29 0 -50 21t-21 50v354h-39q-30 0 -50.5 18.5t-20.5 45.5q0 29 20.5 47t50.5 18h39v42q0 95 55 147.5t152 52.5q41 0 62.5 -19.5t21.5 -49.5t-22 -48.5t-62 -18.5q-38 0 -52.5 -16t-14.5 -48v-42h226v42q0 95 55 147.5t152 52.5q41 0 63 -19.5 t22 -49.5t-22.5 -48.5t-62.5 -18.5q-38 0 -52.5 -16t-14.5 -48v-42h61q29 0 50 -18t21 -47q0 -27 -21 -45.5t-50 -18.5h-61v-354q0 -29 -20.5 -50t-48.5 -21q-29 0 -50 21t-21 50z" />
<glyph unicode="ffl" horiz-adv-x="1082" d="M1002 720v-655q0 -29 -20.5 -50t-48.5 -21q-29 0 -50 21t-21 50v655q0 29 21 49.5t50 20.5q28 0 48.5 -20.5t20.5 -49.5zM491 65v354h-226v-354q0 -29 -20.5 -50t-48.5 -21q-29 0 -50 21t-21 50v354h-39q-30 0 -50.5 18.5t-20.5 45.5q0 29 20.5 47t50.5 18h39v42 q0 95 55 147.5t152 52.5q41 0 62.5 -19.5t21.5 -49.5t-22 -48.5t-62 -18.5q-38 0 -52.5 -16t-14.5 -48v-42h226v42q0 95 55 147.5t152 52.5q41 0 63 -19.5t22 -49.5t-22.5 -48.5t-62.5 -18.5q-38 0 -52.5 -16t-14.5 -48v-42h61q29 0 50 -18t21 -47q0 -27 -21 -45.5 t-50 -18.5h-61v-354q0 -29 -20.5 -50t-48.5 -21q-29 0 -50 21t-21 50z" />
<glyph unicode=" "  horiz-adv-x="365" />
<glyph unicode="&#x09;" horiz-adv-x="365" />
<glyph unicode="&#xa0;" horiz-adv-x="365" />
<glyph unicode="!" horiz-adv-x="338" d="M70 93q0 41 29 70t70 29q40 0 69 -29t29 -70t-29 -70t-69 -29q-41 0 -70 29t-29 70zM238 635v-340q0 -29 -20.5 -50t-48.5 -21q-29 0 -50 21t-21 50v340q0 29 21 50t50 21q28 0 48.5 -21t20.5 -50z" />
<glyph unicode="&#x22;" horiz-adv-x="459" d="M252 496v139q0 29 20.5 49.5t48.5 20.5q29 0 50 -20.5t21 -49.5v-139q0 -29 -21 -49.5t-50 -20.5q-28 0 -48.5 20.5t-20.5 49.5zM67 496v139q0 29 20.5 49.5t48.5 20.5q29 0 50 -20.5t21 -49.5v-139q0 -29 -21 -49.5t-50 -20.5q-28 0 -48.5 20.5t-20.5 49.5z" />
<glyph unicode="#" horiz-adv-x="730" d="M139 551h98l38 103q18 52 67 52q35 0 53 -28.5t4 -67.5l-22 -59h127l38 103q19 52 67 52q35 0 53 -28.5t4 -67.5l-22 -59h12q26 0 43.5 -17.5t17.5 -43.5q0 -25 -17.5 -42.5t-43.5 -17.5h-56l-57 -159h53q26 0 43.5 -17.5t17.5 -43.5q0 -25 -17.5 -42.5t-43.5 -17.5h-97 l-38 -104q-9 -25 -27 -38.5t-40 -13.5q-35 0 -53.5 28.5t-3.5 68.5l21 59h-126l-38 -104q-20 -52 -67 -52q-35 0 -53.5 28.5t-3.5 68.5l21 59h-12q-25 0 -42.5 17t-17.5 43t17.5 43.5t42.5 17.5h56l58 159h-54q-25 0 -42.5 17t-17.5 43t17.5 43.5t42.5 17.5zM333 430 l-57 -159h126l58 159h-127z" />
<glyph unicode="$" horiz-adv-x="730" d="M441 730v-16q110 -8 167 -46q25 -16 31 -43t-6.5 -47t-36 -30t-57.5 8q-44 22 -98 28v-185q46 -11 78 -24t65 -35.5t50 -58.5t17 -84q0 -82 -57 -137.5t-153 -69.5v-20q0 -26 -17.5 -43t-42.5 -17q-26 0 -43.5 17.5t-17.5 42.5v18q-140 13 -207 74q-28 24 -33 52.5 t10.5 45.5t40.5 23t57 -14q63 -39 132 -52v182q-37 8 -63.5 16.5t-57 25t-49.5 37.5t-32 53.5t-13 74.5q0 70 53.5 128t161.5 75v21q0 25 17.5 42.5t43.5 17.5q25 0 42.5 -17t17.5 -43zM243 506q0 -51 77 -76v149q-77 -18 -77 -73zM511 197q0 49 -70 73v-150q70 19 70 77z " />
<glyph unicode="%" horiz-adv-x="890" d="M227 715q78 0 126 -49.5t48 -133.5q0 -81 -48 -131.5t-130 -50.5q-77 0 -125 49t-48 133q0 82 47.5 132.5t129.5 50.5zM227 594q-26 0 -41 -17t-15 -45t14.5 -44.5t37.5 -16.5q26 0 41.5 17t15.5 44q0 28 -14.5 45t-38.5 17zM666 350q78 0 126 -49.5t48 -133.5 q0 -81 -48 -131.5t-130 -50.5q-77 0 -125 49t-48 133q0 82 47.5 132.5t129.5 50.5zM666 229q-26 0 -41 -17t-15 -45t14.5 -44.5t37.5 -16.5q26 0 41.5 17t15.5 44q0 28 -14.5 45t-38.5 17zM704 565l-427 -508q-23 -28 -51 -28q-42 0 -57.5 36t12.5 69l427 509q22 27 51 27 q42 0 57.5 -36t-12.5 -69z" />
<glyph unicode="&#x26;" horiz-adv-x="850" d="M752 307h-58q-21 -86 -78 -158q54 -19 115 -29q47 -9 59 -42.5t-12 -60.5t-65 -21q-103 16 -199 59q-103 -70 -233 -70q-124 0 -197 47.5t-73 141.5q0 78 48 120t134 70q-26 66 -26 130q0 101 63.5 161t154.5 60q94 0 145.5 -56t51.5 -123q0 -52 -17.5 -92t-50.5 -66.5 t-67 -43t-80 -31.5q53 -61 138 -108q70 73 70 159q0 39 22.5 60.5t60.5 21.5h94q30 0 50 -18.5t20 -46.5t-20 -46t-50 -18zM285 104q56 0 108 19q-86 60 -147 144q-48 -16 -73.5 -35.5t-25.5 -50.5q0 -77 138 -77zM295 494q0 -50 16 -94q68 23 104.5 53.5t36.5 82.5 q0 25 -18.5 43.5t-48.5 18.5q-33 0 -61.5 -26.5t-28.5 -77.5z" />
<glyph unicode="'" horiz-adv-x="274" d="M67 496v139q0 29 20.5 49.5t48.5 20.5q29 0 50 -20.5t21 -49.5v-139q0 -29 -21 -49.5t-50 -20.5q-28 0 -48.5 20.5t-20.5 49.5z" />
<glyph unicode="(" horiz-adv-x="384" d="M78 350q0 114 46.5 230.5t130.5 192.5q20 18 43.5 21t40.5 -7t28.5 -26.5t8 -39t-22.5 -42.5q-73 -79 -106 -154t-33 -175t33 -174.5t106 -154.5q19 -20 22.5 -42.5t-8 -39t-28.5 -26.5t-40.5 -7t-43.5 21q-84 76 -130.5 193t-46.5 230z" />
<glyph unicode=")" horiz-adv-x="384" d="M305 350q0 -114 -46.5 -230.5t-130.5 -192.5q-20 -18 -43.5 -21t-40.5 7t-28.5 26.5t-8 39t22.5 42.5q73 79 106 154t33 175t-33 174.5t-106 154.5q-19 20 -22.5 42.5t8 39t28.5 26.5t40.5 7t43.5 -21q84 -76 130.5 -193t46.5 -230z" />
<glyph unicode="*" horiz-adv-x="543" d="M145 492l-26 9q-52 24 -48 72q3 39 38 56q39 18 83 -13l15 -16l-5 26q-3 35 18 57t51 22t51 -22t19 -57l-5 -26l15 16q51 36 93 7q33 -24 28 -63q-4 -39 -48 -59l-26 -9l26 -9q52 -24 48 -72q-3 -39 -38 -56q-40 -17 -83 13l-15 16l5 -26q2 -35 -19 -57t-51 -22t-51 22 t-18 57l5 26l-15 -16q-51 -36 -93 -7q-33 24 -28 63q4 39 48 59z" />
<glyph unicode="+" horiz-adv-x="699" d="M558 205h-138v-140q0 -29 -21 -50t-50 -21q-28 0 -48.5 21t-20.5 50v140h-139q-29 0 -50 20.5t-21 48.5q0 29 21 49.5t50 20.5h139v139q0 29 20.5 49.5t48.5 20.5q29 0 50 -20.5t21 -49.5v-139h138q29 0 50 -20.5t21 -49.5q0 -28 -21 -48.5t-50 -20.5z" />
<glyph unicode="," horiz-adv-x="313" d="M54 -22l48 146q6 19 24.5 33t43.5 14q37 0 57 -29t8 -64l-48 -143q-8 -24 -27.5 -36t-40 -10t-39.5 12t-26 31t0 46z" />
<glyph unicode="-" horiz-adv-x="485" d="M345 225h-204q-29 0 -50 20.5t-21 48.5q0 29 21 49.5t50 20.5h204q29 0 49.5 -20.5t20.5 -49.5t-20.5 -49t-49.5 -20z" />
<glyph unicode="." horiz-adv-x="313" d="M58 93q0 41 29 70t69 29q41 0 70 -29t29 -70t-29 -70t-70 -29q-40 0 -69 29t-29 70z" />
<glyph unicode="/" horiz-adv-x="491" d="M-31 11l433 745q21 40 63 40q39 0 58.5 -34t-1.5 -73l-433 -745q-21 -40 -63 -40q-39 0 -58.5 34t1.5 73z" />
<glyph unicode="0" horiz-adv-x="726" d="M366 715q145 0 233 -98.5t88 -266.5q0 -163 -88.5 -264t-239.5 -101q-143 0 -231.5 99t-88.5 266q0 162 88 263.5t239 101.5zM366 578q-85 0 -134.5 -63t-49.5 -165q0 -106 49 -167.5t128 -61.5q85 0 135 63t50 166q0 107 -48.5 167.5t-129.5 60.5z" />
<glyph unicode="1" horiz-adv-x="496" d="M200 68v433l-88 -58q-20 -12 -41.5 -11.5t-37 14.5t-23.5 31.5t-0.5 40t30.5 38.5l183 132q25 18 51 18q30 0 51 -20.5t21 -52.5v-565q0 -31 -21.5 -52.5t-51.5 -21.5t-51.5 21.5t-21.5 52.5z" />
<glyph unicode="2" horiz-adv-x="651" d="M440 242l-173 -108h260q30 0 49.5 -18.5t19.5 -48.5t-19.5 -48.5t-49.5 -18.5h-428q-42 0 -63.5 26t-14.5 61t40 57l324 218q75 49 75 113q0 47 -34 77t-97 30q-99 0 -165 -87q-16 -20 -38 -26t-41 2t-32.5 23t-13 39.5t17.5 49.5q37 58 113.5 95t158.5 37 q133 0 204.5 -69t71.5 -166q0 -75 -41 -130.5t-124 -107.5z" />
<glyph unicode="3" horiz-adv-x="676" d="M332 282q-41 0 -62 25.5t-17 57t29 50.5l170 122q6 6 6 14q0 16 -16 16h-339q-30 0 -49.5 18t-19.5 48q0 31 19.5 49t49.5 18h356q68 0 109 -38.5t41 -95.5q0 -68 -62 -116l-83 -62q71 -22 110 -69.5t39 -111.5q0 -91 -84 -156.5t-228 -65.5q-67 0 -142 22t-107 57 q-22 24 -20 52.5t21.5 45t46.5 21t56 -18.5q63 -43 155 -43q67 0 110.5 24.5t43.5 61.5q0 75 -133 75z" />
<glyph unicode="4" horiz-adv-x="709" d="M574 633v-370h42q29 0 50 -19.5t21 -48.5t-21 -47t-50 -18h-42v-62q0 -31 -21.5 -52.5t-51.5 -21.5t-51.5 21.5t-21.5 52.5v62h-247q-70 0 -108.5 39.5t-38.5 104.5q0 38 16 67l185 322q25 43 67 43q43 0 63 -34.5t-3 -76.5l-179 -308q-2 -6 -2 -8q0 -7 5 -11.5t11 -4.5 h231v370q0 30 21.5 51.5t51.5 21.5t51.5 -21.5t21.5 -51.5z" />
<glyph unicode="5" horiz-adv-x="709" d="M84 86q-22 28 -17.5 54t20 43.5t43.5 17.5t53 -23q34 -33 69.5 -47t90.5 -14q68 0 111.5 33t43.5 81t-37.5 81.5t-114.5 33.5q-49 0 -129 -20q-55 -17 -91.5 6.5t-36.5 72.5v223q0 30 20.5 51t50.5 21h400q28 0 48 -20t20 -48q0 -29 -20 -48.5t-48 -19.5h-338v-106 q70 14 137 14q138 0 211 -67t73 -166q0 -106 -82.5 -180t-225.5 -74q-79 0 -148 26.5t-103 74.5z" />
<glyph unicode="6" horiz-adv-x="747" d="M679 235q0 -105 -82.5 -177.5t-215.5 -72.5q-147 0 -238.5 92.5t-91.5 263.5q0 162 110 268t295 106q88 0 166 -37q29 -15 38 -42.5t-2.5 -49t-35.5 -33.5t-60 5q-70 26 -117 26q-116 0 -188 -65.5t-72 -171.5q0 -108 54 -170.5t151 -62.5q67 0 111.5 36t44.5 85 t-35.5 75.5t-95.5 26.5q-44 0 -84 -20q-30 -16 -53 -6t-36.5 29t-8 45.5t31.5 43.5q58 39 157 39q120 0 188.5 -63.5t68.5 -169.5z" />
<glyph unicode="7" horiz-adv-x="612" d="M115 108l303 436q2 3 2 7q0 7 -5 11.5t-11 4.5h-335q-29 0 -49 18t-20 48q0 31 20 49t49 18h351q70 0 110.5 -39.5t40.5 -104.5q0 -51 -34 -99l-301 -430q-21 -33 -63 -33q-46 0 -64.5 39.5t6.5 74.5z" />
<glyph unicode="8" horiz-adv-x="752" d="M376 -15q-162 0 -241.5 56t-79.5 150q0 133 140 164q-119 41 -119 163q0 81 78.5 139t221.5 58t221.5 -58t78.5 -139q0 -122 -119 -163q140 -33 140 -164q0 -94 -79.5 -150t-241.5 -56zM376 112q79 0 127 26t48 69q0 40 -48 64t-127 26q-79 -2 -127 -26t-48 -64 q0 -43 48 -69t127 -26zM376 400q154 16 154 100q0 37 -37 62.5t-117 25.5t-117 -25.5t-37 -62.5q0 -84 154 -100z" />
<glyph unicode="9" horiz-adv-x="747" d="M55 469q0 101 82.5 173.5t215.5 72.5q149 0 239 -90.5t90 -261.5q0 -170 -99 -274t-282 -104q-101 0 -178 38q-28 15 -37 42t2.5 49t35 33.5t59.5 -5.5q72 -26 118 -26q125 0 185 65.5t60 181.5q0 106 -53.5 165t-145.5 59q-70 0 -111.5 -34t-41.5 -81q0 -57 36.5 -85.5 t117.5 -28.5q28 0 67 5q38 9 62.5 -16.5t17.5 -60t-47 -48.5q-41 -11 -109 -11q-139 0 -211.5 65t-72.5 177z" />
<glyph unicode=":" horiz-adv-x="313" d="M58 93q0 41 29 70t69 29q41 0 70 -29t29 -70t-29 -70t-70 -29q-40 0 -69 29t-29 70zM58 453q0 41 29 70t69 29q41 0 70 -29t29 -70t-29 -70t-70 -29q-40 0 -69 29t-29 70z" />
<glyph unicode=";" horiz-adv-x="313" d="M54 -22l48 146q6 19 24.5 33t43.5 14q37 0 57 -29t8 -64l-48 -143q-8 -24 -27.5 -36t-40 -10t-39.5 12t-26 31t0 46zM58 453q0 41 29 70t69 29q41 0 70 -29t29 -70t-29 -70t-70 -29q-40 0 -69 29t-29 70z" />
<glyph unicode="&#x3c;" horiz-adv-x="656" d="M68 274q0 104 98 146l322 127q12 6 31 6q42 0 61 -28.5t9.5 -62t-40.5 -45.5l-338 -129q-10 -2 -10 -14q0 -11 10 -15l338 -128q31 -12 40.5 -45.5t-9.5 -62.5t-61 -29q-19 0 -31 6l-322 128q-98 40 -98 146z" />
<glyph unicode="=" horiz-adv-x="699" d="M558 341h-417q-29 0 -50 20.5t-21 48.5q0 29 21 49.5t50 20.5h417q29 0 50 -20.5t21 -49.5q0 -28 -21 -48.5t-50 -20.5zM558 68h-417q-29 0 -50 20.5t-21 48.5q0 29 21 49.5t50 20.5h417q29 0 50 -20.5t21 -49.5q0 -28 -21 -48.5t-50 -20.5z" />
<glyph unicode="&#x3e;" horiz-adv-x="656" d="M588 273q0 -104 -98 -146l-322 -127q-12 -6 -31 -6q-42 0 -61 28.5t-9.5 62t40.5 45.5l338 129q10 2 10 14q0 11 -10 15l-338 128q-31 12 -40.5 45.5t9.5 62.5t61 29q19 0 31 -6l322 -128q98 -40 98 -146z" />
<glyph unicode="?" horiz-adv-x="557" d="M157 93q0 41 29 70t70 29q40 0 69 -29t29 -70t-29 -70t-69 -29q-41 0 -70 29t-29 70zM231 358q79 42 111 71t32 74q0 35 -26 56t-74 21q-75 0 -134 -33q-24 -16 -48 -17t-39.5 10.5t-24.5 28.5t-5 38t21 38q30 30 93 50t130 20q66 0 117 -18.5t79 -49.5t42 -66t14 -73 q0 -59 -37.5 -116t-84.5 -94t-98 -60q-26 -13 -51 -11t-39.5 17.5t-20.5 34.5t5 41.5t38 37.5z" />
<glyph unicode="@" horiz-adv-x="1158" d="M868 5q-75 0 -120.5 53t-45.5 119v215q-48 34 -115 34q-82 0 -129.5 -42t-47.5 -111q0 -73 44 -113.5t122 -40.5q2 0 5 -0.5t7.5 -1t9.5 -0.5q27 1 45.5 -16t22 -39.5t-10.5 -44.5t-44 -28q-18 -3 -51 -3q-122 0 -204.5 76.5t-82.5 198.5q0 131 85 214t214 83 q86 0 143 -39q21 29 58 29q28 0 48.5 -20.5t20.5 -48.5v-310q0 -22 14 -31t27 -9q34 0 54 45.5t20 115.5q0 156 -105 257t-263 101q-175 0 -279.5 -105.5t-104.5 -266.5q0 -157 108 -261t276 -104q101 0 199 48q24 11 43.5 9t31.5 -16t16.5 -31t-2.5 -35t-24 -29 q-104 -67 -264 -67q-226 0 -367.5 135.5t-141.5 344.5q0 137 63 250.5t180 181t266 67.5q207 0 348 -137t141 -342q0 -139 -59.5 -212t-150.5 -73zM738 351l1 -1q0 1 -1 3v-2z" />
<glyph unicode="A" horiz-adv-x="824" d="M25 99l242 520q46 92 146 92q102 0 146 -92l240 -520q17 -36 -2.5 -70.5t-62.5 -34.5q-44 0 -65 43l-47 105h-420l-47 -105q-21 -43 -66 -43q-41 0 -61.5 33.5t-2.5 71.5zM399 574l-135 -296h297l-133 296q-6 10 -15 10q-8 0 -14 -10z" />
<glyph unicode="B" horiz-adv-x="781" d="M511 0h-360q-29 0 -50 21t-21 50v557q0 30 21.5 51t50.5 21h339q87 0 149 -62t62 -149q0 -76 -50 -130q72 -55 72 -147q0 -88 -62.5 -150t-150.5 -62zM226 136h285q29 0 49.5 21t20.5 50t-20.5 51.5t-49.5 22.5h-112q-30 0 -49.5 19.5t-19.5 49.5t19.5 49.5t49.5 19.5h92 q29 0 49 22.5t20 52.5q0 28 -20 48.5t-49 20.5h-265v-427z" />
<glyph unicode="C" horiz-adv-x="774" d="M403 127q69 0 112 27t86 84q16 24 43 29.5t48 -7t32 -36.5t-6 -58q-34 -74 -121 -127.5t-192 -53.5q-165 0 -259.5 97t-94.5 268q0 162 97 263.5t261 101.5q108 0 188.5 -44t110.5 -114q17 -38 5 -62t-34.5 -36t-50.5 -7t-43 27q-72 95 -176 95q-98 0 -153 -60.5 t-55 -163.5q0 -94 54.5 -158.5t147.5 -64.5z" />
<glyph unicode="D" horiz-adv-x="816" d="M390 0h-19q-28 0 -48 20t-20 48t20 48t48 20h19q111 0 171.5 59.5t60.5 154.5t-60.5 154.5t-171.5 59.5h-151v-496q0 -31 -21.5 -52.5t-51.5 -21.5t-51.5 21.5t-21.5 52.5v561q0 31 20 51t52 20h225q176 0 277 -97.5t101 -252.5t-101 -252.5t-277 -97.5z" />
<glyph unicode="E" horiz-adv-x="726" d="M226 137h394q28 0 48 -19.5t20 -48.5t-20 -49t-48 -20h-469q-29 0 -50 21t-21 51v556q0 30 21 51t50 21h469q29 0 48.5 -20t19.5 -49t-20 -48.5t-48 -19.5h-394v-145h317q29 0 49 -20t20 -48t-20.5 -48t-48.5 -20h-317v-145z" />
<glyph unicode="F" horiz-adv-x="656" d="M555 223h-329v-154q0 -32 -21 -53.5t-52 -21.5q-30 0 -51.5 22t-21.5 53v559q0 30 21 51t50 21h444q29 0 48.5 -20t19.5 -48q0 -29 -19.5 -48.5t-48.5 -19.5h-369v-205h329q29 0 49.5 -20t20.5 -49q0 -28 -20.5 -47.5t-49.5 -19.5z" />
<glyph unicode="G" horiz-adv-x="808" d="M609 480q-69 94 -196 94q-105 0 -162 -60t-57 -164q0 -109 59 -166.5t165 -57.5q81 0 133 38.5t63 91.5h-129q-30 0 -50.5 19t-20.5 49t20.5 49t50.5 19h170q50 0 74.5 -28t24.5 -75q0 -125 -100 -214.5t-245 -89.5q-170 0 -264 95.5t-94 269.5q0 157 94.5 261t267.5 104 q116 0 198 -42.5t117 -115.5q18 -37 7 -61t-33 -36t-50 -7t-43 27z" />
<glyph unicode="H" horiz-adv-x="805" d="M725 633v-565q0 -31 -21.5 -52.5t-51.5 -21.5t-51.5 21.5t-21.5 52.5v214h-353v-214q0 -31 -21.5 -52.5t-51.5 -21.5t-51.5 21.5t-21.5 52.5v565q0 30 21.5 51.5t51.5 21.5t51.5 -21.5t21.5 -51.5v-215h353v215q0 30 21.5 51.5t51.5 21.5t51.5 -21.5t21.5 -51.5z" />
<glyph unicode="I" horiz-adv-x="306" d="M226 633v-565q0 -31 -21.5 -52.5t-51.5 -21.5t-51.5 21.5t-21.5 52.5v565q0 30 21.5 51.5t51.5 21.5t51.5 -21.5t21.5 -51.5z" />
<glyph unicode="J" horiz-adv-x="326" d="M100 258v375q0 30 21.5 51.5t51.5 21.5t51.5 -21.5t21.5 -51.5v-375q0 -73 -28.5 -141t-66.5 -99q-33 -26 -61.5 -22t-47.5 21.5t-16.5 49t31.5 58.5q43 41 43 133z" />
<glyph unicode="K" horiz-adv-x="725" d="M554 685q20 21 49 21q48 0 65 -42t-16 -76l-222 -233l239 -234q24 -23 24.5 -53.5t-20 -52t-51.5 -21.5q-27 0 -49 22l-287 281q-19 19 -19 53q0 32 19 53zM226 633v-565q0 -31 -21.5 -52.5t-51.5 -21.5t-51.5 21.5t-21.5 52.5v565q0 30 21.5 51.5t51.5 21.5t51.5 -21.5 t21.5 -51.5z" />
<glyph unicode="L" horiz-adv-x="663" d="M226 633v-496h369q29 0 48.5 -20t19.5 -49q0 -28 -20 -48t-48 -20h-444q-29 0 -50 21t-21 51v561q0 30 21.5 51.5t51.5 21.5t51.5 -21.5t21.5 -51.5z" />
<glyph unicode="M" horiz-adv-x="996" d="M226 541v-473q0 -31 -21.5 -52.5t-51.5 -21.5t-51.5 21.5t-21.5 52.5v480q0 68 47.5 112.5t110.5 44.5q47 0 85.5 -24.5t58.5 -64.5l116 -244l116 244q20 40 58.5 64.5t85.5 24.5q63 0 110.5 -44.5t47.5 -112.5v-480q0 -31 -21.5 -52.5t-51.5 -21.5t-51.5 21.5 t-21.5 52.5v473q0 16 -16 16q-10 0 -14 -8l-158 -319q-25 -50 -84 -50t-84 50l-158 319q-4 8 -14 8q-6 0 -11 -4.5t-5 -11.5z" />
<glyph unicode="N" horiz-adv-x="886" d="M495 83l-240 468q-5 9 -15 9q-14 0 -14 -16v-475q0 -35 -20 -55t-53 -20q-34 0 -53.5 20t-19.5 55v478q0 68 47.5 113t118.5 45q98 0 148 -94l237 -462q7 -9 16 -9q13 0 13 16v475q0 35 20.5 55t52.5 20q34 0 53.5 -20t19.5 -55v-478q0 -68 -47 -113t-119 -45 q-98 0 -145 88z" />
<glyph unicode="O" horiz-adv-x="805" d="M411 580q-101 0 -160 -63.5t-59 -166.5q0 -107 54 -168.5t145 -61.5q103 0 162 63t59 167q0 108 -53.5 169t-147.5 61zM411 715q157 0 249.5 -98t92.5 -267q0 -164 -98.5 -264.5t-263.5 -100.5q-154 0 -247 98.5t-93 266.5q0 163 98 264t262 101z" />
<glyph unicode="P" horiz-adv-x="694" d="M80 68v560q0 30 21 51t50 21h257q108 0 184.5 -76.5t76.5 -184.5q0 -107 -77 -183t-184 -76h-45q-31 0 -52.5 21.5t-21.5 52.5q0 30 21.5 52t52.5 22h45q51 0 85 34t34 82q0 49 -34.5 84t-84.5 35h-182v-495q0 -31 -21.5 -52.5t-51.5 -21.5t-51.5 21.5t-21.5 52.5z" />
<glyph unicode="Q" horiz-adv-x="805" d="M411 715q157 0 249.5 -98t92.5 -267q0 -123 -57.5 -212.5t-159.5 -127.5l87 -76q25 -22 25 -54q0 -28 -20.5 -49t-53.5 -21q-26 0 -55 25l-159 151q-141 11 -225 108t-84 256q0 163 98 264t262 101zM411 580q-101 0 -160 -63.5t-59 -166.5q0 -107 54 -168.5t145 -61.5 q103 0 162 63t59 167q0 108 -53.5 169t-147.5 61z" />
<glyph unicode="R" horiz-adv-x="764" d="M708 459q0 -77 -46.5 -135.5t-122.5 -81.5l143 -125q36 -31 17.5 -77t-70.5 -46q-28 0 -56 26l-239 224q-19 19 -19 50t22 52.5t52 21.5h80q38 0 64.5 27.5t26.5 68.5q0 42 -27 70.5t-66 28.5h-241v-495q0 -31 -21.5 -52.5t-51.5 -21.5t-51.5 21.5t-21.5 52.5v560 q0 30 21.5 51t50.5 21h315q100 0 170.5 -70.5t70.5 -170.5z" />
<glyph unicode="S" horiz-adv-x="727" d="M93 56q-31 24 -38 54t8.5 49.5t42 27.5t61.5 -12q103 -56 203 -56q153 0 153 78q0 29 -24.5 46.5t-64 25.5t-87 15t-95.5 19.5t-87.5 34t-64 64.5t-24.5 104q0 43 16.5 78.5t53 66t103 47.5t158.5 17q132 0 210 -47q37 -22 39 -60.5t-30 -59t-78 0.5q-70 31 -166 31 q-159 0 -159 -74q0 -33 33.5 -52.5t83 -26t108 -20t108 -32.5t83 -64.5t33.5 -113.5q0 -96 -78.5 -154t-214.5 -58q-199 0 -286 71z" />
<glyph unicode="T" horiz-adv-x="683" d="M84 700h515q31 0 51.5 -19t20.5 -49t-20.5 -49t-51.5 -19h-184v-496q0 -31 -21.5 -52.5t-51.5 -21.5t-51.5 21.5t-21.5 52.5v496h-185q-31 0 -51 19t-20 49t20 49t51 19z" />
<glyph unicode="U" horiz-adv-x="788" d="M73 291v342q0 30 21.5 51.5t51.5 21.5t51.5 -21.5t21.5 -51.5v-326q0 -78 47 -127t128 -49q79 0 127.5 48.5t48.5 127.5v326q0 30 21.5 51.5t51.5 21.5t51.5 -21.5t21.5 -51.5v-342q0 -131 -90.5 -218.5t-231.5 -87.5q-140 0 -230.5 87.5t-90.5 218.5z" />
<glyph unicode="V" horiz-adv-x="784" d="M392 117q9 0 14 9l224 537q8 19 26.5 31t39.5 12q40 0 60.5 -33.5t3.5 -71.5l-222 -519q-19 -44 -57.5 -68.5t-88.5 -24.5q-51 0 -89 24.5t-57 68.5l-222 519q-17 38 3.5 71.5t60.5 33.5q21 0 39.5 -12t26.5 -31l223 -537q4 -9 15 -9z" />
<glyph unicode="W" horiz-adv-x="1106" d="M553 591q24 0 44 -14t28 -35l154 -400q4 -12 15 -12q12 0 15 12l140 511q6 22 25.5 37t47.5 15q35 0 56 -30.5t11 -64.5l-138 -501q-34 -120 -154 -120q-51 0 -90 25.5t-57 73.5l-97 255l-96 -255q-18 -48 -57.5 -73.5t-90.5 -25.5q-120 0 -154 120l-138 501 q-10 34 11 64.5t56 30.5q28 0 47.5 -15t25.5 -37l140 -511q3 -12 16 -12q11 0 15 12l153 400q8 21 28 35t44 14z" />
<glyph unicode="X" horiz-adv-x="753" d="M48 114l231 234l-234 236q-35 34 -17.5 78t68.5 44q29 0 51 -22l232 -234l230 234q22 22 51 22t49.5 -20t21 -46.5t-21.5 -52.5l-232 -236l234 -235q34 -32 16.5 -77t-67.5 -45q-29 0 -51 22l-232 234l-230 -234q-22 -22 -51 -22q-48 0 -64.5 41t16.5 79z" />
<glyph unicode="Y" horiz-adv-x="703" d="M227 346l-214 243q-12 14 -14.5 34t4 38.5t24.5 31.5t45 13q31 0 53 -26l212 -243q4 -6 14 -6q9 0 14 6l212 243q23 26 53 26q27 0 45 -13t24.5 -31.5t4 -38.5t-14.5 -34l-213 -243q-21 -25 -51 -41v-236q0 -31 -22 -53t-52 -22t-52 22t-22 53v236q-30 15 -50 41z" />
<glyph unicode="Z" horiz-adv-x="710" d="M65 144l402 423h-357q-30 0 -50 18t-20 48q0 31 20 49t50 18h467q46 0 69 -24t23 -58q0 -35 -31 -67l-396 -417h363q30 0 49.5 -18.5t19.5 -48.5t-19.5 -48.5t-49.5 -18.5h-474q-45 0 -68.5 24.5t-23.5 57.5q0 34 26 62z" />
<glyph unicode="[" horiz-adv-x="401" d="M239 44h57q28 0 47.5 -20t19.5 -47q0 -28 -19.5 -47.5t-47.5 -19.5h-120q-29 0 -50 20.5t-21 50.5v737q0 30 21.5 51t50.5 21h119q28 0 47.5 -19.5t19.5 -47.5q0 -27 -19.5 -46.5t-47.5 -19.5h-57v-613z" />
<glyph unicode="\" horiz-adv-x="491" d="M88 756l433 -745q21 -39 1.5 -73t-58.5 -34q-42 0 -63 40l-433 745q-21 39 -1.5 73t58.5 34q42 0 63 -40z" />
<glyph unicode="]" horiz-adv-x="401" d="M162 656h-57q-28 0 -47.5 20t-19.5 47q0 28 19.5 47.5t47.5 19.5h120q29 0 50 -20.5t21 -50.5v-737q0 -30 -21.5 -51t-50.5 -21h-119q-28 0 -47.5 19.5t-19.5 47.5q0 27 19.5 46.5t47.5 19.5h57v613z" />
<glyph unicode="^" horiz-adv-x="631" d="M315 584q-8 0 -14 -10l-147 -384q-18 -43 -66 -43q-39 0 -59.5 33.5t-4.5 70.5l145 368q18 43 57 67.5t89 24.5q51 0 90 -24.5t56 -67.5l146 -368q16 -37 -4.5 -70.5t-59.5 -33.5q-48 0 -66 43l-147 384q-4 10 -15 10z" />
<glyph unicode="_" horiz-adv-x="699" d="M558 -139h-417q-29 0 -50 20.5t-21 48.5q0 29 21 49.5t50 20.5h417q29 0 50 -20.5t21 -49.5q0 -28 -21 -48.5t-50 -20.5z" />
<glyph unicode="`" horiz-adv-x="231" d="M115 639l-77 77q-21 21 -25 45t7.5 41t29.5 27.5t41.5 6.5t42.5 -24l73 -80q19 -20 22.5 -43t-6.5 -40t-26.5 -27.5t-39.5 -6.5t-42 24z" />
<glyph unicode="a" d="M346 124q7 0 22 -3q36 2 56 -26t9 -61t-51 -41q-32 -2 -52 -2q-122 0 -204.5 77t-82.5 199q0 131 84.5 213.5t213.5 82.5q87 0 144 -39q22 29 58 29q28 0 48.5 -20.5t20.5 -48.5v-419q0 -29 -20.5 -50t-48.5 -21q-29 0 -50 21t-21 50v331q-49 35 -116 35q-82 0 -129 -42 t-47 -111q0 -73 44 -113.5t122 -40.5zM508 355q3 -3 0 3v-3z" />
<glyph unicode="b" horiz-adv-x="697" d="M351 430q-7 0 -22 3q-36 -2 -56 26t-9 60.5t51 40.5q24 3 52 3q122 0 204.5 -77t82.5 -199q0 -131 -84.5 -213.5t-213.5 -82.5q-91 0 -145 39q-20 -37 -60 -37q-29 0 -50 21t-21 50v657q0 28 21 48.5t50 20.5q28 0 48.5 -20.5t20.5 -48.5v-560q48 -38 121 -38 q82 0 129 42t47 111q0 73 -44 113.5t-122 40.5zM189 199q-1 1 -1 0t1 -4v4z" />
<glyph unicode="c" horiz-adv-x="631" d="M43 273q0 123 80 206.5t221 83.5q74 0 138.5 -28.5t86.5 -68.5q21 -33 14 -58.5t-25.5 -41t-47.5 -11.5t-51 30q-43 47 -116 47q-78 0 -119.5 -42t-41.5 -117t41.5 -116t114.5 -41q48 0 84 20t54 49q16 26 41.5 33t45 -5.5t29 -35t-6.5 -55.5q-27 -56 -97.5 -96.5 t-155.5 -40.5q-132 0 -210.5 78.5t-78.5 209.5z" />
<glyph unicode="d" d="M346 124q7 0 22 -3q36 2 56 -26t9 -61t-51 -41q-32 -2 -52 -2q-122 0 -204.5 77t-82.5 199q0 131 84.5 213.5t213.5 82.5q74 0 131 -19v177q0 28 21 48.5t50 20.5q28 0 48.5 -20.5t20.5 -48.5v-657q0 -29 -20.5 -50t-48.5 -21q-29 0 -50 21t-21 50v340q-48 27 -116 27 q-82 0 -129 -42t-47 -111q0 -73 44 -113.5t122 -40.5zM508 374v1v-1zM508 530v-1v1z" />
<glyph unicode="e" horiz-adv-x="660" d="M538 214h-259q-24 0 -40.5 16.5t-16.5 40.5q0 23 16.5 39.5t40.5 16.5h200q-7 49 -45.5 80.5t-94.5 31.5q-70 0 -116.5 -46t-46.5 -118q0 -78 47.5 -118.5t128.5 -40.5q68 0 118 24q29 24 54 21t42.5 -18t17 -42t-23.5 -51q-28 -26 -87 -45.5t-126 -19.5 q-134 0 -219 72.5t-85 210.5q0 121 80.5 208t213.5 87q131 0 204 -77t73 -192q0 -35 -21 -57.5t-55 -22.5z" />
<glyph unicode="f" horiz-adv-x="416" d="M326 419h-61v-354q0 -29 -20.5 -50t-48.5 -21q-29 0 -50 21t-21 50v354h-39q-30 0 -50.5 18.5t-20.5 45.5q0 29 20.5 47t50.5 18h39v42q0 95 55 147.5t152 52.5q41 0 62.5 -19.5t21.5 -49.5t-22 -48.5t-62 -18.5q-38 0 -52.5 -16t-14.5 -48v-42h61q29 0 49.5 -18 t20.5 -47q0 -27 -20.5 -45.5t-49.5 -18.5z" />
<glyph unicode="g" horiz-adv-x="691" d="M346 144q2 0 5 -0.5t7.5 -1t9.5 -0.5q27 1 45.5 -16t22 -39.5t-10.5 -44.5t-44 -28q-18 -3 -51 -3q-122 0 -204.5 73.5t-82.5 191.5q0 128 82 207.5t211 79.5q86 0 146 -42q19 32 58 32q29 0 48.5 -19.5t19.5 -48.5v-406q0 -126 -78.5 -200.5t-226.5 -74.5q-99 0 -166 35 q-29 14 -38 39.5t2 45.5t32.5 31.5t53.5 -0.5q57 -22 121 -22q164 0 164 161v298q-53 39 -130 39q-75 0 -118.5 -39t-43.5 -104q0 -69 44 -106.5t122 -37.5zM508 349q2 -2 2 -1t-2 5v-4z" />
<glyph unicode="h" horiz-adv-x="698" d="M80 65v655q0 29 21 49.5t50 20.5q28 0 48.5 -20.5t20.5 -49.5v-225q79 61 168 61q104 0 170.5 -64t66.5 -162v-265q0 -29 -20.5 -50t-48.5 -21q-29 0 -50 21t-21 50v228q0 63 -34.5 94.5t-94.5 31.5q-78 0 -136 -67v-287q0 -29 -20.5 -50t-48.5 -21q-29 0 -50 21t-21 50z " />
<glyph unicode="i" horiz-adv-x="300" d="M80 65v418q0 29 20.5 49.5t48.5 20.5q29 0 50 -20.5t21 -49.5v-418q0 -29 -21 -50t-50 -21q-28 0 -48.5 21t-20.5 50zM60 715q0 37 26 63.5t63 26.5q38 0 64.5 -26.5t26.5 -63.5q0 -38 -26.5 -64.5t-64.5 -26.5q-37 0 -63 26.5t-26 64.5z" />
<glyph unicode="j" horiz-adv-x="300" d="M60 715q0 37 26 63.5t63 26.5q38 0 64.5 -26.5t26.5 -63.5q0 -38 -26.5 -64.5t-64.5 -26.5q-37 0 -63 26.5t-26 64.5zM80 46v438q0 28 21 48.5t50 20.5q28 0 48.5 -20.5t20.5 -48.5v-438q0 -71 -27.5 -132.5t-65.5 -87.5q-23 -16 -52 -16q-50 0 -62 44.5t25 75.5 q42 36 42 116z" />
<glyph unicode="k" horiz-adv-x="625" d="M220 720v-655q0 -29 -20.5 -50t-48.5 -21q-29 0 -50 21t-21 50v655q0 29 21 49.5t50 20.5q28 0 48.5 -20.5t20.5 -49.5zM469 531q21 21 50 21q46 0 60.5 -41.5t-15.5 -71.5l-159 -165l163 -160q34 -31 18 -75.5t-63 -44.5q-27 0 -49 22l-204 200q-19 19 -19 53 q0 32 19 53z" />
<glyph unicode="l" horiz-adv-x="300" d="M220 720v-655q0 -29 -20.5 -50t-48.5 -21q-29 0 -50 21t-21 50v655q0 29 21 49.5t50 20.5q28 0 48.5 -20.5t20.5 -49.5z" />
<glyph unicode="m" horiz-adv-x="1003" d="M80 65v418q0 29 21 49.5t50 20.5q23 0 41.5 -14.5t24.5 -37.5q62 55 149 55q102 0 159 -69q71 69 189 69q107 0 162 -63.5t55 -167.5v-260q0 -29 -20.5 -50t-48.5 -21q-29 0 -50 21t-21 50v223q0 63 -28 97.5t-75 34.5q-68 0 -115 -61q2 -24 2 -34v-260q0 -29 -20.5 -50 t-48.5 -21q-29 0 -49.5 21t-20.5 50v223q0 64 -28 98t-78 34q-68 0 -110 -63v-292q0 -29 -20.5 -50t-48.5 -21q-29 0 -50 21t-21 50z" />
<glyph unicode="n" horiz-adv-x="695" d="M80 65v418q0 29 21 49.5t50 20.5q24 0 43.5 -16t23.5 -41q83 60 172 60q103 0 167.5 -63.5t64.5 -159.5v-268q0 -29 -20.5 -50t-48.5 -21q-29 0 -49.5 21t-20.5 50v230q0 62 -33 93t-92 31q-81 0 -138 -71v-283q0 -29 -20.5 -50t-48.5 -21q-29 0 -50 21t-21 50z" />
<glyph unicode="o" horiz-adv-x="663" d="M339 563q128 0 204.5 -78t76.5 -211q0 -130 -81 -209.5t-217 -79.5q-125 0 -202 78t-77 211q0 129 80.5 209t215.5 80zM329 109q73 0 113.5 45t40.5 120q0 79 -39 122t-105 43q-77 0 -118 -45t-41 -120q0 -81 39 -123t110 -42z" />
<glyph unicode="p" horiz-adv-x="698" d="M351 430q-7 0 -22 3q-36 -2 -56 26t-9 60.5t51 40.5q24 3 52 3q122 0 204.5 -77t82.5 -199q0 -131 -84.5 -213.5t-213.5 -82.5q-78 0 -136 20v-131q0 -28 -20.5 -49t-48.5 -21q-29 0 -50 21t-21 49v604q0 28 21 48.5t50 20.5q28 0 48.5 -20.5t20.5 -48.5v-334 q46 -27 121 -27q82 0 129 42t47 111q0 73 -44 113.5t-122 40.5zM189 174v-1v1zM189 26q-1 0 0 -1v1z" />
<glyph unicode="q" horiz-adv-x="693" d="M346 124q7 0 22 -3q36 2 56 -26t9 -61t-51 -41q-32 -2 -52 -2q-122 0 -204.5 77t-82.5 199q0 131 82 213.5t210 82.5q89 0 148 -43q21 33 61 33q28 0 48.5 -20.5t20.5 -48.5v-604q0 -28 -20.5 -49t-48.5 -21q-29 0 -50 21t-21 49v510q-51 41 -123 41q-81 0 -125.5 -41.5 t-44.5 -111.5q0 -73 44 -113.5t122 -40.5zM508 349l1 -1q0 1 -1 3v-2z" />
<glyph unicode="r" horiz-adv-x="424" d="M351 416q-79 0 -131 -54v-297q0 -29 -20.5 -50t-48.5 -21q-29 0 -50 21t-21 50v418q0 29 21 49.5t50 20.5q25 0 44 -17t24 -42q47 62 127 62q39 0 60.5 -20t21.5 -49q0 -30 -21.5 -50.5t-55.5 -20.5z" />
<glyph unicode="s" horiz-adv-x="600" d="M68 49q-21 17 -27.5 38t1 38t22.5 29t39 11.5t48 -15.5q19 -13 62.5 -25.5t83.5 -12.5q58 0 85.5 15t27.5 37q0 24 -37 34t-89.5 14.5t-105 16t-89.5 50.5t-37 106q0 77 66 127.5t209 50.5q48 0 98.5 -11t75.5 -29q28 -17 35.5 -44t-6 -46.5t-37.5 -29t-57 7.5 q-46 24 -128 24q-116 0 -116 -49q0 -25 37 -35t89 -14.5t104.5 -15t89.5 -49.5t37 -107q0 -80 -67 -130t-179 -50q-168 0 -235 64z" />
<glyph unicode="t" horiz-adv-x="490" d="M368 419h-120v-184q0 -61 18 -83t57 -22q29 0 53 11q34 16 56 5.5t32.5 -30.5t2.5 -46t-33 -41q-52 -34 -128 -34q-94 0 -146 56.5t-52 167.5v200h-37q-30 0 -50.5 18t-20.5 46t20.5 46.5t50.5 18.5h37v64q0 29 20.5 50t48.5 21q29 0 50 -21t21 -50v-64h120 q30 0 50.5 -18.5t20.5 -46.5t-20.5 -46t-50.5 -18z" />
<glyph unicode="u" horiz-adv-x="696" d="M616 483v-418q0 -29 -20.5 -50t-49.5 -21q-25 0 -44.5 16t-24.5 40q-82 -59 -171 -59q-103 0 -167.5 63t-64.5 160v269q0 29 20.5 49.5t48.5 20.5q29 0 50 -20.5t21 -49.5v-232q0 -62 33 -93t92 -31q78 0 137 70v286q0 29 20.5 49.5t49.5 20.5t49.5 -20.5t20.5 -49.5z " />
<glyph unicode="v" horiz-adv-x="631" d="M315 117q10 0 15 9l147 385q18 42 66 42q39 0 59.5 -33.5t4.5 -70.5l-146 -367q-17 -43 -56 -68t-90 -25q-50 0 -89 25t-57 68l-145 367q-16 37 4.5 70.5t59.5 33.5q48 0 66 -42l147 -385q4 -9 14 -9z" />
<glyph unicode="w" horiz-adv-x="917" d="M458 458q25 0 44 -14t28 -36l106 -278q1 -10 13 -10q11 0 16 12l94 370q6 22 24 36t43 14q37 0 56.5 -26.5t10.5 -62.5l-87 -361q-37 -112 -157 -112q-51 0 -89 26.5t-56 76.5l-46 139l-45 -139q-18 -50 -56 -76.5t-90 -26.5q-60 0 -100 30t-56 82l-87 361 q-9 36 10.5 62.5t56.5 26.5q25 0 43 -14t23 -36l95 -370q3 -12 15 -12q11 0 14 10l106 278q20 50 71 50z" />
<glyph unicode="x" horiz-adv-x="621" d="M57 109l160 163l-162 165q-32 31 -15.5 73t64.5 42q28 0 48 -21l160 -162l159 162q21 21 50 21q46 0 60.5 -41.5t-15.5 -71.5l-160 -164l163 -164q30 -30 14 -73.5t-62 -43.5q-26 0 -50 22l-161 162l-158 -162q-22 -22 -48 -22q-48 0 -63.5 41.5t16.5 73.5z" />
<glyph unicode="y" horiz-adv-x="634" d="M220 -97l40 95q-65 21 -91 84l-145 367q-16 37 4.5 70.5t59.5 33.5q48 0 66 -42l147 -385q1 -7 11 -9l169 393q8 19 25.5 30.5t38.5 11.5q39 0 59.5 -31.5t6.5 -65.5l-270 -606q-17 -37 -54.5 -39.5t-60.5 26t-6 67.5z" />
<glyph unicode="z" horiz-adv-x="599" d="M78 144l260 273h-213q-30 0 -49.5 17.5t-19.5 47.5t19.5 48t49.5 18h321q45 0 67.5 -24t22.5 -58q0 -36 -24 -62l-259 -273h216q30 0 50 -17.5t20 -47.5q0 -31 -20 -48.5t-50 -17.5h-325q-45 0 -67.5 24t-22.5 58q0 36 24 62z" />
<glyph unicode="{" horiz-adv-x="432" d="M136 68v213h-20q-29 0 -50 20.5t-21 48.5q0 29 21 50t50 21h20v211q0 66 45.5 112t111.5 46h28q29 0 48.5 -20t19.5 -49t-19.5 -48.5t-48.5 -19.5h-36q-16 0 -16 -16v-574q0 -6 4.5 -11t11.5 -5h36q29 0 48.5 -19.5t19.5 -48.5t-19.5 -49t-48.5 -20h-28q-66 0 -111.5 46 t-45.5 112z" />
<glyph unicode="|" horiz-adv-x="321" d="M234 723v-746q0 -30 -21.5 -51.5t-51.5 -21.5t-51.5 21.5t-21.5 51.5v746q0 30 21.5 51.5t51.5 21.5t51.5 -21.5t21.5 -51.5z" />
<glyph unicode="}" horiz-adv-x="432" d="M295 632v-213h20q29 0 50 -20.5t21 -48.5q0 -29 -21 -50t-50 -21h-20v-211q0 -66 -45.5 -112t-111.5 -46h-28q-29 0 -48.5 20t-19.5 49t20 48.5t48 19.5h36q16 0 16 16v574q0 6 -4.5 11t-11.5 5h-36q-28 0 -48 19.5t-20 48.5t19.5 49t48.5 20h28q66 0 111.5 -46 t45.5 -112z" />
<glyph unicode="~" horiz-adv-x="698" d="M492 328q0 28 20 48t48 20t48 -20t20 -48q0 -74 -49.5 -121.5t-127.5 -47.5q-41 0 -77.5 16t-56.5 34.5t-40.5 34.5t-34.5 16q-16 0 -26 -11.5t-10 -24.5q0 -28 -20 -48t-48 -20t-48 20t-20 48q0 74 48 121.5t125 47.5q46 0 82 -15.5t53.5 -33.5t36.5 -33.5t34 -15.5 q43 0 43 33z" />
<glyph unicode="&#xa1;" horiz-adv-x="338" d="M267 454q0 -41 -29 -70t-70 -29q-40 0 -69 29t-29 70t29 70t69 29q41 0 70 -29t29 -70zM99 -88v340q0 29 20.5 50t48.5 21q29 0 50 -21t21 -50v-340q0 -29 -21 -50t-50 -21q-28 0 -48.5 21t-20.5 50z" />
<glyph unicode="&#xa2;" horiz-adv-x="730" d="M89 273q0 106 60.5 184.5t169.5 98.5v21q0 26 17.5 43.5t42.5 17.5t43 -18t18 -43v-18q60 -9 108.5 -35t66.5 -58q21 -33 14 -58.5t-25.5 -41t-47.5 -11.5t-51 30q-28 29 -65 40v-301q55 18 82 61q16 26 41.5 33t45 -5.5t29 -35t-6.5 -55.5q-22 -46 -73.5 -82.5 t-117.5 -48.5v-21q0 -25 -17.5 -42.5t-43.5 -17.5q-25 0 -42.5 17t-17.5 43v20q-107 17 -168.5 92.5t-61.5 190.5zM228 273q0 -114 91 -147v295q-91 -33 -91 -148z" />
<glyph unicode="&#xa3;" horiz-adv-x="730" d="M465 277h-162v-140h299q28 0 48 -20t20 -49q0 -28 -20 -48t-48 -20h-473q-28 0 -48 20t-20 48q0 29 19.5 49t48.5 20h38v140h-46q-25 0 -42.5 17.5t-17.5 43.5q0 25 17.5 42.5t42.5 17.5h46v50q0 115 76.5 192.5t216.5 77.5q89 0 156 -35q29 -14 38 -39.5t-2 -45.5 t-32.5 -31.5t-53.5 0.5q-55 21 -111 21q-70 0 -111 -41.5t-41 -113.5v-35h162q25 0 42.5 -17.5t17.5 -42.5q0 -26 -17.5 -43.5t-42.5 -17.5z" />
<glyph unicode="&#xa4;" horiz-adv-x="730" d="M371 607q87 0 151 -39l67 54q22 17 46 18t40.5 -12t26 -32t3 -42t-28.5 -40l-63 -52q21 -53 21 -112t-22 -111l64 -53q22 -17 28.5 -40t-3 -42t-26 -32t-40.5 -12t-46 18l-70 56q-66 -40 -162 -40q-87 0 -149 38l-66 -54q-22 -17 -46.5 -17.5t-41 12.5t-26 31.5t-3 41.5 t28.5 40l62 52q-21 48 -21 112q0 59 22 111l-63 53q-23 18 -29 41t4 41.5t26.5 31.5t41 12t45.5 -18l68 -56q68 41 161 41zM371 486q-65 0 -104 -36t-39 -100t35.5 -99.5t93.5 -35.5q66 0 105 36t39 99q0 65 -35.5 100.5t-94.5 35.5z" />
<glyph unicode="&#xa5;" horiz-adv-x="730" d="M530 103h-91v-34q0 -31 -22 -53t-52 -22t-52 22t-22 53v34h-90q-26 0 -43.5 17.5t-17.5 42.5t18 43t43 18h90v39h-90q-26 0 -43.5 17.5t-17.5 42.5t18 43t43 18h6l-180 205q-12 14 -14.5 34t4 38.5t24.5 31.5t45 13q31 0 53 -26l212 -256q5 -5 14 -5t14 5l212 256 q23 26 53 26q27 0 45 -13t24.5 -31.5t4 -38.5t-14.5 -34l-180 -205h7q26 0 43.5 -18t17.5 -43t-17.5 -42.5t-43.5 -17.5h-91v-39h91q26 0 43.5 -18t17.5 -43t-17.5 -42.5t-43.5 -17.5z" />
<glyph unicode="&#xa6;" horiz-adv-x="321" d="M234 252v-275q0 -30 -21.5 -51.5t-51.5 -21.5t-51.5 21.5t-21.5 51.5v275q0 30 21.5 51.5t51.5 21.5t51.5 -21.5t21.5 -51.5zM234 723v-275q0 -30 -21.5 -51.5t-51.5 -21.5t-51.5 21.5t-21.5 51.5v275q0 30 21.5 51.5t51.5 21.5t51.5 -21.5t21.5 -51.5z" />
<glyph unicode="&#xa7;" horiz-adv-x="633" d="M116 32q-28 18 -35.5 44.5t6 45.5t38 28.5t59.5 -6.5q3 -1 18.5 -7t25.5 -9t26.5 -7.5t33.5 -6.5t35 -2q92 0 92 44q0 17 -37.5 23t-90.5 9t-106.5 13.5t-91 47t-37.5 99.5q0 67 58 117q-22 33 -22 84q0 68 62.5 117t192.5 49q48 0 98.5 -11t75.5 -28q28 -17 35 -44 t-6 -46.5t-37 -29t-57 6.5q-45 25 -128 25q-96 0 -96 -38q0 -24 36 -33t87.5 -12t103 -12t87.5 -41t36 -90q0 -62 -52 -116q29 -34 29 -89q0 -73 -59.5 -122.5t-172.5 -49.5q-129 0 -207 47zM443 340q0 19 -13.5 30t-39 15.5t-52 6t-63.5 4.5t-63 9q-32 -20 -32 -41 q0 -19 13.5 -30t40 -16t54 -7t66 -5t65.5 -8q24 17 24 42z" />
<glyph unicode="&#xa8;" horiz-adv-x="427" d="M0 706q0 40 28.5 68t67.5 28q40 0 68 -28t28 -68t-28 -68t-68 -28q-39 0 -67.5 28t-28.5 68zM235 706q0 40 28.5 68t67.5 28q40 0 68 -28t28 -68t-28 -68t-68 -28q-39 0 -67.5 28t-28.5 68z" />
<glyph unicode="&#xa9;" horiz-adv-x="890" d="M80 350q0 155 106 260t262 105q158 0 260 -104.5t102 -260.5q0 -155 -106 -260t-262 -105q-158 0 -260 104.5t-102 260.5zM175 350q0 -116 78.5 -197t192.5 -81q115 0 191.5 80.5t76.5 197.5q0 116 -78 197t-192 81q-115 0 -192 -81t-77 -197zM236 349q0 92 60 154 t164 62q55 0 101 -20.5t66 -51.5q16 -24 11 -42.5t-19 -30t-35 -9t-37 21.5q-37 35 -88 35q-58 0 -88.5 -31.5t-30.5 -87.5q0 -55 31 -85.5t84 -30.5q36 0 63.5 15t40.5 36q11 19 30 23.5t33.5 -4.5t21.5 -25.5t-5 -40.5q-20 -42 -72 -71.5t-115 -29.5q-99 0 -157.5 58 t-58.5 155z" />
<glyph unicode="&#xaa;" horiz-adv-x="704" d="M351 335q2 0 24 -2q27 1 45.5 -16t22 -39.5t-10 -44t-43.5 -27.5q-18 -3 -54 -3q-118 0 -192.5 68.5t-74.5 194.5q0 44 17 86.5t49.5 79.5t88.5 60t126 23q87 0 144 -38q21 29 57 29q28 0 48.5 -20.5t20.5 -49.5v-360q0 -28 -20.5 -49t-48.5 -21q-29 0 -49.5 21t-20.5 49 v271q-50 42 -123 42q-71 0 -111.5 -36.5t-40.5 -91.5q0 -58 36.5 -92t109.5 -34z" />
<glyph unicode="&#xab;" horiz-adv-x="757" d="M354 274q0 77 58 124l159 140q18 15 44 15q51 0 68.5 -47t-21.5 -81l-159 -137q-6 -4 -6 -14t6 -14l159 -138q39 -34 21.5 -81t-68.5 -47q-24 0 -44 16l-159 139q-58 48 -58 125zM68 274q0 77 58 124l159 140q18 15 44 15q51 0 68.5 -47t-21.5 -81l-159 -137 q-6 -4 -6 -14t6 -14l159 -138q39 -34 21.5 -81t-68.5 -47q-24 0 -44 16l-159 139q-58 48 -58 125z" />
<glyph unicode="&#xac;" horiz-adv-x="729" d="M559 -6q-29 0 -49.5 21t-20.5 50v140h-348q-29 0 -50 20.5t-21 48.5q0 29 21 49.5t50 20.5h417q29 0 50 -20.5t21 -49.5v-209q0 -29 -20.5 -50t-49.5 -21z" />
<glyph unicode="&#xae;" horiz-adv-x="890" d="M80 350q0 155 106 260t262 105q158 0 260 -104.5t102 -260.5q0 -155 -106 -260t-262 -105q-158 0 -260 104.5t-102 260.5zM175 350q0 -116 78.5 -197t192.5 -81q115 0 191.5 80.5t76.5 197.5q0 116 -78 197t-192 81q-115 0 -192 -81t-77 -197zM614 403q0 -74 -68 -107 l52 -44q24 -21 12 -51.5t-47 -30.5q-15 0 -36 17l-113 105q-13 13 -13 33t15 34t35 14h36q12 0 21 9.5t9 22.5t-9.5 22.5t-21.5 9.5h-100v-219q0 -21 -13.5 -34.5t-34.5 -13.5q-19 0 -33.5 14t-14.5 34v263q0 20 14.5 34.5t34.5 14.5h147q53 0 90.5 -37t37.5 -90z" />
<glyph unicode="&#xaf;" horiz-adv-x="379" d="M310 654h-241q-28 0 -48.5 18.5t-20.5 46.5q0 27 20.5 45.5t48.5 18.5h241q29 0 49 -18.5t20 -45.5q0 -28 -20 -46.5t-49 -18.5z" />
<glyph unicode="&#xb0;" horiz-adv-x="630" d="M322 715q114 0 180.5 -64t66.5 -175q0 -108 -71 -173t-191 -65q-110 0 -177 64.5t-67 173.5q0 107 70.5 173t188.5 66zM322 594q-58 0 -92.5 -31t-34.5 -87q0 -57 30.5 -87t82.5 -30q58 0 93 31t35 86q0 57 -30.5 87.5t-83.5 30.5z" />
<glyph unicode="&#xb1;" horiz-adv-x="699" d="M558 295h-138v-50q0 -29 -21 -49.5t-50 -20.5q-28 0 -48.5 20.5t-20.5 49.5v50h-139q-29 0 -50 20.5t-21 48.5q0 29 21 49.5t50 20.5h139v49q0 29 20.5 49.5t48.5 20.5q29 0 50 -20.5t21 -49.5v-49h138q29 0 50 -20.5t21 -49.5q0 -28 -21 -48.5t-50 -20.5zM558 1h-417 q-29 0 -50 20.5t-21 48.5q0 29 21 49.5t50 20.5h417q29 0 50 -20.5t21 -49.5q0 -28 -21 -48.5t-50 -20.5z" />
<glyph unicode="&#xb2;" horiz-adv-x="529" d="M331 404l-67 -37h146q26 0 43 -14.5t17 -40.5t-17 -41.5t-43 -15.5h-283q-35 0 -54 22.5t-13 51.5t34 47l190 128q40 28 40 54q0 21 -14.5 32.5t-39.5 11.5q-53 0 -94 -53q-23 -29 -56 -24t-44 33t11 66q26 41 73 66t103 25q85 0 134 -42t49 -112q0 -49 -33 -89.5 t-82 -67.5z" />
<glyph unicode="&#xb3;" horiz-adv-x="504" d="M252 417q-36 0 -54.5 18.5t-16 42.5t21.5 41l77 69h-172q-25 0 -42 15.5t-17 41.5q0 25 17 40t42 15h250q59 0 77.5 -47t-25.5 -87l-66 -62q94 -26 94 -113q0 -62 -56.5 -106.5t-139.5 -44.5q-116 0 -175 57q-26 26 -18 58t35.5 41t59.5 -12q27 -19 46.5 -26t54.5 -7 q26 0 49 10.5t23 29.5q0 26 -65 26z" />
<glyph unicode="&#xb4;" horiz-adv-x="231" d="M200 716l-77 -77q-19 -20 -42 -24t-39.5 6.5t-26.5 27.5t-6.5 40t22.5 43l73 80q19 20 42.5 24t41.5 -6.5t29.5 -27.5t7.5 -41t-25 -45z" />
<glyph unicode="&#xb6;" horiz-adv-x="694" d="M689 628v-651q0 -30 -21.5 -51.5t-51.5 -21.5t-51.5 21.5t-21.5 51.5v586h-63v-309q0 -31 -21.5 -52.5t-52.5 -21.5h-45q-107 0 -184 76t-77 183q0 108 76.5 184.5t184.5 76.5h257q30 0 50.5 -21t20.5 -51z" />
<glyph unicode="&#xb7;" horiz-adv-x="313" d="M58 273q0 41 29 70t69 29q41 0 70 -29t29 -70t-29 -70t-70 -29q-40 0 -69 29t-29 70z" />
<glyph unicode="&#xb8;" horiz-adv-x="245" d="M126 -133h-61q-35 0 -47 23.5t2 52.5l38 86h99l-31 -65q61 -4 90 -35t29 -77q0 -49 -36 -79t-96 -30q-63 0 -93 27q-20 21 -19.5 43t22 35t49.5 1q24 -6 46 -6q26 0 26 15q0 9 -18 9z" />
<glyph unicode="&#xb9;" horiz-adv-x="436" d="M188 311v222l-65 -43q-17 -10 -35 -9.5t-31 12t-20 26.5t-1 34t26 33l147 104q20 16 42 16q26 0 43 -17.5t17 -44.5v-333q0 -26 -18 -43.5t-44 -17.5q-25 0 -43 18t-18 43z" />
<glyph unicode="&#xba;" horiz-adv-x="675" d="M343 715q120 0 192 -69.5t72 -187.5q0 -115 -75.5 -185t-202.5 -70q-117 0 -189 69t-72 186q0 116 74.5 186.5t200.5 70.5zM343 594q-65 0 -103.5 -36t-38.5 -100t35.5 -99t92.5 -35q66 0 105.5 35.5t39.5 98.5q0 65 -35.5 100.5t-95.5 35.5z" />
<glyph unicode="&#xbb;" horiz-adv-x="757" d="M689 273q0 -77 -58 -124l-159 -140q-18 -15 -44 -15q-51 0 -68.5 47t21.5 81l159 137q6 5 6 14t-6 14l-159 138q-39 34 -21.5 81t68.5 47q24 0 44 -16l159 -139q58 -48 58 -125zM403 273q0 -77 -58 -124l-159 -140q-18 -15 -44 -15q-51 0 -68.5 47t21.5 81l159 137 q6 5 6 14t-6 14l-159 138q-39 34 -21.5 81t68.5 47q24 0 44 -16l159 -139q58 -48 58 -125z" />
<glyph unicode="&#xbc;" horiz-adv-x="1050" d="M989 86h-37v-30q0 -25 -18 -43t-44 -18t-44 18t-18 43v30h-172q-36 0 -57 21t-20 48t14 54l91 205q18 37 56 37q33 0 48.5 -27.5t-1.5 -62.5l-76 -167h117v195q0 25 18 43.5t44 18.5t44 -18.5t18 -43.5v-195h37q23 0 38.5 -16t15.5 -38t-15.5 -38t-38.5 -16zM279 80 l269 584q18 42 58 42q34 0 50 -26.5t0 -60.5l-268 -583q-19 -42 -58 -42q-33 0 -50 26t-1 60zM190 311v222l-65 -43q-17 -10 -35 -9.5t-31 12t-20 26.5t-1 34t26 33l147 104q20 16 42 16q26 0 43 -17.5t17 -44.5v-333q0 -26 -18 -43.5t-44 -17.5q-25 0 -43 18t-18 43z" />
<glyph unicode="&#xbd;" horiz-adv-x="1050" d="M848 149l-67 -37h146q26 0 43 -14.5t17 -40.5t-17 -41.5t-43 -15.5h-283q-35 0 -54 22.5t-13 51.5t34 47l190 128q40 28 40 54q0 21 -14.5 32.5t-39.5 11.5q-53 0 -94 -53q-23 -29 -56 -24t-44 33t11 66q26 41 73 66t103 25q85 0 134 -42t49 -112q0 -49 -33 -89.5 t-82 -67.5zM273 80l269 584q18 42 58 42q34 0 50 -26.5t0 -60.5l-268 -583q-19 -42 -58 -42q-33 0 -50 26t-1 60zM193 311v222l-65 -43q-17 -10 -35 -9.5t-31 12t-20 26.5t-1 34t26 33l147 104q20 16 42 16q26 0 43 -17.5t17 -44.5v-333q0 -26 -18 -43.5t-44 -17.5 q-25 0 -43 18t-18 43z" />
<glyph unicode="&#xbe;" horiz-adv-x="1050" d="M204 417q-36 0 -54.5 18.5t-16 42.5t21.5 41l77 69h-172q-25 0 -42 15.5t-17 41.5q0 25 17 40t42 15h250q59 0 77.5 -47t-25.5 -87l-66 -62q94 -26 94 -113q0 -62 -56.5 -106.5t-139.5 -44.5q-116 0 -175 57q-26 26 -18 58t35.5 41t59.5 -12q27 -19 46.5 -26t54.5 -7 q26 0 49 10.5t23 29.5q0 26 -65 26zM1005 86h-37v-30q0 -25 -18 -43t-44 -18t-44 18t-18 43v30h-172q-36 0 -57 21t-20 48t14 54l91 205q18 37 56 37q33 0 48.5 -27.5t-1.5 -62.5l-76 -167h117v195q0 25 18 43.5t44 18.5t44 -18.5t18 -43.5v-195h37q23 0 38.5 -16t15.5 -38 t-15.5 -38t-38.5 -16zM325 80l269 584q18 42 58 42q34 0 50 -26.5t0 -60.5l-268 -583q-19 -42 -58 -42q-33 0 -50 26t-1 60z" />
<glyph unicode="&#xbf;" horiz-adv-x="557" d="M398 454q0 -41 -29 -70t-70 -29q-40 0 -69 29t-29 70t29 70t69 29q41 0 70 -29t29 -70zM324 189q-79 -42 -111 -71t-32 -74q0 -35 26 -56t74 -21q75 0 134 33q24 16 48 17t39.5 -10.5t24.5 -28.5t5 -38t-21 -38q-30 -30 -93 -50t-130 -20q-66 0 -117 18.5t-79 49.5 t-42 66t-14 73q0 59 37.5 116t84.5 94t98 60q26 13 51 11t39.5 -17.5t20.5 -34.5t-5 -41.5t-38 -37.5z" />
<glyph unicode="&#xc0;" horiz-adv-x="824" d="M25 99l242 520q46 92 146 92q102 0 146 -92l240 -520q17 -36 -2.5 -70.5t-62.5 -34.5q-44 0 -65 43l-47 105h-420l-47 -105q-21 -43 -66 -43q-41 0 -61.5 33.5t-2.5 71.5zM399 574l-135 -296h297l-133 296q-6 10 -15 10q-8 0 -14 -10zM361 771l-77 77q-21 21 -25 45 t7.5 41t29.5 27.5t41.5 6.5t42.5 -24l73 -80q19 -20 22.5 -43t-6.5 -40t-26.5 -27.5t-39.5 -6.5t-42 24z" />
<glyph unicode="&#xc1;" horiz-adv-x="824" d="M25 99l242 520q46 92 146 92q102 0 146 -92l240 -520q17 -36 -2.5 -70.5t-62.5 -34.5q-44 0 -65 43l-47 105h-420l-47 -105q-21 -43 -66 -43q-41 0 -61.5 33.5t-2.5 71.5zM399 574l-135 -296h297l-133 296q-6 10 -15 10q-8 0 -14 -10zM546 848l-77 -77q-19 -20 -42 -24 t-39.5 6.5t-26.5 27.5t-6.5 40t22.5 43l73 80q19 20 42.5 24t41.5 -6.5t29.5 -27.5t7.5 -41t-25 -45z" />
<glyph unicode="&#xc2;" horiz-adv-x="824" d="M25 99l242 520q46 92 146 92q102 0 146 -92l240 -520q17 -36 -2.5 -70.5t-62.5 -34.5q-44 0 -65 43l-47 105h-420l-47 -105q-21 -43 -66 -43q-41 0 -61.5 33.5t-2.5 71.5zM399 574l-135 -296h297l-133 296q-6 10 -15 10q-8 0 -14 -10zM413 834q-7 0 -9 -5l-62 -71 q-16 -18 -36 -22.5t-35.5 3t-26.5 21t-9.5 33.5t16.5 38l64 72q37 45 98 45q60 0 98 -45l64 -72q15 -18 16.5 -38t-9.5 -33.5t-26.5 -21t-35.5 -3t-35 22.5l-63 71q-2 5 -9 5z" />
<glyph unicode="&#xc3;" horiz-adv-x="824" d="M25 99l242 520q46 92 146 92q102 0 146 -92l240 -520q17 -36 -2.5 -70.5t-62.5 -34.5q-44 0 -65 43l-47 105h-420l-47 -105q-21 -43 -66 -43q-41 0 -61.5 33.5t-2.5 71.5zM399 574l-135 -296h297l-133 296q-6 10 -15 10q-8 0 -14 -10zM225 805q0 53 34.5 89t88.5 36 q57 0 105 -50q15 -15 20 -15q10 0 10 8q0 23 16 40t43 17q26 0 42.5 -17.5t16.5 -43.5q0 -53 -35 -88.5t-90 -35.5q-26 0 -48 9t-31.5 17t-26.5 25q-19 15 -20 15q-6 0 -6 -6q0 -29 -16.5 -44.5t-44.5 -15.5q-25 0 -41.5 18t-16.5 42z" />
<glyph unicode="&#xc4;" horiz-adv-x="824" d="M25 99l242 520q46 92 146 92q102 0 146 -92l240 -520q17 -36 -2.5 -70.5t-62.5 -34.5q-44 0 -65 43l-47 105h-420l-47 -105q-21 -43 -66 -43q-41 0 -61.5 33.5t-2.5 71.5zM399 574l-135 -296h297l-133 296q-6 10 -15 10q-8 0 -14 -10zM198 838q0 40 28.5 68t67.5 28 q40 0 68 -28t28 -68t-28 -68t-68 -28q-39 0 -67.5 28t-28.5 68zM433 838q0 40 28.5 68t67.5 28q40 0 68 -28t28 -68t-28 -68t-68 -28q-39 0 -67.5 28t-28.5 68z" />
<glyph unicode="&#xc5;" horiz-adv-x="824" d="M25 99l242 520q46 92 146 92q102 0 146 -92l240 -520q17 -36 -2.5 -70.5t-62.5 -34.5q-44 0 -65 43l-47 105h-420l-47 -105q-21 -43 -66 -43q-41 0 -61.5 33.5t-2.5 71.5zM399 574l-135 -296h297l-133 296q-6 10 -15 10q-8 0 -14 -10zM290 867q0 53 35.5 88t87.5 35 t87.5 -35t35.5 -88t-35.5 -88t-87.5 -35t-87.5 35t-35.5 88zM386 867q0 -12 8 -19.5t19 -7.5q12 0 19.5 7.5t7.5 19.5t-7.5 19.5t-19.5 7.5q-11 0 -19 -7.5t-8 -19.5z" />
<glyph unicode="&#xc6;" horiz-adv-x="1052" d="M527 0q-29 0 -50 21t-21 51v70h-254l-47 -105q-21 -43 -66 -43q-41 0 -61.5 33.5t-2.5 71.5l238 509q46 92 146 92h537q28 0 48 -20t20 -49q0 -28 -20 -48t-48 -20h-344v-145h267q28 0 48.5 -20t20.5 -48t-20.5 -48t-48.5 -20h-267v-145h344q28 0 48 -20t20 -48 t-20 -48.5t-48 -20.5h-419zM456 563h-44q-19 0 -25 -15l-123 -270h192v285z" />
<glyph unicode="&#xc7;" horiz-adv-x="774" d="M412 -133h-61q-35 0 -47 23.5t2 52.5l21 49q-130 21 -203 115t-73 243q0 162 97 263.5t261 101.5q108 0 188.5 -44t110.5 -114q17 -38 5 -62t-34.5 -36t-50.5 -7t-43 27q-72 95 -176 95q-98 0 -153 -60.5t-55 -163.5q0 -94 54.5 -158.5t147.5 -64.5q69 0 112 27t86 84 q16 24 43 29.5t48 -7t32 -36.5t-6 -58q-33 -71 -114.5 -123.5t-181.5 -56.5l-10 -22q61 -4 90 -35t29 -77q0 -49 -36 -79t-96 -30q-63 0 -93 27q-20 21 -19.5 43t22 35t49.5 1q24 -6 46 -6q26 0 26 15q0 9 -18 9z" />
<glyph unicode="&#xc8;" horiz-adv-x="726" d="M226 137h394q28 0 48 -19.5t20 -48.5t-20 -49t-48 -20h-469q-29 0 -50 21t-21 51v556q0 30 21 51t50 21h469q29 0 48.5 -20t19.5 -49t-20 -48.5t-48 -19.5h-394v-145h317q29 0 49 -20t20 -48t-20.5 -48t-48.5 -20h-317v-145zM339 771l-77 77q-21 21 -25 45t7.5 41 t29.5 27.5t41.5 6.5t42.5 -24l73 -80q19 -20 22.5 -43t-6.5 -40t-26.5 -27.5t-39.5 -6.5t-42 24z" />
<glyph unicode="&#xc9;" horiz-adv-x="726" d="M525 848l-77 -77q-19 -20 -42 -24t-39.5 6.5t-26.5 27.5t-6.5 40t22.5 43l73 80q19 20 42.5 24t41.5 -6.5t29.5 -27.5t7.5 -41t-25 -45zM226 137h394q28 0 48 -19.5t20 -48.5t-20 -49t-48 -20h-469q-29 0 -50 21t-21 51v556q0 30 21 51t50 21h469q29 0 48.5 -20t19.5 -49 t-20 -48.5t-48 -19.5h-394v-145h317q29 0 49 -20t20 -48t-20.5 -48t-48.5 -20h-317v-145z" />
<glyph unicode="&#xca;" horiz-adv-x="726" d="M391 834q-7 0 -9 -5l-62 -71q-16 -18 -36 -22.5t-35.5 3t-26.5 21t-9.5 33.5t16.5 38l64 72q37 45 98 45q60 0 98 -45l64 -72q15 -18 16.5 -38t-9.5 -33.5t-26.5 -21t-35.5 -3t-35 22.5l-63 71q-2 5 -9 5zM226 137h394q28 0 48 -19.5t20 -48.5t-20 -49t-48 -20h-469 q-29 0 -50 21t-21 51v556q0 30 21 51t50 21h469q29 0 48.5 -20t19.5 -49t-20 -48.5t-48 -19.5h-394v-145h317q29 0 49 -20t20 -48t-20.5 -48t-48.5 -20h-317v-145z" />
<glyph unicode="&#xcb;" horiz-adv-x="726" d="M177 838q0 40 28.5 68t67.5 28q40 0 68 -28t28 -68t-28 -68t-68 -28q-39 0 -67.5 28t-28.5 68zM412 838q0 40 28.5 68t67.5 28q40 0 68 -28t28 -68t-28 -68t-68 -28q-39 0 -67.5 28t-28.5 68zM226 137h394q28 0 48 -19.5t20 -48.5t-20 -49t-48 -20h-469q-29 0 -50 21 t-21 51v556q0 30 21 51t50 21h469q29 0 48.5 -20t19.5 -49t-20 -48.5t-48 -19.5h-394v-145h317q29 0 49 -20t20 -48t-20.5 -48t-48.5 -20h-317v-145z" />
<glyph unicode="&#xcc;" horiz-adv-x="306" d="M226 633v-565q0 -31 -21.5 -52.5t-51.5 -21.5t-51.5 21.5t-21.5 52.5v565q0 30 21.5 51.5t51.5 21.5t51.5 -21.5t21.5 -51.5zM101 771l-77 77q-21 21 -25 45t7.5 41t29.5 27.5t41.5 6.5t42.5 -24l73 -80q19 -20 22.5 -43t-6.5 -40t-26.5 -27.5t-39.5 -6.5t-42 24z" />
<glyph unicode="&#xcd;" horiz-adv-x="306" d="M226 633v-565q0 -31 -21.5 -52.5t-51.5 -21.5t-51.5 21.5t-21.5 52.5v565q0 30 21.5 51.5t51.5 21.5t51.5 -21.5t21.5 -51.5zM286 848l-77 -77q-19 -20 -42 -24t-39.5 6.5t-26.5 27.5t-6.5 40t22.5 43l73 80q19 20 42.5 24t41.5 -6.5t29.5 -27.5t7.5 -41t-25 -45z" />
<glyph unicode="&#xce;" horiz-adv-x="306" d="M226 633v-565q0 -31 -21.5 -52.5t-51.5 -21.5t-51.5 21.5t-21.5 52.5v565q0 30 21.5 51.5t51.5 21.5t51.5 -21.5t21.5 -51.5zM153 834q-7 0 -9 -5l-62 -71q-16 -18 -36 -22.5t-35.5 3t-26.5 21t-9.5 33.5t16.5 38l64 72q37 45 98 45q60 0 98 -45l64 -72q15 -18 16.5 -38 t-9.5 -33.5t-26.5 -21t-35.5 -3t-35 22.5l-63 71q-2 5 -9 5z" />
<glyph unicode="&#xcf;" horiz-adv-x="306" d="M226 633v-565q0 -31 -21.5 -52.5t-51.5 -21.5t-51.5 21.5t-21.5 52.5v565q0 30 21.5 51.5t51.5 21.5t51.5 -21.5t21.5 -51.5zM-61 838q0 40 28.5 68t67.5 28q40 0 68 -28t28 -68t-28 -68t-68 -28q-39 0 -67.5 28t-28.5 68zM174 838q0 40 28.5 68t67.5 28q40 0 68 -28 t28 -68t-28 -68t-68 -28q-39 0 -67.5 28t-28.5 68z" />
<glyph unicode="&#xd0;" horiz-adv-x="846" d="M368 273h-99v-205q0 -31 -21.5 -52.5t-51.5 -21.5t-51.5 21.5t-21.5 52.5v205h-22q-30 0 -50.5 18.5t-20.5 46.5t20.5 46t50.5 18h22v227q0 31 20 51t52 20h225q176 0 277 -97.5t101 -252.5t-101 -252.5t-277 -97.5h-19q-28 0 -48 20t-20 48t20 48t48 20h19 q111 0 171.5 59.5t60.5 154.5t-60.5 154.5t-171.5 59.5h-151v-162h99q29 0 50 -18t21 -46t-21 -46.5t-50 -18.5z" />
<glyph unicode="&#xd1;" horiz-adv-x="886" d="M495 83l-240 468q-5 9 -15 9q-14 0 -14 -16v-475q0 -35 -20 -55t-53 -20q-34 0 -53.5 20t-19.5 55v478q0 68 47.5 113t118.5 45q98 0 148 -94l237 -462q7 -9 16 -9q13 0 13 16v475q0 35 20.5 55t52.5 20q34 0 53.5 -20t19.5 -55v-478q0 -68 -47 -113t-119 -45 q-98 0 -145 88zM274 805q0 53 34.5 89t88.5 36q57 0 105 -50q15 -15 20 -15q10 0 10 8q0 23 16 40t43 17q26 0 42.5 -17.5t16.5 -43.5q0 -53 -35 -88.5t-90 -35.5q-26 0 -48 9t-31.5 17t-26.5 25q-19 15 -20 15q-6 0 -6 -6q0 -29 -16.5 -44.5t-44.5 -15.5q-25 0 -41.5 18 t-16.5 42z" />
<glyph unicode="&#xd2;" horiz-adv-x="805" d="M411 580q-101 0 -160 -63.5t-59 -166.5q0 -107 54 -168.5t145 -61.5q103 0 162 63t59 167q0 108 -53.5 169t-147.5 61zM411 715q157 0 249.5 -98t92.5 -267q0 -164 -98.5 -264.5t-263.5 -100.5q-154 0 -247 98.5t-93 266.5q0 163 98 264t262 101zM349 771l-77 77 q-21 21 -25 45t7.5 41t29.5 27.5t41.5 6.5t42.5 -24l73 -80q19 -20 22.5 -43t-6.5 -40t-26.5 -27.5t-39.5 -6.5t-42 24z" />
<glyph unicode="&#xd3;" horiz-adv-x="805" d="M534 848l-77 -77q-19 -20 -42 -24t-39.5 6.5t-26.5 27.5t-6.5 40t22.5 43l73 80q19 20 42.5 24t41.5 -6.5t29.5 -27.5t7.5 -41t-25 -45zM411 580q-101 0 -160 -63.5t-59 -166.5q0 -107 54 -168.5t145 -61.5q103 0 162 63t59 167q0 108 -53.5 169t-147.5 61zM411 715 q157 0 249.5 -98t92.5 -267q0 -164 -98.5 -264.5t-263.5 -100.5q-154 0 -247 98.5t-93 266.5q0 163 98 264t262 101z" />
<glyph unicode="&#xd4;" horiz-adv-x="805" d="M401 834q-7 0 -9 -5l-62 -71q-16 -18 -36 -22.5t-35.5 3t-26.5 21t-9.5 33.5t16.5 38l64 72q37 45 98 45q60 0 98 -45l64 -72q15 -18 16.5 -38t-9.5 -33.5t-26.5 -21t-35.5 -3t-35 22.5l-63 71q-2 5 -9 5zM411 580q-101 0 -160 -63.5t-59 -166.5q0 -107 54 -168.5 t145 -61.5q103 0 162 63t59 167q0 108 -53.5 169t-147.5 61zM411 715q157 0 249.5 -98t92.5 -267q0 -164 -98.5 -264.5t-263.5 -100.5q-154 0 -247 98.5t-93 266.5q0 163 98 264t262 101z" />
<glyph unicode="&#xd5;" horiz-adv-x="805" d="M411 580q-101 0 -160 -63.5t-59 -166.5q0 -107 54 -168.5t145 -61.5q103 0 162 63t59 167q0 108 -53.5 169t-147.5 61zM411 715q157 0 249.5 -98t92.5 -267q0 -164 -98.5 -264.5t-263.5 -100.5q-154 0 -247 98.5t-93 266.5q0 163 98 264t262 101zM213 805q0 53 34.5 89 t88.5 36q57 0 105 -50q15 -15 20 -15q10 0 10 8q0 23 16 40t43 17q26 0 42.5 -17.5t16.5 -43.5q0 -53 -35 -88.5t-90 -35.5q-26 0 -48 9t-31.5 17t-26.5 25q-19 15 -20 15q-6 0 -6 -6q0 -29 -16.5 -44.5t-44.5 -15.5q-25 0 -41.5 18t-16.5 42z" />
<glyph unicode="&#xd6;" horiz-adv-x="805" d="M186 838q0 40 28.5 68t67.5 28q40 0 68 -28t28 -68t-28 -68t-68 -28q-39 0 -67.5 28t-28.5 68zM421 838q0 40 28.5 68t67.5 28q40 0 68 -28t28 -68t-28 -68t-68 -28q-39 0 -67.5 28t-28.5 68zM411 580q-101 0 -160 -63.5t-59 -166.5q0 -107 54 -168.5t145 -61.5 q103 0 162 63t59 167q0 108 -53.5 169t-147.5 61zM411 715q157 0 249.5 -98t92.5 -267q0 -164 -98.5 -264.5t-263.5 -100.5q-154 0 -247 98.5t-93 266.5q0 163 98 264t262 101z" />
<glyph unicode="&#xd7;" horiz-adv-x="621" d="M85 136l133 136l-136 137q-19 23 -20 48.5t18.5 46t50.5 20.5q28 0 49 -20l133 -135l131 135q20 20 50 20q46 0 60.5 -41.5t-15.5 -70.5l-133 -137l135 -136q31 -30 15 -73.5t-62 -43.5q-29 0 -50 22l-133 134l-131 -134q-22 -22 -49 -22q-47 0 -62.5 41t16.5 73z" />
<glyph unicode="&#xd8;" horiz-adv-x="805" d="M411 715q157 0 249.5 -98t92.5 -267q0 -164 -98.5 -264.5t-263.5 -100.5q-154 0 -247 98.5t-93 266.5q0 163 98 264t262 101zM612 350q0 93 -42 154l-220 -381q19 -3 41 -3q103 0 162 63t59 167zM411 580q-101 0 -160 -63.5t-59 -166.5q0 -93 42 -154l219 380 q-19 4 -42 4z" />
<glyph unicode="&#xd9;" horiz-adv-x="788" d="M73 291v342q0 30 21.5 51.5t51.5 21.5t51.5 -21.5t21.5 -51.5v-326q0 -78 47 -127t128 -49q79 0 127.5 48.5t48.5 127.5v326q0 30 21.5 51.5t51.5 21.5t51.5 -21.5t21.5 -51.5v-342q0 -131 -90.5 -218.5t-231.5 -87.5q-140 0 -230.5 87.5t-90.5 218.5zM341 771l-77 77 q-21 21 -25 45t7.5 41t29.5 27.5t41.5 6.5t42.5 -24l73 -80q19 -20 22.5 -43t-6.5 -40t-26.5 -27.5t-39.5 -6.5t-42 24z" />
<glyph unicode="&#xda;" horiz-adv-x="788" d="M527 848l-77 -77q-19 -20 -42 -24t-39.5 6.5t-26.5 27.5t-6.5 40t22.5 43l73 80q19 20 42.5 24t41.5 -6.5t29.5 -27.5t7.5 -41t-25 -45zM73 291v342q0 30 21.5 51.5t51.5 21.5t51.5 -21.5t21.5 -51.5v-326q0 -78 47 -127t128 -49q79 0 127.5 48.5t48.5 127.5v326 q0 30 21.5 51.5t51.5 21.5t51.5 -21.5t21.5 -51.5v-342q0 -131 -90.5 -218.5t-231.5 -87.5q-140 0 -230.5 87.5t-90.5 218.5z" />
<glyph unicode="&#xdb;" horiz-adv-x="788" d="M393 834q-7 0 -9 -5l-62 -71q-16 -18 -36 -22.5t-35.5 3t-26.5 21t-9.5 33.5t16.5 38l64 72q37 45 98 45q60 0 98 -45l64 -72q15 -18 16.5 -38t-9.5 -33.5t-26.5 -21t-35.5 -3t-35 22.5l-63 71q-2 5 -9 5zM73 291v342q0 30 21.5 51.5t51.5 21.5t51.5 -21.5t21.5 -51.5 v-326q0 -78 47 -127t128 -49q79 0 127.5 48.5t48.5 127.5v326q0 30 21.5 51.5t51.5 21.5t51.5 -21.5t21.5 -51.5v-342q0 -131 -90.5 -218.5t-231.5 -87.5q-140 0 -230.5 87.5t-90.5 218.5z" />
<glyph unicode="&#xdc;" horiz-adv-x="788" d="M179 838q0 40 28.5 68t67.5 28q40 0 68 -28t28 -68t-28 -68t-68 -28q-39 0 -67.5 28t-28.5 68zM414 838q0 40 28.5 68t67.5 28q40 0 68 -28t28 -68t-28 -68t-68 -28q-39 0 -67.5 28t-28.5 68zM73 291v342q0 30 21.5 51.5t51.5 21.5t51.5 -21.5t21.5 -51.5v-326 q0 -78 47 -127t128 -49q79 0 127.5 48.5t48.5 127.5v326q0 30 21.5 51.5t51.5 21.5t51.5 -21.5t21.5 -51.5v-342q0 -131 -90.5 -218.5t-231.5 -87.5q-140 0 -230.5 87.5t-90.5 218.5z" />
<glyph unicode="&#xdd;" horiz-adv-x="703" d="M227 346l-214 243q-12 14 -14.5 34t4 38.5t24.5 31.5t45 13q31 0 53 -26l212 -243q4 -6 14 -6q9 0 14 6l212 243q23 26 53 26q27 0 45 -13t24.5 -31.5t4 -38.5t-14.5 -34l-213 -243q-21 -25 -51 -41v-236q0 -31 -22 -53t-52 -22t-52 22t-22 53v236q-30 15 -50 41z M484 848l-77 -77q-19 -20 -42 -24t-39.5 6.5t-26.5 27.5t-6.5 40t22.5 43l73 80q19 20 42.5 24t41.5 -6.5t29.5 -27.5t7.5 -41t-25 -45z" />
<glyph unicode="&#xde;" horiz-adv-x="694" d="M226 633v-23h182q108 0 184.5 -76.5t76.5 -184.5q0 -107 -77 -183t-184 -76h-45q-31 0 -52.5 21.5t-21.5 52.5q0 30 21.5 52t52.5 22h45q51 0 85 34t34 82q0 49 -34.5 84t-84.5 35h-182v-405q0 -31 -21.5 -52.5t-51.5 -21.5t-51.5 21.5t-21.5 52.5v565q0 30 21.5 51.5 t51.5 21.5t51.5 -21.5t21.5 -51.5z" />
<glyph unicode="&#xdf;" horiz-adv-x="796" d="M363 790q100 0 158.5 -50t58.5 -127q0 -42 -21 -78t-46 -55.5t-46 -40t-21 -35.5q0 -23 24 -35.5t59.5 -16t77.5 -14t77.5 -25.5t59.5 -53t24 -96q0 -79 -67 -128.5t-179 -49.5q-165 0 -236 64q-21 17 -27.5 38.5t1.5 38t23 28.5t38.5 11.5t47.5 -15.5q21 -13 63.5 -25 t83.5 -12q112 0 112 49q0 21 -24 33t-59.5 15.5t-77.5 14t-77.5 26.5t-59.5 54.5t-24 96.5q0 33 14 62t33.5 47.5t39 34t33.5 30t14 26.5q0 22 -20.5 36.5t-56.5 14.5q-143 0 -143 -161v-428q0 -29 -20.5 -50t-48.5 -21q-29 0 -50 21t-21 50v428q0 82 24.5 142t67 92.5 t90 47.5t101.5 15z" />
<glyph unicode="&#xe0;" d="M346 124q7 0 22 -3q36 2 56 -26t9 -61t-51 -41q-32 -2 -52 -2q-122 0 -204.5 77t-82.5 199q0 131 84.5 213.5t213.5 82.5q87 0 144 -39q22 29 58 29q28 0 48.5 -20.5t20.5 -48.5v-419q0 -29 -20.5 -50t-48.5 -21q-29 0 -50 21t-21 50v331q-49 35 -116 35q-82 0 -129 -42 t-47 -111q0 -73 44 -113.5t122 -40.5zM508 355q3 -3 0 3v-3zM306 639l-77 77q-21 21 -25 45t7.5 41t29.5 27.5t41.5 6.5t42.5 -24l73 -80q19 -20 22.5 -43t-6.5 -40t-26.5 -27.5t-39.5 -6.5t-42 24z" />
<glyph unicode="&#xe1;" d="M346 124q7 0 22 -3q36 2 56 -26t9 -61t-51 -41q-32 -2 -52 -2q-122 0 -204.5 77t-82.5 199q0 131 84.5 213.5t213.5 82.5q87 0 144 -39q22 29 58 29q28 0 48.5 -20.5t20.5 -48.5v-419q0 -29 -20.5 -50t-48.5 -21q-29 0 -50 21t-21 50v331q-49 35 -116 35q-82 0 -129 -42 t-47 -111q0 -73 44 -113.5t122 -40.5zM508 355q3 -3 0 3v-3zM491 716l-77 -77q-19 -20 -42 -24t-39.5 6.5t-26.5 27.5t-6.5 40t22.5 43l73 80q19 20 42.5 24t41.5 -6.5t29.5 -27.5t7.5 -41t-25 -45z" />
<glyph unicode="&#xe2;" d="M346 124q7 0 22 -3q36 2 56 -26t9 -61t-51 -41q-32 -2 -52 -2q-122 0 -204.5 77t-82.5 199q0 131 84.5 213.5t213.5 82.5q87 0 144 -39q22 29 58 29q28 0 48.5 -20.5t20.5 -48.5v-419q0 -29 -20.5 -50t-48.5 -21q-29 0 -50 21t-21 50v331q-49 35 -116 35q-82 0 -129 -42 t-47 -111q0 -73 44 -113.5t122 -40.5zM358 702q-7 0 -9 -5l-62 -71q-16 -18 -36 -22.5t-35.5 3t-26.5 21t-9.5 33.5t16.5 38l64 72q37 45 98 45q60 0 98 -45l64 -72q15 -18 16.5 -38t-9.5 -33.5t-26.5 -21t-35.5 -3t-35 22.5l-63 71q-2 5 -9 5zM508 355q3 -3 0 3v-3z" />
<glyph unicode="&#xe3;" d="M346 124q7 0 22 -3q36 2 56 -26t9 -61t-51 -41q-32 -2 -52 -2q-122 0 -204.5 77t-82.5 199q0 131 84.5 213.5t213.5 82.5q87 0 144 -39q22 29 58 29q28 0 48.5 -20.5t20.5 -48.5v-419q0 -29 -20.5 -50t-48.5 -21q-29 0 -50 21t-21 50v331q-49 35 -116 35q-82 0 -129 -42 t-47 -111q0 -73 44 -113.5t122 -40.5zM508 355q3 -3 0 3v-3zM170 673q0 53 34.5 89t88.5 36q57 0 105 -50q15 -15 20 -15q10 0 10 8q0 23 16 40t43 17q26 0 42.5 -17.5t16.5 -43.5q0 -53 -35 -88.5t-90 -35.5q-26 0 -48 9t-31.5 17t-26.5 25q-19 15 -20 15q-6 0 -6 -6 q0 -29 -16.5 -44.5t-44.5 -15.5q-25 0 -41.5 18t-16.5 42z" />
<glyph unicode="&#xe4;" d="M346 124q7 0 22 -3q36 2 56 -26t9 -61t-51 -41q-32 -2 -52 -2q-122 0 -204.5 77t-82.5 199q0 131 84.5 213.5t213.5 82.5q87 0 144 -39q22 29 58 29q28 0 48.5 -20.5t20.5 -48.5v-419q0 -29 -20.5 -50t-48.5 -21q-29 0 -50 21t-21 50v331q-49 35 -116 35q-82 0 -129 -42 t-47 -111q0 -73 44 -113.5t122 -40.5zM508 355q3 -3 0 3v-3zM143 706q0 40 28.5 68t67.5 28q40 0 68 -28t28 -68t-28 -68t-68 -28q-39 0 -67.5 28t-28.5 68zM378 706q0 40 28.5 68t67.5 28q40 0 68 -28t28 -68t-28 -68t-68 -28q-39 0 -67.5 28t-28.5 68z" />
<glyph unicode="&#xe5;" d="M346 124q7 0 22 -3q36 2 56 -26t9 -61t-51 -41q-32 -2 -52 -2q-122 0 -204.5 77t-82.5 199q0 131 84.5 213.5t213.5 82.5q87 0 144 -39q22 29 58 29q28 0 48.5 -20.5t20.5 -48.5v-419q0 -29 -20.5 -50t-48.5 -21q-29 0 -50 21t-21 50v331q-49 35 -116 35q-82 0 -129 -42 t-47 -111q0 -73 44 -113.5t122 -40.5zM235 735q0 53 35.5 88t87.5 35t87.5 -35t35.5 -88t-35.5 -88t-87.5 -35t-87.5 35t-35.5 88zM331 735q0 -12 8 -19.5t19 -7.5q12 0 19.5 7.5t7.5 19.5t-7.5 19.5t-19.5 7.5q-11 0 -19 -7.5t-8 -19.5zM508 355q3 -3 0 3v-3z" />
<glyph unicode="&#xe6;" horiz-adv-x="1098" d="M714 327h201q-7 49 -45.5 80.5t-94.5 31.5q-78 0 -120.5 -43.5t-42.5 -120.5q0 -78 47.5 -118.5t128.5 -40.5q68 0 118 24q29 24 54 21t42 -18t16.5 -42t-22.5 -51q-28 -26 -87 -45.5t-126 -19.5q-137 0 -221 79.5t-84 244.5v81q-49 41 -121 41q-82 0 -129.5 -42 t-47.5 -111q0 -73 44 -113.5t122 -40.5q2 0 5 -0.5t7.5 -1t9.5 -0.5q27 1 45.5 -16t22 -39.5t-10.5 -44.5t-44 -28q-18 -3 -51 -3q-122 0 -204.5 76.5t-82.5 198.5q0 131 85 214t214 83q92 0 146 -42q20 32 57 32q22 0 40 -14t24 -36q67 60 173 60q122 0 194.5 -77.5 t72.5 -191.5q0 -35 -21 -57.5t-54 -22.5h-260q-23 0 -39.5 16.5t-16.5 40.5q0 23 16.5 39.5t39.5 16.5z" />
<glyph unicode="&#xe7;" horiz-adv-x="631" d="M331 -133h-61q-35 0 -47 23.5t2 52.5l23 52q-96 23 -150.5 96.5t-54.5 181.5q0 123 80 206.5t221 83.5q74 0 138.5 -28.5t86.5 -68.5q21 -33 14 -58.5t-25.5 -41t-47.5 -11.5t-51 30q-43 47 -116 47q-78 0 -119.5 -42t-41.5 -117t41.5 -116t114.5 -41q48 0 84 20t54 49 q16 26 41.5 33t45 -5.5t29 -35t-6.5 -55.5q-26 -54 -94 -94t-150 -43l-10 -21q61 -4 90 -35t29 -77q0 -49 -36 -79t-96 -30q-63 0 -93 27q-20 21 -19.5 43t22 35t49.5 1q24 -6 46 -6q26 0 26 15q0 9 -18 9z" />
<glyph unicode="&#xe8;" horiz-adv-x="660" d="M538 214h-259q-24 0 -40.5 16.5t-16.5 40.5q0 23 16.5 39.5t40.5 16.5h200q-7 49 -45.5 80.5t-94.5 31.5q-70 0 -116.5 -46t-46.5 -118q0 -78 47.5 -118.5t128.5 -40.5q68 0 118 24q29 24 54 21t42.5 -18t17 -42t-23.5 -51q-28 -26 -87 -45.5t-126 -19.5 q-134 0 -219 72.5t-85 210.5q0 121 80.5 208t213.5 87q131 0 204 -77t73 -192q0 -35 -21 -57.5t-55 -22.5zM285 639l-77 77q-21 21 -25 45t7.5 41t29.5 27.5t41.5 6.5t42.5 -24l73 -80q19 -20 22.5 -43t-6.5 -40t-26.5 -27.5t-39.5 -6.5t-42 24z" />
<glyph unicode="&#xe9;" horiz-adv-x="660" d="M538 214h-259q-24 0 -40.5 16.5t-16.5 40.5q0 23 16.5 39.5t40.5 16.5h200q-7 49 -45.5 80.5t-94.5 31.5q-70 0 -116.5 -46t-46.5 -118q0 -78 47.5 -118.5t128.5 -40.5q68 0 118 24q29 24 54 21t42.5 -18t17 -42t-23.5 -51q-28 -26 -87 -45.5t-126 -19.5 q-134 0 -219 72.5t-85 210.5q0 121 80.5 208t213.5 87q131 0 204 -77t73 -192q0 -35 -21 -57.5t-55 -22.5zM471 716l-77 -77q-19 -20 -42 -24t-39.5 6.5t-26.5 27.5t-6.5 40t22.5 43l73 80q19 20 42.5 24t41.5 -6.5t29.5 -27.5t7.5 -41t-25 -45z" />
<glyph unicode="&#xea;" horiz-adv-x="660" d="M538 214h-259q-24 0 -40.5 16.5t-16.5 40.5q0 23 16.5 39.5t40.5 16.5h200q-7 49 -45.5 80.5t-94.5 31.5q-70 0 -116.5 -46t-46.5 -118q0 -78 47.5 -118.5t128.5 -40.5q68 0 118 24q29 24 54 21t42.5 -18t17 -42t-23.5 -51q-28 -26 -87 -45.5t-126 -19.5 q-134 0 -219 72.5t-85 210.5q0 121 80.5 208t213.5 87q131 0 204 -77t73 -192q0 -35 -21 -57.5t-55 -22.5zM337 702q-7 0 -9 -5l-62 -71q-16 -18 -36 -22.5t-35.5 3t-26.5 21t-9.5 33.5t16.5 38l64 72q37 45 98 45q60 0 98 -45l64 -72q15 -18 16.5 -38t-9.5 -33.5t-26.5 -21 t-35.5 -3t-35 22.5l-63 71q-2 5 -9 5z" />
<glyph unicode="&#xeb;" horiz-adv-x="660" d="M538 214h-259q-24 0 -40.5 16.5t-16.5 40.5q0 23 16.5 39.5t40.5 16.5h200q-7 49 -45.5 80.5t-94.5 31.5q-70 0 -116.5 -46t-46.5 -118q0 -78 47.5 -118.5t128.5 -40.5q68 0 118 24q29 24 54 21t42.5 -18t17 -42t-23.5 -51q-28 -26 -87 -45.5t-126 -19.5 q-134 0 -219 72.5t-85 210.5q0 121 80.5 208t213.5 87q131 0 204 -77t73 -192q0 -35 -21 -57.5t-55 -22.5zM358 706q0 40 28.5 68t67.5 28q40 0 68 -28t28 -68t-28 -68t-68 -28q-39 0 -67.5 28t-28.5 68zM123 706q0 40 28.5 68t67.5 28q40 0 68 -28t28 -68t-28 -68t-68 -28 q-39 0 -67.5 28t-28.5 68z" />
<glyph unicode="&#xec;" horiz-adv-x="300" d="M80 65v418q0 29 20.5 49.5t48.5 20.5q29 0 50 -20.5t21 -49.5v-418q0 -29 -21 -50t-50 -21q-28 0 -48.5 21t-20.5 50zM98 639l-77 77q-21 21 -25 45t7.5 41t29.5 27.5t41.5 6.5t42.5 -24l73 -80q19 -20 22.5 -43t-6.5 -40t-26.5 -27.5t-39.5 -6.5t-42 24z" />
<glyph unicode="&#xed;" horiz-adv-x="300" d="M283 716l-77 -77q-19 -20 -42 -24t-39.5 6.5t-26.5 27.5t-6.5 40t22.5 43l73 80q19 20 42.5 24t41.5 -6.5t29.5 -27.5t7.5 -41t-25 -45zM80 65v418q0 29 20.5 49.5t48.5 20.5q29 0 50 -20.5t21 -49.5v-418q0 -29 -21 -50t-50 -21q-28 0 -48.5 21t-20.5 50z" />
<glyph unicode="&#xee;" horiz-adv-x="300" d="M150 702q-7 0 -9 -5l-62 -71q-16 -18 -36 -22.5t-35.5 3t-26.5 21t-9.5 33.5t16.5 38l64 72q37 45 98 45q60 0 98 -45l64 -72q15 -18 16.5 -38t-9.5 -33.5t-26.5 -21t-35.5 -3t-35 22.5l-63 71q-2 5 -9 5zM80 65v418q0 29 20.5 49.5t48.5 20.5q29 0 50 -20.5t21 -49.5 v-418q0 -29 -21 -50t-50 -21q-28 0 -48.5 21t-20.5 50z" />
<glyph unicode="&#xef;" horiz-adv-x="300" d="M-65 706q0 40 28.5 68t67.5 28q40 0 68 -28t28 -68t-28 -68t-68 -28q-39 0 -67.5 28t-28.5 68zM170 706q0 40 28.5 68t67.5 28q40 0 68 -28t28 -68t-28 -68t-68 -28q-39 0 -67.5 28t-28.5 68zM80 65v418q0 29 20.5 49.5t48.5 20.5q29 0 50 -20.5t21 -49.5v-418 q0 -29 -21 -50t-50 -21q-28 0 -48.5 21t-20.5 50z" />
<glyph unicode="&#xf0;" horiz-adv-x="663" d="M470 690l-13 -10q81 -72 122 -171t41 -199q0 -153 -82.5 -239t-213.5 -86q-121 0 -201 76t-80 203q0 124 79 201.5t207 77.5q50 0 99 -23q-31 46 -81 82l-64 -45q-18 -12 -35.5 -12t-30 10.5t-18.5 24t-0.5 30.5t22.5 29l25 18l-19 8q-42 13 -49 47.5t22.5 58t76.5 10.5 q57 -19 90 -38l44 31q17 11 34.5 11t29 -11t17.5 -24.5t0.5 -30.5t-22.5 -29zM491 289q0 36 -5 74q-57 56 -147 56q-77 0 -118 -42t-41 -113t41 -111.5t113 -40.5q64 0 110.5 47.5t46.5 129.5z" />
<glyph unicode="&#xf1;" horiz-adv-x="695" d="M80 65v418q0 29 21 49.5t50 20.5q24 0 43.5 -16t23.5 -41q83 60 172 60q103 0 167.5 -63.5t64.5 -159.5v-268q0 -29 -20.5 -50t-48.5 -21q-29 0 -49.5 21t-20.5 50v230q0 62 -33 93t-92 31q-81 0 -138 -71v-283q0 -29 -20.5 -50t-48.5 -21q-29 0 -50 21t-21 50zM162 673 q0 53 34.5 89t88.5 36q57 0 105 -50q15 -15 20 -15q10 0 10 8q0 23 16 40t43 17q26 0 42.5 -17.5t16.5 -43.5q0 -53 -35 -88.5t-90 -35.5q-26 0 -48 9t-31.5 17t-26.5 25q-19 15 -20 15q-6 0 -6 -6q0 -29 -16.5 -44.5t-44.5 -15.5q-25 0 -41.5 18t-16.5 42z" />
<glyph unicode="&#xf2;" horiz-adv-x="663" d="M339 563q128 0 204.5 -78t76.5 -211q0 -130 -81 -209.5t-217 -79.5q-125 0 -202 78t-77 211q0 129 80.5 209t215.5 80zM329 109q73 0 113.5 45t40.5 120q0 79 -39 122t-105 43q-77 0 -118 -45t-41 -120q0 -81 39 -123t110 -42zM278 639l-77 77q-21 21 -25 45t7.5 41 t29.5 27.5t41.5 6.5t42.5 -24l73 -80q19 -20 22.5 -43t-6.5 -40t-26.5 -27.5t-39.5 -6.5t-42 24z" />
<glyph unicode="&#xf3;" horiz-adv-x="663" d="M464 716l-77 -77q-19 -20 -42 -24t-39.5 6.5t-26.5 27.5t-6.5 40t22.5 43l73 80q19 20 42.5 24t41.5 -6.5t29.5 -27.5t7.5 -41t-25 -45zM339 563q128 0 204.5 -78t76.5 -211q0 -130 -81 -209.5t-217 -79.5q-125 0 -202 78t-77 211q0 129 80.5 209t215.5 80zM329 109 q73 0 113.5 45t40.5 120q0 79 -39 122t-105 43q-77 0 -118 -45t-41 -120q0 -81 39 -123t110 -42z" />
<glyph unicode="&#xf4;" horiz-adv-x="663" d="M330 702q-7 0 -9 -5l-62 -71q-16 -18 -36 -22.5t-35.5 3t-26.5 21t-9.5 33.5t16.5 38l64 72q37 45 98 45q60 0 98 -45l64 -72q15 -18 16.5 -38t-9.5 -33.5t-26.5 -21t-35.5 -3t-35 22.5l-63 71q-2 5 -9 5zM339 563q128 0 204.5 -78t76.5 -211q0 -130 -81 -209.5 t-217 -79.5q-125 0 -202 78t-77 211q0 129 80.5 209t215.5 80zM329 109q73 0 113.5 45t40.5 120q0 79 -39 122t-105 43q-77 0 -118 -45t-41 -120q0 -81 39 -123t110 -42z" />
<glyph unicode="&#xf5;" horiz-adv-x="663" d="M339 563q128 0 204.5 -78t76.5 -211q0 -130 -81 -209.5t-217 -79.5q-125 0 -202 78t-77 211q0 129 80.5 209t215.5 80zM329 109q73 0 113.5 45t40.5 120q0 79 -39 122t-105 43q-77 0 -118 -45t-41 -120q0 -81 39 -123t110 -42zM142 673q0 53 34.5 89t88.5 36 q57 0 105 -50q15 -15 20 -15q10 0 10 8q0 23 16 40t43 17q26 0 42.5 -17.5t16.5 -43.5q0 -53 -35 -88.5t-90 -35.5q-26 0 -48 9t-31.5 17t-26.5 25q-19 15 -20 15q-6 0 -6 -6q0 -29 -16.5 -44.5t-44.5 -15.5q-25 0 -41.5 18t-16.5 42z" />
<glyph unicode="&#xf6;" horiz-adv-x="663" d="M116 706q0 40 28.5 68t67.5 28q40 0 68 -28t28 -68t-28 -68t-68 -28q-39 0 -67.5 28t-28.5 68zM351 706q0 40 28.5 68t67.5 28q40 0 68 -28t28 -68t-28 -68t-68 -28q-39 0 -67.5 28t-28.5 68zM339 563q128 0 204.5 -78t76.5 -211q0 -130 -81 -209.5t-217 -79.5 q-125 0 -202 78t-77 211q0 129 80.5 209t215.5 80zM329 109q73 0 113.5 45t40.5 120q0 79 -39 122t-105 43q-77 0 -118 -45t-41 -120q0 -81 39 -123t110 -42z" />
<glyph unicode="&#xf7;" horiz-adv-x="699" d="M251 93q0 41 29 70t69 29q41 0 70 -29t29 -70t-29 -70t-70 -29q-40 0 -69 29t-29 70zM251 453q0 41 29 70t69 29q41 0 70 -29t29 -70t-29 -70t-70 -29q-40 0 -69 29t-29 70zM558 205h-417q-29 0 -50 20.5t-21 48.5q0 29 21 49.5t50 20.5h417q29 0 50 -20.5t21 -49.5 q0 -28 -21 -48.5t-50 -20.5z" />
<glyph unicode="&#xf8;" horiz-adv-x="663" d="M339 563q128 0 204.5 -78t76.5 -211q0 -130 -81 -209.5t-217 -79.5q-125 0 -202 78t-77 211q0 129 80.5 209t215.5 80zM169 274q0 -74 30 -116l167 290q-18 2 -27 2q-82 0 -126 -48t-44 -128zM329 98q78 0 121.5 48t43.5 128q0 62 -25 106l-163 -281q7 -1 23 -1z" />
<glyph unicode="&#xf9;" horiz-adv-x="696" d="M616 483v-418q0 -29 -20.5 -50t-49.5 -21q-25 0 -44.5 16t-24.5 40q-82 -59 -171 -59q-103 0 -167.5 63t-64.5 160v269q0 29 20.5 49.5t48.5 20.5q29 0 50 -20.5t21 -49.5v-232q0 -62 33 -93t92 -31q78 0 137 70v286q0 29 20.5 49.5t49.5 20.5t49.5 -20.5t20.5 -49.5z M293 639l-77 77q-21 21 -25 45t7.5 41t29.5 27.5t41.5 6.5t42.5 -24l73 -80q19 -20 22.5 -43t-6.5 -40t-26.5 -27.5t-39.5 -6.5t-42 24z" />
<glyph unicode="&#xfa;" horiz-adv-x="696" d="M616 483v-418q0 -29 -20.5 -50t-49.5 -21q-25 0 -44.5 16t-24.5 40q-82 -59 -171 -59q-103 0 -167.5 63t-64.5 160v269q0 29 20.5 49.5t48.5 20.5q29 0 50 -20.5t21 -49.5v-232q0 -62 33 -93t92 -31q78 0 137 70v286q0 29 20.5 49.5t49.5 20.5t49.5 -20.5t20.5 -49.5z M478 716l-77 -77q-19 -20 -42 -24t-39.5 6.5t-26.5 27.5t-6.5 40t22.5 43l73 80q19 20 42.5 24t41.5 -6.5t29.5 -27.5t7.5 -41t-25 -45z" />
<glyph unicode="&#xfb;" horiz-adv-x="696" d="M616 483v-418q0 -29 -20.5 -50t-49.5 -21q-25 0 -44.5 16t-24.5 40q-82 -59 -171 -59q-103 0 -167.5 63t-64.5 160v269q0 29 20.5 49.5t48.5 20.5q29 0 50 -20.5t21 -49.5v-232q0 -62 33 -93t92 -31q78 0 137 70v286q0 29 20.5 49.5t49.5 20.5t49.5 -20.5t20.5 -49.5z M345 702q-7 0 -9 -5l-62 -71q-16 -18 -36 -22.5t-35.5 3t-26.5 21t-9.5 33.5t16.5 38l64 72q37 45 98 45q60 0 98 -45l64 -72q15 -18 16.5 -38t-9.5 -33.5t-26.5 -21t-35.5 -3t-35 22.5l-63 71q-2 5 -9 5z" />
<glyph unicode="&#xfc;" horiz-adv-x="696" d="M616 483v-418q0 -29 -20.5 -50t-49.5 -21q-25 0 -44.5 16t-24.5 40q-82 -59 -171 -59q-103 0 -167.5 63t-64.5 160v269q0 29 20.5 49.5t48.5 20.5q29 0 50 -20.5t21 -49.5v-232q0 -62 33 -93t92 -31q78 0 137 70v286q0 29 20.5 49.5t49.5 20.5t49.5 -20.5t20.5 -49.5z M365 706q0 40 28.5 68t67.5 28q40 0 68 -28t28 -68t-28 -68t-68 -28q-39 0 -67.5 28t-28.5 68zM130 706q0 40 28.5 68t67.5 28q40 0 68 -28t28 -68t-28 -68t-68 -28q-39 0 -67.5 28t-28.5 68z" />
<glyph unicode="&#xfd;" horiz-adv-x="634" d="M220 -97l40 95q-65 21 -91 84l-145 367q-16 37 4.5 70.5t59.5 33.5q48 0 66 -42l147 -385q1 -7 11 -9l169 393q8 19 25.5 30.5t38.5 11.5q39 0 59.5 -31.5t6.5 -65.5l-270 -606q-17 -37 -54.5 -39.5t-60.5 26t-6 67.5zM445 716l-77 -77q-19 -20 -42 -24t-39.5 6.5 t-26.5 27.5t-6.5 40t22.5 43l73 80q19 20 42.5 24t41.5 -6.5t29.5 -27.5t7.5 -41t-25 -45z" />
<glyph unicode="&#xfe;" horiz-adv-x="698" d="M351 430q-2 0 -5 0.5t-7.5 1t-9.5 0.5q-27 -1 -45.5 16t-22 39.5t10.5 44.5t44 28q18 3 51 3q122 0 204.5 -76.5t82.5 -198.5q0 -131 -85 -214t-214 -83q-78 0 -135 22v-133q0 -28 -20.5 -49t-48.5 -21q-29 0 -50 21t-21 49v841q0 28 21 48.5t50 20.5q28 0 48.5 -20.5 t20.5 -48.5v-569q44 -29 120 -29q82 0 129.5 42t47.5 111q0 73 -44 113.5t-122 40.5z" />
<glyph unicode="&#xff;" horiz-adv-x="634" d="M220 -97l40 95q-65 21 -91 84l-145 367q-16 37 4.5 70.5t59.5 33.5q48 0 66 -42l147 -385q1 -7 11 -9l169 393q8 19 25.5 30.5t38.5 11.5q39 0 59.5 -31.5t6.5 -65.5l-270 -606q-17 -37 -54.5 -39.5t-60.5 26t-6 67.5zM332 706q0 40 28.5 68t67.5 28q40 0 68 -28t28 -68 t-28 -68t-68 -28q-39 0 -67.5 28t-28.5 68zM97 706q0 40 28.5 68t67.5 28q40 0 68 -28t28 -68t-28 -68t-68 -28q-39 0 -67.5 28t-28.5 68z" />
<glyph unicode="&#x100;" horiz-adv-x="824" d="M25 99l242 520q46 92 146 92q102 0 146 -92l240 -520q17 -36 -2.5 -70.5t-62.5 -34.5q-44 0 -65 43l-47 105h-420l-47 -105q-21 -43 -66 -43q-41 0 -61.5 33.5t-2.5 71.5zM399 574l-135 -296h297l-133 296q-6 10 -15 10q-8 0 -14 -10zM533 786h-241q-28 0 -48.5 18.5 t-20.5 46.5q0 27 20.5 45.5t48.5 18.5h241q29 0 49 -18.5t20 -45.5q0 -28 -20 -46.5t-49 -18.5z" />
<glyph unicode="&#x101;" d="M346 124q7 0 22 -3q36 2 56 -26t9 -61t-51 -41q-32 -2 -52 -2q-122 0 -204.5 77t-82.5 199q0 131 84.5 213.5t213.5 82.5q87 0 144 -39q22 29 58 29q28 0 48.5 -20.5t20.5 -48.5v-419q0 -29 -20.5 -50t-48.5 -21q-29 0 -50 21t-21 50v331q-49 35 -116 35q-82 0 -129 -42 t-47 -111q0 -73 44 -113.5t122 -40.5zM478 654h-241q-28 0 -48.5 18.5t-20.5 46.5q0 27 20.5 45.5t48.5 18.5h241q29 0 49 -18.5t20 -45.5q0 -28 -20 -46.5t-49 -18.5zM508 355q3 -3 0 3v-3z" />
<glyph unicode="&#x102;" horiz-adv-x="824" d="M25 99l242 520q46 92 146 92q102 0 146 -92l240 -520q17 -36 -2.5 -70.5t-62.5 -34.5q-44 0 -65 43l-47 105h-420l-47 -105q-21 -43 -66 -43q-41 0 -61.5 33.5t-2.5 71.5zM244 879q0 30 19 49t45 19q25 0 41.5 -17t16.5 -39q0 -39 47 -39q53 0 53 39q0 22 16.5 39 t41.5 17q26 0 44.5 -19t18.5 -49q0 -60 -46 -104t-128 -44q-78 0 -123.5 42.5t-45.5 105.5zM399 574l-135 -296h297l-133 296q-6 10 -15 10q-8 0 -14 -10z" />
<glyph unicode="&#x103;" d="M346 124q7 0 22 -3q36 2 56 -26t9 -61t-51 -41q-32 -2 -52 -2q-122 0 -204.5 77t-82.5 199q0 131 84.5 213.5t213.5 82.5q87 0 144 -39q22 29 58 29q28 0 48.5 -20.5t20.5 -48.5v-419q0 -29 -20.5 -50t-48.5 -21q-29 0 -50 21t-21 50v331q-49 35 -116 35q-82 0 -129 -42 t-47 -111q0 -73 44 -113.5t122 -40.5zM508 355q3 -3 0 3v-3zM189 747q0 30 19 49t45 19q25 0 41.5 -17t16.5 -39q0 -39 47 -39q53 0 53 39q0 22 16.5 39t41.5 17q26 0 44.5 -19t18.5 -49q0 -60 -46 -104t-128 -44q-78 0 -123.5 42.5t-45.5 105.5z" />
<glyph unicode="&#x104;" horiz-adv-x="824" d="M25 99l242 520q46 92 146 92q102 0 146 -92l240 -520q15 -31 1.5 -63t-47.5 -40q-23 -16 -37.5 -39t-14.5 -42q0 -31 27 -31q14 0 38 6q27 12 49 -1t22.5 -35t-19.5 -43q-32 -27 -93 -27q-60 0 -96.5 31.5t-36.5 84.5q0 78 73 145l-43 97h-420l-47 -105q-21 -43 -66 -43 q-41 0 -61.5 33.5t-2.5 71.5zM399 574l-135 -296h297l-133 296q-6 10 -15 10q-8 0 -14 -10z" />
<glyph unicode="&#x105;" d="M346 124q7 0 22 -3q36 2 56 -26t9 -61t-51 -41q-32 -2 -52 -2q-122 0 -204.5 77t-82.5 199q0 131 84.5 213.5t213.5 82.5q87 0 144 -39q22 29 58 29q28 0 48.5 -20.5t20.5 -48.5v-419q0 -23 -14.5 -42t-35.5 -26q-24 -16 -38.5 -39.5t-14.5 -42.5q0 -31 27 -31q14 0 38 6 q27 12 49 -1t22.5 -35t-19.5 -43q-32 -27 -93 -27q-60 0 -96.5 31.5t-36.5 84.5q0 78 74 147q-2 12 -2 18v331q-49 35 -116 35q-82 0 -129 -42t-47 -111q0 -73 44 -113.5t122 -40.5zM508 355q3 -3 0 3v-3z" />
<glyph unicode="&#x106;" horiz-adv-x="774" d="M544 848l-77 -77q-19 -20 -42 -24t-39.5 6.5t-26.5 27.5t-6.5 40t22.5 43l73 80q19 20 42.5 24t41.5 -6.5t29.5 -27.5t7.5 -41t-25 -45zM403 127q69 0 112 27t86 84q16 24 43 29.5t48 -7t32 -36.5t-6 -58q-34 -74 -121 -127.5t-192 -53.5q-165 0 -259.5 97t-94.5 268 q0 162 97 263.5t261 101.5q108 0 188.5 -44t110.5 -114q17 -38 5 -62t-34.5 -36t-50.5 -7t-43 27q-72 95 -176 95q-98 0 -153 -60.5t-55 -163.5q0 -94 54.5 -158.5t147.5 -64.5z" />
<glyph unicode="&#x107;" horiz-adv-x="631" d="M472 716l-77 -77q-19 -20 -42 -24t-39.5 6.5t-26.5 27.5t-6.5 40t22.5 43l73 80q19 20 42.5 24t41.5 -6.5t29.5 -27.5t7.5 -41t-25 -45zM43 273q0 123 80 206.5t221 83.5q74 0 138.5 -28.5t86.5 -68.5q21 -33 14 -58.5t-25.5 -41t-47.5 -11.5t-51 30q-43 47 -116 47 q-78 0 -119.5 -42t-41.5 -117t41.5 -116t114.5 -41q48 0 84 20t54 49q16 26 41.5 33t45 -5.5t29 -35t-6.5 -55.5q-27 -56 -97.5 -96.5t-155.5 -40.5q-132 0 -210.5 78.5t-78.5 209.5z" />
<glyph unicode="&#x108;" horiz-adv-x="774" d="M410 834q-7 0 -9 -5l-62 -71q-16 -18 -36 -22.5t-35.5 3t-26.5 21t-9.5 33.5t16.5 38l64 72q37 45 98 45q60 0 98 -45l64 -72q15 -18 16.5 -38t-9.5 -33.5t-26.5 -21t-35.5 -3t-35 22.5l-63 71q-2 5 -9 5zM403 127q69 0 112 27t86 84q16 24 43 29.5t48 -7t32 -36.5 t-6 -58q-34 -74 -121 -127.5t-192 -53.5q-165 0 -259.5 97t-94.5 268q0 162 97 263.5t261 101.5q108 0 188.5 -44t110.5 -114q17 -38 5 -62t-34.5 -36t-50.5 -7t-43 27q-72 95 -176 95q-98 0 -153 -60.5t-55 -163.5q0 -94 54.5 -158.5t147.5 -64.5z" />
<glyph unicode="&#x109;" horiz-adv-x="631" d="M338 702q-7 0 -9 -5l-62 -71q-16 -18 -36 -22.5t-35.5 3t-26.5 21t-9.5 33.5t16.5 38l64 72q37 45 98 45q60 0 98 -45l64 -72q15 -18 16.5 -38t-9.5 -33.5t-26.5 -21t-35.5 -3t-35 22.5l-63 71q-2 5 -9 5zM43 273q0 123 80 206.5t221 83.5q74 0 138.5 -28.5t86.5 -68.5 q21 -33 14 -58.5t-25.5 -41t-47.5 -11.5t-51 30q-43 47 -116 47q-78 0 -119.5 -42t-41.5 -117t41.5 -116t114.5 -41q48 0 84 20t54 49q16 26 41.5 33t45 -5.5t29 -35t-6.5 -55.5q-27 -56 -97.5 -96.5t-155.5 -40.5q-132 0 -210.5 78.5t-78.5 209.5z" />
<glyph unicode="&#x10a;" horiz-adv-x="774" d="M403 127q69 0 112 27t86 84q16 24 43 29.5t48 -7t32 -36.5t-6 -58q-34 -74 -121 -127.5t-192 -53.5q-165 0 -259.5 97t-94.5 268q0 162 97 263.5t261 101.5q108 0 188.5 -44t110.5 -114q17 -38 5 -62t-34.5 -36t-50.5 -7t-43 27q-72 95 -176 95q-98 0 -153 -60.5 t-55 -163.5q0 -94 54.5 -158.5t147.5 -64.5zM314 837q0 40 28 68t68 28t68 -28t28 -68t-28 -68t-68 -28t-68 28t-28 68z" />
<glyph unicode="&#x10b;" horiz-adv-x="631" d="M43 273q0 123 80 206.5t221 83.5q74 0 138.5 -28.5t86.5 -68.5q21 -33 14 -58.5t-25.5 -41t-47.5 -11.5t-51 30q-43 47 -116 47q-78 0 -119.5 -42t-41.5 -117t41.5 -116t114.5 -41q48 0 84 20t54 49q16 26 41.5 33t45 -5.5t29 -35t-6.5 -55.5q-27 -56 -97.5 -96.5 t-155.5 -40.5q-132 0 -210.5 78.5t-78.5 209.5zM242 705q0 40 28 68t68 28t68 -28t28 -68t-28 -68t-68 -28t-68 28t-28 68z" />
<glyph unicode="&#x10c;" horiz-adv-x="774" d="M410 861q7 0 9 5l63 71q15 18 35 22.5t35.5 -3t26.5 -21t9.5 -33.5t-16.5 -38l-64 -72q-37 -45 -98 -45q-60 0 -98 45l-64 72q-15 18 -16.5 38t9.5 33.5t26.5 21t35.5 3t36 -22.5l62 -71q2 -5 9 -5zM403 127q69 0 112 27t86 84q16 24 43 29.5t48 -7t32 -36.5t-6 -58 q-34 -74 -121 -127.5t-192 -53.5q-165 0 -259.5 97t-94.5 268q0 162 97 263.5t261 101.5q108 0 188.5 -44t110.5 -114q17 -38 5 -62t-34.5 -36t-50.5 -7t-43 27q-72 95 -176 95q-98 0 -153 -60.5t-55 -163.5q0 -94 54.5 -158.5t147.5 -64.5z" />
<glyph unicode="&#x10d;" horiz-adv-x="631" d="M338 729q7 0 9 5l63 71q15 18 35 22.5t35.5 -3t26.5 -21t9.5 -33.5t-16.5 -38l-64 -72q-37 -45 -98 -45q-60 0 -98 45l-64 72q-15 18 -16.5 38t9.5 33.5t26.5 21t35.5 3t36 -22.5l62 -71q2 -5 9 -5zM43 273q0 123 80 206.5t221 83.5q74 0 138.5 -28.5t86.5 -68.5 q21 -33 14 -58.5t-25.5 -41t-47.5 -11.5t-51 30q-43 47 -116 47q-78 0 -119.5 -42t-41.5 -117t41.5 -116t114.5 -41q48 0 84 20t54 49q16 26 41.5 33t45 -5.5t29 -35t-6.5 -55.5q-27 -56 -97.5 -96.5t-155.5 -40.5q-132 0 -210.5 78.5t-78.5 209.5z" />
<glyph unicode="&#x10e;" horiz-adv-x="816" d="M386 861q7 0 9 5l63 71q15 18 35 22.5t35.5 -3t26.5 -21t9.5 -33.5t-16.5 -38l-64 -72q-37 -45 -98 -45q-60 0 -98 45l-64 72q-15 18 -16.5 38t9.5 33.5t26.5 21t35.5 3t36 -22.5l62 -71q2 -5 9 -5zM390 0h-19q-28 0 -48 20t-20 48t20 48t48 20h19q111 0 171.5 59.5 t60.5 154.5t-60.5 154.5t-171.5 59.5h-151v-496q0 -31 -21.5 -52.5t-51.5 -21.5t-51.5 21.5t-21.5 52.5v561q0 31 20 51t52 20h225q176 0 277 -97.5t101 -252.5t-101 -252.5t-277 -97.5z" />
<glyph unicode="&#x10f;" horiz-adv-x="717" d="M346 124q7 0 22 -3q36 2 56 -26t9 -61t-51 -41q-32 -2 -52 -2q-122 0 -204.5 77t-82.5 199q0 131 84.5 213.5t213.5 82.5q74 0 131 -19v177q0 28 21 48.5t50 20.5q28 0 48.5 -20.5t20.5 -48.5v-657q0 -29 -20.5 -50t-48.5 -21q-29 0 -50 21t-21 50v340q-48 27 -116 27 q-82 0 -129 -42t-47 -111q0 -73 44 -113.5t122 -40.5zM780 682l-25 -94q-7 -27 -24.5 -42.5t-37 -15.5t-37 8.5t-26 30t-2.5 48.5l21 99q7 28 25 44t39 16t39 -9t27 -32t1 -53zM508 374v1v-1zM508 530v-1v1z" />
<glyph unicode="&#x110;" horiz-adv-x="846" d="M368 273h-99v-205q0 -31 -21.5 -52.5t-51.5 -21.5t-51.5 21.5t-21.5 52.5v205h-22q-30 0 -50.5 18.5t-20.5 46.5t20.5 46t50.5 18h22v227q0 31 20 51t52 20h225q176 0 277 -97.5t101 -252.5t-101 -252.5t-277 -97.5h-19q-28 0 -48 20t-20 48t20 48t48 20h19 q111 0 171.5 59.5t60.5 154.5t-60.5 154.5t-171.5 59.5h-151v-162h99q29 0 50 -18t21 -46t-21 -46.5t-50 -18.5z" />
<glyph unicode="&#x111;" horiz-adv-x="704" d="M612 721v-22h28q22 0 37 -15t15 -37t-15 -36t-37 -14h-28v-533q0 -29 -20.5 -50t-48.5 -21q-29 0 -50 21t-21 50v340q-48 27 -116 27q-82 0 -129 -42t-47 -111q0 -73 44 -113.5t122 -40.5q7 0 22 -3q36 2 56 -26t9 -61t-51 -41q-32 -2 -52 -2q-122 0 -204.5 77t-82.5 199 q0 131 84.5 213.5t213.5 82.5q74 0 131 -19v53h-61q-22 0 -36.5 14t-14.5 36t14.5 37t36.5 15h61v22q0 28 21 48.5t50 20.5q28 0 48.5 -20.5t20.5 -48.5zM508 374v1v-1zM508 530v-1v1z" />
<glyph unicode="&#x112;" horiz-adv-x="726" d="M226 137h394q28 0 48 -19.5t20 -48.5t-20 -49t-48 -20h-469q-29 0 -50 21t-21 51v556q0 30 21 51t50 21h469q29 0 48.5 -20t19.5 -49t-20 -48.5t-48 -19.5h-394v-145h317q29 0 49 -20t20 -48t-20.5 -48t-48.5 -20h-317v-145zM511 786h-241q-28 0 -48.5 18.5t-20.5 46.5 q0 27 20.5 45.5t48.5 18.5h241q29 0 49 -18.5t20 -45.5q0 -28 -20 -46.5t-49 -18.5z" />
<glyph unicode="&#x113;" horiz-adv-x="660" d="M538 214h-259q-24 0 -40.5 16.5t-16.5 40.5q0 23 16.5 39.5t40.5 16.5h200q-7 49 -45.5 80.5t-94.5 31.5q-70 0 -116.5 -46t-46.5 -118q0 -78 47.5 -118.5t128.5 -40.5q68 0 118 24q29 24 54 21t42.5 -18t17 -42t-23.5 -51q-28 -26 -87 -45.5t-126 -19.5 q-134 0 -219 72.5t-85 210.5q0 121 80.5 208t213.5 87q131 0 204 -77t73 -192q0 -35 -21 -57.5t-55 -22.5zM458 654h-241q-28 0 -48.5 18.5t-20.5 46.5q0 27 20.5 45.5t48.5 18.5h241q29 0 49 -18.5t20 -45.5q0 -28 -20 -46.5t-49 -18.5z" />
<glyph unicode="&#x114;" horiz-adv-x="726" d="M226 137h394q28 0 48 -19.5t20 -48.5t-20 -49t-48 -20h-469q-29 0 -50 21t-21 51v556q0 30 21 51t50 21h469q29 0 48.5 -20t19.5 -49t-20 -48.5t-48 -19.5h-394v-145h317q29 0 49 -20t20 -48t-20.5 -48t-48.5 -20h-317v-145zM222 879q0 30 19 49t45 19q25 0 41.5 -17 t16.5 -39q0 -39 47 -39q53 0 53 39q0 22 16.5 39t41.5 17q26 0 44.5 -19t18.5 -49q0 -60 -46 -104t-128 -44q-78 0 -123.5 42.5t-45.5 105.5z" />
<glyph unicode="&#x115;" horiz-adv-x="660" d="M538 214h-259q-24 0 -40.5 16.5t-16.5 40.5q0 23 16.5 39.5t40.5 16.5h200q-7 49 -45.5 80.5t-94.5 31.5q-70 0 -116.5 -46t-46.5 -118q0 -78 47.5 -118.5t128.5 -40.5q68 0 118 24q29 24 54 21t42.5 -18t17 -42t-23.5 -51q-28 -26 -87 -45.5t-126 -19.5 q-134 0 -219 72.5t-85 210.5q0 121 80.5 208t213.5 87q131 0 204 -77t73 -192q0 -35 -21 -57.5t-55 -22.5zM168 747q0 30 19 49t45 19q25 0 41.5 -17t16.5 -39q0 -39 47 -39q53 0 53 39q0 22 16.5 39t41.5 17q26 0 44.5 -19t18.5 -49q0 -60 -46 -104t-128 -44 q-78 0 -123.5 42.5t-45.5 105.5z" />
<glyph unicode="&#x116;" horiz-adv-x="726" d="M226 137h394q28 0 48 -19.5t20 -48.5t-20 -49t-48 -20h-469q-29 0 -50 21t-21 51v556q0 30 21 51t50 21h469q29 0 48.5 -20t19.5 -49t-20 -48.5t-48 -19.5h-394v-145h317q29 0 49 -20t20 -48t-20.5 -48t-48.5 -20h-317v-145zM295 837q0 40 28 68t68 28t68 -28t28 -68 t-28 -68t-68 -28t-68 28t-28 68z" />
<glyph unicode="&#x117;" horiz-adv-x="660" d="M538 214h-259q-24 0 -40.5 16.5t-16.5 40.5q0 23 16.5 39.5t40.5 16.5h200q-7 49 -45.5 80.5t-94.5 31.5q-70 0 -116.5 -46t-46.5 -118q0 -78 47.5 -118.5t128.5 -40.5q68 0 118 24q29 24 54 21t42.5 -18t17 -42t-23.5 -51q-28 -26 -87 -45.5t-126 -19.5 q-134 0 -219 72.5t-85 210.5q0 121 80.5 208t213.5 87q131 0 204 -77t73 -192q0 -35 -21 -57.5t-55 -22.5zM241 705q0 40 28 68t68 28t68 -28t28 -68t-28 -68t-68 -28t-68 28t-28 68z" />
<glyph unicode="&#x118;" horiz-adv-x="726" d="M226 137h394q28 0 48 -19.5t20 -48.5q0 -25 -14.5 -43.5t-37.5 -23.5q-26 -15 -42 -39.5t-16 -45.5q0 -31 27 -31q14 0 38 6q27 12 49 -1t22.5 -35t-19.5 -43q-32 -27 -93 -27q-60 0 -96.5 31.5t-36.5 84.5q0 54 31 98h-349q-29 0 -50 21t-21 51v556q0 30 21 51t50 21 h469q29 0 48.5 -20t19.5 -49t-20 -48.5t-48 -19.5h-394v-145h317q29 0 49 -20t20 -48t-20.5 -48t-48.5 -20h-317v-145z" />
<glyph unicode="&#x119;" horiz-adv-x="660" d="M538 214h-259q-24 0 -40.5 16.5t-16.5 40.5q0 23 16.5 39.5t40.5 16.5h200q-7 49 -45.5 80.5t-94.5 31.5q-70 0 -116.5 -46t-46.5 -118q0 -78 47.5 -118.5t128.5 -40.5q68 0 118 24q29 24 54 21t42.5 -18t17 -42t-23.5 -51q-49 -45 -149 -60q-25 -15 -40 -39t-15 -44 q0 -31 27 -31q14 0 38 6q27 12 49 -1t22.5 -35t-19.5 -43q-32 -27 -93 -27q-60 0 -96.5 31.5t-36.5 84.5q0 52 31 99q-107 16 -171 87t-64 190q0 121 80.5 208t213.5 87q131 0 204 -77t73 -192q0 -35 -21 -57.5t-55 -22.5z" />
<glyph unicode="&#x11a;" horiz-adv-x="726" d="M391 861q7 0 9 5l63 71q15 18 35 22.5t35.5 -3t26.5 -21t9.5 -33.5t-16.5 -38l-64 -72q-37 -45 -98 -45q-60 0 -98 45l-64 72q-15 18 -16.5 38t9.5 33.5t26.5 21t35.5 3t36 -22.5l62 -71q2 -5 9 -5zM226 137h394q28 0 48 -19.5t20 -48.5t-20 -49t-48 -20h-469 q-29 0 -50 21t-21 51v556q0 30 21 51t50 21h469q29 0 48.5 -20t19.5 -49t-20 -48.5t-48 -19.5h-394v-145h317q29 0 49 -20t20 -48t-20.5 -48t-48.5 -20h-317v-145z" />
<glyph unicode="&#x11b;" horiz-adv-x="660" d="M538 214h-259q-24 0 -40.5 16.5t-16.5 40.5q0 23 16.5 39.5t40.5 16.5h200q-7 49 -45.5 80.5t-94.5 31.5q-70 0 -116.5 -46t-46.5 -118q0 -78 47.5 -118.5t128.5 -40.5q68 0 118 24q29 24 54 21t42.5 -18t17 -42t-23.5 -51q-28 -26 -87 -45.5t-126 -19.5 q-134 0 -219 72.5t-85 210.5q0 121 80.5 208t213.5 87q131 0 204 -77t73 -192q0 -35 -21 -57.5t-55 -22.5zM337 729q7 0 9 5l63 71q15 18 35 22.5t35.5 -3t26.5 -21t9.5 -33.5t-16.5 -38l-64 -72q-37 -45 -98 -45q-60 0 -98 45l-64 72q-15 18 -16.5 38t9.5 33.5t26.5 21 t35.5 3t36 -22.5l62 -71q2 -5 9 -5z" />
<glyph unicode="&#x11c;" horiz-adv-x="808" d="M411 834q-7 0 -9 -5l-62 -71q-16 -18 -36 -22.5t-35.5 3t-26.5 21t-9.5 33.5t16.5 38l64 72q37 45 98 45q60 0 98 -45l64 -72q15 -18 16.5 -38t-9.5 -33.5t-26.5 -21t-35.5 -3t-35 22.5l-63 71q-2 5 -9 5zM609 480q-69 94 -196 94q-105 0 -162 -60t-57 -164 q0 -109 59 -166.5t165 -57.5q81 0 133 38.5t63 91.5h-129q-30 0 -50.5 19t-20.5 49t20.5 49t50.5 19h170q50 0 74.5 -28t24.5 -75q0 -125 -100 -214.5t-245 -89.5q-170 0 -264 95.5t-94 269.5q0 157 94.5 261t267.5 104q116 0 198 -42.5t117 -115.5q18 -37 7 -61t-33 -36 t-50 -7t-43 27z" />
<glyph unicode="&#x11d;" horiz-adv-x="691" d="M346 144q2 0 5 -0.5t7.5 -1t9.5 -0.5q27 1 45.5 -16t22 -39.5t-10.5 -44.5t-44 -28q-18 -3 -51 -3q-122 0 -204.5 73.5t-82.5 191.5q0 128 82 207.5t211 79.5q86 0 146 -42q19 32 58 32q29 0 48.5 -19.5t19.5 -48.5v-406q0 -126 -78.5 -200.5t-226.5 -74.5q-99 0 -166 35 q-29 14 -38 39.5t2 45.5t32.5 31.5t53.5 -0.5q57 -22 121 -22q164 0 164 161v298q-53 39 -130 39q-75 0 -118.5 -39t-43.5 -104q0 -69 44 -106.5t122 -37.5zM360 702q-7 0 -9 -5l-62 -71q-16 -18 -36 -22.5t-35.5 3t-26.5 21t-9.5 33.5t16.5 38l64 72q37 45 98 45 q60 0 98 -45l64 -72q15 -18 16.5 -38t-9.5 -33.5t-26.5 -21t-35.5 -3t-35 22.5l-63 71q-2 5 -9 5zM508 349q2 -2 2 -1t-2 5v-4z" />
<glyph unicode="&#x11e;" horiz-adv-x="808" d="M609 480q-69 94 -196 94q-105 0 -162 -60t-57 -164q0 -109 59 -166.5t165 -57.5q81 0 133 38.5t63 91.5h-129q-30 0 -50.5 19t-20.5 49t20.5 49t50.5 19h170q50 0 74.5 -28t24.5 -75q0 -125 -100 -214.5t-245 -89.5q-170 0 -264 95.5t-94 269.5q0 157 94.5 261t267.5 104 q116 0 198 -42.5t117 -115.5q18 -37 7 -61t-33 -36t-50 -7t-43 27zM242 879q0 30 19 49t45 19q25 0 41.5 -17t16.5 -39q0 -39 47 -39q53 0 53 39q0 22 16.5 39t41.5 17q26 0 44.5 -19t18.5 -49q0 -60 -46 -104t-128 -44q-78 0 -123.5 42.5t-45.5 105.5z" />
<glyph unicode="&#x11f;" horiz-adv-x="691" d="M346 144q2 0 5 -0.5t7.5 -1t9.5 -0.5q27 1 45.5 -16t22 -39.5t-10.5 -44.5t-44 -28q-18 -3 -51 -3q-122 0 -204.5 73.5t-82.5 191.5q0 128 82 207.5t211 79.5q86 0 146 -42q19 32 58 32q29 0 48.5 -19.5t19.5 -48.5v-406q0 -126 -78.5 -200.5t-226.5 -74.5q-99 0 -166 35 q-29 14 -38 39.5t2 45.5t32.5 31.5t53.5 -0.5q57 -22 121 -22q164 0 164 161v298q-53 39 -130 39q-75 0 -118.5 -39t-43.5 -104q0 -69 44 -106.5t122 -37.5zM508 349q2 -2 2 -1t-2 5v-4zM191 747q0 30 19 49t45 19q25 0 41.5 -17t16.5 -39q0 -39 47 -39q53 0 53 39 q0 22 16.5 39t41.5 17q26 0 44.5 -19t18.5 -49q0 -60 -46 -104t-128 -44q-78 0 -123.5 42.5t-45.5 105.5z" />
<glyph unicode="&#x120;" horiz-adv-x="808" d="M609 480q-69 94 -196 94q-105 0 -162 -60t-57 -164q0 -109 59 -166.5t165 -57.5q81 0 133 38.5t63 91.5h-129q-30 0 -50.5 19t-20.5 49t20.5 49t50.5 19h170q50 0 74.5 -28t24.5 -75q0 -125 -100 -214.5t-245 -89.5q-170 0 -264 95.5t-94 269.5q0 157 94.5 261t267.5 104 q116 0 198 -42.5t117 -115.5q18 -37 7 -61t-33 -36t-50 -7t-43 27zM315 837q0 40 28 68t68 28t68 -28t28 -68t-28 -68t-68 -28t-68 28t-28 68z" />
<glyph unicode="&#x121;" horiz-adv-x="691" d="M346 144q2 0 5 -0.5t7.5 -1t9.5 -0.5q27 1 45.5 -16t22 -39.5t-10.5 -44.5t-44 -28q-18 -3 -51 -3q-122 0 -204.5 73.5t-82.5 191.5q0 128 82 207.5t211 79.5q86 0 146 -42q19 32 58 32q29 0 48.5 -19.5t19.5 -48.5v-406q0 -126 -78.5 -200.5t-226.5 -74.5q-99 0 -166 35 q-29 14 -38 39.5t2 45.5t32.5 31.5t53.5 -0.5q57 -22 121 -22q164 0 164 161v298q-53 39 -130 39q-75 0 -118.5 -39t-43.5 -104q0 -69 44 -106.5t122 -37.5zM508 349q2 -2 2 -1t-2 5v-4zM264 705q0 40 28 68t68 28t68 -28t28 -68t-28 -68t-68 -28t-68 28t-28 68z" />
<glyph unicode="&#x122;" horiz-adv-x="808" d="M481 -131l-25 -95q-7 -27 -24.5 -42t-37 -15t-37 8.5t-26 29.5t-2.5 48l21 100q7 27 25 43t39 16t39 -9t27 -32t1 -52zM609 480q-69 94 -196 94q-105 0 -162 -60t-57 -164q0 -109 59 -166.5t165 -57.5q81 0 133 38.5t63 91.5h-129q-30 0 -50.5 19t-20.5 49t20.5 49 t50.5 19h170q50 0 74.5 -28t24.5 -75q0 -125 -100 -214.5t-245 -89.5q-170 0 -264 95.5t-94 269.5q0 157 94.5 261t267.5 104q116 0 198 -42.5t117 -115.5q18 -37 7 -61t-33 -36t-50 -7t-43 27z" />
<glyph unicode="&#x123;" horiz-adv-x="691" d="M346 144q2 0 5 -0.5t7.5 -1t9.5 -0.5q27 1 45.5 -16t22 -39.5t-10.5 -44.5t-44 -28q-18 -3 -51 -3q-122 0 -204.5 73.5t-82.5 191.5q0 128 82 207.5t211 79.5q86 0 146 -42q19 32 58 32q29 0 48.5 -19.5t19.5 -48.5v-406q0 -126 -78.5 -200.5t-226.5 -74.5q-99 0 -166 35 q-29 14 -38 39.5t2 45.5t32.5 31.5t53.5 -0.5q57 -22 121 -22q164 0 164 161v298q-53 39 -130 39q-75 0 -118.5 -39t-43.5 -104q0 -69 44 -106.5t122 -37.5zM440 764l-25 -95q-7 -27 -24.5 -42t-37 -15t-37 8.5t-26 29.5t-2.5 48l21 100q7 27 25 43t39 16t39 -9t27 -32 t1 -52zM508 349q2 -2 2 -1t-2 5v-4z" />
<glyph unicode="&#x124;" horiz-adv-x="805" d="M725 633v-565q0 -31 -21.5 -52.5t-51.5 -21.5t-51.5 21.5t-21.5 52.5v214h-353v-214q0 -31 -21.5 -52.5t-51.5 -21.5t-51.5 21.5t-21.5 52.5v565q0 30 21.5 51.5t51.5 21.5t51.5 -21.5t21.5 -51.5v-215h353v215q0 30 21.5 51.5t51.5 21.5t51.5 -21.5t21.5 -51.5zM402 834 q-7 0 -9 -5l-62 -71q-16 -18 -36 -22.5t-35.5 3t-26.5 21t-9.5 33.5t16.5 38l64 72q37 45 98 45q60 0 98 -45l64 -72q15 -18 16.5 -38t-9.5 -33.5t-26.5 -21t-35.5 -3t-35 22.5l-63 71q-2 5 -9 5z" />
<glyph unicode="&#x125;" horiz-adv-x="698" d="M80 65v655q0 29 21 49.5t50 20.5q28 0 48.5 -20.5t20.5 -49.5v-225q79 61 168 61q104 0 170.5 -64t66.5 -162v-265q0 -29 -20.5 -50t-48.5 -21q-29 0 -50 21t-21 50v228q0 63 -34.5 94.5t-94.5 31.5q-78 0 -136 -67v-287q0 -29 -20.5 -50t-48.5 -21q-29 0 -50 21t-21 50z M151 927q-7 0 -9 -5l-62 -71q-16 -18 -36 -22.5t-35.5 3t-26.5 21t-9.5 33.5t16.5 38l64 72q37 45 98 45q60 0 98 -45l64 -72q15 -18 16.5 -38t-9.5 -33.5t-26.5 -21t-35.5 -3t-35 22.5l-63 71q-2 5 -9 5z" />
<glyph unicode="&#x126;" horiz-adv-x="890" d="M767 633v-27h24q29 0 49 -18.5t20 -45.5q0 -28 -20 -46t-49 -18h-24v-410q0 -31 -21.5 -52.5t-51.5 -21.5t-51.5 21.5t-21.5 52.5v214h-353v-214q0 -31 -21.5 -52.5t-51.5 -21.5t-51.5 21.5t-21.5 52.5v410h-23q-28 0 -48.5 18t-20.5 46q0 27 20.5 45.5t48.5 18.5h23v27 q0 30 21.5 51.5t51.5 21.5t51.5 -21.5t21.5 -51.5v-27h353v27q0 30 21.5 51.5t51.5 21.5t51.5 -21.5t21.5 -51.5zM268 418h353v60h-353v-60z" />
<glyph unicode="&#x127;" horiz-adv-x="711" d="M92 65v532h-27q-22 0 -36.5 14t-14.5 36t14.5 37t36.5 15h27v21q0 29 21 49.5t50 20.5q28 0 48.5 -20.5t20.5 -49.5v-21h62q22 0 37 -15t15 -37t-15 -36t-37 -14h-62v-102q79 61 168 61q104 0 170.5 -64t66.5 -162v-265q0 -29 -20.5 -50t-48.5 -21q-29 0 -50 21t-21 50 v228q0 63 -34.5 94.5t-94.5 31.5q-78 0 -136 -67v-287q0 -29 -20.5 -50t-48.5 -21q-29 0 -50 21t-21 50z" />
<glyph unicode="&#x128;" horiz-adv-x="306" d="M226 633v-565q0 -31 -21.5 -52.5t-51.5 -21.5t-51.5 21.5t-21.5 52.5v565q0 30 21.5 51.5t51.5 21.5t51.5 -21.5t21.5 -51.5zM-35 805q0 53 34.5 89t88.5 36q57 0 105 -50q15 -15 20 -15q10 0 10 8q0 23 16 40t43 17q26 0 42.5 -17.5t16.5 -43.5q0 -53 -35 -88.5 t-90 -35.5q-26 0 -48 9t-31.5 17t-26.5 25q-19 15 -20 15q-6 0 -6 -6q0 -29 -16.5 -44.5t-44.5 -15.5q-25 0 -41.5 18t-16.5 42z" />
<glyph unicode="&#x129;" horiz-adv-x="300" d="M80 65v418q0 29 20.5 49.5t48.5 20.5q29 0 50 -20.5t21 -49.5v-418q0 -29 -21 -50t-50 -21q-28 0 -48.5 21t-20.5 50zM-38 673q0 53 34.5 89t88.5 36q57 0 105 -50q15 -15 20 -15q10 0 10 8q0 23 16 40t43 17q26 0 42.5 -17.5t16.5 -43.5q0 -53 -35 -88.5t-90 -35.5 q-26 0 -48 9t-31.5 17t-26.5 25q-19 15 -20 15q-6 0 -6 -6q0 -29 -16.5 -44.5t-44.5 -15.5q-25 0 -41.5 18t-16.5 42z" />
<glyph unicode="&#x12a;" horiz-adv-x="306" d="M226 633v-565q0 -31 -21.5 -52.5t-51.5 -21.5t-51.5 21.5t-21.5 52.5v565q0 30 21.5 51.5t51.5 21.5t51.5 -21.5t21.5 -51.5zM274 786h-241q-28 0 -48.5 18.5t-20.5 46.5q0 27 20.5 45.5t48.5 18.5h241q29 0 49 -18.5t20 -45.5q0 -28 -20 -46.5t-49 -18.5z" />
<glyph unicode="&#x12b;" horiz-adv-x="300" d="M80 65v418q0 29 20.5 49.5t48.5 20.5q29 0 50 -20.5t21 -49.5v-418q0 -29 -21 -50t-50 -21q-28 0 -48.5 21t-20.5 50zM270 654h-241q-28 0 -48.5 18.5t-20.5 46.5q0 27 20.5 45.5t48.5 18.5h241q29 0 49 -18.5t20 -45.5q0 -28 -20 -46.5t-49 -18.5z" />
<glyph unicode="&#x12c;" horiz-adv-x="306" d="M226 633v-565q0 -31 -21.5 -52.5t-51.5 -21.5t-51.5 21.5t-21.5 52.5v565q0 30 21.5 51.5t51.5 21.5t51.5 -21.5t21.5 -51.5zM-16 879q0 30 19 49t45 19q25 0 41.5 -17t16.5 -39q0 -39 47 -39q53 0 53 39q0 22 16.5 39t41.5 17q26 0 44.5 -19t18.5 -49q0 -60 -46 -104 t-128 -44q-78 0 -123.5 42.5t-45.5 105.5z" />
<glyph unicode="&#x12d;" horiz-adv-x="300" d="M80 65v418q0 29 20.5 49.5t48.5 20.5q29 0 50 -20.5t21 -49.5v-418q0 -29 -21 -50t-50 -21q-28 0 -48.5 21t-20.5 50zM-20 747q0 30 19 49t45 19q25 0 41.5 -17t16.5 -39q0 -39 47 -39q53 0 53 39q0 22 16.5 39t41.5 17q26 0 44.5 -19t18.5 -49q0 -60 -46 -104t-128 -44 q-78 0 -123.5 42.5t-45.5 105.5z" />
<glyph unicode="&#x12e;" horiz-adv-x="306" d="M226 633v-565q0 -24 -13.5 -42.5t-34.5 -26.5q-25 -16 -39.5 -39.5t-14.5 -43.5q0 -31 27 -31q14 0 38 6q27 12 49 -1t22.5 -35t-19.5 -43q-32 -27 -93 -27q-60 0 -96.5 31.5t-36.5 84.5q0 76 69 142q-4 11 -4 25v565q0 30 21.5 51.5t51.5 21.5t51.5 -21.5t21.5 -51.5z " />
<glyph unicode="&#x12f;" horiz-adv-x="300" d="M80 65v418q0 29 20.5 49.5t48.5 20.5q29 0 50 -20.5t21 -49.5v-418q0 -24 -14 -42t-35 -25q-25 -16 -39.5 -39.5t-14.5 -43.5q0 -31 27 -31q14 0 38 6q27 12 49 -1t22.5 -35t-19.5 -43q-32 -27 -93 -27q-60 0 -96.5 31.5t-36.5 84.5q0 78 74 146q-2 12 -2 19zM60 715 q0 37 26 63.5t63 26.5q38 0 64.5 -26.5t26.5 -63.5q0 -38 -26.5 -64.5t-64.5 -26.5q-37 0 -63 26.5t-26 64.5z" />
<glyph unicode="&#x130;" horiz-adv-x="306" d="M226 633v-565q0 -31 -21.5 -52.5t-51.5 -21.5t-51.5 21.5t-21.5 52.5v565q0 30 21.5 51.5t51.5 21.5t51.5 -21.5t21.5 -51.5zM57 837q0 40 28 68t68 28t68 -28t28 -68t-28 -68t-68 -28t-68 28t-28 68z" />
<glyph unicode="&#x131;" horiz-adv-x="300" d="M80 65v418q0 29 20.5 49.5t48.5 20.5q29 0 50 -20.5t21 -49.5v-418q0 -29 -21 -50t-50 -21q-28 0 -48.5 21t-20.5 50z" />
<glyph unicode="&#x134;" horiz-adv-x="326" d="M173 834q-7 0 -9 -5l-62 -71q-16 -18 -36 -22.5t-35.5 3t-26.5 21t-9.5 33.5t16.5 38l64 72q37 45 98 45q60 0 98 -45l64 -72q15 -18 16.5 -38t-9.5 -33.5t-26.5 -21t-35.5 -3t-35 22.5l-63 71q-2 5 -9 5zM100 258v375q0 30 21.5 51.5t51.5 21.5t51.5 -21.5t21.5 -51.5 v-375q0 -73 -28.5 -141t-66.5 -99q-33 -26 -61.5 -22t-47.5 21.5t-16.5 49t31.5 58.5q43 41 43 133z" />
<glyph unicode="&#x135;" horiz-adv-x="300" d="M80 46v438q0 28 21 48.5t50 20.5q28 0 48.5 -20.5t20.5 -48.5v-438q0 -71 -27.5 -132.5t-65.5 -87.5q-23 -16 -52 -16q-50 0 -62 44.5t25 75.5q42 36 42 116zM151 702q-7 0 -9 -5l-62 -71q-16 -18 -36 -22.5t-35.5 3t-26.5 21t-9.5 33.5t16.5 38l64 72q37 45 98 45 q60 0 98 -45l64 -72q15 -18 16.5 -38t-9.5 -33.5t-26.5 -21t-35.5 -3t-35 22.5l-63 71q-2 5 -9 5z" />
<glyph unicode="&#x136;" horiz-adv-x="725" d="M554 685q20 21 49 21q48 0 65 -42t-16 -76l-222 -233l239 -234q24 -23 24.5 -53.5t-20 -52t-51.5 -21.5q-27 0 -49 22l-287 281q-19 19 -19 53q0 32 19 53zM226 633v-565q0 -31 -21.5 -52.5t-51.5 -21.5t-51.5 21.5t-21.5 52.5v565q0 30 21.5 51.5t51.5 21.5t51.5 -21.5 t21.5 -51.5zM441 -131l-25 -95q-7 -27 -24.5 -42t-37 -15t-37 8.5t-26 29.5t-2.5 48l21 100q7 27 25 43t39 16t39 -9t27 -32t1 -52z" />
<glyph unicode="&#x137;" horiz-adv-x="625" d="M220 720v-655q0 -29 -20.5 -50t-48.5 -21q-29 0 -50 21t-21 50v655q0 29 21 49.5t50 20.5q28 0 48.5 -20.5t20.5 -49.5zM469 531q21 21 50 21q46 0 60.5 -41.5t-15.5 -71.5l-159 -165l163 -160q34 -31 18 -75.5t-63 -44.5q-27 0 -49 22l-204 200q-19 19 -19 53 q0 32 19 53zM394 -131l-25 -95q-7 -27 -24.5 -42t-37 -15t-37 8.5t-26 29.5t-2.5 48l21 100q7 27 25 43t39 16t39 -9t27 -32t1 -52z" />
<glyph unicode="&#x139;" horiz-adv-x="663" d="M286 848l-77 -77q-19 -20 -42 -24t-39.5 6.5t-26.5 27.5t-6.5 40t22.5 43l73 80q19 20 42.5 24t41.5 -6.5t29.5 -27.5t7.5 -41t-25 -45zM226 633v-496h369q29 0 48.5 -20t19.5 -49q0 -28 -20 -48t-48 -20h-444q-29 0 -50 21t-21 51v561q0 30 21.5 51.5t51.5 21.5 t51.5 -21.5t21.5 -51.5z" />
<glyph unicode="&#x13a;" horiz-adv-x="300" d="M284 941l-77 -77q-19 -20 -42 -24t-39.5 6.5t-26.5 27.5t-6.5 40t22.5 43l73 80q19 20 42.5 24t41.5 -6.5t29.5 -27.5t7.5 -41t-25 -45zM220 720v-655q0 -29 -20.5 -50t-48.5 -21q-29 0 -50 21t-21 50v655q0 29 21 49.5t50 20.5q28 0 48.5 -20.5t20.5 -49.5z" />
<glyph unicode="&#x13b;" horiz-adv-x="663" d="M454 -131l-25 -95q-7 -27 -24.5 -42t-37 -15t-37 8.5t-26 29.5t-2.5 48l21 100q7 27 25 43t39 16t39 -9t27 -32t1 -52zM226 633v-496h369q29 0 48.5 -20t19.5 -49q0 -28 -20 -48t-48 -20h-444q-29 0 -50 21t-21 51v561q0 30 21.5 51.5t51.5 21.5t51.5 -21.5t21.5 -51.5z " />
<glyph unicode="&#x13c;" horiz-adv-x="300" d="M218 -131l-25 -95q-7 -27 -24.5 -42t-37 -15t-37 8.5t-26 29.5t-2.5 48l21 100q7 27 25 43t39 16t39 -9t27 -32t1 -52zM220 720v-655q0 -29 -20.5 -50t-48.5 -21q-29 0 -50 21t-21 50v655q0 29 21 49.5t50 20.5q28 0 48.5 -20.5t20.5 -49.5z" />
<glyph unicode="&#x13d;" horiz-adv-x="663" d="M446 612l-25 -94q-7 -27 -24.5 -42.5t-37 -15.5t-37 8.5t-26 30t-2.5 48.5l21 99q7 28 25 44t39 16t39 -9t27 -32t1 -53zM226 633v-496h369q29 0 48.5 -20t19.5 -49q0 -28 -20 -48t-48 -20h-444q-29 0 -50 21t-21 51v561q0 30 21.5 51.5t51.5 21.5t51.5 -21.5t21.5 -51.5 z" />
<glyph unicode="&#x13e;" horiz-adv-x="325" d="M388 682l-25 -94q-7 -27 -24.5 -42.5t-37 -15.5t-37 8.5t-26 30t-2.5 48.5l21 99q7 28 25 44t39 16t39 -9t27 -32t1 -53zM220 720v-655q0 -29 -20.5 -50t-48.5 -21q-29 0 -50 21t-21 50v655q0 29 21 49.5t50 20.5q28 0 48.5 -20.5t20.5 -49.5z" />
<glyph unicode="&#x13f;" horiz-adv-x="663" d="M226 633v-496h369q29 0 48.5 -20t19.5 -49q0 -28 -20 -48t-48 -20h-444q-29 0 -50 21t-21 51v561q0 30 21.5 51.5t51.5 21.5t51.5 -21.5t21.5 -51.5zM383 350q0 41 29 70t69 29q41 0 70 -29t29 -70t-29 -70t-70 -29q-40 0 -69 29t-29 70z" />
<glyph unicode="&#x140;" horiz-adv-x="492" d="M220 720v-655q0 -29 -20.5 -50t-48.5 -21q-29 0 -50 21t-21 50v655q0 29 21 49.5t50 20.5q28 0 48.5 -20.5t20.5 -49.5zM297 273q0 41 29 70t69 29q41 0 70 -29t29 -70t-29 -70t-70 -29q-40 0 -69 29t-29 70z" />
<glyph unicode="&#x141;" horiz-adv-x="705" d="M268 633v-153l40 28q17 11 34.5 11t29 -11t17.5 -24.5t0.5 -30.5t-22.5 -29l-99 -69v-218h369q29 0 48.5 -20t19.5 -49q0 -28 -20 -48t-48 -20h-444q-29 0 -50 21t-21 51v181l-26 -18q-18 -12 -35.5 -12.5t-29.5 10t-18 24t-0.5 30.5t22.5 29l87 61v256q0 30 21.5 51.5 t51.5 21.5t51.5 -21.5t21.5 -51.5z" />
<glyph unicode="&#x142;" horiz-adv-x="385" d="M262 720v-226l38 27q17 11 34.5 11t29 -11t17.5 -24.5t0.5 -30.5t-22.5 -29l-97 -68v-304q0 -29 -20.5 -50t-48.5 -21q-29 0 -50 21t-21 50v206l-34 -24q-18 -12 -36 -12t-30 10.5t-18 24t-0.5 30.5t22.5 29l96 67v324q0 29 21 49.5t50 20.5q28 0 48.5 -20.5t20.5 -49.5z " />
<glyph unicode="&#x143;" horiz-adv-x="886" d="M596 848l-77 -77q-19 -20 -42 -24t-39.5 6.5t-26.5 27.5t-6.5 40t22.5 43l73 80q19 20 42.5 24t41.5 -6.5t29.5 -27.5t7.5 -41t-25 -45zM495 83l-240 468q-5 9 -15 9q-14 0 -14 -16v-475q0 -35 -20 -55t-53 -20q-34 0 -53.5 20t-19.5 55v478q0 68 47.5 113t118.5 45 q98 0 148 -94l237 -462q7 -9 16 -9q13 0 13 16v475q0 35 20.5 55t52.5 20q34 0 53.5 -20t19.5 -55v-478q0 -68 -47 -113t-119 -45q-98 0 -145 88z" />
<glyph unicode="&#x144;" horiz-adv-x="695" d="M80 65v418q0 29 21 49.5t50 20.5q24 0 43.5 -16t23.5 -41q83 60 172 60q103 0 167.5 -63.5t64.5 -159.5v-268q0 -29 -20.5 -50t-48.5 -21q-29 0 -49.5 21t-20.5 50v230q0 62 -33 93t-92 31q-81 0 -138 -71v-283q0 -29 -20.5 -50t-48.5 -21q-29 0 -50 21t-21 50zM483 716 l-77 -77q-19 -20 -42 -24t-39.5 6.5t-26.5 27.5t-6.5 40t22.5 43l73 80q19 20 42.5 24t41.5 -6.5t29.5 -27.5t7.5 -41t-25 -45z" />
<glyph unicode="&#x145;" horiz-adv-x="886" d="M518 -131l-25 -95q-7 -27 -24.5 -42t-37 -15t-37 8.5t-26 29.5t-2.5 48l21 100q7 27 25 43t39 16t39 -9t27 -32t1 -52zM495 83l-240 468q-5 9 -15 9q-14 0 -14 -16v-475q0 -35 -20 -55t-53 -20q-34 0 -53.5 20t-19.5 55v478q0 68 47.5 113t118.5 45q98 0 148 -94 l237 -462q7 -9 16 -9q13 0 13 16v475q0 35 20.5 55t52.5 20q34 0 53.5 -20t19.5 -55v-478q0 -68 -47 -113t-119 -45q-98 0 -145 88z" />
<glyph unicode="&#x146;" horiz-adv-x="695" d="M80 65v418q0 29 21 49.5t50 20.5q24 0 43.5 -16t23.5 -41q83 60 172 60q103 0 167.5 -63.5t64.5 -159.5v-268q0 -29 -20.5 -50t-48.5 -21q-29 0 -49.5 21t-20.5 50v230q0 62 -33 93t-92 31q-81 0 -138 -71v-283q0 -29 -20.5 -50t-48.5 -21q-29 0 -50 21t-21 50zM419 -131 l-25 -95q-7 -27 -24.5 -42t-37 -15t-37 8.5t-26 29.5t-2.5 48l21 100q7 27 25 43t39 16t39 -9t27 -32t1 -52z" />
<glyph unicode="&#x147;" horiz-adv-x="886" d="M462 861q7 0 9 5l63 71q15 18 35 22.5t35.5 -3t26.5 -21t9.5 -33.5t-16.5 -38l-64 -72q-37 -45 -98 -45q-60 0 -98 45l-64 72q-15 18 -16.5 38t9.5 33.5t26.5 21t35.5 3t36 -22.5l62 -71q2 -5 9 -5zM495 83l-240 468q-5 9 -15 9q-14 0 -14 -16v-475q0 -35 -20 -55 t-53 -20q-34 0 -53.5 20t-19.5 55v478q0 68 47.5 113t118.5 45q98 0 148 -94l237 -462q7 -9 16 -9q13 0 13 16v475q0 35 20.5 55t52.5 20q34 0 53.5 -20t19.5 -55v-478q0 -68 -47 -113t-119 -45q-98 0 -145 88z" />
<glyph unicode="&#x148;" horiz-adv-x="695" d="M350 729q7 0 9 5l63 71q15 18 35 22.5t35.5 -3t26.5 -21t9.5 -33.5t-16.5 -38l-64 -72q-37 -45 -98 -45q-60 0 -98 45l-64 72q-15 18 -16.5 38t9.5 33.5t26.5 21t35.5 3t36 -22.5l62 -71q2 -5 9 -5zM80 65v418q0 29 21 49.5t50 20.5q24 0 43.5 -16t23.5 -41q83 60 172 60 q103 0 167.5 -63.5t64.5 -159.5v-268q0 -29 -20.5 -50t-48.5 -21q-29 0 -49.5 21t-20.5 50v230q0 62 -33 93t-92 31q-81 0 -138 -71v-283q0 -29 -20.5 -50t-48.5 -21q-29 0 -50 21t-21 50z" />
<glyph unicode="&#x14c;" horiz-adv-x="805" d="M521 786h-241q-28 0 -48.5 18.5t-20.5 46.5q0 27 20.5 45.5t48.5 18.5h241q29 0 49 -18.5t20 -45.5q0 -28 -20 -46.5t-49 -18.5zM411 580q-101 0 -160 -63.5t-59 -166.5q0 -107 54 -168.5t145 -61.5q103 0 162 63t59 167q0 108 -53.5 169t-147.5 61zM411 715 q157 0 249.5 -98t92.5 -267q0 -164 -98.5 -264.5t-263.5 -100.5q-154 0 -247 98.5t-93 266.5q0 163 98 264t262 101z" />
<glyph unicode="&#x14d;" horiz-adv-x="663" d="M451 654h-241q-28 0 -48.5 18.5t-20.5 46.5q0 27 20.5 45.5t48.5 18.5h241q29 0 49 -18.5t20 -45.5q0 -28 -20 -46.5t-49 -18.5zM339 563q128 0 204.5 -78t76.5 -211q0 -130 -81 -209.5t-217 -79.5q-125 0 -202 78t-77 211q0 129 80.5 209t215.5 80zM329 109 q73 0 113.5 45t40.5 120q0 79 -39 122t-105 43q-77 0 -118 -45t-41 -120q0 -81 39 -123t110 -42z" />
<glyph unicode="&#x14e;" horiz-adv-x="805" d="M411 580q-101 0 -160 -63.5t-59 -166.5q0 -107 54 -168.5t145 -61.5q103 0 162 63t59 167q0 108 -53.5 169t-147.5 61zM411 715q157 0 249.5 -98t92.5 -267q0 -164 -98.5 -264.5t-263.5 -100.5q-154 0 -247 98.5t-93 266.5q0 163 98 264t262 101zM232 879q0 30 19 49 t45 19q25 0 41.5 -17t16.5 -39q0 -39 47 -39q53 0 53 39q0 22 16.5 39t41.5 17q26 0 44.5 -19t18.5 -49q0 -60 -46 -104t-128 -44q-78 0 -123.5 42.5t-45.5 105.5z" />
<glyph unicode="&#x14f;" horiz-adv-x="663" d="M339 563q128 0 204.5 -78t76.5 -211q0 -130 -81 -209.5t-217 -79.5q-125 0 -202 78t-77 211q0 129 80.5 209t215.5 80zM329 109q73 0 113.5 45t40.5 120q0 79 -39 122t-105 43q-77 0 -118 -45t-41 -120q0 -81 39 -123t110 -42zM161 747q0 30 19 49t45 19q25 0 41.5 -17 t16.5 -39q0 -39 47 -39q53 0 53 39q0 22 16.5 39t41.5 17q26 0 44.5 -19t18.5 -49q0 -60 -46 -104t-128 -44q-78 0 -123.5 42.5t-45.5 105.5z" />
<glyph unicode="&#x150;" horiz-adv-x="805" d="M414 867l-61 -87q-13 -24 -34 -33t-40 -3.5t-34 19.5t-16.5 37t10.5 48l58 87q13 25 35 35t41.5 5t35.5 -19t17.5 -38t-12.5 -51zM608 867l-61 -87q-13 -24 -34 -33t-39.5 -3.5t-33.5 19.5t-17 37t10 48l58 87q13 25 35 35t41.5 5t35.5 -19t17.5 -38t-12.5 -51zM411 580 q-101 0 -160 -63.5t-59 -166.5q0 -107 54 -168.5t145 -61.5q103 0 162 63t59 167q0 108 -53.5 169t-147.5 61zM411 715q157 0 249.5 -98t92.5 -267q0 -164 -98.5 -264.5t-263.5 -100.5q-154 0 -247 98.5t-93 266.5q0 163 98 264t262 101z" />
<glyph unicode="&#x151;" horiz-adv-x="663" d="M344 735l-61 -87q-13 -24 -34 -33t-40 -3.5t-34 19.5t-16.5 37t10.5 48l58 87q13 25 35 35t41.5 5t35.5 -19t17.5 -38t-12.5 -51zM538 735l-61 -87q-13 -24 -34 -33t-39.5 -3.5t-33.5 19.5t-17 37t10 48l58 87q13 25 35 35t41.5 5t35.5 -19t17.5 -38t-12.5 -51zM339 563 q128 0 204.5 -78t76.5 -211q0 -130 -81 -209.5t-217 -79.5q-125 0 -202 78t-77 211q0 129 80.5 209t215.5 80zM329 109q73 0 113.5 45t40.5 120q0 79 -39 122t-105 43q-77 0 -118 -45t-41 -120q0 -81 39 -123t110 -42z" />
<glyph unicode="&#x152;" horiz-adv-x="1053" d="M457 135v430h-46q-101 0 -160 -57t-59 -158q0 -103 51.5 -159t147.5 -56h66zM947 0h-556q-155 0 -247.5 91.5t-92.5 258.5q0 162 97 256t263 94h536q29 0 48.5 -20t19.5 -49t-19.5 -48.5t-48.5 -19.5h-344v-145h267q29 0 49 -20t20 -48t-20.5 -48t-48.5 -20h-267v-145 h344q29 0 48.5 -19.5t19.5 -48.5t-20 -49t-48 -20z" />
<glyph unicode="&#x153;" horiz-adv-x="1088" d="M707 327h200q-7 49 -45.5 80.5t-94.5 31.5q-70 0 -116.5 -46t-46.5 -118q0 -78 47.5 -118.5t128.5 -40.5q68 0 118 24q29 24 54 21t42.5 -18t17 -42t-23.5 -51q-28 -26 -87 -45.5t-126 -19.5q-156 0 -232 94q-75 -94 -221 -94q-125 0 -202 78t-77 211q0 129 80.5 209 t215.5 80q141 0 211 -97q79 97 215 97q131 0 204 -77t73 -192q0 -35 -21 -57.5t-55 -22.5h-259q-24 0 -40.5 16.5t-16.5 40.5q0 23 16.5 39.5t40.5 16.5zM329 109q73 0 113.5 45t40.5 120q0 79 -39 122t-105 43q-77 0 -118 -45t-41 -120q0 -81 39 -123t110 -42z" />
<glyph unicode="&#x154;" horiz-adv-x="764" d="M492 848l-77 -77q-19 -20 -42 -24t-39.5 6.5t-26.5 27.5t-6.5 40t22.5 43l73 80q19 20 42.5 24t41.5 -6.5t29.5 -27.5t7.5 -41t-25 -45zM708 459q0 -77 -46.5 -135.5t-122.5 -81.5l143 -125q36 -31 17.5 -77t-70.5 -46q-28 0 -56 26l-239 224q-19 19 -19 50t22 52.5 t52 21.5h80q38 0 64.5 27.5t26.5 68.5q0 42 -27 70.5t-66 28.5h-241v-495q0 -31 -21.5 -52.5t-51.5 -21.5t-51.5 21.5t-21.5 52.5v560q0 30 21.5 51t50.5 21h315q100 0 170.5 -70.5t70.5 -170.5z" />
<glyph unicode="&#x155;" horiz-adv-x="424" d="M351 416q-79 0 -131 -54v-297q0 -29 -20.5 -50t-48.5 -21q-29 0 -50 21t-21 50v418q0 29 21 49.5t50 20.5q25 0 44 -17t24 -42q47 62 127 62q39 0 60.5 -20t21.5 -49q0 -30 -21.5 -50.5t-55.5 -20.5zM370 716l-77 -77q-19 -20 -42 -24t-39.5 6.5t-26.5 27.5t-6.5 40 t22.5 43l73 80q19 20 42.5 24t41.5 -6.5t29.5 -27.5t7.5 -41t-25 -45z" />
<glyph unicode="&#x156;" horiz-adv-x="764" d="M708 459q0 -77 -46.5 -135.5t-122.5 -81.5l143 -125q36 -31 17.5 -77t-70.5 -46q-28 0 -56 26l-239 224q-19 19 -19 50t22 52.5t52 21.5h80q38 0 64.5 27.5t26.5 68.5q0 42 -27 70.5t-66 28.5h-241v-495q0 -31 -21.5 -52.5t-51.5 -21.5t-51.5 21.5t-21.5 52.5v560 q0 30 21.5 51t50.5 21h315q100 0 170.5 -70.5t70.5 -170.5zM453 -131l-25 -95q-7 -27 -24.5 -42t-37 -15t-37 8.5t-26 29.5t-2.5 48l21 100q7 27 25 43t39 16t39 -9t27 -32t1 -52z" />
<glyph unicode="&#x157;" horiz-adv-x="424" d="M220 -131l-25 -95q-7 -27 -24.5 -42t-37 -15t-37 8.5t-26 29.5t-2.5 48l21 100q7 27 25 43t39 16t39 -9t27 -32t1 -52zM351 416q-79 0 -131 -54v-297q0 -29 -20.5 -50t-48.5 -21q-29 0 -50 21t-21 50v418q0 29 21 49.5t50 20.5q25 0 44 -17t24 -42q47 62 127 62 q39 0 60.5 -20t21.5 -49q0 -30 -21.5 -50.5t-55.5 -20.5z" />
<glyph unicode="&#x158;" horiz-adv-x="764" d="M708 459q0 -77 -46.5 -135.5t-122.5 -81.5l143 -125q36 -31 17.5 -77t-70.5 -46q-28 0 -56 26l-239 224q-19 19 -19 50t22 52.5t52 21.5h80q38 0 64.5 27.5t26.5 68.5q0 42 -27 70.5t-66 28.5h-241v-495q0 -31 -21.5 -52.5t-51.5 -21.5t-51.5 21.5t-21.5 52.5v560 q0 30 21.5 51t50.5 21h315q100 0 170.5 -70.5t70.5 -170.5zM358 861q7 0 9 5l63 71q15 18 35 22.5t35.5 -3t26.5 -21t9.5 -33.5t-16.5 -38l-64 -72q-37 -45 -98 -45q-60 0 -98 45l-64 72q-15 18 -16.5 38t9.5 33.5t26.5 21t35.5 3t36 -22.5l62 -71q2 -5 9 -5z" />
<glyph unicode="&#x159;" horiz-adv-x="424" d="M351 416q-79 0 -131 -54v-297q0 -29 -20.5 -50t-48.5 -21q-29 0 -50 21t-21 50v418q0 29 21 49.5t50 20.5q25 0 44 -17t24 -42q47 62 127 62q39 0 60.5 -20t21.5 -49q0 -30 -21.5 -50.5t-55.5 -20.5zM237 729q7 0 9 5l63 71q15 18 35 22.5t35.5 -3t26.5 -21t9.5 -33.5 t-16.5 -38l-64 -72q-37 -45 -98 -45q-60 0 -98 45l-64 72q-15 18 -16.5 38t9.5 33.5t26.5 21t35.5 3t36 -22.5l62 -71q2 -5 9 -5z" />
<glyph unicode="&#x15a;" horiz-adv-x="727" d="M505 848l-77 -77q-19 -20 -42 -24t-39.5 6.5t-26.5 27.5t-6.5 40t22.5 43l73 80q19 20 42.5 24t41.5 -6.5t29.5 -27.5t7.5 -41t-25 -45zM93 56q-31 24 -38 54t8.5 49.5t42 27.5t61.5 -12q103 -56 203 -56q153 0 153 78q0 29 -24.5 46.5t-64 25.5t-87 15t-95.5 19.5 t-87.5 34t-64 64.5t-24.5 104q0 43 16.5 78.5t53 66t103 47.5t158.5 17q132 0 210 -47q37 -22 39 -60.5t-30 -59t-78 0.5q-70 31 -166 31q-159 0 -159 -74q0 -33 33.5 -52.5t83 -26t108 -20t108 -32.5t83 -64.5t33.5 -113.5q0 -96 -78.5 -154t-214.5 -58q-199 0 -286 71z " />
<glyph unicode="&#x15b;" horiz-adv-x="600" d="M432 716l-77 -77q-19 -20 -42 -24t-39.5 6.5t-26.5 27.5t-6.5 40t22.5 43l73 80q19 20 42.5 24t41.5 -6.5t29.5 -27.5t7.5 -41t-25 -45zM68 49q-21 17 -27.5 38t1 38t22.5 29t39 11.5t48 -15.5q19 -13 62.5 -25.5t83.5 -12.5q58 0 85.5 15t27.5 37q0 24 -37 34 t-89.5 14.5t-105 16t-89.5 50.5t-37 106q0 77 66 127.5t209 50.5q48 0 98.5 -11t75.5 -29q28 -17 35.5 -44t-6 -46.5t-37.5 -29t-57 7.5q-46 24 -128 24q-116 0 -116 -49q0 -25 37 -35t89 -14.5t104.5 -15t89.5 -49.5t37 -107q0 -80 -67 -130t-179 -50q-168 0 -235 64z" />
<glyph unicode="&#x15c;" horiz-adv-x="727" d="M371 834q-7 0 -9 -5l-62 -71q-16 -18 -36 -22.5t-35.5 3t-26.5 21t-9.5 33.5t16.5 38l64 72q37 45 98 45q60 0 98 -45l64 -72q15 -18 16.5 -38t-9.5 -33.5t-26.5 -21t-35.5 -3t-35 22.5l-63 71q-2 5 -9 5zM93 56q-31 24 -38 54t8.5 49.5t42 27.5t61.5 -12 q103 -56 203 -56q153 0 153 78q0 29 -24.5 46.5t-64 25.5t-87 15t-95.5 19.5t-87.5 34t-64 64.5t-24.5 104q0 43 16.5 78.5t53 66t103 47.5t158.5 17q132 0 210 -47q37 -22 39 -60.5t-30 -59t-78 0.5q-70 31 -166 31q-159 0 -159 -74q0 -33 33.5 -52.5t83 -26t108 -20 t108 -32.5t83 -64.5t33.5 -113.5q0 -96 -78.5 -154t-214.5 -58q-199 0 -286 71z" />
<glyph unicode="&#x15d;" horiz-adv-x="600" d="M299 702q-7 0 -9 -5l-62 -71q-16 -18 -36 -22.5t-35.5 3t-26.5 21t-9.5 33.5t16.5 38l64 72q37 45 98 45q60 0 98 -45l64 -72q15 -18 16.5 -38t-9.5 -33.5t-26.5 -21t-35.5 -3t-35 22.5l-63 71q-2 5 -9 5zM68 49q-21 17 -27.5 38t1 38t22.5 29t39 11.5t48 -15.5 q19 -13 62.5 -25.5t83.5 -12.5q58 0 85.5 15t27.5 37q0 24 -37 34t-89.5 14.5t-105 16t-89.5 50.5t-37 106q0 77 66 127.5t209 50.5q48 0 98.5 -11t75.5 -29q28 -17 35.5 -44t-6 -46.5t-37.5 -29t-57 7.5q-46 24 -128 24q-116 0 -116 -49q0 -25 37 -35t89 -14.5t104.5 -15 t89.5 -49.5t37 -107q0 -80 -67 -130t-179 -50q-168 0 -235 64z" />
<glyph unicode="&#x15e;" horiz-adv-x="727" d="M370 -133h-61q-35 0 -47 23.5t2 52.5l21 47q-130 14 -192 66q-31 24 -38 54t8.5 49.5t42 27.5t61.5 -12q103 -56 203 -56q153 0 153 78q0 29 -24.5 46.5t-64 25.5t-87 15t-95.5 19.5t-87.5 34t-64 64.5t-24.5 104q0 43 16.5 78.5t53 66t103 47.5t158.5 17q132 0 210 -47 q37 -22 39 -60.5t-30 -59t-78 0.5q-70 31 -166 31q-159 0 -159 -74q0 -33 33.5 -52.5t83 -26t108 -20t108 -32.5t83 -64.5t33.5 -113.5q0 -96 -78.5 -153.5t-213.5 -58.5l-10 -21q61 -4 90 -35t29 -77q0 -49 -36 -79t-96 -30q-63 0 -93 27q-20 21 -19.5 43t22 35t49.5 1 q24 -6 46 -6q26 0 26 15q0 9 -18 9z" />
<glyph unicode="&#x15f;" horiz-adv-x="600" d="M300 -133h-61q-35 0 -47 23.5t2 52.5l21 48q-102 15 -147 58q-21 17 -27.5 38t1 38t22.5 29t39 11.5t48 -15.5q19 -13 62.5 -25.5t83.5 -12.5q58 0 85.5 15t27.5 37q0 24 -37 34t-89.5 14.5t-105 16t-89.5 50.5t-37 106q0 77 66 127.5t209 50.5q48 0 98.5 -11t75.5 -29 q28 -17 35.5 -44t-6 -46.5t-37.5 -29t-57 7.5q-46 24 -128 24q-116 0 -116 -49q0 -25 37 -35t89 -14.5t104.5 -15t89.5 -49.5t37 -107q0 -79 -65 -128.5t-174 -51.5l-10 -21q61 -4 90 -35t29 -77q0 -49 -36 -79t-96 -30q-63 0 -93 27q-20 21 -19.5 43t22 35t49.5 1 q24 -6 46 -6q26 0 26 15q0 9 -18 9z" />
<glyph unicode="&#x160;" horiz-adv-x="727" d="M371 861q7 0 9 5l63 71q15 18 35 22.5t35.5 -3t26.5 -21t9.5 -33.5t-16.5 -38l-64 -72q-37 -45 -98 -45q-60 0 -98 45l-64 72q-15 18 -16.5 38t9.5 33.5t26.5 21t35.5 3t36 -22.5l62 -71q2 -5 9 -5zM93 56q-31 24 -38 54t8.5 49.5t42 27.5t61.5 -12q103 -56 203 -56 q153 0 153 78q0 29 -24.5 46.5t-64 25.5t-87 15t-95.5 19.5t-87.5 34t-64 64.5t-24.5 104q0 43 16.5 78.5t53 66t103 47.5t158.5 17q132 0 210 -47q37 -22 39 -60.5t-30 -59t-78 0.5q-70 31 -166 31q-159 0 -159 -74q0 -33 33.5 -52.5t83 -26t108 -20t108 -32.5t83 -64.5 t33.5 -113.5q0 -96 -78.5 -154t-214.5 -58q-199 0 -286 71z" />
<glyph unicode="&#x161;" horiz-adv-x="600" d="M299 729q7 0 9 5l63 71q15 18 35 22.5t35.5 -3t26.5 -21t9.5 -33.5t-16.5 -38l-64 -72q-37 -45 -98 -45q-60 0 -98 45l-64 72q-15 18 -16.5 38t9.5 33.5t26.5 21t35.5 3t36 -22.5l62 -71q2 -5 9 -5zM68 49q-21 17 -27.5 38t1 38t22.5 29t39 11.5t48 -15.5 q19 -13 62.5 -25.5t83.5 -12.5q58 0 85.5 15t27.5 37q0 24 -37 34t-89.5 14.5t-105 16t-89.5 50.5t-37 106q0 77 66 127.5t209 50.5q48 0 98.5 -11t75.5 -29q28 -17 35.5 -44t-6 -46.5t-37.5 -29t-57 7.5q-46 24 -128 24q-116 0 -116 -49q0 -25 37 -35t89 -14.5t104.5 -15 t89.5 -49.5t37 -107q0 -80 -67 -130t-179 -50q-168 0 -235 64z" />
<glyph unicode="&#x162;" horiz-adv-x="683" d="M84 700h515q31 0 51.5 -19t20.5 -49t-20.5 -49t-51.5 -19h-184v-496q0 -31 -21.5 -52.5t-51.5 -21.5t-51.5 21.5t-21.5 52.5v496h-185q-31 0 -51 19t-20 49t20 49t51 19zM411 -131l-25 -95q-7 -27 -24.5 -42t-37 -15t-37 8.5t-26 29.5t-2.5 48l21 100q7 27 25 43t39 16 t39 -9t27 -32t1 -52z" />
<glyph unicode="&#x163;" horiz-adv-x="490" d="M368 419h-120v-184q0 -61 18 -83t57 -22q29 0 53 11q34 16 56 5.5t32.5 -30.5t2.5 -46t-33 -41q-52 -34 -128 -34q-94 0 -146 56.5t-52 167.5v200h-37q-30 0 -50.5 18t-20.5 46t20.5 46.5t50.5 18.5h37v64q0 29 20.5 50t48.5 21q29 0 50 -21t21 -50v-64h120 q30 0 50.5 -18.5t20.5 -46.5t-20.5 -46t-50.5 -18zM350 -131l-25 -95q-7 -27 -24.5 -42t-37 -15t-37 8.5t-26 29.5t-2.5 48l21 100q7 27 25 43t39 16t39 -9t27 -32t1 -52z" />
<glyph unicode="&#x164;" horiz-adv-x="683" d="M84 700h515q31 0 51.5 -19t20.5 -49t-20.5 -49t-51.5 -19h-184v-496q0 -31 -21.5 -52.5t-51.5 -21.5t-51.5 21.5t-21.5 52.5v496h-185q-31 0 -51 19t-20 49t20 49t51 19zM341 861q7 0 9 5l63 71q15 18 35 22.5t35.5 -3t26.5 -21t9.5 -33.5t-16.5 -38l-64 -72 q-37 -45 -98 -45q-60 0 -98 45l-64 72q-15 18 -16.5 38t9.5 33.5t26.5 21t35.5 3t36 -22.5l62 -71q2 -5 9 -5z" />
<glyph unicode="&#x165;" horiz-adv-x="490" d="M368 419h-120v-184q0 -61 18 -83t57 -22q29 0 53 11q34 16 56 5.5t32.5 -30.5t2.5 -46t-33 -41q-52 -34 -128 -34q-94 0 -146 56.5t-52 167.5v200h-37q-30 0 -50.5 18t-20.5 46t20.5 46.5t50.5 18.5h37v64q0 29 20.5 50t48.5 21q29 0 50 -21t21 -50v-64h120 q30 0 50.5 -18.5t20.5 -46.5t-20.5 -46t-50.5 -18zM442 749l-25 -94q-7 -27 -24.5 -42.5t-37 -15.5t-37 8.5t-26 30t-2.5 48.5l21 99q7 28 25 44t39 16t39 -9t27 -32t1 -53z" />
<glyph unicode="&#x166;" horiz-adv-x="683" d="M84 700h515q31 0 51.5 -19t20.5 -49t-20.5 -49t-51.5 -19h-184v-150h79q29 0 49.5 -18t20.5 -46q0 -27 -20.5 -45.5t-49.5 -18.5h-79v-218q0 -31 -21.5 -52.5t-51.5 -21.5t-51.5 21.5t-21.5 52.5v218h-80q-29 0 -49 18.5t-20 45.5q0 28 20 46t49 18h80v150h-185 q-31 0 -51 19t-20 49t20 49t51 19z" />
<glyph unicode="&#x167;" horiz-adv-x="490" d="M368 419h-120v-81h122q28 0 48.5 -18.5t20.5 -45.5q0 -28 -20.5 -46t-48.5 -18h-121q4 -46 21.5 -63t52.5 -17q29 0 53 11q34 16 56 5.5t32.5 -30.5t2.5 -46t-33 -41q-52 -34 -128 -34q-93 0 -144.5 54t-53.5 161h-39q-28 0 -48.5 18t-20.5 46q0 27 20.5 45.5t48.5 18.5 h39v81h-37q-30 0 -50.5 18t-20.5 46t20.5 46.5t50.5 18.5h37v64q0 29 20.5 50t48.5 21q29 0 50 -21t21 -50v-64h120q30 0 50.5 -18.5t20.5 -46.5t-20.5 -46t-50.5 -18z" />
<glyph unicode="&#x168;" horiz-adv-x="788" d="M73 291v342q0 30 21.5 51.5t51.5 21.5t51.5 -21.5t21.5 -51.5v-326q0 -78 47 -127t128 -49q79 0 127.5 48.5t48.5 127.5v326q0 30 21.5 51.5t51.5 21.5t51.5 -21.5t21.5 -51.5v-342q0 -131 -90.5 -218.5t-231.5 -87.5q-140 0 -230.5 87.5t-90.5 218.5zM205 805 q0 53 34.5 89t88.5 36q57 0 105 -50q15 -15 20 -15q10 0 10 8q0 23 16 40t43 17q26 0 42.5 -17.5t16.5 -43.5q0 -53 -35 -88.5t-90 -35.5q-26 0 -48 9t-31.5 17t-26.5 25q-19 15 -20 15q-6 0 -6 -6q0 -29 -16.5 -44.5t-44.5 -15.5q-25 0 -41.5 18t-16.5 42z" />
<glyph unicode="&#x169;" horiz-adv-x="696" d="M616 483v-418q0 -29 -20.5 -50t-49.5 -21q-25 0 -44.5 16t-24.5 40q-82 -59 -171 -59q-103 0 -167.5 63t-64.5 160v269q0 29 20.5 49.5t48.5 20.5q29 0 50 -20.5t21 -49.5v-232q0 -62 33 -93t92 -31q78 0 137 70v286q0 29 20.5 49.5t49.5 20.5t49.5 -20.5t20.5 -49.5z M157 673q0 53 34.5 89t88.5 36q57 0 105 -50q15 -15 20 -15q10 0 10 8q0 23 16 40t43 17q26 0 42.5 -17.5t16.5 -43.5q0 -53 -35 -88.5t-90 -35.5q-26 0 -48 9t-31.5 17t-26.5 25q-19 15 -20 15q-6 0 -6 -6q0 -29 -16.5 -44.5t-44.5 -15.5q-25 0 -41.5 18t-16.5 42z" />
<glyph unicode="&#x16a;" horiz-adv-x="788" d="M73 291v342q0 30 21.5 51.5t51.5 21.5t51.5 -21.5t21.5 -51.5v-326q0 -78 47 -127t128 -49q79 0 127.5 48.5t48.5 127.5v326q0 30 21.5 51.5t51.5 21.5t51.5 -21.5t21.5 -51.5v-342q0 -131 -90.5 -218.5t-231.5 -87.5q-140 0 -230.5 87.5t-90.5 218.5zM514 786h-241 q-28 0 -48.5 18.5t-20.5 46.5q0 27 20.5 45.5t48.5 18.5h241q29 0 49 -18.5t20 -45.5q0 -28 -20 -46.5t-49 -18.5z" />
<glyph unicode="&#x16b;" horiz-adv-x="696" d="M616 483v-418q0 -29 -20.5 -50t-49.5 -21q-25 0 -44.5 16t-24.5 40q-82 -59 -171 -59q-103 0 -167.5 63t-64.5 160v269q0 29 20.5 49.5t48.5 20.5q29 0 50 -20.5t21 -49.5v-232q0 -62 33 -93t92 -31q78 0 137 70v286q0 29 20.5 49.5t49.5 20.5t49.5 -20.5t20.5 -49.5z M465 654h-241q-28 0 -48.5 18.5t-20.5 46.5q0 27 20.5 45.5t48.5 18.5h241q29 0 49 -18.5t20 -45.5q0 -28 -20 -46.5t-49 -18.5z" />
<glyph unicode="&#x16c;" horiz-adv-x="788" d="M73 291v342q0 30 21.5 51.5t51.5 21.5t51.5 -21.5t21.5 -51.5v-326q0 -78 47 -127t128 -49q79 0 127.5 48.5t48.5 127.5v326q0 30 21.5 51.5t51.5 21.5t51.5 -21.5t21.5 -51.5v-342q0 -131 -90.5 -218.5t-231.5 -87.5q-140 0 -230.5 87.5t-90.5 218.5zM224 879 q0 30 19 49t45 19q25 0 41.5 -17t16.5 -39q0 -39 47 -39q53 0 53 39q0 22 16.5 39t41.5 17q26 0 44.5 -19t18.5 -49q0 -60 -46 -104t-128 -44q-78 0 -123.5 42.5t-45.5 105.5z" />
<glyph unicode="&#x16d;" horiz-adv-x="696" d="M616 483v-418q0 -29 -20.5 -50t-49.5 -21q-25 0 -44.5 16t-24.5 40q-82 -59 -171 -59q-103 0 -167.5 63t-64.5 160v269q0 29 20.5 49.5t48.5 20.5q29 0 50 -20.5t21 -49.5v-232q0 -62 33 -93t92 -31q78 0 137 70v286q0 29 20.5 49.5t49.5 20.5t49.5 -20.5t20.5 -49.5z M176 747q0 30 19 49t45 19q25 0 41.5 -17t16.5 -39q0 -39 47 -39q53 0 53 39q0 22 16.5 39t41.5 17q26 0 44.5 -19t18.5 -49q0 -60 -46 -104t-128 -44q-78 0 -123.5 42.5t-45.5 105.5z" />
<glyph unicode="&#x16e;" horiz-adv-x="788" d="M270 867q0 53 35.5 88t87.5 35t87.5 -35t35.5 -88t-35.5 -88t-87.5 -35t-87.5 35t-35.5 88zM366 867q0 -12 8 -19.5t19 -7.5q12 0 19.5 7.5t7.5 19.5t-7.5 19.5t-19.5 7.5q-11 0 -19 -7.5t-8 -19.5zM73 291v342q0 30 21.5 51.5t51.5 21.5t51.5 -21.5t21.5 -51.5v-326 q0 -78 47 -127t128 -49q79 0 127.5 48.5t48.5 127.5v326q0 30 21.5 51.5t51.5 21.5t51.5 -21.5t21.5 -51.5v-342q0 -131 -90.5 -218.5t-231.5 -87.5q-140 0 -230.5 87.5t-90.5 218.5z" />
<glyph unicode="&#x16f;" horiz-adv-x="696" d="M616 483v-418q0 -29 -20.5 -50t-49.5 -21q-25 0 -44.5 16t-24.5 40q-82 -59 -171 -59q-103 0 -167.5 63t-64.5 160v269q0 29 20.5 49.5t48.5 20.5q29 0 50 -20.5t21 -49.5v-232q0 -62 33 -93t92 -31q78 0 137 70v286q0 29 20.5 49.5t49.5 20.5t49.5 -20.5t20.5 -49.5z M222 735q0 53 35.5 88t87.5 35t87.5 -35t35.5 -88t-35.5 -88t-87.5 -35t-87.5 35t-35.5 88zM318 735q0 -12 8 -19.5t19 -7.5q12 0 19.5 7.5t7.5 19.5t-7.5 19.5t-19.5 7.5q-11 0 -19 -7.5t-8 -19.5z" />
<glyph unicode="&#x170;" horiz-adv-x="788" d="M73 291v342q0 30 21.5 51.5t51.5 21.5t51.5 -21.5t21.5 -51.5v-326q0 -78 47 -127t128 -49q79 0 127.5 48.5t48.5 127.5v326q0 30 21.5 51.5t51.5 21.5t51.5 -21.5t21.5 -51.5v-342q0 -131 -90.5 -218.5t-231.5 -87.5q-140 0 -230.5 87.5t-90.5 218.5zM407 867l-61 -87 q-13 -24 -34 -33t-40 -3.5t-34 19.5t-16.5 37t10.5 48l58 87q13 25 35 35t41.5 5t35.5 -19t17.5 -38t-12.5 -51zM601 867l-61 -87q-13 -24 -34 -33t-39.5 -3.5t-33.5 19.5t-17 37t10 48l58 87q13 25 35 35t41.5 5t35.5 -19t17.5 -38t-12.5 -51z" />
<glyph unicode="&#x171;" horiz-adv-x="696" d="M616 483v-418q0 -29 -20.5 -50t-49.5 -21q-25 0 -44.5 16t-24.5 40q-82 -59 -171 -59q-103 0 -167.5 63t-64.5 160v269q0 29 20.5 49.5t48.5 20.5q29 0 50 -20.5t21 -49.5v-232q0 -62 33 -93t92 -31q78 0 137 70v286q0 29 20.5 49.5t49.5 20.5t49.5 -20.5t20.5 -49.5z M358 735l-61 -87q-13 -24 -34 -33t-40 -3.5t-34 19.5t-16.5 37t10.5 48l58 87q13 25 35 35t41.5 5t35.5 -19t17.5 -38t-12.5 -51zM552 735l-61 -87q-13 -24 -34 -33t-39.5 -3.5t-33.5 19.5t-17 37t10 48l58 87q13 25 35 35t41.5 5t35.5 -19t17.5 -38t-12.5 -51z" />
<glyph unicode="&#x172;" horiz-adv-x="788" d="M73 291v342q0 30 21.5 51.5t51.5 21.5t51.5 -21.5t21.5 -51.5v-326q0 -78 47 -127t128 -49q79 0 127.5 48.5t48.5 127.5v326q0 30 21.5 51.5t51.5 21.5t51.5 -21.5t21.5 -51.5v-342q0 -112 -68 -193.5t-179 -104.5q-25 -16 -41 -40.5t-16 -44.5q0 -31 27 -31q14 0 38 6 q27 12 49 -1t22.5 -35t-19.5 -43q-32 -27 -93 -27q-60 0 -96.5 31.5t-36.5 84.5q0 52 30 97q-116 19 -188 102t-72 199z" />
<glyph unicode="&#x173;" horiz-adv-x="696" d="M616 483v-418q0 -24 -14 -42.5t-36 -25.5q-24 -16 -38.5 -39.5t-14.5 -42.5q0 -31 27 -31q14 0 38 6q27 12 49 -1t22.5 -35t-19.5 -43q-32 -27 -93 -27q-60 0 -96.5 31.5t-36.5 84.5q0 78 74 146q0 3 -1 4q-82 -59 -171 -59q-103 0 -167.5 63t-64.5 160v269 q0 29 20.5 49.5t48.5 20.5q29 0 50 -20.5t21 -49.5v-232q0 -62 33 -93t92 -31q78 0 137 70v286q0 29 20.5 49.5t49.5 20.5t49.5 -20.5t20.5 -49.5z" />
<glyph unicode="&#x174;" horiz-adv-x="1106" d="M553 794q-7 0 -9 -5l-62 -71q-16 -18 -36 -22.5t-35.5 3t-26.5 21t-9.5 33.5t16.5 38l64 72q37 45 98 45q60 0 98 -45l64 -72q15 -18 16.5 -38t-9.5 -33.5t-26.5 -21t-35.5 -3t-35 22.5l-63 71q-2 5 -9 5zM553 591q24 0 44 -14t28 -35l154 -400q4 -12 15 -12q12 0 15 12 l140 511q6 22 25.5 37t47.5 15q35 0 56 -30.5t11 -64.5l-138 -501q-34 -120 -154 -120q-51 0 -90 25.5t-57 73.5l-97 255l-96 -255q-18 -48 -57.5 -73.5t-90.5 -25.5q-120 0 -154 120l-138 501q-10 34 11 64.5t56 30.5q28 0 47.5 -15t25.5 -37l140 -511q3 -12 16 -12 q11 0 15 12l153 400q8 21 28 35t44 14z" />
<glyph unicode="&#x175;" horiz-adv-x="917" d="M458 662q-7 0 -9 -5l-62 -71q-16 -18 -36 -22.5t-35.5 3t-26.5 21t-9.5 33.5t16.5 38l64 72q37 45 98 45q60 0 98 -45l64 -72q15 -18 16.5 -38t-9.5 -33.5t-26.5 -21t-35.5 -3t-35 22.5l-63 71q-2 5 -9 5zM458 458q25 0 44 -14t28 -36l106 -278q1 -10 13 -10q11 0 16 12 l94 370q6 22 24 36t43 14q37 0 56.5 -26.5t10.5 -62.5l-87 -361q-37 -112 -157 -112q-51 0 -89 26.5t-56 76.5l-46 139l-45 -139q-18 -50 -56 -76.5t-90 -26.5q-60 0 -100 30t-56 82l-87 361q-9 36 10.5 62.5t56.5 26.5q25 0 43 -14t23 -36l95 -370q3 -12 15 -12q11 0 14 10 l106 278q20 50 71 50z" />
<glyph unicode="&#x176;" horiz-adv-x="703" d="M227 346l-214 243q-12 14 -14.5 34t4 38.5t24.5 31.5t45 13q31 0 53 -26l212 -243q4 -6 14 -6q9 0 14 6l212 243q23 26 53 26q27 0 45 -13t24.5 -31.5t4 -38.5t-14.5 -34l-213 -243q-21 -25 -51 -41v-236q0 -31 -22 -53t-52 -22t-52 22t-22 53v236q-30 15 -50 41z M351 834q-7 0 -9 -5l-62 -71q-16 -18 -36 -22.5t-35.5 3t-26.5 21t-9.5 33.5t16.5 38l64 72q37 45 98 45q60 0 98 -45l64 -72q15 -18 16.5 -38t-9.5 -33.5t-26.5 -21t-35.5 -3t-35 22.5l-63 71q-2 5 -9 5z" />
<glyph unicode="&#x177;" horiz-adv-x="634" d="M220 -97l40 95q-65 21 -91 84l-145 367q-16 37 4.5 70.5t59.5 33.5q48 0 66 -42l147 -385q1 -7 11 -9l169 393q8 19 25.5 30.5t38.5 11.5q39 0 59.5 -31.5t6.5 -65.5l-270 -606q-17 -37 -54.5 -39.5t-60.5 26t-6 67.5zM311 702q-7 0 -9 -5l-62 -71q-16 -18 -36 -22.5 t-35.5 3t-26.5 21t-9.5 33.5t16.5 38l64 72q37 45 98 45q60 0 98 -45l64 -72q15 -18 16.5 -38t-9.5 -33.5t-26.5 -21t-35.5 -3t-35 22.5l-63 71q-2 5 -9 5z" />
<glyph unicode="&#x178;" horiz-adv-x="703" d="M227 346l-214 243q-12 14 -14.5 34t4 38.5t24.5 31.5t45 13q31 0 53 -26l212 -243q4 -6 14 -6q9 0 14 6l212 243q23 26 53 26q27 0 45 -13t24.5 -31.5t4 -38.5t-14.5 -34l-213 -243q-21 -25 -51 -41v-236q0 -31 -22 -53t-52 -22t-52 22t-22 53v236q-30 15 -50 41z M371 838q0 40 28.5 68t67.5 28q40 0 68 -28t28 -68t-28 -68t-68 -28q-39 0 -67.5 28t-28.5 68zM136 838q0 40 28.5 68t67.5 28q40 0 68 -28t28 -68t-28 -68t-68 -28q-39 0 -67.5 28t-28.5 68z" />
<glyph unicode="&#x179;" horiz-adv-x="710" d="M65 144l402 423h-357q-30 0 -50 18t-20 48q0 31 20 49t50 18h467q46 0 69 -24t23 -58q0 -35 -31 -67l-396 -417h363q30 0 49.5 -18.5t19.5 -48.5t-19.5 -48.5t-49.5 -18.5h-474q-45 0 -68.5 24.5t-23.5 57.5q0 34 26 62zM489 848l-77 -77q-19 -20 -42 -24t-39.5 6.5 t-26.5 27.5t-6.5 40t22.5 43l73 80q19 20 42.5 24t41.5 -6.5t29.5 -27.5t7.5 -41t-25 -45z" />
<glyph unicode="&#x17a;" horiz-adv-x="599" d="M78 144l260 273h-213q-30 0 -49.5 17.5t-19.5 47.5t19.5 48t49.5 18h321q45 0 67.5 -24t22.5 -58q0 -36 -24 -62l-259 -273h216q30 0 50 -17.5t20 -47.5q0 -31 -20 -48.5t-50 -17.5h-325q-45 0 -67.5 24t-22.5 58q0 36 24 62zM431 716l-77 -77q-19 -20 -42 -24t-39.5 6.5 t-26.5 27.5t-6.5 40t22.5 43l73 80q19 20 42.5 24t41.5 -6.5t29.5 -27.5t7.5 -41t-25 -45z" />
<glyph unicode="&#x17b;" horiz-adv-x="710" d="M65 144l402 423h-357q-30 0 -50 18t-20 48q0 31 20 49t50 18h467q46 0 69 -24t23 -58q0 -35 -31 -67l-396 -417h363q30 0 49.5 -18.5t19.5 -48.5t-19.5 -48.5t-49.5 -18.5h-474q-45 0 -68.5 24.5t-23.5 57.5q0 34 26 62zM259 837q0 40 28 68t68 28t68 -28t28 -68t-28 -68 t-68 -28t-68 28t-28 68z" />
<glyph unicode="&#x17c;" horiz-adv-x="599" d="M78 144l260 273h-213q-30 0 -49.5 17.5t-19.5 47.5t19.5 48t49.5 18h321q45 0 67.5 -24t22.5 -58q0 -36 -24 -62l-259 -273h216q30 0 50 -17.5t20 -47.5q0 -31 -20 -48.5t-50 -17.5h-325q-45 0 -67.5 24t-22.5 58q0 36 24 62zM201 705q0 40 28 68t68 28t68 -28t28 -68 t-28 -68t-68 -28t-68 28t-28 68z" />
<glyph unicode="&#x17d;" horiz-adv-x="710" d="M65 144l402 423h-357q-30 0 -50 18t-20 48q0 31 20 49t50 18h467q46 0 69 -24t23 -58q0 -35 -31 -67l-396 -417h363q30 0 49.5 -18.5t19.5 -48.5t-19.5 -48.5t-49.5 -18.5h-474q-45 0 -68.5 24.5t-23.5 57.5q0 34 26 62zM355 861q7 0 9 5l63 71q15 18 35 22.5t35.5 -3 t26.5 -21t9.5 -33.5t-16.5 -38l-64 -72q-37 -45 -98 -45q-60 0 -98 45l-64 72q-15 18 -16.5 38t9.5 33.5t26.5 21t35.5 3t36 -22.5l62 -71q2 -5 9 -5z" />
<glyph unicode="&#x17e;" horiz-adv-x="599" d="M78 144l260 273h-213q-30 0 -49.5 17.5t-19.5 47.5t19.5 48t49.5 18h321q45 0 67.5 -24t22.5 -58q0 -36 -24 -62l-259 -273h216q30 0 50 -17.5t20 -47.5q0 -31 -20 -48.5t-50 -17.5h-325q-45 0 -67.5 24t-22.5 58q0 36 24 62zM297 729q7 0 9 5l63 71q15 18 35 22.5 t35.5 -3t26.5 -21t9.5 -33.5t-16.5 -38l-64 -72q-37 -45 -98 -45q-60 0 -98 45l-64 72q-15 18 -16.5 38t9.5 33.5t26.5 21t35.5 3t36 -22.5l62 -71q2 -5 9 -5z" />
<glyph unicode="&#x192;" horiz-adv-x="730" d="M463 590l-8 -42h100q29 0 49.5 -18t20.5 -47q0 -27 -20.5 -45.5t-49.5 -18.5h-122l-71 -409q-35 -200 -236 -200q-34 0 -55 19.5t-21 48.5q0 28 21 48t55 20q41 0 65.5 18.5t29.5 45.5l71 409h-77q-29 0 -49 18t-20 46q0 29 19.5 47t49.5 18h99l8 42q35 200 236 200 q34 0 55 -19.5t21 -48.5q0 -28 -21 -48t-55 -20q-41 0 -65.5 -18.5t-29.5 -45.5z" />
<glyph unicode="&#x1d3;" horiz-adv-x="788" d="M393 861q7 0 9 5l63 71q15 18 35 22.5t35.5 -3t26.5 -21t9.5 -33.5t-16.5 -38l-64 -72q-37 -45 -98 -45q-60 0 -98 45l-64 72q-15 18 -16.5 38t9.5 33.5t26.5 21t35.5 3t36 -22.5l62 -71q2 -5 9 -5zM73 291v342q0 30 21.5 51.5t51.5 21.5t51.5 -21.5t21.5 -51.5v-326 q0 -78 47 -127t128 -49q79 0 127.5 48.5t48.5 127.5v326q0 30 21.5 51.5t51.5 21.5t51.5 -21.5t21.5 -51.5v-342q0 -131 -90.5 -218.5t-231.5 -87.5q-140 0 -230.5 87.5t-90.5 218.5z" />
<glyph unicode="&#x1d4;" horiz-adv-x="696" d="M616 483v-418q0 -29 -20.5 -50t-49.5 -21q-25 0 -44.5 16t-24.5 40q-82 -59 -171 -59q-103 0 -167.5 63t-64.5 160v269q0 29 20.5 49.5t48.5 20.5q29 0 50 -20.5t21 -49.5v-232q0 -62 33 -93t92 -31q78 0 137 70v286q0 29 20.5 49.5t49.5 20.5t49.5 -20.5t20.5 -49.5z M345 729q7 0 9 5l63 71q15 18 35 22.5t35.5 -3t26.5 -21t9.5 -33.5t-16.5 -38l-64 -72q-37 -45 -98 -45q-60 0 -98 45l-64 72q-15 18 -16.5 38t9.5 33.5t26.5 21t35.5 3t36 -22.5l62 -71q2 -5 9 -5z" />
<glyph unicode="&#x1e2;" horiz-adv-x="1052" d="M527 0q-29 0 -50 21t-21 51v70h-254l-47 -105q-21 -43 -66 -43q-41 0 -61.5 33.5t-2.5 71.5l238 509q46 92 146 92h537q28 0 48 -20t20 -49q0 -28 -20 -48t-48 -20h-344v-145h267q28 0 48.5 -20t20.5 -48t-20.5 -48t-48.5 -20h-267v-145h344q28 0 48 -20t20 -48 t-20 -48.5t-48 -20.5h-419zM736 786h-241q-28 0 -48.5 18.5t-20.5 46.5q0 27 20.5 45.5t48.5 18.5h241q29 0 49 -18.5t20 -45.5q0 -28 -20 -46.5t-49 -18.5zM456 563h-44q-19 0 -25 -15l-123 -270h192v285z" />
<glyph unicode="&#x1e3;" horiz-adv-x="1098" d="M714 327h201q-7 49 -45.5 80.5t-94.5 31.5q-78 0 -120.5 -43.5t-42.5 -120.5q0 -78 47.5 -118.5t128.5 -40.5q68 0 118 24q29 24 54 21t42 -18t16.5 -42t-22.5 -51q-28 -26 -87 -45.5t-126 -19.5q-137 0 -221 79.5t-84 244.5v81q-49 41 -121 41q-82 0 -129.5 -42 t-47.5 -111q0 -73 44 -113.5t122 -40.5q2 0 5 -0.5t7.5 -1t9.5 -0.5q27 1 45.5 -16t22 -39.5t-10.5 -44.5t-44 -28q-18 -3 -51 -3q-122 0 -204.5 76.5t-82.5 198.5q0 131 85 214t214 83q92 0 146 -42q20 32 57 32q22 0 40 -14t24 -36q67 60 173 60q122 0 194.5 -77.5 t72.5 -191.5q0 -35 -21 -57.5t-54 -22.5h-260q-23 0 -39.5 16.5t-16.5 40.5q0 23 16.5 39.5t39.5 16.5zM667 654h-241q-28 0 -48.5 18.5t-20.5 46.5q0 27 20.5 45.5t48.5 18.5h241q29 0 49 -18.5t20 -45.5q0 -28 -20 -46.5t-49 -18.5z" />
<glyph unicode="&#x1fc;" horiz-adv-x="1052" d="M527 0q-29 0 -50 21t-21 51v70h-254l-47 -105q-21 -43 -66 -43q-41 0 -61.5 33.5t-2.5 71.5l238 509q46 92 146 92h537q28 0 48 -20t20 -49q0 -28 -20 -48t-48 -20h-344v-145h267q28 0 48.5 -20t20.5 -48t-20.5 -48t-48.5 -20h-267v-145h344q28 0 48 -20t20 -48 t-20 -48.5t-48 -20.5h-419zM456 563h-44q-19 0 -25 -15l-123 -270h192v285zM750 848l-77 -77q-19 -20 -42 -24t-39.5 6.5t-26.5 27.5t-6.5 40t22.5 43l73 80q19 20 42.5 24t41.5 -6.5t29.5 -27.5t7.5 -41t-25 -45z" />
<glyph unicode="&#x1fd;" horiz-adv-x="1098" d="M714 327h201q-7 49 -45.5 80.5t-94.5 31.5q-78 0 -120.5 -43.5t-42.5 -120.5q0 -78 47.5 -118.5t128.5 -40.5q68 0 118 24q29 24 54 21t42 -18t16.5 -42t-22.5 -51q-28 -26 -87 -45.5t-126 -19.5q-137 0 -221 79.5t-84 244.5v81q-49 41 -121 41q-82 0 -129.5 -42 t-47.5 -111q0 -73 44 -113.5t122 -40.5q2 0 5 -0.5t7.5 -1t9.5 -0.5q27 1 45.5 -16t22 -39.5t-10.5 -44.5t-44 -28q-18 -3 -51 -3q-122 0 -204.5 76.5t-82.5 198.5q0 131 85 214t214 83q92 0 146 -42q20 32 57 32q22 0 40 -14t24 -36q67 60 173 60q122 0 194.5 -77.5 t72.5 -191.5q0 -35 -21 -57.5t-54 -22.5h-260q-23 0 -39.5 16.5t-16.5 40.5q0 23 16.5 39.5t39.5 16.5zM680 716l-77 -77q-19 -20 -42 -24t-39.5 6.5t-26.5 27.5t-6.5 40t22.5 43l73 80q19 20 42.5 24t41.5 -6.5t29.5 -27.5t7.5 -41t-25 -45z" />
<glyph unicode="&#x1fe;" horiz-adv-x="805" d="M411 715q157 0 249.5 -98t92.5 -267q0 -164 -98.5 -264.5t-263.5 -100.5q-154 0 -247 98.5t-93 266.5q0 163 98 264t262 101zM612 350q0 93 -42 154l-220 -381q19 -3 41 -3q103 0 162 63t59 167zM411 580q-101 0 -160 -63.5t-59 -166.5q0 -93 42 -154l219 380 q-19 4 -42 4zM534 848l-77 -77q-19 -20 -42 -24t-39.5 6.5t-26.5 27.5t-6.5 40t22.5 43l73 80q19 20 42.5 24t41.5 -6.5t29.5 -27.5t7.5 -41t-25 -45z" />
<glyph unicode="&#x1ff;" horiz-adv-x="663" d="M339 563q128 0 204.5 -78t76.5 -211q0 -130 -81 -209.5t-217 -79.5q-125 0 -202 78t-77 211q0 129 80.5 209t215.5 80zM464 716l-77 -77q-19 -20 -42 -24t-39.5 6.5t-26.5 27.5t-6.5 40t22.5 43l73 80q19 20 42.5 24t41.5 -6.5t29.5 -27.5t7.5 -41t-25 -45zM169 274 q0 -74 30 -116l167 290q-18 2 -27 2q-82 0 -126 -48t-44 -128zM329 98q78 0 121.5 48t43.5 128q0 62 -25 106l-163 -281q7 -1 23 -1z" />
<glyph unicode="&#x218;" horiz-adv-x="727" d="M438 -131l-25 -95q-7 -27 -24.5 -42t-37 -15t-37 8.5t-26 29.5t-2.5 48l21 100q7 27 25 43t39 16t39 -9t27 -32t1 -52zM93 56q-31 24 -38 54t8.5 49.5t42 27.5t61.5 -12q103 -56 203 -56q153 0 153 78q0 29 -24.5 46.5t-64 25.5t-87 15t-95.5 19.5t-87.5 34t-64 64.5 t-24.5 104q0 43 16.5 78.5t53 66t103 47.5t158.5 17q132 0 210 -47q37 -22 39 -60.5t-30 -59t-78 0.5q-70 31 -166 31q-159 0 -159 -74q0 -33 33.5 -52.5t83 -26t108 -20t108 -32.5t83 -64.5t33.5 -113.5q0 -96 -78.5 -154t-214.5 -58q-199 0 -286 71z" />
<glyph unicode="&#x219;" horiz-adv-x="600" d="M368 -131l-25 -95q-7 -27 -24.5 -42t-37 -15t-37 8.5t-26 29.5t-2.5 48l21 100q7 27 25 43t39 16t39 -9t27 -32t1 -52zM68 49q-21 17 -27.5 38t1 38t22.5 29t39 11.5t48 -15.5q19 -13 62.5 -25.5t83.5 -12.5q58 0 85.5 15t27.5 37q0 24 -37 34t-89.5 14.5t-105 16 t-89.5 50.5t-37 106q0 77 66 127.5t209 50.5q48 0 98.5 -11t75.5 -29q28 -17 35.5 -44t-6 -46.5t-37.5 -29t-57 7.5q-46 24 -128 24q-116 0 -116 -49q0 -25 37 -35t89 -14.5t104.5 -15t89.5 -49.5t37 -107q0 -80 -67 -130t-179 -50q-168 0 -235 64z" />
<glyph unicode="&#x21a;" horiz-adv-x="683" d="M411 -131l-25 -95q-7 -27 -24.5 -42t-37 -15t-37 8.5t-26 29.5t-2.5 48l21 100q7 27 25 43t39 16t39 -9t27 -32t1 -52zM84 700h515q31 0 51.5 -19t20.5 -49t-20.5 -49t-51.5 -19h-184v-496q0 -31 -21.5 -52.5t-51.5 -21.5t-51.5 21.5t-21.5 52.5v496h-185q-31 0 -51 19 t-20 49t20 49t51 19z" />
<glyph unicode="&#x21b;" horiz-adv-x="490" d="M350 -131l-25 -95q-7 -27 -24.5 -42t-37 -15t-37 8.5t-26 29.5t-2.5 48l21 100q7 27 25 43t39 16t39 -9t27 -32t1 -52zM368 419h-120v-184q0 -61 18 -83t57 -22q29 0 53 11q34 16 56 5.5t32.5 -30.5t2.5 -46t-33 -41q-52 -34 -128 -34q-94 0 -146 56.5t-52 167.5v200h-37 q-30 0 -50.5 18t-20.5 46t20.5 46.5t50.5 18.5h37v64q0 29 20.5 50t48.5 21q29 0 50 -21t21 -50v-64h120q30 0 50.5 -18.5t20.5 -46.5t-20.5 -46t-50.5 -18z" />
<glyph unicode="&#x237;" horiz-adv-x="300" d="M80 46v438q0 28 21 48.5t50 20.5q28 0 48.5 -20.5t20.5 -48.5v-438q0 -71 -27.5 -132.5t-65.5 -87.5q-23 -16 -52 -16q-50 0 -62 44.5t25 75.5q42 36 42 116z" />
<glyph unicode="&#x2c6;" horiz-adv-x="346" d="M173 702q-7 0 -9 -5l-62 -71q-16 -18 -36 -22.5t-35.5 3t-26.5 21t-9.5 33.5t16.5 38l64 72q37 45 98 45q60 0 98 -45l64 -72q15 -18 16.5 -38t-9.5 -33.5t-26.5 -21t-35.5 -3t-35 22.5l-63 71q-2 5 -9 5z" />
<glyph unicode="&#x2c7;" horiz-adv-x="346" d="M173 729q7 0 9 5l63 71q15 18 35 22.5t35.5 -3t26.5 -21t9.5 -33.5t-16.5 -38l-64 -72q-37 -45 -98 -45q-60 0 -98 45l-64 72q-15 18 -16.5 38t9.5 33.5t26.5 21t35.5 3t36 -22.5l62 -71q2 -5 9 -5z" />
<glyph unicode="&#x2d8;" horiz-adv-x="301" d="M-21 747q0 30 19 49t45 19q25 0 41.5 -17t16.5 -39q0 -39 47 -39q53 0 53 39q0 22 16.5 39t41.5 17q26 0 44.5 -19t18.5 -49q0 -60 -46 -104t-128 -44q-78 0 -123.5 42.5t-45.5 105.5z" />
<glyph unicode="&#x2d9;" horiz-adv-x="192" d="M0 710q0 40 28 68t68 28t68 -28t28 -68t-28 -68t-68 -28t-68 28t-28 68z" />
<glyph unicode="&#x2da;" horiz-adv-x="238" d="M-4 735q0 53 35.5 88t87.5 35t87.5 -35t35.5 -88t-35.5 -88t-87.5 -35t-87.5 35t-35.5 88zM92 735q0 -12 8 -19.5t19 -7.5q12 0 19.5 7.5t7.5 19.5t-7.5 19.5t-19.5 7.5q-11 0 -19 -7.5t-8 -19.5z" />
<glyph unicode="&#x2db;" horiz-adv-x="246" d="M86 57l85 -55q-27 -15 -44.5 -40.5t-17.5 -46.5q0 -31 27 -31q14 0 38 6q27 12 49 -1t22.5 -35t-19.5 -43q-32 -27 -93 -27q-60 0 -96.5 31.5t-36.5 84.5q0 83 86 157z" />
<glyph unicode="&#x2dc;" horiz-adv-x="376" d="M0 673q0 53 34.5 89t88.5 36q57 0 105 -50q15 -15 20 -15q10 0 10 8q0 23 16 40t43 17q26 0 42.5 -17.5t16.5 -43.5q0 -53 -35 -88.5t-90 -35.5q-26 0 -48 9t-31.5 17t-26.5 25q-19 15 -20 15q-6 0 -6 -6q0 -29 -16.5 -44.5t-44.5 -15.5q-25 0 -41.5 18t-16.5 42z" />
<glyph unicode="&#x2dd;" horiz-adv-x="392" d="M186 735l-61 -87q-13 -24 -34 -33t-40 -3.5t-34 19.5t-16.5 37t10.5 48l58 87q13 25 35 35t41.5 5t35.5 -19t17.5 -38t-12.5 -51zM380 735l-61 -87q-13 -24 -34 -33t-39.5 -3.5t-33.5 19.5t-17 37t10 48l58 87q13 25 35 35t41.5 5t35.5 -19t17.5 -38t-12.5 -51z" />
<glyph unicode="&#x394;" horiz-adv-x="769" d="M686 0h-603q-40 0 -60.5 33.5t-3.5 70.5l220 515q19 43 57 67.5t89 24.5q50 0 88.5 -24.5t57.5 -67.5l220 -515q16 -37 -4.5 -70.5t-60.5 -33.5zM370 574l-181 -434h390l-180 434q-4 10 -14 10q-9 0 -15 -10z" />
<glyph unicode="&#x3a3;" horiz-adv-x="647" d="M54 134q0 68 62 116l132 100l-132 100q-62 49 -62 116q0 57 41 95.5t109 38.5h350q29 0 49 -18t20 -49q0 -30 -20 -48t-49 -18h-333q-16 0 -16 -16q0 -8 6 -14l173 -127q29 -21 29 -60t-29 -60l-173 -127q-6 -6 -6 -14q0 -15 16 -15h333q29 0 49 -18.5t20 -48.5 q0 -31 -20 -49t-49 -18h-350q-68 0 -109 38.5t-41 95.5z" />
<glyph unicode="&#x3a9;" horiz-adv-x="805" d="M753 371q0 -140 -86 -231h35q29 0 49.5 -21t20.5 -50q0 -28 -20.5 -48.5t-49.5 -20.5h-171q-29 0 -50 20.5t-21 48.5q0 33 33 62q59 59 89 112t30 128q0 92 -54.5 150.5t-146.5 58.5q-100 0 -159.5 -60.5t-59.5 -148.5q0 -74 30.5 -127.5t89.5 -112.5q33 -29 33 -62 q0 -28 -21 -48.5t-50 -20.5h-171q-29 0 -49.5 20.5t-20.5 48.5q0 29 20.5 50t49.5 21h31q-83 85 -83 231t102.5 245t257.5 99q153 0 247.5 -98.5t94.5 -245.5z" />
<glyph unicode="&#x3bc;" horiz-adv-x="696" d="M74 -120v603q0 29 20.5 49.5t48.5 20.5q29 0 50 -20.5t21 -49.5v-232q0 -62 33 -93t92 -31q78 0 137 70v286q0 29 20.5 49.5t49.5 20.5t49.5 -20.5t20.5 -49.5v-418q0 -29 -20.5 -50t-49.5 -21q-25 0 -44.5 16t-24.5 40q-69 -59 -146 -59q-73 0 -117 39v-150 q0 -29 -20.5 -49.5t-49.5 -20.5t-49.5 20.5t-20.5 49.5z" />
<glyph unicode="&#x3c0;" horiz-adv-x="685" d="M89 548h507q31 0 51 -19t20 -49q0 -31 -20 -49.5t-51 -18.5h-7v-347q0 -29 -20.5 -50t-49.5 -21t-49.5 21t-20.5 50v347h-200q-3 -163 -40 -361q-5 -25 -25.5 -41t-46.5 -16q-32 0 -52.5 26.5t-12.5 58.5q31 168 33 333h-16q-31 0 -51 18.5t-20 49.5q0 30 20 49t51 19z " />
<glyph unicode="&#x1e46;" horiz-adv-x="886" d="M353 -133q0 40 28 68t68 28t68 -28t28 -68t-28 -68t-68 -28t-68 28t-28 68zM495 83l-240 468q-5 9 -15 9q-14 0 -14 -16v-475q0 -35 -20 -55t-53 -20q-34 0 -53.5 20t-19.5 55v478q0 68 47.5 113t118.5 45q98 0 148 -94l237 -462q7 -9 16 -9q13 0 13 16v475q0 35 20.5 55 t52.5 20q34 0 53.5 -20t19.5 -55v-478q0 -68 -47 -113t-119 -45q-98 0 -145 88z" />
<glyph unicode="&#x1e47;" horiz-adv-x="695" d="M254 -133q0 40 28 68t68 28t68 -28t28 -68t-28 -68t-68 -28t-68 28t-28 68zM80 65v418q0 29 21 49.5t50 20.5q24 0 43.5 -16t23.5 -41q83 60 172 60q103 0 167.5 -63.5t64.5 -159.5v-268q0 -29 -20.5 -50t-48.5 -21q-29 0 -49.5 21t-20.5 50v230q0 62 -33 93t-92 31 q-81 0 -138 -71v-283q0 -29 -20.5 -50t-48.5 -21q-29 0 -50 21t-21 50z" />
<glyph unicode="&#x1e62;" horiz-adv-x="727" d="M93 56q-31 24 -38 54t8.5 49.5t42 27.5t61.5 -12q103 -56 203 -56q153 0 153 78q0 29 -24.5 46.5t-64 25.5t-87 15t-95.5 19.5t-87.5 34t-64 64.5t-24.5 104q0 43 16.5 78.5t53 66t103 47.5t158.5 17q132 0 210 -47q37 -22 39 -60.5t-30 -59t-78 0.5q-70 31 -166 31 q-159 0 -159 -74q0 -33 33.5 -52.5t83 -26t108 -20t108 -32.5t83 -64.5t33.5 -113.5q0 -96 -78.5 -154t-214.5 -58q-199 0 -286 71zM273 -133q0 40 28 68t68 28t68 -28t28 -68t-28 -68t-68 -28t-68 28t-28 68z" />
<glyph unicode="&#x1e63;" horiz-adv-x="600" d="M68 49q-21 17 -27.5 38t1 38t22.5 29t39 11.5t48 -15.5q19 -13 62.5 -25.5t83.5 -12.5q58 0 85.5 15t27.5 37q0 24 -37 34t-89.5 14.5t-105 16t-89.5 50.5t-37 106q0 77 66 127.5t209 50.5q48 0 98.5 -11t75.5 -29q28 -17 35.5 -44t-6 -46.5t-37.5 -29t-57 7.5 q-46 24 -128 24q-116 0 -116 -49q0 -25 37 -35t89 -14.5t104.5 -15t89.5 -49.5t37 -107q0 -80 -67 -130t-179 -50q-168 0 -235 64zM203 -133q0 40 28 68t68 28t68 -28t28 -68t-28 -68t-68 -28t-68 28t-28 68z" />
<glyph unicode="&#x1e80;" horiz-adv-x="1106" d="M553 591q24 0 44 -14t28 -35l154 -400q4 -12 15 -12q12 0 15 12l140 511q6 22 25.5 37t47.5 15q35 0 56 -30.5t11 -64.5l-138 -501q-34 -120 -154 -120q-51 0 -90 25.5t-57 73.5l-97 255l-96 -255q-18 -48 -57.5 -73.5t-90.5 -25.5q-120 0 -154 120l-138 501 q-10 34 11 64.5t56 30.5q28 0 47.5 -15t25.5 -37l140 -511q3 -12 16 -12q11 0 15 12l153 400q8 21 28 35t44 14zM501 731l-77 77q-21 21 -25 45t7.5 41t29.5 27.5t41.5 6.5t42.5 -24l73 -80q19 -20 22.5 -43t-6.5 -40t-26.5 -27.5t-39.5 -6.5t-42 24z" />
<glyph unicode="&#x1e81;" horiz-adv-x="917" d="M458 458q25 0 44 -14t28 -36l106 -278q1 -10 13 -10q11 0 16 12l94 370q6 22 24 36t43 14q37 0 56.5 -26.5t10.5 -62.5l-87 -361q-37 -112 -157 -112q-51 0 -89 26.5t-56 76.5l-46 139l-45 -139q-18 -50 -56 -76.5t-90 -26.5q-60 0 -100 30t-56 82l-87 361 q-9 36 10.5 62.5t56.5 26.5q25 0 43 -14t23 -36l95 -370q3 -12 15 -12q11 0 14 10l106 278q20 50 71 50zM406 599l-77 77q-21 21 -25 45t7.5 41t29.5 27.5t41.5 6.5t42.5 -24l73 -80q19 -20 22.5 -43t-6.5 -40t-26.5 -27.5t-39.5 -6.5t-42 24z" />
<glyph unicode="&#x1e82;" horiz-adv-x="1106" d="M686 808l-77 -77q-19 -20 -42 -24t-39.5 6.5t-26.5 27.5t-6.5 40t22.5 43l73 80q19 20 42.5 24t41.5 -6.5t29.5 -27.5t7.5 -41t-25 -45zM553 591q24 0 44 -14t28 -35l154 -400q4 -12 15 -12q12 0 15 12l140 511q6 22 25.5 37t47.5 15q35 0 56 -30.5t11 -64.5l-138 -501 q-34 -120 -154 -120q-51 0 -90 25.5t-57 73.5l-97 255l-96 -255q-18 -48 -57.5 -73.5t-90.5 -25.5q-120 0 -154 120l-138 501q-10 34 11 64.5t56 30.5q28 0 47.5 -15t25.5 -37l140 -511q3 -12 16 -12q11 0 15 12l153 400q8 21 28 35t44 14z" />
<glyph unicode="&#x1e83;" horiz-adv-x="917" d="M592 676l-77 -77q-19 -20 -42 -24t-39.5 6.5t-26.5 27.5t-6.5 40t22.5 43l73 80q19 20 42.5 24t41.5 -6.5t29.5 -27.5t7.5 -41t-25 -45zM458 458q25 0 44 -14t28 -36l106 -278q1 -10 13 -10q11 0 16 12l94 370q6 22 24 36t43 14q37 0 56.5 -26.5t10.5 -62.5l-87 -361 q-37 -112 -157 -112q-51 0 -89 26.5t-56 76.5l-46 139l-45 -139q-18 -50 -56 -76.5t-90 -26.5q-60 0 -100 30t-56 82l-87 361q-9 36 10.5 62.5t56.5 26.5q25 0 43 -14t23 -36l95 -370q3 -12 15 -12q11 0 14 10l106 278q20 50 71 50z" />
<glyph unicode="&#x1e84;" horiz-adv-x="1106" d="M338 798q0 40 28.5 68t67.5 28q40 0 68 -28t28 -68t-28 -68t-68 -28q-39 0 -67.5 28t-28.5 68zM573 798q0 40 28.5 68t67.5 28q40 0 68 -28t28 -68t-28 -68t-68 -28q-39 0 -67.5 28t-28.5 68zM553 591q24 0 44 -14t28 -35l154 -400q4 -12 15 -12q12 0 15 12l140 511 q6 22 25.5 37t47.5 15q35 0 56 -30.5t11 -64.5l-138 -501q-34 -120 -154 -120q-51 0 -90 25.5t-57 73.5l-97 255l-96 -255q-18 -48 -57.5 -73.5t-90.5 -25.5q-120 0 -154 120l-138 501q-10 34 11 64.5t56 30.5q28 0 47.5 -15t25.5 -37l140 -511q3 -12 16 -12q11 0 15 12 l153 400q8 21 28 35t44 14z" />
<glyph unicode="&#x1e85;" horiz-adv-x="917" d="M244 666q0 40 28.5 68t67.5 28q40 0 68 -28t28 -68t-28 -68t-68 -28q-39 0 -67.5 28t-28.5 68zM479 666q0 40 28.5 68t67.5 28q40 0 68 -28t28 -68t-28 -68t-68 -28q-39 0 -67.5 28t-28.5 68zM458 458q25 0 44 -14t28 -36l106 -278q1 -10 13 -10q11 0 16 12l94 370 q6 22 24 36t43 14q37 0 56.5 -26.5t10.5 -62.5l-87 -361q-37 -112 -157 -112q-51 0 -89 26.5t-56 76.5l-46 139l-45 -139q-18 -50 -56 -76.5t-90 -26.5q-60 0 -100 30t-56 82l-87 361q-9 36 10.5 62.5t56.5 26.5q25 0 43 -14t23 -36l95 -370q3 -12 15 -12q11 0 14 10 l106 278q20 50 71 50z" />
<glyph unicode="&#x1ebc;" horiz-adv-x="726" d="M226 137h394q28 0 48 -19.5t20 -48.5t-20 -49t-48 -20h-469q-29 0 -50 21t-21 51v556q0 30 21 51t50 21h469q29 0 48.5 -20t19.5 -49t-20 -48.5t-48 -19.5h-394v-145h317q29 0 49 -20t20 -48t-20.5 -48t-48.5 -20h-317v-145zM203 805q0 53 34.5 89t88.5 36q57 0 105 -50 q15 -15 20 -15q10 0 10 8q0 23 16 40t43 17q26 0 42.5 -17.5t16.5 -43.5q0 -53 -35 -88.5t-90 -35.5q-26 0 -48 9t-31.5 17t-26.5 25q-19 15 -20 15q-6 0 -6 -6q0 -29 -16.5 -44.5t-44.5 -15.5q-25 0 -41.5 18t-16.5 42z" />
<glyph unicode="&#x1ebd;" horiz-adv-x="660" d="M538 214h-259q-24 0 -40.5 16.5t-16.5 40.5q0 23 16.5 39.5t40.5 16.5h200q-7 49 -45.5 80.5t-94.5 31.5q-70 0 -116.5 -46t-46.5 -118q0 -78 47.5 -118.5t128.5 -40.5q68 0 118 24q29 24 54 21t42.5 -18t17 -42t-23.5 -51q-28 -26 -87 -45.5t-126 -19.5 q-134 0 -219 72.5t-85 210.5q0 121 80.5 208t213.5 87q131 0 204 -77t73 -192q0 -35 -21 -57.5t-55 -22.5zM149 673q0 53 34.5 89t88.5 36q57 0 105 -50q15 -15 20 -15q10 0 10 8q0 23 16 40t43 17q26 0 42.5 -17.5t16.5 -43.5q0 -53 -35 -88.5t-90 -35.5q-26 0 -48 9 t-31.5 17t-26.5 25q-19 15 -20 15q-6 0 -6 -6q0 -29 -16.5 -44.5t-44.5 -15.5q-25 0 -41.5 18t-16.5 42z" />
<glyph unicode="&#x1ef2;" horiz-adv-x="703" d="M227 346l-214 243q-12 14 -14.5 34t4 38.5t24.5 31.5t45 13q31 0 53 -26l212 -243q4 -6 14 -6q9 0 14 6l212 243q23 26 53 26q27 0 45 -13t24.5 -31.5t4 -38.5t-14.5 -34l-213 -243q-21 -25 -51 -41v-236q0 -31 -22 -53t-52 -22t-52 22t-22 53v236q-30 15 -50 41z M299 771l-77 77q-21 21 -25 45t7.5 41t29.5 27.5t41.5 6.5t42.5 -24l73 -80q19 -20 22.5 -43t-6.5 -40t-26.5 -27.5t-39.5 -6.5t-42 24z" />
<glyph unicode="&#x1ef3;" horiz-adv-x="634" d="M220 -97l40 95q-65 21 -91 84l-145 367q-16 37 4.5 70.5t59.5 33.5q48 0 66 -42l147 -385q1 -7 11 -9l169 393q8 19 25.5 30.5t38.5 11.5q39 0 59.5 -31.5t6.5 -65.5l-270 -606q-17 -37 -54.5 -39.5t-60.5 26t-6 67.5zM259 639l-77 77q-21 21 -25 45t7.5 41t29.5 27.5 t41.5 6.5t42.5 -24l73 -80q19 -20 22.5 -43t-6.5 -40t-26.5 -27.5t-39.5 -6.5t-42 24z" />
<glyph unicode="&#x2013;" horiz-adv-x="698" d="M558 225h-417q-29 0 -50 20.5t-21 48.5q0 29 21 49.5t50 20.5h417q29 0 49.5 -20.5t20.5 -49.5t-20.5 -49t-49.5 -20z" />
<glyph unicode="&#x2014;" horiz-adv-x="1003" d="M863 225h-722q-29 0 -50 20.5t-21 48.5q0 29 21 49.5t50 20.5h722q29 0 49.5 -20.5t20.5 -49.5t-20.5 -49t-49.5 -20z" />
<glyph unicode="&#x2018;" horiz-adv-x="278" d="M179 658l48 -146q7 -25 0 -46t-26 -31t-39.5 -12t-40 10t-27.5 36l-48 143q-12 35 8 64t57 29q25 0 43.5 -14t24.5 -33z" />
<glyph unicode="&#x2019;" horiz-adv-x="278" d="M64 512l48 146q6 19 24.5 33t43.5 14q37 0 57 -29t8 -64l-48 -143q-8 -24 -27.5 -36t-40 -10t-39.5 12t-26 31t0 46z" />
<glyph unicode="&#x201a;" horiz-adv-x="278" d="M54 -22l48 146q6 19 24.5 33t43.5 14q37 0 57 -29t8 -64l-48 -143q-8 -24 -27.5 -36t-40 -10t-39.5 12t-26 31t0 46z" />
<glyph unicode="&#x201c;" horiz-adv-x="478" d="M379 658l48 -146q7 -25 0 -46t-26 -31t-39.5 -12t-40 10t-27.5 36l-48 143q-12 35 8 64t57 29q25 0 43.5 -14t24.5 -33zM179 658l48 -146q7 -25 0 -46t-26 -31t-39.5 -12t-40 10t-27.5 36l-48 143q-12 35 8 64t57 29q25 0 43.5 -14t24.5 -33z" />
<glyph unicode="&#x201d;" horiz-adv-x="478" d="M264 512l48 146q6 19 24.5 33t43.5 14q37 0 57 -29t8 -64l-48 -143q-8 -24 -27.5 -36t-40 -10t-39.5 12t-26 31t0 46zM64 512l48 146q6 19 24.5 33t43.5 14q37 0 57 -29t8 -64l-48 -143q-8 -24 -27.5 -36t-40 -10t-39.5 12t-26 31t0 46z" />
<glyph unicode="&#x201e;" horiz-adv-x="478" d="M254 -22l48 146q6 19 24.5 33t43.5 14q37 0 57 -29t8 -64l-48 -143q-8 -24 -27.5 -36t-40 -10t-39.5 12t-26 31t0 46zM54 -22l48 146q6 19 24.5 33t43.5 14q37 0 57 -29t8 -64l-48 -143q-8 -24 -27.5 -36t-40 -10t-39.5 12t-26 31t0 46z" />
<glyph unicode="&#x2020;" horiz-adv-x="683" d="M415 723v-175h139q31 0 51.5 -19t20.5 -49q0 -31 -20.5 -49.5t-51.5 -18.5h-139v-435q0 -31 -21.5 -52t-51.5 -21t-51.5 21t-21.5 52v435h-140q-31 0 -51 18.5t-20 49.5q0 30 20 49t51 19h140v175q0 30 21 51.5t52 21.5q30 0 51.5 -21.5t21.5 -51.5z" />
<glyph unicode="&#x2021;" horiz-adv-x="683" d="M129 289h140v123h-140q-31 0 -51 18.5t-20 49.5q0 30 20 49t51 19h140v175q0 30 21 51.5t52 21.5q30 0 51.5 -21.5t21.5 -51.5v-175h139q31 0 51.5 -19t20.5 -49q0 -31 -20.5 -49.5t-51.5 -18.5h-139v-123h139q31 0 51.5 -19t20.5 -49q0 -31 -20.5 -49.5t-51.5 -18.5 h-139v-176q0 -31 -21.5 -52t-51.5 -21t-51.5 21t-21.5 52v176h-140q-31 0 -51 18.5t-20 49.5q0 30 20 49t51 19z" />
<glyph unicode="&#x2022;" horiz-adv-x="569" d="M100 274q0 79 53 131.5t132 52.5t131.5 -52.5t52.5 -131.5q0 -80 -52.5 -132.5t-131.5 -52.5t-132 52.5t-53 132.5z" />
<glyph unicode="&#x2026;" horiz-adv-x="945" d="M374 93q0 41 29 70t69 29q41 0 70 -29t29 -70t-29 -70t-70 -29q-40 0 -69 29t-29 70zM58 93q0 41 29 70t69 29q41 0 70 -29t29 -70t-29 -70t-70 -29q-40 0 -69 29t-29 70zM690 93q0 41 29 70t69 29q41 0 70 -29t29 -70t-29 -70t-70 -29q-40 0 -69 29t-29 70z" />
<glyph unicode="&#x2030;" horiz-adv-x="1113" d="M889 350q78 0 126 -49.5t48 -133.5q0 -81 -48 -131.5t-130 -50.5q-70 0 -110 42q-40 -42 -113 -42q-77 0 -125 49t-48 133q0 82 47.5 132.5t129.5 50.5q70 0 110 -43q40 43 113 43zM227 715q78 0 126 -49.5t48 -133.5q0 -81 -48 -131.5t-130 -50.5q-77 0 -125 49t-48 133 q0 82 47.5 132.5t129.5 50.5zM704 565l-427 -508q-23 -28 -51 -28q-42 0 -57.5 36t12.5 69l427 509q22 27 51 27q42 0 57.5 -36t-12.5 -69zM889 229q-26 0 -41 -17t-15 -45t14 -44.5t38 -16.5q26 0 41.5 17t15.5 44q0 28 -14.5 45t-38.5 17zM227 594q-26 0 -41 -17t-15 -45 t14.5 -44.5t37.5 -16.5q26 0 41.5 17t15.5 44q0 28 -14.5 45t-38.5 17zM666 229q-26 0 -41 -17t-15 -45t14.5 -44.5t37.5 -16.5q26 0 41.5 17t15.5 44q0 28 -14.5 45t-38.5 17z" />
<glyph unicode="&#x2039;" horiz-adv-x="471" d="M68 274q0 77 58 124l159 140q18 15 44 15q51 0 68.5 -47t-21.5 -81l-159 -137q-6 -4 -6 -14t6 -14l159 -138q39 -34 21.5 -81t-68.5 -47q-24 0 -44 16l-159 139q-58 48 -58 125z" />
<glyph unicode="&#x203a;" horiz-adv-x="471" d="M403 273q0 -77 -58 -124l-159 -140q-18 -15 -44 -15q-51 0 -68.5 47t21.5 81l159 137q6 5 6 14t-6 14l-159 138q-39 34 -21.5 81t68.5 47q24 0 44 -16l159 -139q58 -48 58 -125z" />
<glyph unicode="&#x2044;" horiz-adv-x="391" d="M7 80l269 584q18 42 58 42q34 0 50 -26.5t0 -60.5l-268 -583q-19 -42 -58 -42q-33 0 -50 26t-1 60z" />
<glyph unicode="&#x2074;" horiz-adv-x="543" d="M456 341h-37v-30q0 -25 -18 -43t-44 -18t-44 18t-18 43v30h-172q-54 0 -71 42.5t8 80.5l91 205q18 37 56 37q33 0 48.5 -28t-1.5 -62l-76 -167h117v195q0 26 18.5 44t43.5 18t43.5 -18t18.5 -44v-195h37q22 0 38 -15.5t16 -38.5t-16 -38.5t-38 -15.5z" />
<glyph unicode="&#x20ac;" horiz-adv-x="730" d="M448 210h-167q48 -84 158 -84q80 0 133 55q16 19 38 24t40.5 -4t31 -25t11.5 -40.5t-19 -49.5q-32 -44 -97 -72.5t-138 -28.5q-122 0 -200 60t-108 165h-33q-26 0 -43.5 17.5t-17.5 42.5q0 26 17.5 43.5t43.5 17.5h15v19v20h-15q-26 0 -43.5 17.5t-17.5 42.5 q0 26 17.5 43.5t43.5 17.5h35q33 104 114.5 164t199.5 60q70 0 135 -30t96 -76q18 -25 19 -50t-11.5 -41t-31 -25t-40.5 -3.5t-38 24.5q-55 64 -138 64q-107 0 -157 -87h167q25 0 42.5 -17.5t17.5 -43.5t-17 -43t-43 -17h-198v-20v-19h198q25 0 42.5 -17.5t17.5 -43.5 t-17 -43t-43 -17z" />
<glyph unicode="&#x2113;" horiz-adv-x="580" d="M220 486v-251q0 -61 18 -83t58 -22q28 0 52 11q41 19 69 -0.5t26 -55t-36 -56.5q-53 -34 -129 -34q-94 0 -146 56.5t-52 166.5v268q0 106 67 167.5t161 61.5q88 0 150 -55t62 -155q0 -75 -43 -147.5t-112 -125.5q-31 -22 -56 -16t-41 24t-14 46t26 49l23.5 23.5t22.5 23 t18 20.5t17.5 23.5t11.5 22.5t9 27.5t2 29.5q0 36 -25 57t-52 21q-38 0 -62.5 -26.5t-24.5 -70.5z" />
<glyph unicode="&#x2116;" horiz-adv-x="1499" d="M1362 0h-400q-29 0 -49.5 20.5t-20.5 48.5q0 29 20.5 50t49.5 21h400q29 0 49.5 -21t20.5 -50q0 -28 -20.5 -48.5t-49.5 -20.5zM1167 715q120 0 192 -69.5t72 -187.5q0 -115 -75.5 -185t-202.5 -70q-117 0 -189 69t-72 186q0 116 74.5 186.5t200.5 70.5zM1167 594 q-65 0 -103.5 -36t-38.5 -100t35.5 -99t92.5 -35q66 0 105.5 35.5t39.5 98.5q0 65 -35.5 100.5t-95.5 35.5zM495 83l-240 468q-5 9 -15 9q-14 0 -14 -16v-475q0 -35 -20 -55t-53 -20q-34 0 -53.5 20t-19.5 55v478q0 68 47.5 113t118.5 45q98 0 148 -94l237 -462q7 -9 16 -9 q13 0 13 16v475q0 35 20.5 55t52.5 20q34 0 53.5 -20t19.5 -55v-478q0 -68 -47 -113t-119 -45q-98 0 -145 88z" />
<glyph unicode="&#x2117;" horiz-adv-x="890" d="M80 350q0 155 106 260t262 105q158 0 260 -104.5t102 -260.5q0 -155 -106 -260t-262 -105q-158 0 -260 104.5t-102 260.5zM175 350q0 -116 78.5 -197t192.5 -81q115 0 191.5 80.5t76.5 197.5q0 116 -78 197t-192 81q-115 0 -192 -81t-77 -197zM496 352q17 0 29 12t12 28 t-12 28t-29 12h-100v-220q0 -20 -14 -34t-34 -14q-19 0 -33.5 14t-14.5 34v264q0 19 14.5 33.5t33.5 14.5h148q56 0 95.5 -39.5t39.5 -95.5q0 -55 -39.5 -94t-95.5 -39h-36q-20 0 -34.5 13.5t-14.5 34.5q0 20 14.5 34t34.5 14h36z" />
<glyph unicode="&#x2122;" horiz-adv-x="874" d="M461 705q35 0 64 -17t41 -47l23 -65l24 65q12 30 41 47t65 17q46 0 80.5 -32t34.5 -81v-191q0 -23 -17 -39.5t-41 -16.5q-23 0 -39.5 16.5t-16.5 39.5v187l-3 2q-3 0 -3 -2l-63 -178q-19 -37 -61 -37q-44 0 -62 37l-62 178q-1 2 -4 2h-1t-1 -2v-187q0 -23 -17 -39.5 t-40 -16.5t-40.5 16.5t-17.5 39.5v191q0 49 35 81t81 32zM76 700h208q25 0 41 -15.5t16 -38.5q0 -24 -16 -39t-41 -15h-47v-191q0 -24 -17 -40t-40 -16q-24 0 -40 16t-16 40v191h-48q-25 0 -40.5 14.5t-15.5 39.5q0 23 15.5 38.5t40.5 15.5z" />
<glyph unicode="&#x212e;" horiz-adv-x="816" d="M422 122q69 0 115 27.5t83 81.5q16 24 43 30t47.5 -6t31 -35.5t-5.5 -57.5q-30 -70 -122.5 -123.5t-197.5 -53.5q-116 0 -200.5 51t-124.5 132.5t-40 181.5q0 159 104.5 262t262.5 103q77 0 144 -28.5t111.5 -74.5t70 -104.5t25.5 -119.5q0 -46 -25 -74t-74 -28h-361 q-30 0 -50.5 19t-20.5 49t20.5 49t50.5 19h320q-11 60 -67 108.5t-144 48.5q-95 0 -162 -61.5t-67 -167.5q0 -102 63 -165t170 -63z" />
<glyph unicode="&#x2202;" horiz-adv-x="663" d="M277 781q115 -36 195 -116t114 -170t34 -185q0 -153 -82.5 -239t-213.5 -86q-121 0 -201 76t-80 203q0 124 79 201.5t207 77.5q50 0 99 -23q-66 96 -201 145q-42 13 -49 47.5t22.5 58t76.5 10.5zM491 289q0 36 -5 74q-57 56 -147 56q-77 0 -118 -42t-41 -113t41 -111.5 t113 -40.5q64 0 110.5 47.5t46.5 129.5z" />
<glyph unicode="&#x220f;" horiz-adv-x="787" d="M113 700h554q31 0 51.5 -19t20.5 -49t-20.5 -49t-51.5 -19h-5v-587q0 -31 -21.5 -52t-51.5 -21t-51.5 21t-21.5 52v587h-245v-587q0 -31 -21.5 -52t-51.5 -21t-51.5 21t-21.5 52v587h-12q-31 0 -51.5 19t-20.5 49t20.5 49t51.5 19z" />
<glyph unicode="&#x2211;" horiz-adv-x="612" d="M41 54q0 49 34 99l95 152l-95 152q-34 52 -34 99q0 65 40.5 104.5t110.5 39.5h351q30 0 49.5 -18t19.5 -49q0 -30 -19.5 -48t-49.5 -18h-335q-6 0 -11 -4.5t-5 -11.5q0 -4 2 -7l123 -198q13 -20 13 -41q0 -20 -13 -41l-123 -197q-2 -4 -2 -8q0 -6 5 -10.5t11 -4.5h335 q30 0 49.5 -18.5t19.5 -48.5q0 -31 -19.5 -49t-49.5 -18h-351q-70 0 -110.5 39.5t-40.5 104.5z" />
<glyph unicode="&#x2212;" horiz-adv-x="699" d="M558 205h-417q-29 0 -50 20.5t-21 48.5q0 29 21 49.5t50 20.5h417q29 0 50 -20.5t21 -49.5q0 -28 -21 -48.5t-50 -20.5z" />
<glyph unicode="&#x221a;" horiz-adv-x="748" d="M71 548h121q53 0 69 -53l105 -368q2 -10 14 -10q11 0 15 11l264 620q18 42 66 42q40 0 60.5 -34t3.5 -70l-263 -605q-20 -43 -58 -67.5t-88 -24.5q-54 0 -93.5 27t-54.5 77l-93 315h-68q-29 0 -50 20.5t-21 48.5q0 29 21 50t50 21z" />
<glyph unicode="&#x221e;" horiz-adv-x="1010" d="M720 19q-134 0 -216 130q-85 -130 -214 -130q-119 0 -181.5 71.5t-62.5 183.5t62.5 183.5t181.5 71.5q131 0 215 -131q86 131 215 131q118 0 180.5 -71.5t62.5 -183.5t-62.5 -183.5t-180.5 -71.5zM439 274q-26 63 -66.5 98.5t-82.5 35.5q-60 0 -91.5 -38t-31.5 -96 t31.5 -96t91.5 -38q43 0 84 36t65 98zM570 274q27 -64 67.5 -99t82.5 -35q60 0 91 38t31 96t-31 96t-91 38q-43 0 -84 -36.5t-66 -97.5z" />
<glyph unicode="&#x222b;" horiz-adv-x="420" d="M140 110v480q0 95 55 147.5t152 52.5q41 0 63 -19.5t22 -49.5t-22.5 -48.5t-62.5 -18.5q-38 0 -52.5 -16t-14.5 -48v-480q0 -95 -55 -147.5t-152 -52.5q-41 0 -62.5 19.5t-21.5 49.5t22 48.5t62 18.5q38 0 52.5 16t14.5 48z" />
<glyph unicode="&#x2248;" horiz-adv-x="698" d="M492 440q0 28 20 48t48 20t48 -20t20 -48q0 -74 -49.5 -121.5t-127.5 -47.5q-41 0 -77.5 16t-56.5 34.5t-40.5 34.5t-34.5 16q-16 0 -26 -11.5t-10 -24.5q0 -28 -20 -48t-48 -20t-48 20t-20 48q0 74 48 121.5t125 47.5q46 0 82 -15.5t53.5 -33.5t36.5 -33.5t34 -15.5 q43 0 43 33zM492 208q0 28 20 48t48 20t48 -20t20 -48q0 -74 -49.5 -121.5t-127.5 -47.5q-41 0 -77.5 16t-56.5 34.5t-40.5 34.5t-34.5 16q-16 0 -26 -11.5t-10 -24.5q0 -28 -20 -48t-48 -20t-48 20t-20 48q0 74 48 121.5t125 47.5q46 0 82 -15.5t53.5 -33.5t36.5 -33.5 t34 -15.5q43 0 43 33z" />
<glyph unicode="&#x2260;" horiz-adv-x="699" d="M558 68h-260l-73 -127q-19 -31 -51 -31q-37 0 -54.5 30.5t0.5 61.5l38 66h-17q-29 0 -50 20.5t-21 48.5q0 29 21 49.5t50 20.5h98l77 134h-175q-29 0 -50 20.5t-21 48.5q0 29 21 49.5t50 20.5h256l69 119q19 31 52 31q36 0 53.5 -30.5t-0.5 -61.5l-34 -58h21 q29 0 50 -20.5t21 -49.5q0 -28 -21 -48.5t-50 -20.5h-102l-77 -134h179q29 0 50 -20.5t21 -49.5q0 -28 -21 -48.5t-50 -20.5z" />
<glyph unicode="&#x2264;" horiz-adv-x="699" d="M558 1h-417q-29 0 -50 20.5t-21 48.5q0 29 21 49.5t50 20.5h417q29 0 50 -20.5t21 -49.5q0 -28 -21 -48.5t-50 -20.5zM70 426q0 104 98 146l322 127q12 6 31 6q42 0 61 -28.5t9.5 -62t-40.5 -45.5l-338 -129q-10 -2 -10 -14q0 -11 10 -15l338 -128q31 -12 40.5 -45.5 t-9.5 -62.5t-61 -29q-19 0 -31 6l-322 128q-98 40 -98 146z" />
<glyph unicode="&#x2265;" horiz-adv-x="699" d="M558 1h-417q-29 0 -50 20.5t-21 48.5q0 29 21 49.5t50 20.5h417q29 0 50 -20.5t21 -49.5q0 -28 -21 -48.5t-50 -20.5zM628 426q0 -104 -98 -146l-322 -127q-12 -6 -31 -6q-42 0 -61 28.5t-9.5 62t40.5 45.5l338 129q10 2 10 14q0 11 -10 15l-338 128q-31 12 -40.5 45.5 t9.5 62.5t61 29q19 0 31 -6l322 -128q98 -40 98 -146z" />
<glyph unicode="&#x25ca;" horiz-adv-x="739" d="M369 -11q-79 0 -123 57l-205 258q-16 18 -16 46t16 47l205 258q45 56 123 56q80 0 123 -56l206 -258q16 -19 16 -47t-16 -46l-206 -258q-43 -57 -123 -57zM369 133q9 0 13 4l169 213l-169 213q-4 4 -13 4q-8 0 -12 -4l-169 -213l169 -213q4 -4 12 -4z" />
<glyph unicode="&#xe000;" horiz-adv-x="550" d="M0 550h550v-550h-550v550z" />
<glyph unicode="&#xfb01;" horiz-adv-x="716" d="M496 65v418q0 29 20.5 49.5t48.5 20.5q29 0 50 -20.5t21 -49.5v-418q0 -29 -21 -50t-50 -21q-28 0 -48.5 21t-20.5 50zM476 715q0 37 26 63.5t63 26.5q38 0 64.5 -26.5t26.5 -63.5q0 -38 -26.5 -64.5t-64.5 -26.5q-37 0 -63 26.5t-26 64.5zM326 419h-61v-354 q0 -29 -20.5 -50t-48.5 -21q-29 0 -50 21t-21 50v354h-39q-30 0 -50.5 18.5t-20.5 45.5q0 29 20.5 47t50.5 18h39v42q0 95 55 147.5t152 52.5q41 0 62.5 -19.5t21.5 -49.5t-22 -48.5t-62 -18.5q-38 0 -52.5 -16t-14.5 -48v-42h61q29 0 49.5 -18t20.5 -47q0 -27 -20.5 -45.5 t-49.5 -18.5z" />
<glyph unicode="&#xfb02;" horiz-adv-x="716" d="M636 720v-655q0 -29 -20.5 -50t-48.5 -21q-29 0 -50 21t-21 50v655q0 29 21 49.5t50 20.5q28 0 48.5 -20.5t20.5 -49.5zM326 419h-61v-354q0 -29 -20.5 -50t-48.5 -21q-29 0 -50 21t-21 50v354h-39q-30 0 -50.5 18.5t-20.5 45.5q0 29 20.5 47t50.5 18h39v42 q0 95 55 147.5t152 52.5q41 0 62.5 -19.5t21.5 -49.5t-22 -48.5t-62 -18.5q-38 0 -52.5 -16t-14.5 -48v-42h61q29 0 49.5 -18t20.5 -47q0 -27 -20.5 -45.5t-49.5 -18.5z" />
<glyph unicode="&#xfb06;" horiz-adv-x="1090" d="M68 49q-21 17 -27.5 38t1 38t22.5 29t39 11.5t48 -15.5q19 -13 62.5 -25.5t83.5 -12.5q58 0 85.5 15t27.5 37q0 24 -37 34t-89.5 14.5t-105 16t-89.5 50.5t-37 106q0 77 66 127.5t209 50.5q25 0 51 -3q-2 9 -2 28q0 86 65.5 144t163.5 58q107 0 174.5 -65.5t68.5 -176.5 h120q30 0 50.5 -18.5t20.5 -46.5t-20.5 -46t-50.5 -18h-120v-184q0 -61 18 -83t57 -22q29 0 53 11q34 16 56 5.5t32.5 -30.5t2.5 -46t-33 -41q-52 -34 -128 -34q-94 0 -146 56.5t-52 167.5v200h-37q-30 0 -50.5 18t-20.5 46t20.5 46.5t50.5 18.5h37q-1 52 -31.5 80.5 t-71.5 28.5t-69.5 -27t-28.5 -68q0 -30 9 -51q27 -25 21.5 -57.5t-33.5 -45.5t-68 3q-46 24 -128 24q-116 0 -116 -49q0 -25 37 -35t89 -14.5t104.5 -15t89.5 -49.5t37 -107q0 -80 -67 -130t-179 -50q-168 0 -235 64z" />
<glyph horiz-adv-x="781" d="M511 0h-360q-29 0 -50 21t-21 50v557q0 30 21.5 51t50.5 21h339q87 0 149 -62t62 -149q0 -76 -50 -130q72 -55 72 -147q0 -88 -62.5 -150t-150.5 -62zM226 136h279q33 0 54.5 21t21.5 52q0 32 -21.5 55t-54.5 23h-279v-151zM226 563v-150h261q31 0 52 23t21 55 q0 30 -20.5 51t-52.5 21h-261z" />
<glyph horiz-adv-x="816" d="M768 350q0 -155 -101 -252.5t-277 -97.5h-225q-72 0 -72 74v555q0 31 20 51t52 20h225q176 0 277 -97.5t101 -252.5zM239 564v-428h151q111 0 171.5 59.5t60.5 154.5t-60.5 154.5t-171.5 59.5h-151z" />
<glyph horiz-adv-x="694" d="M80 68v560q0 30 21 51t50 21h257q108 0 184.5 -76.5t76.5 -184.5q0 -107 -77 -183t-184 -76h-182v-112q0 -31 -21.5 -52.5t-51.5 -21.5t-51.5 21.5t-21.5 52.5zM226 563v-235h182q51 0 85 34t34 82q0 49 -34.5 84t-84.5 35h-182z" />
<glyph horiz-adv-x="764" d="M573 20l-229 211h-118v-163q0 -31 -21.5 -52.5t-51.5 -21.5t-51.5 21.5t-21.5 52.5v560q0 30 21.5 51t50.5 21h315q100 0 170.5 -70.5t70.5 -170.5q0 -77 -46.5 -135.5t-122.5 -81.5l143 -125q36 -31 17.5 -77t-70.5 -46q-28 0 -56 26zM226 563v-195h243q38 0 64.5 27.5 t26.5 68.5q0 42 -27 70.5t-66 28.5h-241z" />
<glyph horiz-adv-x="846" d="M798 350q0 -155 -101 -252.5t-277 -97.5h-225q-72 0 -72 74v199h-22q-30 0 -50.5 18.5t-20.5 46.5t20.5 46t50.5 18h22v227q0 31 20 51t52 20h225q176 0 277 -97.5t101 -252.5zM269 564v-162h99q29 0 50 -18t21 -46t-21 -46.5t-50 -18.5h-99v-137h151q111 0 171.5 59.5 t60.5 154.5t-60.5 154.5t-171.5 59.5h-151z" />
<glyph horiz-adv-x="694" d="M226 632v-22h182q108 0 184.5 -72.5t76.5 -180.5q0 -107 -76.5 -181.5t-184.5 -74.5h-182v-33q0 -31 -21.5 -52.5t-51.5 -21.5t-51.5 21.5t-21.5 52.5v564q0 30 21.5 51.5t51.5 21.5t51.5 -21.5t21.5 -51.5zM408 473h-182v-235h182q50 0 84.5 37t34.5 87q0 48 -34 79.5 t-85 31.5z" />
<glyph horiz-adv-x="846" d="M798 350q0 -155 -101 -252.5t-277 -97.5h-225q-72 0 -72 74v199h-22q-30 0 -50.5 18.5t-20.5 46.5t20.5 46t50.5 18h22v227q0 31 20 51t52 20h225q176 0 277 -97.5t101 -252.5zM269 564v-162h99q29 0 50 -18t21 -46t-21 -46.5t-50 -18.5h-99v-137h151q111 0 171.5 59.5 t60.5 154.5t-60.5 154.5t-171.5 59.5h-151z" />
<glyph horiz-adv-x="816" d="M386 861q7 0 9 5l63 71q15 18 35 22.5t35.5 -3t26.5 -21t9.5 -33.5t-16.5 -38l-64 -72q-37 -45 -98 -45q-60 0 -98 45l-64 72q-15 18 -16.5 38t9.5 33.5t26.5 21t35.5 3t36 -22.5l62 -71q2 -5 9 -5zM768 350q0 -155 -101 -252.5t-277 -97.5h-225q-72 0 -72 74v555 q0 31 20 51t52 20h225q176 0 277 -97.5t101 -252.5zM239 564v-428h151q111 0 171.5 59.5t60.5 154.5t-60.5 154.5t-171.5 59.5h-151z" />
<glyph horiz-adv-x="764" d="M492 848l-77 -77q-19 -20 -42 -24t-39.5 6.5t-26.5 27.5t-6.5 40t22.5 43l73 80q19 20 42.5 24t41.5 -6.5t29.5 -27.5t7.5 -41t-25 -45zM573 20l-229 211h-118v-163q0 -31 -21.5 -52.5t-51.5 -21.5t-51.5 21.5t-21.5 52.5v560q0 30 21.5 51t50.5 21h315 q100 0 170.5 -70.5t70.5 -170.5q0 -77 -46.5 -135.5t-122.5 -81.5l143 -125q36 -31 17.5 -77t-70.5 -46q-28 0 -56 26zM226 563v-195h243q38 0 64.5 27.5t26.5 68.5q0 42 -27 70.5t-66 28.5h-241z" />
<glyph horiz-adv-x="764" d="M358 861q7 0 9 5l63 71q15 18 35 22.5t35.5 -3t26.5 -21t9.5 -33.5t-16.5 -38l-64 -72q-37 -45 -98 -45q-60 0 -98 45l-64 72q-15 18 -16.5 38t9.5 33.5t26.5 21t35.5 3t36 -22.5l62 -71q2 -5 9 -5zM573 20l-229 211h-118v-163q0 -31 -21.5 -52.5t-51.5 -21.5t-51.5 21.5 t-21.5 52.5v560q0 30 21.5 51t50.5 21h315q100 0 170.5 -70.5t70.5 -170.5q0 -77 -46.5 -135.5t-122.5 -81.5l143 -125q36 -31 17.5 -77t-70.5 -46q-28 0 -56 26zM226 563v-195h243q38 0 64.5 27.5t26.5 68.5q0 42 -27 70.5t-66 28.5h-241z" />
<glyph horiz-adv-x="764" d="M453 -131l-25 -95q-7 -27 -24.5 -42t-37 -15t-37 8.5t-26 29.5t-2.5 48l21 100q7 27 25 43t39 16t39 -9t27 -32t1 -52zM573 20l-229 211h-118v-163q0 -31 -21.5 -52.5t-51.5 -21.5t-51.5 21.5t-21.5 52.5v560q0 30 21.5 51t50.5 21h315q100 0 170.5 -70.5t70.5 -170.5 q0 -77 -46.5 -135.5t-122.5 -81.5l143 -125q36 -31 17.5 -77t-70.5 -46q-28 0 -56 26zM226 563v-195h243q38 0 64.5 27.5t26.5 68.5q0 42 -27 70.5t-66 28.5h-241z" />
<glyph horiz-adv-x="703" d="M227 346l-214 243q-12 14 -14.5 34t4 38.5t24.5 31.5t45 13q31 0 53 -26l212 -243q4 -6 14 -6q9 0 14 6l212 243q23 26 53 26q27 0 45 -13t24.5 -31.5t4 -38.5t-14.5 -34l-213 -243q-21 -25 -51 -41v-236q0 -31 -22 -53t-52 -22t-52 22t-22 53v236q-30 15 -50 41z M471 786h-241q-28 0 -48.5 18.5t-20.5 46.5q0 27 20.5 45.5t48.5 18.5h241q29 0 49 -18.5t20 -45.5q0 -28 -20 -46.5t-49 -18.5z" />
<glyph d="M612 484v-419q0 -29 -20.5 -50t-48.5 -21q-23 0 -41 13.5t-26 34.5q-60 -51 -157 -51q-122 0 -199 75.5t-77 199.5q0 131 84.5 214t213.5 83q87 0 144 -39q22 29 58 29q28 0 48.5 -20.5t20.5 -48.5zM340 119q78 0 132 54v223q-49 35 -116 35q-82 0 -129 -42t-47 -111 q0 -76 42.5 -117.5t117.5 -41.5zM496 208v-4q1 4 0 4zM508 355q3 -3 0 3v-3z" />
<glyph horiz-adv-x="697" d="M80 64v657q0 28 21 48.5t50 20.5q28 0 48.5 -20.5t20.5 -48.5v-203q65 45 153 45q127 0 204 -80t77 -199q0 -128 -84 -210.5t-208 -82.5q-91 0 -151 39q-20 -37 -60 -37q-29 0 -50 21t-21 50zM357 428q-81 0 -137 -51v-216q48 -38 121 -38q82 0 129 42.5t47 114.5 q0 63 -42.5 105.5t-117.5 42.5zM189 199q-1 1 -1 0t1 -4v4zM201 355v-1v1z" />
<glyph d="M612 721v-657q0 -29 -20.5 -50t-48.5 -21q-23 0 -41.5 14t-26.5 35q-60 -51 -156 -51q-122 0 -199 75.5t-77 199.5q0 131 84.5 214t213.5 83q75 0 131 -25v183q0 28 21 48.5t50 20.5q28 0 48.5 -20.5t20.5 -48.5zM340 119q78 0 132 54v228q-50 30 -116 30q-82 0 -129 -42 t-47 -111q0 -76 42.5 -117.5t117.5 -41.5zM496 208v-4q1 4 0 4zM508 368q2 -2 2 -1t-2 3v-2z" />
<glyph horiz-adv-x="660" d="M614 294q0 -35 -21 -57.5t-55 -22.5h-353q34 -98 167 -98q68 0 118 24q29 24 54 21t42.5 -18t17 -42t-23.5 -51q-28 -26 -87 -45.5t-126 -19.5q-134 0 -219 72.5t-85 210.5q0 121 80.5 208t213.5 87q131 0 204 -77t73 -192zM339 439q-57 0 -99 -30.5t-57 -81.5h296 q-7 49 -45.5 80.5t-94.5 31.5z" />
<glyph horiz-adv-x="690" d="M607 485v-406q0 -122 -83 -198.5t-222 -76.5q-106 0 -166 35q-38 19 -41.5 54t24.5 56t66 6q63 -24 136 -24q64 0 104.5 32.5t44.5 97.5q-59 -50 -151 -50q-122 0 -199 72t-77 193q0 127 86 207t215 80q87 0 139 -37q19 27 56 27q28 0 48 -19.5t20 -48.5zM340 139 q76 0 131 59v198q-44 35 -112 35q-82 0 -130.5 -39t-48.5 -104q0 -72 42.5 -110.5t117.5 -38.5z" />
<glyph horiz-adv-x="698" d="M80 -120v604q0 28 21 48.5t50 20.5q44 0 62 -40q67 50 160 50q127 0 204 -80t77 -199q0 -128 -84 -210.5t-208 -82.5q-85 0 -142 21v-132q0 -28 -20.5 -49t-48.5 -21q-29 0 -50 21t-21 49zM357 428q-81 0 -137 -51v-227q46 -27 121 -27q82 0 129 42.5t47 114.5 q0 63 -42.5 105.5t-117.5 42.5zM201 355v-1v1zM189 174v-1v1zM189 25v1q-1 0 0 -1z" />
<glyph horiz-adv-x="694" d="M612 484v-604q0 -28 -20.5 -49t-48.5 -21q-29 0 -50 21t-21 49v159q-59 -48 -153 -48q-122 0 -199 75.5t-77 199.5q0 131 84.5 214t213.5 83q87 0 144 -39q22 29 58 29q28 0 48.5 -20.5t20.5 -48.5zM340 119q78 0 132 54v223q-49 35 -116 35q-82 0 -129 -42t-47 -111 q0 -76 42.5 -117.5t117.5 -41.5zM496 208v-4q1 4 0 4zM508 355q3 -3 0 3v-3z" />
<glyph horiz-adv-x="1098" d="M906 140q29 24 54 21t42 -18t16.5 -42t-22.5 -51q-28 -26 -87 -45.5t-126 -19.5q-152 0 -232 91q-49 -42 -101.5 -63.5t-130.5 -21.5q-122 0 -199 75.5t-77 199.5q0 131 84.5 214t213.5 83q89 0 147 -41q21 31 57 31q22 0 40 -14t24 -36q67 60 173 60q122 0 194.5 -77.5 t72.5 -191.5q0 -35 -21 -57.5t-54 -22.5h-353q34 -98 167 -98q68 0 118 24zM490 198q-12 50 -12 111v83q-51 39 -122 39q-82 0 -129 -42t-47 -111q0 -76 41.5 -117.5t109.5 -41.5q93 0 159 79zM775 439q-64 0 -104 -29.5t-53 -82.5h297q-7 49 -45.5 80.5t-94.5 31.5z M508 355q3 -3 0 3v-3z" />
<glyph horiz-adv-x="1088" d="M898 140q29 24 54 21t42.5 -18t17 -42t-23.5 -51q-28 -26 -87 -45.5t-126 -19.5q-156 0 -232 94q-75 -94 -221 -94q-125 0 -202 78t-77 211q0 129 80.5 209t215.5 80q141 0 211 -97q79 97 215 97q131 0 204 -77t73 -192q0 -35 -21 -57.5t-55 -22.5h-353q34 -98 167 -98 q68 0 118 24zM329 109q73 0 113.5 45t40.5 120q0 79 -39 122t-105 43q-77 0 -118 -45t-41 -120q0 -81 39 -123t110 -42zM767 439q-57 0 -99 -30.5t-57 -81.5h296q-7 49 -45.5 80.5t-94.5 31.5z" />
<glyph horiz-adv-x="698" d="M80 -120v841q0 28 21 48.5t50 20.5q28 0 48.5 -20.5t20.5 -48.5v-203q65 45 153 45q127 0 204 -80t77 -199q0 -128 -84 -210.5t-208 -82.5q-85 0 -142 21v-132q0 -28 -20.5 -49t-48.5 -21q-29 0 -50 21t-21 49zM357 428q-81 0 -137 -51v-227q46 -27 121 -27 q82 0 129 42.5t47 114.5q0 63 -42.5 105.5t-117.5 42.5zM201 355v-1v1zM189 174v-1v1zM189 25v1q-1 0 0 -1z" />
<glyph horiz-adv-x="1328" d="M43 273q0 123 80 206.5t221 83.5q16 0 48 -4q-2 16 -2 25q0 87 62.5 146.5t163.5 59.5h166q28 0 48.5 -20.5t20.5 -48.5v-560q48 -38 121 -38q82 0 129 42t47 111q0 73 -44 113.5t-122 40.5q-7 0 -22 3q-36 -2 -56 26t-9 60.5t51 40.5q24 3 52 3q122 0 204.5 -77 t82.5 -199q0 -131 -84.5 -213.5t-213.5 -82.5q-91 0 -145 39q-20 -37 -60 -37q-29 0 -50 21t-21 50v605h-61q-66 0 -96.5 -29t-30.5 -77q0 -41 26 -73l6 -6h1v-1l13 -17q21 -33 14 -58.5t-25.5 -41t-47.5 -11.5t-51 30q-43 47 -116 47q-78 0 -119.5 -42t-41.5 -117 t41.5 -116t114.5 -41q48 0 84 20t54 49q16 26 41.5 33t45 -5.5t29 -35t-6.5 -55.5q-27 -56 -97.5 -96.5t-155.5 -40.5q-132 0 -210.5 78.5t-78.5 209.5zM820 199q-2 1 -2 0t2 -4v4z" />
<glyph horiz-adv-x="1329" d="M43 273q0 123 80 206.5t221 83.5q16 0 48 -4q-2 16 -2 25q0 87 62.5 146.5t163.5 59.5h160h6q28 0 48.5 -20.5t20.5 -49.5v-225q79 61 168 61q104 0 170.5 -64t66.5 -162v-265q0 -29 -20.5 -50t-48.5 -21q-29 0 -50 21t-21 50v228q0 63 -34.5 94.5t-94.5 31.5 q-78 0 -136 -67v-287q0 -29 -20.5 -50t-48.5 -21q-29 0 -50 21t-21 50v604h-61q-66 0 -96.5 -29t-30.5 -77q0 -41 26 -73l6 -6h1v-1l13 -17q21 -33 14 -58.5t-25.5 -41t-47.5 -11.5t-51 30q-43 47 -116 47q-78 0 -119.5 -42t-41.5 -117t41.5 -116t114.5 -41q48 0 84 20 t54 49q16 26 41.5 33t45 -5.5t29 -35t-6.5 -55.5q-27 -56 -97.5 -96.5t-155.5 -40.5q-132 0 -210.5 78.5t-78.5 209.5z" />
<glyph horiz-adv-x="1256" d="M43 273q0 123 80 206.5t221 83.5q16 0 48 -4q-2 16 -2 25q0 87 62.5 146.5t163.5 59.5h166q28 0 48.5 -20.5t20.5 -49.5v-655q0 -29 -20.5 -50t-48.5 -21q-29 0 -50 21t-21 50v604h-61q-66 0 -96.5 -29t-30.5 -77q0 -41 26 -73l6 -6h1v-1l13 -17q21 -33 14 -58.5 t-25.5 -41t-47.5 -11.5t-51 30q-43 47 -116 47q-78 0 -119.5 -42t-41.5 -117t41.5 -116t114.5 -41q48 0 84 20t54 49q16 26 41.5 33t45 -5.5t29 -35t-6.5 -55.5q-27 -56 -97.5 -96.5t-155.5 -40.5q-132 0 -210.5 78.5t-78.5 209.5zM1100 531q21 21 50 21q46 0 60.5 -41.5 t-15.5 -71.5l-159 -165l163 -160q34 -31 18 -75.5t-63 -44.5q-27 0 -49 22l-204 200q-19 19 -19 53q0 32 19 53z" />
<glyph horiz-adv-x="1329" d="M43 273q0 123 80 206.5t221 83.5q28 0 61 -5q-3 14 -3 27q0 80 63 142.5t161 62.5q99 0 162 -69.5t63 -181.5v-50v-5v-334q46 -27 121 -27q82 0 129 42t47 111q0 73 -44 113.5t-122 40.5q-7 0 -22 3q-36 -2 -56 26t-9 60.5t51 40.5q24 3 52 3q122 0 204.5 -77t82.5 -199 q0 -131 -84.5 -213.5t-213.5 -82.5q-78 0 -136 20v-131q0 -28 -20.5 -49t-48.5 -21q-29 0 -50 21t-21 49v604v5v57q0 53 -23 82t-62 29q-43 0 -66.5 -26.5t-23.5 -62.5q0 -18 8 -42t16 -39l8 -15l-2 -2l3 -4q21 -33 14 -58.5t-25.5 -41t-47.5 -11.5t-51 30q-43 47 -116 47 q-78 0 -119.5 -42t-41.5 -117t41.5 -116t114.5 -41q48 0 84 20t54 49q16 26 41.5 33t45 -5.5t29 -35t-6.5 -55.5q-27 -56 -97.5 -96.5t-155.5 -40.5q-132 0 -210.5 78.5t-78.5 209.5zM820 174v-1v1zM820 26q-1 0 0 -1v1z" />
<glyph horiz-adv-x="1121" d="M999 419h-120v-184q0 -61 18 -83t57 -22q29 0 53 11q34 16 56 5.5t32.5 -30.5t2.5 -46t-33 -41q-52 -34 -128 -34q-94 0 -146 56.5t-52 167.5v200h-37q-30 0 -50.5 18t-20.5 46t20.5 46.5t50.5 18.5h37v7q0 43 -27 72.5t-75 29.5q-47 0 -75 -29.5t-28 -71.5 q0 -18 8.5 -39t17.5 -33l8 -12l-2 -2l3 -4q21 -33 14 -58.5t-25.5 -41t-47.5 -11.5t-51 30q-43 47 -116 47q-78 0 -119.5 -42t-41.5 -117t41.5 -116t114.5 -41q48 0 84 20t54 49q16 26 41.5 33t45 -5.5t29 -35t-6.5 -55.5q-27 -56 -97.5 -96.5t-155.5 -40.5 q-132 0 -210.5 78.5t-78.5 209.5q0 123 80 206.5t221 83.5q25 0 57 -5q-1 5 -1 15q0 82 65.5 149.5t168.5 67.5q102 0 173.5 -67t71.5 -172v-3h120q30 0 50.5 -18.5t20.5 -46.5t-20.5 -46t-50.5 -18z" />
<glyph horiz-adv-x="1328" d="M43 273q0 123 80 206.5t221 83.5q16 0 48 -4q-2 16 -2 25q0 87 62.5 146.5t163.5 59.5h166q28 0 48.5 -20.5t20.5 -48.5v-203q65 45 153 45q127 0 204 -80t77 -199q0 -128 -84 -210.5t-208 -82.5q-91 0 -151 39q-20 -37 -60 -37q-29 0 -50 21t-21 50v605h-61 q-66 0 -96.5 -29t-30.5 -77q0 -41 26 -73l6 -6h1v-1l13 -17q21 -33 14 -58.5t-25.5 -41t-47.5 -11.5t-51 30q-43 47 -116 47q-78 0 -119.5 -42t-41.5 -117t41.5 -116t114.5 -41q48 0 84 20t54 49q16 26 41.5 33t45 -5.5t29 -35t-6.5 -55.5q-27 -56 -97.5 -96.5t-155.5 -40.5 q-132 0 -210.5 78.5t-78.5 209.5zM988 428q-81 0 -137 -51v-216q48 -38 121 -38q82 0 129 42.5t47 114.5q0 63 -42.5 105.5t-117.5 42.5zM820 199q-2 1 -2 0t2 -4v4zM832 356q-2 -3 -2 -3.5t2 1.5v2z" />
<glyph horiz-adv-x="1329" d="M43 273q0 123 80 206.5t221 83.5q28 0 61 -5q-3 14 -3 27q0 80 63 142.5t161 62.5q99 0 162 -69.5t63 -181.5v-21q65 45 153 45q127 0 204 -80t77 -199q0 -128 -84 -210.5t-208 -82.5q-85 0 -142 21v-132q0 -28 -20.5 -49t-48.5 -21q-29 0 -50 21t-21 49v666q0 53 -23 82 t-62 29q-43 0 -66.5 -26.5t-23.5 -62.5q0 -18 8 -42t16 -39l8 -15l-2 -2l3 -4q21 -33 14 -58.5t-25.5 -41t-47.5 -11.5t-51 30q-43 47 -116 47q-78 0 -119.5 -42t-41.5 -117t41.5 -116t114.5 -41q48 0 84 20t54 49q16 26 41.5 33t45 -5.5t29 -35t-6.5 -55.5 q-27 -56 -97.5 -96.5t-155.5 -40.5q-132 0 -210.5 78.5t-78.5 209.5zM988 428q-81 0 -137 -51v-227q46 -27 121 -27q82 0 129 42.5t47 114.5q0 63 -42.5 105.5t-117.5 42.5zM820 174v-1v1zM832 355v-1v1zM820 25v1q-1 0 0 -1z" />
<glyph horiz-adv-x="1297" d="M68 49q-21 17 -27.5 38t1 38t22.5 29t39 11.5t48 -15.5q19 -13 62.5 -25.5t83.5 -12.5q58 0 85.5 15t27.5 37q0 24 -37 34t-89.5 14.5t-105 16t-89.5 50.5t-37 106q0 77 66 127.5t209 50.5q13 0 39 -2q-4 16 -4 37q0 80 61 136t162 56h166q28 0 48.5 -20.5t20.5 -48.5 v-560q48 -38 121 -38q82 0 129 42t47 111q0 73 -44 113.5t-122 40.5q-7 0 -22 3q-36 -2 -56 26t-9 60.5t51 40.5q24 3 52 3q122 0 204.5 -77t82.5 -199q0 -131 -84.5 -213.5t-213.5 -82.5q-91 0 -145 39q-20 -37 -60 -37q-29 0 -50 21t-21 50v605h-61q-124 0 -124 -93 q0 -34 18 -62q22 -18 25 -43t-10.5 -42.5t-37 -25.5t-54.5 8q-46 24 -128 24q-116 0 -116 -49q0 -25 37 -35t89 -14.5t104.5 -15t89.5 -49.5t37 -107q0 -80 -67 -130t-179 -50q-168 0 -235 64zM789 199q-1 1 -1 0t1 -4v4z" />
<glyph horiz-adv-x="1298" d="M68 49q-21 17 -27.5 38t1 38t22.5 29t39 11.5t48 -15.5q19 -13 62.5 -25.5t83.5 -12.5q58 0 85.5 15t27.5 37q0 24 -37 34t-89.5 14.5t-105 16t-89.5 50.5t-37 106q0 77 66 127.5t209 50.5q13 0 39 -2q-4 16 -4 37q0 80 61 136t162 56h166q28 0 48.5 -20.5t20.5 -49.5 v-225q79 61 168 61q104 0 170.5 -64t66.5 -162v-265q0 -29 -20.5 -50t-48.5 -21q-29 0 -50 21t-21 50v228q0 63 -34.5 94.5t-94.5 31.5q-78 0 -136 -67v-287q0 -29 -20.5 -50t-48.5 -21q-29 0 -50 21t-21 50v604h-61q-124 0 -124 -93q0 -34 18 -62q22 -18 25 -43 t-10.5 -42.5t-37 -25.5t-54.5 8q-46 24 -128 24q-116 0 -116 -49q0 -25 37 -35t89 -14.5t104.5 -15t89.5 -49.5t37 -107q0 -80 -67 -130t-179 -50q-168 0 -235 64z" />
<glyph horiz-adv-x="1225" d="M68 49q-21 17 -27.5 38t1 38t22.5 29t39 11.5t48 -15.5q19 -13 62.5 -25.5t83.5 -12.5q58 0 85.5 15t27.5 37q0 24 -37 34t-89.5 14.5t-105 16t-89.5 50.5t-37 106q0 77 66 127.5t209 50.5q13 0 39 -2q-4 16 -4 37q0 80 61 136t162 56h166q28 0 48.5 -20.5t20.5 -49.5 v-655q0 -29 -20.5 -50t-48.5 -21q-29 0 -50 21t-21 50v604h-61q-124 0 -124 -93q0 -34 18 -62q22 -18 25 -43t-10.5 -42.5t-37 -25.5t-54.5 8q-46 24 -128 24q-116 0 -116 -49q0 -25 37 -35t89 -14.5t104.5 -15t89.5 -49.5t37 -107q0 -80 -67 -130t-179 -50q-168 0 -235 64z M1069 531q21 21 50 21q46 0 60.5 -41.5t-15.5 -71.5l-159 -165l163 -160q34 -31 18 -75.5t-63 -44.5q-27 0 -49 22l-204 200q-19 19 -19 53q0 32 19 53z" />
<glyph horiz-adv-x="1298" d="M68 49q-21 17 -27.5 38t1 38t22.5 29t39 11.5t48 -15.5q19 -13 62.5 -25.5t83.5 -12.5q58 0 85.5 15t27.5 37q0 24 -37 34t-89.5 14.5t-105 16t-89.5 50.5t-37 106q0 77 66 127.5t209 50.5q22 0 46 -3q-2 9 -2 28q0 87 61 144.5t158 57.5q105 0 167.5 -69t62.5 -169v-63 v-5v-334q46 -27 121 -27q82 0 129 42t47 111q0 73 -44 113.5t-122 40.5q-7 0 -22 3q-36 -2 -56 26t-9 60.5t51 40.5q24 3 52 3q122 0 204.5 -77t82.5 -199q0 -131 -84.5 -213.5t-213.5 -82.5q-78 0 -136 20v-131q0 -28 -20.5 -49t-48.5 -21q-29 0 -50 21t-21 49v680 q0 41 -25.5 69t-64.5 28t-63.5 -25t-24.5 -59q0 -31 14 -62q27 -25 21.5 -57.5t-33.5 -45.5t-68 3q-46 24 -128 24q-116 0 -116 -49q0 -25 37 -35t89 -14.5t104.5 -15t89.5 -49.5t37 -107q0 -80 -67 -130t-179 -50q-168 0 -235 64zM789 174v-1v1zM789 26q-1 0 0 -1v1z" />
<glyph horiz-adv-x="1297" d="M68 49q-21 17 -27.5 38t1 38t22.5 29t39 11.5t48 -15.5q19 -13 62.5 -25.5t83.5 -12.5q58 0 85.5 15t27.5 37q0 24 -37 34t-89.5 14.5t-105 16t-89.5 50.5t-37 106q0 77 66 127.5t209 50.5q13 0 39 -2q-4 16 -4 37q0 80 61 136t162 56h160h6q28 0 48.5 -20.5t20.5 -48.5 v-203q65 45 153 45q127 0 204 -80t77 -199q0 -128 -84 -210.5t-208 -82.5q-91 0 -151 39q-20 -37 -60 -37q-29 0 -50 21t-21 50v605h-61q-124 0 -124 -93q0 -34 18 -62q22 -18 25 -43t-10.5 -42.5t-37 -25.5t-54.5 8q-46 24 -128 24q-116 0 -116 -49q0 -25 37 -35t89 -14.5 t104.5 -15t89.5 -49.5t37 -107q0 -80 -67 -130t-179 -50q-168 0 -235 64zM957 428q-81 0 -137 -51v-216q48 -38 121 -38q82 0 129 42.5t47 114.5q0 63 -42.5 105.5t-117.5 42.5zM789 199q-1 1 -1 0t1 -4v4zM801 355v-1v1z" />
<glyph horiz-adv-x="1298" d="M68 49q-21 17 -27.5 38t1 38t22.5 29t39 11.5t48 -15.5q19 -13 62.5 -25.5t83.5 -12.5q58 0 85.5 15t27.5 37q0 24 -37 34t-89.5 14.5t-105 16t-89.5 50.5t-37 106q0 77 66 127.5t209 50.5q22 0 46 -3q-2 9 -2 28q0 87 61 144.5t158 57.5q105 0 167.5 -69t62.5 -169v-34 q65 45 153 45q127 0 204 -80t77 -199q0 -128 -84 -210.5t-208 -82.5q-85 0 -142 21v-132q0 -28 -20.5 -49t-48.5 -21q-29 0 -50 21t-21 49v680q0 41 -25.5 69t-64.5 28t-63.5 -25t-24.5 -59q0 -31 14 -62q27 -25 21.5 -57.5t-33.5 -45.5t-68 3q-46 24 -128 24 q-116 0 -116 -49q0 -25 37 -35t89 -14.5t104.5 -15t89.5 -49.5t37 -107q0 -80 -67 -130t-179 -50q-168 0 -235 64zM957 428q-81 0 -137 -51v-227q46 -27 121 -27q82 0 129 42.5t47 114.5q0 63 -42.5 105.5t-117.5 42.5zM789 174v-1v1zM801 355v-1v1zM789 25v1q-1 0 0 -1z " />
<glyph d="M491 716l-77 -77q-19 -20 -42 -24t-39.5 6.5t-26.5 27.5t-6.5 40t22.5 43l73 80q19 20 42.5 24t41.5 -6.5t29.5 -27.5t7.5 -41t-25 -45zM612 484v-419q0 -29 -20.5 -50t-48.5 -21q-23 0 -41 13.5t-26 34.5q-60 -51 -157 -51q-122 0 -199 75.5t-77 199.5q0 131 84.5 214 t213.5 83q87 0 144 -39q22 29 58 29q28 0 48.5 -20.5t20.5 -48.5zM340 119q78 0 132 54v223q-49 35 -116 35q-82 0 -129 -42t-47 -111q0 -76 42.5 -117.5t117.5 -41.5zM496 208v-4q1 4 0 4zM508 355q3 -3 0 3v-3z" />
<glyph d="M612 484v-419q0 -29 -20.5 -50t-48.5 -21q-23 0 -41 13.5t-26 34.5q-60 -51 -157 -51q-122 0 -199 75.5t-77 199.5q0 131 84.5 214t213.5 83q87 0 144 -39q22 29 58 29q28 0 48.5 -20.5t20.5 -48.5zM340 119q78 0 132 54v223q-49 35 -116 35q-82 0 -129 -42t-47 -111 q0 -76 42.5 -117.5t117.5 -41.5zM496 208v-4q1 4 0 4zM508 355q3 -3 0 3v-3zM189 747q0 30 19 49t45 19q25 0 41.5 -17t16.5 -39q0 -39 47 -39q53 0 53 39q0 22 16.5 39t41.5 17q26 0 44.5 -19t18.5 -49q0 -60 -46 -104t-128 -44q-78 0 -123.5 42.5t-45.5 105.5z" />
<glyph d="M358 702q-7 0 -9 -5l-62 -71q-16 -18 -36 -22.5t-35.5 3t-26.5 21t-9.5 33.5t16.5 38l64 72q37 45 98 45q60 0 98 -45l64 -72q15 -18 16.5 -38t-9.5 -33.5t-26.5 -21t-35.5 -3t-35 22.5l-63 71q-2 5 -9 5zM612 484v-419q0 -29 -20.5 -50t-48.5 -21q-23 0 -41 13.5 t-26 34.5q-60 -51 -157 -51q-122 0 -199 75.5t-77 199.5q0 131 84.5 214t213.5 83q87 0 144 -39q22 29 58 29q28 0 48.5 -20.5t20.5 -48.5zM340 119q78 0 132 54v223q-49 35 -116 35q-82 0 -129 -42t-47 -111q0 -76 42.5 -117.5t117.5 -41.5zM496 208v-4q1 4 0 4zM508 355 q3 -3 0 3v-3z" />
<glyph d="M143 706q0 40 28.5 68t67.5 28q40 0 68 -28t28 -68t-28 -68t-68 -28q-39 0 -67.5 28t-28.5 68zM378 706q0 40 28.5 68t67.5 28q40 0 68 -28t28 -68t-28 -68t-68 -28q-39 0 -67.5 28t-28.5 68zM612 484v-419q0 -29 -20.5 -50t-48.5 -21q-23 0 -41 13.5t-26 34.5 q-60 -51 -157 -51q-122 0 -199 75.5t-77 199.5q0 131 84.5 214t213.5 83q87 0 144 -39q22 29 58 29q28 0 48.5 -20.5t20.5 -48.5zM340 119q78 0 132 54v223q-49 35 -116 35q-82 0 -129 -42t-47 -111q0 -76 42.5 -117.5t117.5 -41.5zM496 208v-4q1 4 0 4zM508 355q3 -3 0 3 v-3z" />
<glyph d="M612 484v-419q0 -29 -20.5 -50t-48.5 -21q-23 0 -41 13.5t-26 34.5q-60 -51 -157 -51q-122 0 -199 75.5t-77 199.5q0 131 84.5 214t213.5 83q87 0 144 -39q22 29 58 29q28 0 48.5 -20.5t20.5 -48.5zM340 119q78 0 132 54v223q-49 35 -116 35q-82 0 -129 -42t-47 -111 q0 -76 42.5 -117.5t117.5 -41.5zM496 208v-4q1 4 0 4zM508 355q3 -3 0 3v-3zM306 639l-77 77q-21 21 -25 45t7.5 41t29.5 27.5t41.5 6.5t42.5 -24l73 -80q19 -20 22.5 -43t-6.5 -40t-26.5 -27.5t-39.5 -6.5t-42 24z" />
<glyph d="M612 484v-419q0 -29 -20.5 -50t-48.5 -21q-23 0 -41 13.5t-26 34.5q-60 -51 -157 -51q-122 0 -199 75.5t-77 199.5q0 131 84.5 214t213.5 83q87 0 144 -39q22 29 58 29q28 0 48.5 -20.5t20.5 -48.5zM340 119q78 0 132 54v223q-49 35 -116 35q-82 0 -129 -42t-47 -111 q0 -76 42.5 -117.5t117.5 -41.5zM496 208v-4q1 4 0 4zM508 355q3 -3 0 3v-3zM478 654h-241q-28 0 -48.5 18.5t-20.5 46.5q0 27 20.5 45.5t48.5 18.5h241q29 0 49 -18.5t20 -45.5q0 -28 -20 -46.5t-49 -18.5z" />
<glyph d="M612 484v-419q0 -23 -14.5 -42t-35.5 -26q-24 -16 -38.5 -39.5t-14.5 -42.5q0 -31 27 -31q14 0 38 6q27 12 49 -1t22.5 -35t-19.5 -43q-32 -27 -93 -27q-60 0 -96.5 31.5t-36.5 84.5q0 67 52 125q-55 -34 -133 -34q-122 0 -199 75.5t-77 199.5q0 131 84.5 214t213.5 83 q87 0 144 -39q22 29 58 29q28 0 48.5 -20.5t20.5 -48.5zM340 119q78 0 132 54v223q-49 35 -116 35q-82 0 -129 -42t-47 -111q0 -76 42.5 -117.5t117.5 -41.5zM496 208v-4q1 4 0 4zM508 355q3 -3 0 3v-3z" />
<glyph d="M235 735q0 53 35.5 88t87.5 35t87.5 -35t35.5 -88t-35.5 -88t-87.5 -35t-87.5 35t-35.5 88zM331 735q0 -12 8 -19.5t19 -7.5q12 0 19.5 7.5t7.5 19.5t-7.5 19.5t-19.5 7.5q-11 0 -19 -7.5t-8 -19.5zM612 484v-419q0 -29 -20.5 -50t-48.5 -21q-23 0 -41 13.5t-26 34.5 q-60 -51 -157 -51q-122 0 -199 75.5t-77 199.5q0 131 84.5 214t213.5 83q87 0 144 -39q22 29 58 29q28 0 48.5 -20.5t20.5 -48.5zM340 119q78 0 132 54v223q-49 35 -116 35q-82 0 -129 -42t-47 -111q0 -76 42.5 -117.5t117.5 -41.5zM496 208v-4q1 4 0 4zM508 355q3 -3 0 3 v-3z" />
<glyph d="M612 484v-419q0 -29 -20.5 -50t-48.5 -21q-23 0 -41 13.5t-26 34.5q-60 -51 -157 -51q-122 0 -199 75.5t-77 199.5q0 131 84.5 214t213.5 83q87 0 144 -39q22 29 58 29q28 0 48.5 -20.5t20.5 -48.5zM340 119q78 0 132 54v223q-49 35 -116 35q-82 0 -129 -42t-47 -111 q0 -76 42.5 -117.5t117.5 -41.5zM170 673q0 53 34.5 89t88.5 36q57 0 105 -50q15 -15 20 -15q10 0 10 8q0 23 16 40t43 17q26 0 42.5 -17.5t16.5 -43.5q0 -53 -35 -88.5t-90 -35.5q-26 0 -48 9t-31.5 17t-26.5 25q-19 15 -20 15q-6 0 -6 -6q0 -29 -16.5 -44.5t-44.5 -15.5 q-25 0 -41.5 18t-16.5 42zM496 208v-4q1 4 0 4zM508 355q3 -3 0 3v-3z" />
<glyph horiz-adv-x="704" d="M612 721v-22h28q22 0 37 -15t15 -37t-15 -36t-37 -14h-28v-533q0 -29 -20.5 -50t-48.5 -21q-23 0 -41.5 14t-26.5 35q-60 -51 -156 -51q-122 0 -199 75.5t-77 199.5q0 131 84.5 214t213.5 83q75 0 131 -25v59h-61q-22 0 -36.5 14t-14.5 36t14.5 37t36.5 15h61v22 q0 28 21 48.5t50 20.5q28 0 48.5 -20.5t20.5 -48.5zM340 119q78 0 132 54v228q-50 30 -116 30q-82 0 -129 -42t-47 -111q0 -76 42.5 -117.5t117.5 -41.5zM496 208v-4q1 4 0 4zM508 368q2 -2 2 -1t-2 3v-2z" />
<glyph horiz-adv-x="717" d="M612 721v-657q0 -29 -20.5 -50t-48.5 -21q-23 0 -41.5 14t-26.5 35q-60 -51 -156 -51q-122 0 -199 75.5t-77 199.5q0 131 84.5 214t213.5 83q75 0 131 -25v183q0 28 21 48.5t50 20.5q28 0 48.5 -20.5t20.5 -48.5zM340 119q78 0 132 54v228q-50 30 -116 30q-82 0 -129 -42 t-47 -111q0 -76 42.5 -117.5t117.5 -41.5zM780 682l-25 -94q-7 -27 -24.5 -42.5t-37 -15.5t-37 8.5t-26 30t-2.5 48.5l21 99q7 28 25 44t39 16t39 -9t27 -32t1 -53zM496 208v-4q1 4 0 4zM508 368q2 -2 2 -1t-2 3v-2z" />
<glyph horiz-adv-x="660" d="M614 294q0 -35 -21 -57.5t-55 -22.5h-353q34 -98 167 -98q68 0 118 24q29 24 54 21t42.5 -18t17 -42t-23.5 -51q-28 -26 -87 -45.5t-126 -19.5q-134 0 -219 72.5t-85 210.5q0 121 80.5 208t213.5 87q131 0 204 -77t73 -192zM471 716l-77 -77q-19 -20 -42 -24t-39.5 6.5 t-26.5 27.5t-6.5 40t22.5 43l73 80q19 20 42.5 24t41.5 -6.5t29.5 -27.5t7.5 -41t-25 -45zM339 439q-57 0 -99 -30.5t-57 -81.5h296q-7 49 -45.5 80.5t-94.5 31.5z" />
<glyph horiz-adv-x="660" d="M614 294q0 -35 -21 -57.5t-55 -22.5h-353q34 -98 167 -98q68 0 118 24q29 24 54 21t42.5 -18t17 -42t-23.5 -51q-28 -26 -87 -45.5t-126 -19.5q-134 0 -219 72.5t-85 210.5q0 121 80.5 208t213.5 87q131 0 204 -77t73 -192zM168 747q0 30 19 49t45 19q25 0 41.5 -17 t16.5 -39q0 -39 47 -39q53 0 53 39q0 22 16.5 39t41.5 17q26 0 44.5 -19t18.5 -49q0 -60 -46 -104t-128 -44q-78 0 -123.5 42.5t-45.5 105.5zM339 439q-57 0 -99 -30.5t-57 -81.5h296q-7 49 -45.5 80.5t-94.5 31.5z" />
<glyph horiz-adv-x="660" d="M614 294q0 -35 -21 -57.5t-55 -22.5h-353q34 -98 167 -98q68 0 118 24q29 24 54 21t42.5 -18t17 -42t-23.5 -51q-28 -26 -87 -45.5t-126 -19.5q-134 0 -219 72.5t-85 210.5q0 121 80.5 208t213.5 87q131 0 204 -77t73 -192zM337 729q7 0 9 5l63 71q15 18 35 22.5t35.5 -3 t26.5 -21t9.5 -33.5t-16.5 -38l-64 -72q-37 -45 -98 -45q-60 0 -98 45l-64 72q-15 18 -16.5 38t9.5 33.5t26.5 21t35.5 3t36 -22.5l62 -71q2 -5 9 -5zM339 439q-57 0 -99 -30.5t-57 -81.5h296q-7 49 -45.5 80.5t-94.5 31.5z" />
<glyph horiz-adv-x="660" d="M614 294q0 -35 -21 -57.5t-55 -22.5h-353q34 -98 167 -98q68 0 118 24q29 24 54 21t42.5 -18t17 -42t-23.5 -51q-28 -26 -87 -45.5t-126 -19.5q-134 0 -219 72.5t-85 210.5q0 121 80.5 208t213.5 87q131 0 204 -77t73 -192zM337 702q-7 0 -9 -5l-62 -71 q-16 -18 -36 -22.5t-35.5 3t-26.5 21t-9.5 33.5t16.5 38l64 72q37 45 98 45q60 0 98 -45l64 -72q15 -18 16.5 -38t-9.5 -33.5t-26.5 -21t-35.5 -3t-35 22.5l-63 71q-2 5 -9 5zM339 439q-57 0 -99 -30.5t-57 -81.5h296q-7 49 -45.5 80.5t-94.5 31.5z" />
<glyph horiz-adv-x="660" d="M614 294q0 -35 -21 -57.5t-55 -22.5h-353q34 -98 167 -98q68 0 118 24q29 24 54 21t42.5 -18t17 -42t-23.5 -51q-28 -26 -87 -45.5t-126 -19.5q-134 0 -219 72.5t-85 210.5q0 121 80.5 208t213.5 87q131 0 204 -77t73 -192zM358 706q0 40 28.5 68t67.5 28q40 0 68 -28 t28 -68t-28 -68t-68 -28q-39 0 -67.5 28t-28.5 68zM123 706q0 40 28.5 68t67.5 28q40 0 68 -28t28 -68t-28 -68t-68 -28q-39 0 -67.5 28t-28.5 68zM339 439q-57 0 -99 -30.5t-57 -81.5h296q-7 49 -45.5 80.5t-94.5 31.5z" />
<glyph horiz-adv-x="660" d="M614 294q0 -35 -21 -57.5t-55 -22.5h-353q34 -98 167 -98q68 0 118 24q29 24 54 21t42.5 -18t17 -42t-23.5 -51q-28 -26 -87 -45.5t-126 -19.5q-134 0 -219 72.5t-85 210.5q0 121 80.5 208t213.5 87q131 0 204 -77t73 -192zM241 705q0 40 28 68t68 28t68 -28t28 -68 t-28 -68t-68 -28t-68 28t-28 68zM339 439q-57 0 -99 -30.5t-57 -81.5h296q-7 49 -45.5 80.5t-94.5 31.5z" />
<glyph horiz-adv-x="660" d="M614 294q0 -35 -21 -57.5t-55 -22.5h-353q34 -98 167 -98q68 0 118 24q29 24 54 21t42.5 -18t17 -42t-23.5 -51q-28 -26 -87 -45.5t-126 -19.5q-134 0 -219 72.5t-85 210.5q0 121 80.5 208t213.5 87q131 0 204 -77t73 -192zM285 639l-77 77q-21 21 -25 45t7.5 41 t29.5 27.5t41.5 6.5t42.5 -24l73 -80q19 -20 22.5 -43t-6.5 -40t-26.5 -27.5t-39.5 -6.5t-42 24zM339 439q-57 0 -99 -30.5t-57 -81.5h296q-7 49 -45.5 80.5t-94.5 31.5z" />
<glyph horiz-adv-x="660" d="M614 294q0 -35 -21 -57.5t-55 -22.5h-353q34 -98 167 -98q68 0 118 24q29 24 54 21t42.5 -18t17 -42t-23.5 -51q-28 -26 -87 -45.5t-126 -19.5q-134 0 -219 72.5t-85 210.5q0 121 80.5 208t213.5 87q131 0 204 -77t73 -192zM458 654h-241q-28 0 -48.5 18.5t-20.5 46.5 q0 27 20.5 45.5t48.5 18.5h241q29 0 49 -18.5t20 -45.5q0 -28 -20 -46.5t-49 -18.5zM339 439q-57 0 -99 -30.5t-57 -81.5h296q-7 49 -45.5 80.5t-94.5 31.5z" />
<glyph horiz-adv-x="660" d="M614 294q0 -35 -21 -57.5t-55 -22.5h-353q34 -98 167 -98q68 0 118 24q29 24 54 21t42.5 -18t17 -42t-23.5 -51q-28 -26 -87 -45.5t-126 -19.5q-134 0 -219 72.5t-85 210.5q0 121 80.5 208t213.5 87q131 0 204 -77t73 -192zM149 673q0 53 34.5 89t88.5 36q57 0 105 -50 q15 -15 20 -15q10 0 10 8q0 23 16 40t43 17q26 0 42.5 -17.5t16.5 -43.5q0 -53 -35 -88.5t-90 -35.5q-26 0 -48 9t-31.5 17t-26.5 25q-19 15 -20 15q-6 0 -6 -6q0 -29 -16.5 -44.5t-44.5 -15.5q-25 0 -41.5 18t-16.5 42zM339 439q-57 0 -99 -30.5t-57 -81.5h296 q-7 49 -45.5 80.5t-94.5 31.5z" />
<glyph horiz-adv-x="660" d="M614 294q0 -35 -21 -57.5t-55 -22.5h-353q34 -98 167 -98q68 0 118 24q29 24 54 21t42.5 -18t17 -42t-23.5 -51q-49 -45 -149 -60q-25 -15 -40 -39t-15 -44q0 -31 27 -31q14 0 38 6q27 12 49 -1t22.5 -35t-19.5 -43q-32 -27 -93 -27q-60 0 -96.5 31.5t-36.5 84.5 q0 52 31 99q-107 16 -171 87t-64 190q0 121 80.5 208t213.5 87q131 0 204 -77t73 -192zM339 439q-57 0 -99 -30.5t-57 -81.5h296q-7 49 -45.5 80.5t-94.5 31.5z" />
<glyph horiz-adv-x="691" d="M607 485v-406q0 -122 -83 -198.5t-222 -76.5q-106 0 -166 35q-38 19 -41.5 54t24.5 56t66 6q63 -24 136 -24q64 0 104.5 32.5t44.5 97.5q-59 -50 -151 -50q-122 0 -199 72t-77 193q0 127 86 207t215 80q87 0 139 -37q19 27 56 27q28 0 48 -19.5t20 -48.5zM340 139 q76 0 131 59v198q-44 35 -112 35q-82 0 -130.5 -39t-48.5 -104q0 -72 42.5 -110.5t117.5 -38.5zM191 747q0 30 19 49t45 19q25 0 41.5 -17t16.5 -39q0 -39 47 -39q53 0 53 39q0 22 16.5 39t41.5 17q26 0 44.5 -19t18.5 -49q0 -60 -46 -104t-128 -44q-78 0 -123.5 42.5 t-45.5 105.5z" />
<glyph horiz-adv-x="691" d="M607 485v-406q0 -122 -83 -198.5t-222 -76.5q-106 0 -166 35q-38 19 -41.5 54t24.5 56t66 6q63 -24 136 -24q64 0 104.5 32.5t44.5 97.5q-59 -50 -151 -50q-122 0 -199 72t-77 193q0 127 86 207t215 80q87 0 139 -37q19 27 56 27q28 0 48 -19.5t20 -48.5zM340 139 q76 0 131 59v198q-44 35 -112 35q-82 0 -130.5 -39t-48.5 -104q0 -72 42.5 -110.5t117.5 -38.5zM360 702q-7 0 -9 -5l-62 -71q-16 -18 -36 -22.5t-35.5 3t-26.5 21t-9.5 33.5t16.5 38l64 72q37 45 98 45q60 0 98 -45l64 -72q15 -18 16.5 -38t-9.5 -33.5t-26.5 -21t-35.5 -3 t-35 22.5l-63 71q-2 5 -9 5z" />
<glyph horiz-adv-x="691" d="M607 485v-406q0 -122 -83 -198.5t-222 -76.5q-106 0 -166 35q-38 19 -41.5 54t24.5 56t66 6q63 -24 136 -24q64 0 104.5 32.5t44.5 97.5q-59 -50 -151 -50q-122 0 -199 72t-77 193q0 127 86 207t215 80q87 0 139 -37q19 27 56 27q28 0 48 -19.5t20 -48.5zM340 139 q76 0 131 59v198q-44 35 -112 35q-82 0 -130.5 -39t-48.5 -104q0 -72 42.5 -110.5t117.5 -38.5zM440 764l-25 -95q-7 -27 -24.5 -42t-37 -15t-37 8.5t-26 29.5t-2.5 48l21 100q7 27 25 43t39 16t39 -9t27 -32t1 -52z" />
<glyph horiz-adv-x="691" d="M607 485v-406q0 -122 -83 -198.5t-222 -76.5q-106 0 -166 35q-38 19 -41.5 54t24.5 56t66 6q63 -24 136 -24q64 0 104.5 32.5t44.5 97.5q-59 -50 -151 -50q-122 0 -199 72t-77 193q0 127 86 207t215 80q87 0 139 -37q19 27 56 27q28 0 48 -19.5t20 -48.5zM340 139 q76 0 131 59v198q-44 35 -112 35q-82 0 -130.5 -39t-48.5 -104q0 -72 42.5 -110.5t117.5 -38.5zM264 705q0 40 28 68t68 28t68 -28t28 -68t-28 -68t-68 -28t-68 28t-28 68z" />
<glyph horiz-adv-x="634" d="M220 -97l40 95q-65 21 -91 84l-145 367q-16 37 4.5 70.5t59.5 33.5q48 0 66 -42l147 -385q1 -7 11 -9l169 393q8 19 25.5 30.5t38.5 11.5q39 0 59.5 -31.5t6.5 -65.5l-270 -606q-17 -37 -54.5 -39.5t-60.5 26t-6 67.5zM431 654h-241q-28 0 -48.5 18.5t-20.5 46.5 q0 27 20.5 45.5t48.5 18.5h241q29 0 49 -18.5t20 -45.5q0 -28 -20 -46.5t-49 -18.5z" />
<glyph horiz-adv-x="1098" d="M906 140q29 24 54 21t42 -18t16.5 -42t-22.5 -51q-28 -26 -87 -45.5t-126 -19.5q-152 0 -232 91q-49 -42 -101.5 -63.5t-130.5 -21.5q-122 0 -199 75.5t-77 199.5q0 131 84.5 214t213.5 83q89 0 147 -41q21 31 57 31q22 0 40 -14t24 -36q67 60 173 60q122 0 194.5 -77.5 t72.5 -191.5q0 -35 -21 -57.5t-54 -22.5h-353q34 -98 167 -98q68 0 118 24zM490 198q-12 50 -12 111v83q-51 39 -122 39q-82 0 -129 -42t-47 -111q0 -76 41.5 -117.5t109.5 -41.5q93 0 159 79zM680 716l-77 -77q-19 -20 -42 -24t-39.5 6.5t-26.5 27.5t-6.5 40t22.5 43l73 80 q19 20 42.5 24t41.5 -6.5t29.5 -27.5t7.5 -41t-25 -45zM775 439q-64 0 -104 -29.5t-53 -82.5h297q-7 49 -45.5 80.5t-94.5 31.5zM508 355q3 -3 0 3v-3z" />
<glyph horiz-adv-x="1098" d="M906 140q29 24 54 21t42 -18t16.5 -42t-22.5 -51q-28 -26 -87 -45.5t-126 -19.5q-152 0 -232 91q-49 -42 -101.5 -63.5t-130.5 -21.5q-122 0 -199 75.5t-77 199.5q0 131 84.5 214t213.5 83q89 0 147 -41q21 31 57 31q22 0 40 -14t24 -36q67 60 173 60q122 0 194.5 -77.5 t72.5 -191.5q0 -35 -21 -57.5t-54 -22.5h-353q34 -98 167 -98q68 0 118 24zM490 198q-12 50 -12 111v83q-51 39 -122 39q-82 0 -129 -42t-47 -111q0 -76 41.5 -117.5t109.5 -41.5q93 0 159 79zM667 654h-241q-28 0 -48.5 18.5t-20.5 46.5q0 27 20.5 45.5t48.5 18.5h241 q29 0 49 -18.5t20 -45.5q0 -28 -20 -46.5t-49 -18.5zM775 439q-64 0 -104 -29.5t-53 -82.5h297q-7 49 -45.5 80.5t-94.5 31.5zM508 355q3 -3 0 3v-3z" />
<glyph horiz-adv-x="726" d="M366 715q145 0 233 -98.5t88 -266.5q0 -163 -88.5 -264t-239.5 -101q-143 0 -231.5 99t-88.5 266q0 162 88 263.5t239 101.5zM366 578q-85 0 -134.5 -63t-49.5 -165q0 -106 49 -167.5t128 -61.5q85 0 135 63t50 166q0 107 -48.5 167.5t-129.5 60.5zM264 349q0 41 29 70 t69 29q41 0 70 -29t29 -70t-29 -70t-70 -29q-40 0 -69 29t-29 70z" />
<glyph horiz-adv-x="747" d="M679 235q0 -105 -82.5 -177.5t-215.5 -72.5q-149 0 -239.5 94.5t-90.5 266.5q0 162 108 265.5t297 103.5q88 0 166 -37q29 -15 38 -42.5t-2.5 -49t-35.5 -33.5t-60 5q-70 26 -117 26q-104 0 -170.5 -51t-80.5 -139q106 74 228 74q120 0 188.5 -63.5t68.5 -169.5zM415 337 q-119 0 -210 -86q21 -65 69.5 -101t121.5 -36q67 0 108.5 36t41.5 85t-35.5 75.5t-95.5 26.5z" />
<glyph horiz-adv-x="747" d="M54 472q0 100 83 171.5t216 71.5q149 0 239 -90.5t90 -261.5q0 -170 -99 -274t-282 -104q-101 0 -178 38q-28 15 -37 42t2.5 49t35 33.5t59.5 -5.5q72 -26 118 -26q193 0 232 162q-95 -51 -194 -51q-139 0 -212 66t-73 179zM348 358q94 0 190 56q-12 83 -61.5 128 t-129.5 45q-70 0 -111.5 -34t-41.5 -81q0 -57 36.5 -85.5t117.5 -28.5z" />
<glyph horiz-adv-x="730" d="M368 715q145 0 233 -98.5t88 -266.5q0 -163 -88.5 -264t-239.5 -101q-143 0 -231.5 99t-88.5 266q0 162 88 263.5t239 101.5zM368 578q-85 0 -134.5 -63t-49.5 -165q0 -106 49 -167.5t128 -61.5q85 0 135 63t50 166q0 107 -48.5 167.5t-129.5 60.5zM266 349q0 41 29 70 t69 29q41 0 70 -29t29 -70t-29 -70t-70 -29q-40 0 -69 29t-29 70z" />
<glyph horiz-adv-x="730" d="M368 715q145 0 233 -98.5t88 -266.5q0 -163 -88.5 -264t-239.5 -101q-143 0 -231.5 99t-88.5 266q0 162 88 263.5t239 101.5zM368 578q-85 0 -134.5 -63t-49.5 -165q0 -106 49 -167.5t128 -61.5q85 0 135 63t50 166q0 107 -48.5 167.5t-129.5 60.5z" />
<glyph horiz-adv-x="730" d="M577 0h-434q-29 0 -49.5 20.5t-20.5 48.5q0 29 20.5 50t49.5 21h144v361l-87 -58q-20 -12 -42 -11.5t-37 14.5t-23 31.5t-1 40t30 38.5l184 132q25 18 50 18q30 0 51 -20.5t21 -52.5v-493h144q29 0 50 -21t21 -50q0 -28 -21 -48.5t-50 -20.5z" />
<glyph horiz-adv-x="730" d="M485 242l-173 -108h260q30 0 49.5 -18.5t19.5 -48.5t-19.5 -48.5t-49.5 -18.5h-429q-42 0 -63.5 26t-14 61t40.5 57l324 218q75 49 75 113q0 47 -34 77t-97 30q-99 0 -165 -87q-16 -20 -38.5 -26t-41 2t-32 23t-13 39.5t17.5 49.5q37 58 113.5 95t158.5 37 q133 0 204.5 -69t71.5 -166q0 -75 -41 -130.5t-124 -107.5z" />
<glyph horiz-adv-x="730" d="M355 282q-41 0 -62.5 25.5t-17 57t29.5 50.5l169 122q7 5 7 14q0 7 -5 11.5t-11 4.5h-340q-30 0 -49.5 18t-19.5 48q0 31 19.5 49t49.5 18h356q68 0 109.5 -38.5t41.5 -95.5q0 -68 -63 -116l-83 -62q72 -21 111 -68.5t39 -112.5q0 -91 -84 -156.5t-229 -65.5 q-67 0 -141.5 22t-107.5 57q-22 24 -20 52.5t21.5 45t46.5 21t56 -18.5q63 -43 155 -43q68 0 111 24.5t43 61.5q0 75 -132 75z" />
<glyph horiz-adv-x="730" d="M578 633v-370h43q29 0 50 -19.5t21 -48.5t-21 -47t-50 -18h-43v-62q0 -31 -21.5 -52.5t-51.5 -21.5t-51.5 21.5t-21.5 52.5v62h-246q-70 0 -108.5 39.5t-38.5 104.5q0 41 16 67l185 322q23 43 67 43q43 0 63 -34.5t-4 -76.5l-178 -308q-2 -3 -2 -8q0 -7 5 -11.5t11 -4.5 h230v370q0 30 21.5 51.5t51.5 21.5t51.5 -21.5t21.5 -51.5z" />
<glyph horiz-adv-x="730" d="M94 86q-22 28 -17.5 54t20 43.5t43.5 17.5t53 -23q34 -33 69.5 -47t90.5 -14q68 0 111.5 33t43.5 81t-37.5 81.5t-114.5 33.5q-49 0 -129 -20q-55 -17 -91.5 6.5t-36.5 72.5v223q0 30 20.5 51t50.5 21h400q28 0 48 -20t20 -48q0 -29 -20 -48.5t-48 -19.5h-338v-106 q70 14 137 14q138 0 211 -67t73 -166q0 -106 -82.5 -180t-225.5 -74q-79 0 -148 26.5t-103 74.5z" />
<glyph horiz-adv-x="730" d="M679 235q0 -105 -83 -177.5t-216 -72.5q-146 0 -237.5 92.5t-91.5 263.5q0 162 109.5 268t294.5 106q87 0 167 -37q38 -20 41 -58t-27.5 -60t-73.5 -2q-72 26 -118 26q-116 0 -188 -65.5t-72 -171.5q0 -108 54 -170.5t151 -62.5q67 0 111.5 36t44.5 85t-35 75.5t-95 26.5 q-45 0 -85 -20q-30 -16 -53 -6t-36.5 29t-8 45.5t32.5 43.5q56 39 156 39q120 0 189 -63.5t69 -169.5z" />
<glyph horiz-adv-x="730" d="M679 235q0 -105 -83 -177.5t-216 -72.5q-149 0 -239 94.5t-90 266.5q0 162 107.5 265.5t296.5 103.5q87 0 167 -37q38 -20 41 -58t-27.5 -60t-73.5 -2q-72 26 -118 26q-105 0 -171.5 -51t-79.5 -140q106 75 228 75q120 0 189 -63.5t69 -169.5zM415 337q-120 0 -211 -86 q21 -65 69.5 -101t121.5 -36q67 0 108.5 36t41.5 85t-35 75.5t-95 26.5z" />
<glyph horiz-adv-x="730" d="M176 108l304 436q1 2 1 7q0 7 -5 11.5t-11 4.5h-334q-30 0 -49.5 18t-19.5 48q0 31 19.5 49t49.5 18h351q70 0 110 -39.5t40 -104.5q0 -50 -33 -99l-301 -430q-22 -33 -63 -33q-46 0 -64.5 39.5t5.5 74.5z" />
<glyph horiz-adv-x="730" d="M365 -15q-162 0 -241.5 56t-79.5 150q0 133 140 164q-119 41 -119 163q0 81 78.5 139t221.5 58t221.5 -58t78.5 -139q0 -122 -119 -163q140 -33 140 -164q0 -94 -79.5 -150t-241.5 -56zM365 112q79 0 127 26t48 69q0 40 -48 64t-127 26q-79 -2 -127 -26t-48 -64 q0 -43 48 -69t127 -26zM365 400q154 16 154 100q0 37 -37 62.5t-117 25.5t-117 -25.5t-37 -62.5q0 -84 154 -100z" />
<glyph horiz-adv-x="730" d="M52 469q0 101 82.5 173.5t215.5 72.5q149 0 239 -90.5t90 -261.5q0 -170 -99 -274t-282 -104q-102 0 -178 38q-38 20 -41 58t27 59.5t74 1.5q70 -26 118 -26q125 0 185 65.5t60 181.5q0 106 -53.5 165t-146.5 59q-70 0 -111.5 -34t-41.5 -81q0 -57 37 -85.5t118 -28.5 q27 0 67 5q28 7 49.5 -7.5t28.5 -37t-4 -46.5t-41 -34q-41 -11 -109 -11q-139 0 -211.5 65t-72.5 177z" />
<glyph horiz-adv-x="730" d="M51 472q0 100 83 171.5t216 71.5q149 0 239 -90.5t90 -261.5q0 -170 -99 -274t-282 -104q-102 0 -178 38q-38 20 -41 58t27 59.5t74 1.5q70 -26 118 -26q193 0 232 163q-94 -52 -194 -52q-139 0 -212 66t-73 179zM345 358q95 0 190 57q-12 82 -62 127t-130 45 q-70 0 -111.5 -34t-41.5 -81q0 -57 37 -85.5t118 -28.5z" />
<glyph horiz-adv-x="836" d="M374 584q-78 0 -113 -25t-35 -63q0 -31 26.5 -55.5t72.5 -24.5h425q31 0 51 -18t20 -48t-20 -47.5t-51 -17.5h-68v-220q0 -29 -20.5 -50t-48.5 -21q-24 0 -42 14t-25 36q-88 -59 -212 -59q-129 0 -200 54.5t-71 152.5q0 45 25 88.5t75 72.5q-80 57 -80 150 q0 89 75.5 150.5t216.5 61.5q137 0 218 -55q21 -14 29 -34.5t2.5 -39t-18.5 -33.5t-34.5 -17t-44.5 8q-47 23 -78.5 31.5t-74.5 8.5zM343 118q137 0 200 78v89h-218q-56 0 -87 -22.5t-31 -60.5q0 -84 136 -84z" />
<glyph horiz-adv-x="1158" d="M868 5q-68 0 -113 45q-84 -64 -204 -64q-123 0 -200.5 75t-77.5 200q0 131 85 214t214 83q86 0 143 -39q22 29 58 29q28 0 48.5 -20.5t20.5 -48.5v-310q0 -22 14 -31t27 -9q34 0 54 45.5t20 115.5q0 156 -105 257t-263 101q-175 0 -279.5 -105.5t-104.5 -266.5 q0 -157 108 -261t276 -104q101 0 199 48q24 11 43.5 9t31.5 -16t16.5 -31t-2.5 -35t-24 -29q-104 -67 -264 -67q-226 0 -367.5 135.5t-141.5 344.5q0 137 63 250.5t180 181t266 67.5q207 0 348 -137t141 -342q0 -139 -59.5 -212t-150.5 -73zM702 163v14v213q-45 36 -115 36 q-82 0 -129.5 -42t-47.5 -111q0 -76 42 -117.5t112 -41.5q85 0 138 49z" />
<glyph horiz-adv-x="704" d="M619 636v-360q0 -28 -20.5 -49t-48.5 -21q-45 0 -64 42q-62 -45 -149 -45q-119 0 -194 68.5t-75 194.5q0 44 17 86.5t49.5 79.5t88.5 60t126 23q87 0 144 -38q21 29 57 29q28 0 48.5 -20.5t20.5 -49.5zM353 330q72 0 127 43v174q-50 42 -123 42q-71 0 -111.5 -36.5 t-40.5 -91.5q0 -58 37 -94.5t111 -36.5zM515 412v-3q3 6 0 3z" />
<glyph horiz-adv-x="160" d="M156 780l-25 -94q-7 -27 -24.5 -42.5t-37 -15.5t-37 8.5t-26 30t-2.5 48.5l21 99q7 28 25 44t39 16t39 -9t27 -32t1 -53z" />
<glyph horiz-adv-x="160" d="M156 -131l-25 -95q-7 -27 -24.5 -42t-37 -15t-37 8.5t-26 29.5t-2.5 48l21 100q7 27 25 43t39 16t39 -9t27 -32t1 -52z" />
</font>
</defs>
</svg>
